<svg id="Capa_1" enable-background="new 0 0 512 512" height="512" viewBox="0 0 512 512" width="512" xmlns="http://www.w3.org/2000/svg" xmlns:xlink="http://www.w3.org/1999/xlink"><linearGradient id="SVGID_1_" gradientUnits="userSpaceOnUse" x1="337.577" x2="228.577" y1="484" y2="123"><stop offset="0" stop-color="#c6d1ff"/><stop offset=".5834" stop-color="#e6d5f4"/><stop offset=".997" stop-color="#ffd9ec"/></linearGradient><linearGradient id="SVGID_2_" gradientUnits="userSpaceOnUse" x1="256" x2="256" y1="104.135" y2="264.319"><stop offset=".0028" stop-color="#ff7eb8" stop-opacity="0"/><stop offset="1" stop-color="#ff7eb8" stop-opacity=".6"/></linearGradient><g><g><path d="m471.476 135.543c-65.417-50.293-128.867-9.306-199.64-23.797-71.285-14.597-99.685-63.201-180.876-40.766-71.922 19.873-115.562 99.551-76.024 166.258 11.267 19.009 30.461 33.35 38.305 54.619 12.653 34.311-6.607 60.653-2.85 94.372 15.612 140.102 229.574 85.834 308.303 42.245 123.47-68.36 206.998-220.497 112.782-292.931z" fill="url(#SVGID_1_)"/></g><g><g><g><g><path d="m256 411.099-9.799-8.885v-153.995c0-5.522 4.477-10 10-10 5.522 0 10 4.478 10 10v153.995z" fill="#6583fe"/></g><g><path d="m266.201 303.683v-55.464c0-5.522-4.478-10-10-10-5.523 0-10 4.478-10 10v55.464z" fill="#4369fd"/></g><g><path d="m266.201 402.214c0 23.402-19.039 42.441-42.441 42.441s-42.441-19.039-42.441-42.441v-14.672c0-5.522 4.477-10 10-10 5.522 0 10 4.478 10 10v14.672c0 12.374 10.067 22.441 22.441 22.441s22.441-10.067 22.441-22.441z" fill="#01eca5"/></g><g><path d="m256.201 118.127c-5.523 0-10-4.478-10-10v-16.086c0-5.522 4.477-10 10-10 5.522 0 10 4.478 10 10v16.086c0 5.522-4.477 10-10 10z" fill="#6583fe"/></g><path d="m418.948 247.4c.975 4.997-5.352 8.084-8.674 4.226-4.728-5.491-10.427-9.491-16.564-9.491-9.383 0-17.741 9.99-23.165 19.613-1.932 3.428-6.817 3.428-8.75 0-5.424-9.623-13.783-19.613-23.165-19.613-9.383 0-17.748 9.991-23.174 19.615-1.932 3.426-6.815 3.426-8.746-.002-5.423-9.623-13.787-19.613-23.169-19.613s-17.741 9.99-23.165 19.613c-1.932 3.428-6.817 3.428-8.75 0-5.424-9.623-13.783-19.613-23.165-19.613-9.383 0-17.747 9.99-23.169 19.613-1.931 3.427-6.814 3.428-8.746.002-5.427-9.623-13.791-19.615-23.174-19.615-9.382 0-17.741 9.99-23.165 19.613-1.932 3.428-6.817 3.428-8.75 0-5.424-9.623-13.783-19.613-23.165-19.613-6.137 0-11.836 4-16.564 9.491-3.322 3.858-9.649.771-8.674-4.226 15.163-77.724 82.35-143.265 162.948-143.265s147.783 65.541 162.946 143.265z" fill="#ff5ba8"/><path d="m416.58 236.969c-7.3 2.81-15.23 4.34-23.52 4.34-36.33 0-65.78-29.45-65.78-65.78 0-16.66 6.19-31.86 16.39-43.45 35.41 24.36 61.92 62.37 72.91 104.89z" fill="#fe2c8f"/><path d="m338.63 242.139c-9.38 0-17.75 9.99-23.17 19.61-1.94 3.43-6.82 3.43-8.75 0-5.42-9.62-13.79-19.61-23.17-19.61s-17.74 9.99-23.17 19.61c-1.93 3.43-6.81 3.43-8.74 0-5.43-9.62-13.79-19.61-23.17-19.61s-17.75 9.99-23.17 19.61c-1.93 3.43-6.81 3.43-8.75 0-5.42-9.62-13.79-19.61-23.17-19.61 13.91-85.37 45.28-138 82.63-138s68.72 52.63 82.63 138z" fill="#ff7eb8"/></g><g><g fill="#2d58e0"><path d="m113.943 130.379c-2.762 0-5-2.238-5-5v-9.206c0-2.762 2.238-5 5-5s5 2.238 5 5v9.206c0 2.761-2.238 5-5 5z"/><path d="m144.177 92.95c-2.762 0-5-2.238-5-5v-9.207c0-2.762 2.238-5 5-5s5 2.238 5 5v9.207c0 2.762-2.238 5-5 5z"/><path d="m188.729 71.065c-2.762 0-5-2.238-5-5v-9.206c0-2.762 2.238-5 5-5s5 2.238 5 5v9.206c0 2.762-2.239 5-5 5z"/><path d="m118.943 64.391c-2.762 0-5-2.238-5-5v-9.206c0-2.762 2.238-5 5-5s5 2.238 5 5v9.206c0 2.762-2.238 5-5 5z"/></g><g><path d="m398.057 130.379c-2.762 0-5-2.238-5-5v-9.206c0-2.762 2.238-5 5-5s5 2.238 5 5v9.206c0 2.761-2.239 5-5 5z" fill="#2626bc"/><g fill="#2d58e0"><path d="m367.823 92.95c-2.762 0-5-2.238-5-5v-9.207c0-2.762 2.238-5 5-5s5 2.238 5 5v9.207c0 2.762-2.238 5-5 5z"/><path d="m323.272 71.065c-2.762 0-5-2.238-5-5v-9.206c0-2.762 2.238-5 5-5s5 2.238 5 5v9.206c0 2.762-2.239 5-5 5z"/><path d="m393.057 64.391c-2.762 0-5-2.238-5-5v-9.206c0-2.762 2.238-5 5-5s5 2.238 5 5v9.206c0 2.762-2.239 5-5 5z"/></g></g></g><path d="m418.948 247.4c.975 4.997-5.352 8.084-8.674 4.226-4.728-5.491-10.427-9.491-16.564-9.491-9.383 0-17.741 9.99-23.165 19.613-1.932 3.428-6.817 3.428-8.75 0-5.424-9.623-13.783-19.613-23.165-19.613-9.383 0-17.748 9.991-23.174 19.615-1.932 3.426-6.815 3.426-8.746-.002-5.423-9.623-13.787-19.613-23.169-19.613s-17.741 9.99-23.165 19.613c-1.932 3.428-6.817 3.428-8.75 0-5.424-9.623-13.783-19.613-23.165-19.613-9.383 0-17.747 9.99-23.169 19.613-1.931 3.427-6.814 3.428-8.746.002-5.427-9.623-13.791-19.615-23.174-19.615-9.382 0-17.741 9.99-23.165 19.613-1.932 3.428-6.817 3.428-8.75 0-5.424-9.623-13.783-19.613-23.165-19.613-6.137 0-11.836 4-16.564 9.491-3.322 3.858-9.649.771-8.674-4.226 15.163-77.724 82.35-143.265 162.948-143.265s147.783 65.541 162.946 143.265z" fill="url(#SVGID_2_)"/><g><g><ellipse cx="393.057" cy="153.423" fill="#02ffb3" rx="65.777" ry="65.777" transform="matrix(.23 -.973 .973 .23 153.432 500.716)"/><path d="m266.201 281.054h-25.703c-2.762 0-5 2.238-5 5s2.238 5 5 5h25.703z" fill="#2d58e0"/></g><g><path d="m383.814 188.776c-.219 0-.438-.009-.657-.029-2.818-.247-5.258-2.059-6.309-4.686l-8.117-20.294c-.164-.412-.558-.678-1.001-.678-4.143 0-7.5-3.358-7.5-7.5s3.357-7.5 7.5-7.5c6.612 0 12.473 3.967 14.929 10.107l2.607 6.516 26.748-43.098c2.185-3.52 6.809-4.601 10.327-2.418 3.52 2.185 4.602 6.808 2.417 10.328l-34.573 55.707c-1.376 2.217-3.794 3.545-6.371 3.545z" fill="#fff"/></g></g></g><path d="m196.038 330.346c-1.279 0-2.56-.488-3.535-1.465l-5.965-5.964-5.965 5.964c-1.951 1.953-5.119 1.953-7.07 0-1.953-1.952-1.953-5.118 0-7.07l9.5-9.5c1.951-1.953 5.119-1.953 7.07 0l9.5 9.5c1.953 1.952 1.953 5.118 0 7.07-.975.977-2.256 1.465-3.535 1.465z" fill="#ff7eb8"/><path d="m347.688 375.285c-1.279 0-2.56-.488-3.535-1.465l-5.965-5.964-5.965 5.964c-1.951 1.953-5.119 1.953-7.07 0-1.953-1.952-1.953-5.118 0-7.07l9.5-9.5c1.951-1.953 5.119-1.953 7.07 0l9.5 9.5c1.953 1.952 1.953 5.118 0 7.07-.976.976-2.256 1.465-3.535 1.465z" fill="#6583fe"/><path d="m95.281 169.879c-1.279 0-2.56-.488-3.535-1.465l-5.965-5.964-5.965 5.964c-1.951 1.953-5.119 1.953-7.07 0-1.953-1.952-1.953-5.118 0-7.07l9.5-9.5c1.951-1.953 5.119-1.953 7.07 0l9.5 9.5c1.953 1.952 1.953 5.118 0 7.07-.975.976-2.255 1.465-3.535 1.465z" fill="#ff7eb8"/><path d="m281.241 64.677c-3.713 0-7.427-1.413-10.253-4.24-5.654-5.653-5.654-14.852 0-20.505 5.652-5.654 14.853-5.654 20.506 0 5.654 5.653 5.654 14.852 0 20.505-2.826 2.827-6.54 4.24-10.253 4.24zm0-18.99c-1.152 0-2.305.438-3.183 1.315-1.754 1.755-1.754 4.609 0 6.364 1.756 1.754 4.609 1.754 6.365 0 1.754-1.755 1.754-4.609 0-6.364-.877-.876-2.029-1.315-3.182-1.315z" fill="#00eca2"/><path d="m138.799 367.881c-3.713 0-7.427-1.413-10.253-4.24-5.653-5.652-5.653-14.852-.001-20.506 5.655-5.655 14.855-5.653 20.507 0h.001c5.652 5.654 5.652 14.854-.001 20.506-2.826 2.827-6.54 4.24-10.253 4.24zm0-18.991c-1.152 0-2.305.439-3.183 1.315-1.754 1.755-1.754 4.61 0 6.365 1.756 1.754 4.609 1.754 6.365 0 1.754-1.755 1.754-4.61-.001-6.365-.876-.876-2.029-1.315-3.181-1.315z" fill="#6583fe"/></g></g></svg>