<svg id="Capa_1" enable-background="new 0 0 512 512" height="512" viewBox="0 0 512 512" width="512" xmlns="http://www.w3.org/2000/svg" xmlns:xlink="http://www.w3.org/1999/xlink"><linearGradient id="SVGID_1_" gradientUnits="userSpaceOnUse" x1="125.669" x2="334.669" y1="420.174" y2="150.174"><stop offset=".0112" stop-color="#dafced"/><stop offset=".761" stop-color="#cbdcfa"/><stop offset="1" stop-color="#c6d1ff"/></linearGradient><linearGradient id="lg1"><stop offset=".0028" stop-color="#ff7eb8" stop-opacity="0"/><stop offset="1" stop-color="#ff7eb8" stop-opacity=".6"/></linearGradient><linearGradient id="SVGID_2_" gradientUnits="userSpaceOnUse" x1="334.414" x2="334.414" xlink:href="#lg1" y1="277.533" y2="434.361"/><linearGradient id="SVGID_3_" gradientUnits="userSpaceOnUse" x1="177.585" x2="177.585" xlink:href="#lg1" y1="277.53" y2="434.36"/><g><g><path d="m38.145 134.71c19.974-57.707 57.562-157.818 137.712-129.893 31.204 10.872 41.003 52.164 72.37 57.311 29.626 4.861 54.704-24.255 82.89-29.777 35.014-6.859 72.067 2.317 85.37 36.48 15.916 40.874-30.997 86.737-19.655 124.061 18.708 61.564 87.863-40.471 100.229 58.88 17.304 139.025-136.801 386.519-240.619 182.998-52.643-103.199-107.816-30.825-189.876-82.161-77.922-48.745-53.805-144.565-28.421-217.899z" fill="url(#SVGID_1_)"/></g><g><g><g><g><path d="m240.6 160.323h30.8v151.57h-30.8z" fill="#8399fe"/><path d="m271.4 160.323v41.713c-5.02.79-10.17 1.19-15.4 1.19s-10.38-.4-15.4-1.19v-41.713z" fill="#6583fe"/><ellipse cx="256" cy="107.399" fill="#ff7eb8" rx="80.131" ry="80.131" transform="matrix(.11 -.994 .994 .11 121.068 350.018)"/><circle cx="256" cy="107.399" fill="#ffc4df" r="65.306"/><g><g><g><g><path d="m402.828 434.361h-136.828c-5.523 0-10-4.477-10-10v-136.828c0-5.523 4.477-10 10-10h136.828c5.523 0 10 4.477 10 10v136.828c0 5.523-4.477 10-10 10z" fill="#02ffb3"/><path d="m349.152 311.893h-29.477c-2.761 0-5-2.238-5-5v-29.36h39.477v29.36c0 2.762-2.238 5-5 5z" fill="#dcfdee"/></g></g><g><g><path d="m320.123 334.599h58.583c2.761 0 5-2.239 5-5s-2.239-5-5-5h-58.583c-2.761 0-5 2.239-5 5s2.238 5 5 5z" fill="#00d890"/></g><g><path d="m350.123 354.921h28.583c2.761 0 5-2.239 5-5s-2.239-5-5-5h-28.583c-2.761 0-5 2.239-5 5s2.238 5 5 5z" fill="#00d890"/></g><g><path d="m350.123 372.242h28.583c2.761 0 5-2.239 5-5s-2.239-5-5-5h-28.583c-2.761 0-5 2.239-5 5s2.238 5 5 5z" fill="#00d890"/></g></g></g><g><g><g><path d="m256 287.53v136.83c0 5.52-4.48 10-10 10h-136.83c-5.52 0-10-4.48-10-10v-136.83c0-5.52 4.48-10 10-10h136.83c5.52 0 10 4.48 10 10z" fill="#02ffb3"/><path d="m169.21 277.53c0 32.49-26.33 58.82-58.82 58.82-3.84 0-7.59-.37-11.22-1.07v-47.75c0-5.52 4.48-10 10-10z" fill="#01eca5"/><path d="m192.324 311.893h-29.477c-2.761 0-5-2.238-5-5v-29.36h39.477v29.36c0 2.762-2.239 5-5 5z" fill="#dcfdee"/><path d="m169.21 277.53c0 12.14-3.68 23.42-9.98 32.79-.86-.89-1.38-2.1-1.38-3.43v-29.36z" fill="#97ffd2"/></g></g><g><g><path d="m163.294 334.599h58.583c2.761 0 5-2.239 5-5s-2.239-5-5-5h-58.583c-2.761 0-5 2.239-5 5s2.239 5 5 5z" fill="#00d890"/></g><g><path d="m193.294 354.921h28.583c2.761 0 5-2.239 5-5s-2.239-5-5-5h-28.583c-2.761 0-5 2.239-5 5s2.239 5 5 5z" fill="#00d890"/></g><g><path d="m193.294 372.242h28.583c2.761 0 5-2.239 5-5s-2.239-5-5-5h-28.583c-2.761 0-5 2.239-5 5s2.239 5 5 5z" fill="#00d890"/></g></g></g></g><g><g><path d="m100.028 434.361h311.944c5.523 0 10 4.477 10 10v.371c0 16.569-13.431 30-30 30h-271.944c-16.569 0-30-13.431-30-30v-.371c0-5.523 4.477-10 10-10z" fill="#9fb0fe"/><path d="m337.5 434.361h42.02v40.371h-42.02z" fill="#8399fe"/></g><g fill="#ff5ba8"><path d="m325.602 459.225c0 2.583-2.094 4.678-4.678 4.678s-4.678-2.094-4.678-4.678 2.094-4.678 4.678-4.678 4.678 2.094 4.678 4.678z"/><path d="m310.801 459.225c0 2.583-2.094 4.678-4.678 4.678s-4.678-2.094-4.678-4.678 2.094-4.678 4.678-4.678 4.678 2.094 4.678 4.678z"/></g></g><g><path d="m278.549 134.948c-1.279 0-2.56-.488-3.535-1.464l-22.549-22.549c-1.953-1.953-1.953-5.119 0-7.071s5.12-1.952 7.071 0l22.549 22.549c1.953 1.953 1.953 5.119 0 7.071-.977.975-2.257 1.464-3.536 1.464z" fill="#ff5ba8"/></g><g fill="#6583fe"><g><path d="m261.272 54.679c0 2.912-2.36 5.272-5.272 5.272s-5.272-2.36-5.272-5.272 2.36-5.272 5.272-5.272 5.272 2.36 5.272 5.272z"/><path d="m261.272 161.767c0 2.912-2.36 5.272-5.272 5.272s-5.272-2.36-5.272-5.272 2.36-5.272 5.272-5.272 5.272 2.36 5.272 5.272z"/></g><g><path d="m233.794 59.217c1.456 2.521.592 5.746-1.93 7.202s-5.746.592-7.202-1.93c-1.456-2.521-.592-5.746 1.93-7.202s5.746-.592 7.202 1.93z"/><path d="m287.338 151.957c1.456 2.521.592 5.746-1.93 7.202-2.521 1.456-5.746.592-7.202-1.93-1.456-2.521-.592-5.746 1.93-7.202 2.521-1.455 5.746-.591 7.202 1.93z"/></g><g><ellipse cx="209.63" cy="81.451" rx="5.272" ry="5.272" transform="matrix(.457 -.889 .889 .457 41.363 230.666)"/><path d="m305.006 130.429c2.522 1.456 3.385 4.68 1.93 7.202-1.456 2.521-4.68 3.385-7.202 1.93-2.522-1.456-3.385-4.68-1.93-7.202 1.456-2.522 4.681-3.386 7.202-1.93z"/></g><g><path d="m278.206 59.217c-1.456 2.521-.592 5.746 1.93 7.202 2.521 1.456 5.746.592 7.202-1.93 1.456-2.521.592-5.746-1.93-7.202s-5.746-.592-7.202 1.93z"/><path d="m224.662 151.957c-1.456 2.521-.592 5.746 1.93 7.202 2.521 1.456 5.746.592 7.202-1.93 1.456-2.521.592-5.746-1.93-7.202-2.522-1.455-5.746-.591-7.202 1.93z"/></g><g><circle cx="302.37" cy="81.451" r="5.272"/><ellipse cx="209.63" cy="134.995" rx="5.272" ry="5.272" transform="matrix(.688 -.725 .725 .688 -32.595 194.115)"/></g><g><path d="m202.456 102.951c2.912 0 5.272 2.36 5.272 5.272s-2.36 5.272-5.272 5.272-5.272-2.36-5.272-5.272 2.36-5.272 5.272-5.272z"/><path d="m309.544 102.951c2.912 0 5.272 2.36 5.272 5.272s-2.36 5.272-5.272 5.272-5.272-2.36-5.272-5.272 2.36-5.272 5.272-5.272z"/></g></g></g></g><path d="m148.809 177.719c-3.713 0-7.426-1.413-10.253-4.24-5.653-5.654-5.653-14.852 0-20.506s14.853-5.653 20.506 0c5.653 5.654 5.653 14.853 0 20.506-2.826 2.827-6.54 4.24-10.253 4.24zm.001-18.991c-1.153 0-2.305.439-3.182 1.316-1.755 1.754-1.755 4.609 0 6.364 1.754 1.754 4.61 1.755 6.364 0 1.755-1.754 1.755-4.609 0-6.364-.878-.878-2.03-1.316-3.182-1.316z" fill="#ff7eb8"/><path d="m450.447 411.164c-3.714 0-7.427-1.413-10.253-4.24-5.654-5.654-5.654-14.853 0-20.506 5.652-5.652 14.853-5.654 20.505 0 5.654 5.654 5.654 14.852 0 20.506-2.826 2.827-6.539 4.24-10.252 4.24zm0-18.991c-1.152 0-2.305.439-3.183 1.316-1.754 1.754-1.754 4.609 0 6.364 1.756 1.754 4.608 1.756 6.364 0 1.754-1.754 1.754-4.609 0-6.364-.877-.877-2.029-1.316-3.181-1.316z" fill="#ff7eb8"/><path d="m182.309 200.605c-1.28 0-2.559-.488-3.536-1.464l-5.964-5.964-5.964 5.964c-1.953 1.952-5.118 1.952-7.071 0-1.953-1.953-1.953-5.119 0-7.071l9.5-9.5c1.953-1.952 5.118-1.952 7.071 0l9.5 9.5c1.953 1.953 1.953 5.119 0 7.071-.977.976-2.256 1.464-3.536 1.464z" fill="#00eca2"/><g fill="#6583fe"><path d="m377.958 71.602c-1.279 0-2.56-.488-3.535-1.464l-5.965-5.964-5.965 5.964c-1.951 1.952-5.119 1.952-7.07 0-1.953-1.953-1.953-5.119 0-7.071l9.5-9.5c1.951-1.952 5.119-1.952 7.07 0l9.5 9.5c1.953 1.953 1.953 5.119 0 7.071-.975.976-2.256 1.464-3.535 1.464z"/><path d="m74.306 346.643c-1.28 0-2.559-.488-3.536-1.464l-5.964-5.964-5.964 5.964c-1.953 1.952-5.118 1.952-7.071 0-1.953-1.953-1.953-5.119 0-7.071l9.5-9.5c1.953-1.952 5.118-1.952 7.071 0l9.5 9.5c1.953 1.953 1.953 5.119 0 7.071-.977.976-2.256 1.464-3.536 1.464z"/></g></g><g><g><ellipse cx="110.393" cy="258.396" fill="#ff7eb8" rx="58.817" ry="58.817" transform="matrix(.23 -.973 .973 .23 -166.454 306.469)"/></g><g fill="#fff"><path d="m108.115 233.39c-1.783-2.105-4.941-2.365-7.047-.579l-11.19 9.493v-5.68c0-2.761-2.238-5-5-5s-5 2.239-5 5v32.957c0 2.761 2.238 5 5 5s5-2.239 5-5v-5.68l11.19 9.493c.939.797 2.089 1.187 3.231 1.187 1.418 0 2.827-.6 3.815-1.766 1.787-2.105 1.527-5.261-.578-7.047l-14.93-12.666 14.93-12.666c2.107-1.785 2.366-4.94.579-7.046z"/><path d="m135.91 241.972c-1.001 0-1.928.301-2.71.807-1.987-1.042-4.242-1.64-6.637-1.64-7.91 0-14.346 6.436-14.346 14.346 0 7.911 6.436 14.346 14.346 14.346 1.515 0 2.975-.24 4.347-.677v4.374c0 2.397-1.95 4.346-4.347 4.346-1.273 0-2.478-.556-3.307-1.525-1.796-2.1-4.952-2.346-7.049-.552-2.1 1.794-2.347 4.95-.553 7.049 2.73 3.195 6.707 5.028 10.908 5.028 7.911 0 14.347-6.436 14.347-14.346v-26.558c.001-2.759-2.238-4.998-4.999-4.998zm-9.347 17.86c-2.397 0-4.346-1.95-4.346-4.346s1.949-4.346 4.346-4.346c2.396 0 4.347 1.95 4.347 4.346s-1.951 4.346-4.347 4.346z"/></g></g></g><path d="m402.828 434.361h-136.828c-5.523 0-10-4.477-10-10v-136.828c0-5.523 4.477-10 10-10h136.828c5.523 0 10 4.477 10 10v136.828c0 5.523-4.477 10-10 10z" fill="url(#SVGID_2_)"/><path d="m256 287.53v136.83c0 5.52-4.48 10-10 10h-136.83c-5.52 0-10-4.48-10-10v-136.83c0-5.52 4.48-10 10-10h136.83c5.52 0 10 4.48 10 10z" fill="url(#SVGID_3_)"/></g></svg>