<svg id="Capa_1" enable-background="new 0 0 512 512" height="512" viewBox="0 0 512 512" width="512" xmlns="http://www.w3.org/2000/svg" xmlns:xlink="http://www.w3.org/1999/xlink"><linearGradient id="SVGID_1_" gradientUnits="userSpaceOnUse" x1="513.711" x2="123.732" y1="100.614" y2="409.598"><stop offset="0" stop-color="#c6d1ff"/><stop offset=".5834" stop-color="#e6d5f4"/><stop offset=".997" stop-color="#ffd9ec"/></linearGradient><linearGradient id="SVGID_2_" gradientUnits="userSpaceOnUse" x1="251" x2="251" y1="83.29" y2="438.71"><stop offset=".0028" stop-color="#ff7eb8" stop-opacity="0"/><stop offset="1" stop-color="#ff7eb8" stop-opacity=".6"/></linearGradient><g><g><path d="m364.822 55.215c-69.098-27.035-164.784-16.764-217.662 31.51-37.336 34.085-8.439 43.8 17.016 106.17 18.424 45.14-164.176 38.927-164.176 120.495 0 94.299 132.251 76.423 181.329 87.218 75.036 16.504 140.496 78.242 220.668 70.103 69.795-7.086 96.403-61.855 106.109-124.642 18.082-116.976-26.329-245.094-143.284-290.854z" fill="url(#SVGID_1_)"/></g><g><g><g><path d="m428.71 93.29v335.42c0 5.53-4.47 10-10 10h-335.42c-5.53 0-10-4.47-10-10v-335.42c0-5.53 4.47-10 10-10h335.42c5.53 0 10 4.47 10 10z" fill="#02ffb3"/><path d="m428.71 93.29v161.78c-11.81 6.14-20.78 8.42-20.78 8.42s-77.08-19.57-77.08-98.8v-81.4h87.86c5.53 0 10 4.47 10 10z" fill="#01eca5"/><path d="m73.29 107.37h355.42v13.77h-355.42z" fill="#01eca5"/><path d="m285.263 201.303h-61.517c-2.761 0-5-2.239-5-5v-113.016h71.517v113.016c0 2.761-2.238 5-5 5z" fill="#dcfdee"/><path d="m245.62 83.29h17.76v118.01h-17.76z" fill="#97ffd2"/><g fill="#8399fe"><path d="m394.471 374.296h-58.617c-2.762 0-5-2.238-5-5v-15.127c0-2.761 2.238-5 5-5h58.617c2.761 0 5 2.239 5 5v15.127c0 2.761-2.239 5-5 5z"/><path d="m394.471 408.535h-58.617c-2.762 0-5-2.238-5-5v-15.127c0-2.761 2.238-5 5-5h58.617c2.761 0 5 2.239 5 5v15.127c0 2.761-2.239 5-5 5z"/></g><g fill="#00d890"><path d="m205.703 373.406c-2.108-9.745-9.916-17.188-19.428-19.158-.025-2.74-2.25-4.955-4.995-4.955-2.746 0-4.971 2.215-4.995 4.955-9.512 1.969-17.319 9.412-19.428 19.157-.32 1.478.046 3.021.995 4.197s2.38 1.86 3.892 1.86h14.537v16.286c0 .462-.376.838-.838.838s-.839-.376-.839-.838c0-2.761-2.239-5-5-5s-5 2.239-5 5c0 5.976 4.862 10.838 10.839 10.838 5.976 0 10.838-4.862 10.838-10.838v-16.286h14.537c1.512 0 2.942-.684 3.892-1.86.947-1.176 1.312-2.718.993-4.196zm-36.209-3.943c2.782-3.523 7.094-5.747 11.785-5.747s9.003 2.225 11.786 5.747z"/><path d="m134.228 350.056h-22.849c-2.761 0-5 2.239-5 5v10.527c0 7.313 4.806 13.519 11.424 15.64v15.365h-2.313c-2.761 0-5 2.239-5 5s2.239 5 5 5h14.626c2.761 0 5-2.239 5-5s-2.239-5-5-5h-2.313v-15.365c6.618-2.121 11.424-8.328 11.424-15.64v-10.527c.001-2.762-2.238-5-4.999-5zm-5 15.526c0 3.542-2.882 6.424-6.424 6.424-3.543 0-6.424-2.882-6.424-6.424v-5.527h12.849v5.527z"/><path d="m112.496 291.154v21.304c0 2.761 2.239 5 5 5s5-2.239 5-5v-21.304c.531.184 1.083.294 1.639.294 1.28 0 2.559-.488 3.536-1.464 1.953-1.953 1.953-5.119-.001-7.071l-6.639-6.639c-1.878-1.922-5.194-1.922-7.071 0l-6.639 6.639c-1.953 1.953-1.953 5.119 0 7.071 1.401 1.4 3.421 1.779 5.175 1.17z"/><path d="m142.737 291.154v21.304c0 2.761 2.239 5 5 5s5-2.239 5-5v-21.304c.531.184 1.083.294 1.639.294 1.28 0 2.56-.488 3.536-1.464 1.953-1.953 1.953-5.119-.001-7.071l-6.638-6.638c-1.874-1.926-5.196-1.921-7.072-.001l-6.639 6.639c-1.953 1.953-1.953 5.119 0 7.071 1.402 1.4 3.422 1.779 5.175 1.17z"/><path d="m159.376 327.104c0-2.761-2.239-5-5-5h-42.542c-2.761 0-5 2.239-5 5s2.239 5 5 5h42.542c2.762 0 5-2.239 5-5z"/></g></g><path d="m49.602 234.014c-1.28 0-2.559-.488-3.536-1.464l-5.964-5.964-5.964 5.964c-1.953 1.952-5.118 1.952-7.071 0-1.953-1.953-1.953-5.119 0-7.071l9.5-9.5c1.953-1.952 5.118-1.952 7.071 0l9.5 9.5c1.953 1.953 1.953 5.119 0 7.071-.977.975-2.256 1.464-3.536 1.464z" fill="#ff7eb8"/></g><path d="m399.47 206.58v122.16c0 2.76-2.24 5-5 5h-59.24c-2.76 0-5-2.24-5-5v-122.16c0-2.76 2.24-5 5-5h59.24c2.76 0 5 2.24 5 5z" fill="#fff"/><path d="m399.47 206.58v54.07c-15.52-6.01-48.25-22.58-62.15-59.07h57.15c2.76 0 5 2.24 5 5z" fill="#d2deff"/><g><g><g><path d="m385.1 223.39c0 2.76-2.24 5-5 5h-58.58c-2.77 0-5-2.24-5-5s2.23-5 5-5h58.58c2.76 0 5 2.24 5 5z" fill="#00d890"/></g><path d="m380.1 228.39h-26.93c-2.6-3.08-5.08-6.41-7.38-10h34.31c2.76 0 5 2.24 5 5s-2.24 5-5 5z" fill="#00b574"/><g><path d="m385.1 243.71c0 2.76-2.24 5-5 5h-28.58c-2.77 0-5-2.24-5-5s2.23-5 5-5h28.58c2.76 0 5 2.24 5 5z" fill="#9fb0fe"/></g><path d="m385.1 243.71c0 2.76-2.24 5-5 5h-3.81c-4.31-2.84-8.73-6.15-13.05-10h16.86c2.76 0 5 2.24 5 5z" fill="#8399fe"/><g><path d="m351.516 266.031h28.583c2.761 0 5-2.239 5-5s-2.239-5-5-5h-28.583c-2.761 0-5 2.239-5 5s2.239 5 5 5z" fill="#9fb0fe"/></g></g><g><g><path d="m351.516 294.299h28.583c2.761 0 5-2.239 5-5s-2.239-5-5-5h-28.583c-2.761 0-5 2.239-5 5s2.239 5 5 5z" fill="#9fb0fe"/></g><g><path d="m351.516 311.62h28.583c2.761 0 5-2.239 5-5s-2.239-5-5-5h-28.583c-2.761 0-5 2.239-5 5 0 2.762 2.239 5 5 5z" fill="#9fb0fe"/></g></g></g><path d="m428.71 93.29v335.42c0 5.53-4.47 10-10 10h-335.42c-5.53 0-10-4.47-10-10v-335.42c0-5.53 4.47-10 10-10h335.42c5.53 0 10 4.47 10 10z" fill="url(#SVGID_2_)"/><g><path d="m411.463 50.803c-1.953-1.953-5.118-1.953-7.071 0-5.336 5.335-12.572 8.333-20.117 8.333h-48.421c-2.761 0-5 2.239-5 5v75.914c0 79.224 77.074 98.8 77.074 98.8s77.074-19.576 77.074-98.8v-75.914c0-2.761-2.238-5-5-5h-48.421c-7.546 0-14.782-2.997-20.118-8.333z" fill="#8399fe"/><path d="m407.928 217.82c-6.099-2.267-16.874-7.018-27.373-15.316-19.708-15.578-29.701-36.591-29.701-62.454v-60.914h114.149v60.914c0 25.863-9.993 46.876-29.701 62.454-10.5 8.298-21.276 13.049-27.374 15.316z" fill="#ffa8cf"/><path d="m407.928 79.136h57.074v60.914c0 25.863-9.993 46.876-29.701 62.454-10.499 8.298-21.274 13.049-27.373 15.316z" fill="#ff7eb8"/></g><g><path d="m398.684 173.433c-.219 0-.438-.009-.657-.029-2.818-.247-5.258-2.059-6.309-4.686l-8.117-20.294c-.164-.412-.558-.678-1.001-.678-4.143 0-7.5-3.358-7.5-7.5s3.357-7.5 7.5-7.5c6.612 0 12.473 3.967 14.929 10.107l2.606 6.516 26.748-43.098c2.185-3.52 6.809-4.601 10.327-2.418 3.52 2.185 4.602 6.808 2.417 10.328l-34.573 55.707c-1.375 2.217-3.793 3.545-6.37 3.545z" fill="#fff"/></g><path d="m216.871 63.46c-1.28 0-2.559-.488-3.536-1.464l-5.964-5.964-5.964 5.964c-1.953 1.952-5.118 1.952-7.071 0-1.953-1.953-1.953-5.119 0-7.071l9.5-9.5c1.953-1.952 5.118-1.952 7.071 0l9.5 9.5c1.953 1.953 1.953 5.119 0 7.071-.977.976-2.256 1.464-3.536 1.464z" fill="#6583fe"/><path d="m44.516 419.964c-3.713 0-7.427-1.414-10.253-4.24-5.653-5.654-5.653-14.853 0-20.506 5.653-5.652 14.853-5.653 20.506 0 5.653 5.654 5.653 14.852 0 20.506-2.827 2.827-6.54 4.24-10.253 4.24zm0-18.991c-1.152 0-2.305.439-3.182 1.316-1.755 1.754-1.755 4.609 0 6.364 1.753 1.755 4.609 1.754 6.364 0s1.755-4.609 0-6.364c-.877-.877-2.03-1.316-3.182-1.316z" fill="#00eca2"/><path d="m460.502 283.66c-3.713 0-7.426-1.413-10.253-4.24-2.739-2.739-4.247-6.38-4.247-10.253s1.508-7.514 4.247-10.253c5.652-5.653 14.851-5.654 20.505 0 2.739 2.739 4.247 6.38 4.247 10.253s-1.508 7.515-4.248 10.253c-2.825 2.826-6.538 4.24-10.251 4.24zm0-18.991c-1.152 0-2.305.439-3.182 1.316-.851.85-1.318 1.98-1.318 3.182s.468 2.332 1.318 3.182c1.755 1.755 4.61 1.755 6.364 0 .851-.85 1.318-1.98 1.318-3.182s-.468-2.332-1.318-3.182c-.877-.878-2.03-1.316-3.182-1.316z" fill="#ff7eb8"/><path d="m44.516 197.383c-3.713 0-7.427-1.414-10.253-4.24-5.653-5.654-5.653-14.853 0-20.506 5.653-5.652 14.853-5.653 20.506 0 5.653 5.654 5.653 14.853 0 20.506-2.827 2.827-6.54 4.24-10.253 4.24zm0-18.991c-1.152 0-2.305.438-3.182 1.316-1.755 1.754-1.755 4.609 0 6.364 1.753 1.755 4.609 1.754 6.364 0s1.755-4.609 0-6.364c-.877-.877-2.03-1.316-3.182-1.316z" fill="#6583fe"/></g></g></svg>