<svg id="Capa_1" enable-background="new 0 0 512 512" height="512" viewBox="0 0 512 512" width="512" xmlns="http://www.w3.org/2000/svg" xmlns:xlink="http://www.w3.org/1999/xlink"><linearGradient id="SVGID_1_" gradientUnits="userSpaceOnUse" x1="125.669" x2="334.669" y1="420.174" y2="150.174"><stop offset=".0112" stop-color="#dafced"/><stop offset=".761" stop-color="#cbdcfa"/><stop offset="1" stop-color="#c6d1ff"/></linearGradient><linearGradient id="lg1"><stop offset=".0028" stop-color="#ff7eb8" stop-opacity="0"/><stop offset="1" stop-color="#ff7eb8" stop-opacity=".6"/></linearGradient><linearGradient id="SVGID_2_" gradientUnits="userSpaceOnUse" x1="336.203" x2="336.203" xlink:href="#lg1" y1="77.888" y2="483.317"/><linearGradient id="SVGID_3_" gradientUnits="userSpaceOnUse" x1="175.797" x2="175.797" xlink:href="#lg1" y1="28.683" y2="434.112"/><g><g><path d="m497.061 251.773c-12.366-99.351-81.521 2.685-100.228-58.88-11.342-37.324 35.571-83.187 19.655-124.062-13.303-34.163-50.356-43.339-85.37-36.48-28.186 5.521-53.264 34.638-82.89 29.777-31.368-5.147-41.166-46.439-72.37-57.311-80.152-27.925-117.739 72.186-137.713 129.893-25.383 73.334-49.5 169.154 28.422 217.901 82.06 51.335 137.233-21.039 189.876 82.161 103.816 203.52 257.922-43.974 240.618-182.999z" fill="url(#SVGID_1_)"/></g><g><g><path d="m450.98 256c0-77.922-45.718-145.171-111.791-176.397-11.823-5.587-25.429 3.169-25.429 16.246 0 6.89 3.942 13.196 10.172 16.14 53.945 25.493 91.258 80.387 91.258 144.011 0 78.949-57.464 144.462-132.855 157.009l2.789-2.789c6.936-6.936 7.151-18.502.086-25.307-6.851-6.6-17.756-6.522-24.511.233l-34.148 34.148c-3.282 3.282-5.126 7.733-5.126 12.375s1.844 9.093 5.126 12.375l34.148 34.148c3.417 3.417 7.896 5.125 12.374 5.125 4.525 0 9.05-1.744 12.48-5.233 6.787-6.903 6.42-18.115-.425-24.961l-3.781-3.781c95.707-12.426 169.633-94.255 169.633-193.342z" fill="#ff7eb8"/></g><path d="m285.448 67.957-34.148-34.148c-6.756-6.755-17.658-6.833-24.509-.235-7.065 6.805-6.851 18.372.085 25.309l3.775 3.775c-95.705 12.426-169.631 94.255-169.631 193.342 0 77.922 45.718 145.171 111.791 176.397 11.822 5.587 25.429-3.169 25.429-16.246 0-6.89-3.942-13.196-10.172-16.14-53.945-25.493-91.258-80.387-91.258-144.011 0-78.949 57.464-144.462 132.855-157.009l-2.795 2.795c-6.845 6.845-7.212 18.056-.425 24.959 3.43 3.489 7.956 5.234 12.482 5.234 4.479 0 8.958-1.709 12.374-5.126l34.148-34.148c3.282-3.282 5.125-7.733 5.125-12.375 0-4.64-1.844-9.092-5.126-12.373z" fill="#01eca5"/><g><g><g><g><g><path d="m217.412 287.773h-16.787c10.348-10.721 20.209-22.777 24.593-33.382 6.109-14.784 4.684-31.196-3.812-43.9-7.926-11.852-20.791-18.65-35.295-18.65-24.004 0-43.534 19.529-43.534 43.534 0 8.942 7.25 16.193 16.193 16.193 8.942 0 16.193-7.25 16.193-16.193 0-6.146 5.002-11.148 11.148-11.148 3.664 0 6.482 1.436 8.376 4.268 2.437 3.645 2.744 8.829.8 13.528-5.054 12.228-30.325 36.199-46.653 49.316-5.357 4.303-7.418 11.518-5.136 18 2.28 6.482 8.402 10.819 15.272 10.819h58.643c8.942 0 16.193-7.25 16.193-16.193-.002-8.941-7.252-16.192-16.194-16.192z" fill="#ff5ba8"/><path d="m329.12 208.32v95.36c0 8.94-7.25 16.19-16.2 16.19-8.94 0-16.19-7.25-16.19-16.19v-37.28h-34.4c-8.95 0-16.2-7.25-16.2-16.19v-41.89c0-8.94 7.25-16.19 16.2-16.19 8.94 0 16.19 7.25 16.19 16.19v25.7h18.21v-25.7c0-8.94 7.25-16.19 16.19-16.19 8.95 0 16.2 7.25 16.2 16.19z" fill="#ff5ba8"/><path d="m329.12 197.702v44.23c-5.56-5.72-8.98-13.52-8.98-22.12s3.42-16.4 8.98-22.11z" fill="#fe2c8f"/></g></g></g></g><g><ellipse cx="351.863" cy="209.138" fill="#6583fe" rx="31.725" ry="31.725" transform="matrix(.23 -.973 .973 .23 67.478 503.538)"/><path d="m359.653 194.526c-2.439 0-4.416 1.977-4.416 4.416v5.78h-6.748v-5.78c0-2.439-1.977-4.416-4.416-4.416s-4.416 1.977-4.416 4.416v20.393c0 2.439 1.977 4.416 4.416 4.416s4.416-1.977 4.416-4.416v-5.78h6.748v5.78c0 2.439 1.977 4.416 4.416 4.416s4.416-1.977 4.416-4.416v-20.393c0-2.439-1.977-4.416-4.416-4.416z" fill="#fff"/></g></g><path d="m453.647 112.639c-1.279 0-2.56-.488-3.535-1.465l-5.965-5.964-5.965 5.964c-1.951 1.953-5.119 1.953-7.07 0-1.953-1.952-1.953-5.118 0-7.07l9.5-9.5c1.951-1.953 5.119-1.953 7.07 0l9.5 9.5c1.953 1.952 1.953 5.118 0 7.07-.976.976-2.256 1.465-3.535 1.465z" fill="#00eca2"/><path d="m425.147 82.279c-1.279 0-2.56-.488-3.535-1.465l-5.965-5.964-5.965 5.964c-1.951 1.953-5.119 1.953-7.07 0-1.953-1.952-1.953-5.118 0-7.07l9.5-9.5c1.951-1.953 5.119-1.953 7.07 0l9.5 9.5c1.953 1.952 1.953 5.118 0 7.07-.976.977-2.256 1.465-3.535 1.465z" fill="#6583fe"/><path d="m53.839 396.807c-3.713 0-7.427-1.413-10.253-4.24-5.654-5.653-5.654-14.853 0-20.506 5.652-5.654 14.854-5.654 20.506 0 5.654 5.653 5.654 14.853 0 20.506-2.826 2.827-6.54 4.24-10.253 4.24zm0-18.992c-1.152 0-2.305.439-3.183 1.315-1.754 1.755-1.754 4.61 0 6.365 1.756 1.754 4.609 1.754 6.365 0 1.754-1.755 1.754-4.61 0-6.365-.877-.876-2.03-1.315-3.182-1.315z" fill="#ff7eb8"/><path d="m444.147 411.307c-3.713 0-7.427-1.413-10.253-4.24-5.654-5.653-5.654-14.853 0-20.506 5.652-5.654 14.854-5.654 20.506 0 5.654 5.653 5.654 14.853 0 20.506-2.827 2.827-6.541 4.24-10.253 4.24zm0-18.992c-1.152 0-2.305.439-3.183 1.315-1.754 1.755-1.754 4.61 0 6.365 1.756 1.754 4.609 1.754 6.365 0 1.754-1.755 1.754-4.61 0-6.365-.878-.876-2.03-1.315-3.182-1.315z" fill="#ff7eb8"/><path d="m103.321 423.286c-1.279 0-2.56-.488-3.535-1.465l-5.965-5.964-5.965 5.964c-1.951 1.953-5.119 1.953-7.07 0-1.953-1.952-1.953-5.118 0-7.07l9.5-9.5c1.951-1.953 5.119-1.953 7.07 0l9.5 9.5c1.953 1.952 1.953 5.118 0 7.07-.975.977-2.255 1.465-3.535 1.465z" fill="#6583fe"/></g><path d="m450.98 256c0-77.922-45.718-145.171-111.791-176.397-11.823-5.587-25.429 3.169-25.429 16.246 0 6.89 3.942 13.196 10.172 16.14 53.945 25.493 91.258 80.387 91.258 144.011 0 78.949-57.464 144.462-132.855 157.009l2.789-2.789c6.936-6.936 7.151-18.502.086-25.307-6.851-6.6-17.756-6.522-24.511.233l-34.148 34.148c-3.282 3.282-5.126 7.733-5.126 12.375s1.844 9.093 5.126 12.375l34.148 34.148c3.417 3.417 7.896 5.125 12.374 5.125 4.525 0 9.05-1.744 12.48-5.233 6.787-6.903 6.42-18.115-.425-24.961l-3.781-3.781c95.707-12.426 169.633-94.255 169.633-193.342z" fill="url(#SVGID_2_)"/><path d="m285.448 67.957-34.148-34.148c-6.756-6.755-17.658-6.833-24.509-.235-7.065 6.805-6.851 18.372.085 25.309l3.775 3.775c-95.705 12.426-169.631 94.255-169.631 193.342 0 77.922 45.718 145.171 111.791 176.397 11.822 5.587 25.429-3.169 25.429-16.246 0-6.89-3.942-13.196-10.172-16.14-53.945-25.493-91.258-80.387-91.258-144.011 0-78.949 57.464-144.462 132.855-157.009l-2.795 2.795c-6.845 6.845-7.212 18.056-.425 24.959 3.43 3.489 7.956 5.234 12.482 5.234 4.479 0 8.958-1.709 12.374-5.126l34.148-34.148c3.282-3.282 5.125-7.733 5.125-12.375 0-4.64-1.844-9.092-5.126-12.373z" fill="url(#SVGID_3_)"/></g></svg>