<svg id="Capa_1" enable-background="new 0 0 512 512" height="512" viewBox="0 0 512 512" width="512" xmlns="http://www.w3.org/2000/svg" xmlns:xlink="http://www.w3.org/1999/xlink"><linearGradient id="SVGID_1_" gradientUnits="userSpaceOnUse" x1="278.123" x2="234.123" y1="492.019" y2="106.018"><stop offset="0" stop-color="#c6d1ff"/><stop offset=".5834" stop-color="#e6d5f4"/><stop offset=".997" stop-color="#ffd9ec"/></linearGradient><linearGradient id="lg1"><stop offset=".0028" stop-color="#ff7eb8" stop-opacity="0"/><stop offset="1" stop-color="#ff7eb8" stop-opacity=".6"/></linearGradient><linearGradient id="SVGID_2_" gradientUnits="userSpaceOnUse" x1="256" x2="256" xlink:href="#lg1" y1="323.398" y2="420.088"/><linearGradient id="SVGID_3_" gradientUnits="userSpaceOnUse" x1="256" x2="256" xlink:href="#lg1" y1="118.468" y2="275.298"/><g><g><path d="m364.823 55.263c-69.098-27.035-164.784-16.764-217.662 31.51-37.336 34.085-8.439 43.8 17.016 106.17 18.423 45.14-164.177 38.927-164.177 120.495 0 94.299 132.251 76.423 181.329 87.218 75.036 16.504 140.496 78.242 220.668 70.103 69.795-7.086 96.403-61.855 106.109-124.642 18.082-116.976-26.329-245.094-143.283-290.854z" fill="url(#SVGID_1_)"/></g><g><g><g fill="#9fb0fe"><path d="m127.342 296.439h44.939v30.112h-44.939z"/><path d="m339.718 296.439h44.939v30.112h-44.939z"/></g><path d="m472.739 420.088h-433.478l39.457-76.303c6.476-12.523 19.396-20.387 33.495-20.387h287.574c14.098 0 27.019 7.865 33.495 20.387z" fill="#6583fe"/><path d="m441.772 299.591h-371.543c-8.284 0-15-6.716-15-15 0-5.133 4.161-9.294 9.294-9.294h382.955c5.133 0 9.294 4.161 9.294 9.294 0 8.285-6.716 15-15 15z" fill="#d2deff"/><g><path d="m398.784 389.321h-119.636c-2.761 0-5-2.239-5-5v-29.921c0-2.761 2.239-5 5-5h119.635c2.761 0 5 2.239 5 5v29.921c.001 2.761-2.238 5-4.999 5z" fill="#02ffb3"/><path d="m395.178 349.4h-17.507c-13.307 13.307-26.614 26.614-39.921 39.921h17.453c13.334-13.299 26.662-26.602 39.975-39.921z" fill="#97ffd2"/><path d="m363.608 349.4h-35.393c-13.307 13.307-26.614 26.614-39.921 39.921h35.382c13.292-13.326 26.601-26.635 39.932-39.921z" fill="#97ffd2"/><g fill="#b7c5ff"><g><path d="m121.206 366.718h-8.66c-2.391 0-4.329-1.938-4.329-4.329v-8.661c0-2.391 1.938-4.329 4.329-4.329h8.66c2.391 0 4.329 1.938 4.329 4.329v8.661c0 2.391-1.938 4.329-4.329 4.329z"/><path d="m145.959 366.718h-8.661c-2.391 0-4.329-1.938-4.329-4.329v-8.661c0-2.391 1.938-4.329 4.329-4.329h8.661c2.391 0 4.329 1.938 4.329 4.329v8.661c0 2.391-1.938 4.329-4.329 4.329z"/><path d="m170.712 366.718h-8.66c-2.391 0-4.329-1.938-4.329-4.329v-8.661c0-2.391 1.938-4.329 4.329-4.329h8.66c2.391 0 4.329 1.938 4.329 4.329v8.661c0 2.391-1.938 4.329-4.329 4.329z"/><path d="m195.466 366.718h-8.661c-2.391 0-4.329-1.938-4.329-4.329v-8.661c0-2.391 1.938-4.329 4.329-4.329h8.661c2.391 0 4.329 1.938 4.329 4.329v8.661c0 2.391-1.938 4.329-4.329 4.329z"/><path d="m220.219 366.718h-8.66c-2.391 0-4.329-1.938-4.329-4.329v-8.661c0-2.391 1.938-4.329 4.329-4.329h8.66c2.391 0 4.329 1.938 4.329 4.329v8.661c0 2.391-1.938 4.329-4.329 4.329z"/><path d="m244.972 366.718h-8.661c-2.391 0-4.329-1.938-4.329-4.329v-8.661c0-2.391 1.938-4.329 4.329-4.329h8.661c2.391 0 4.329 1.938 4.329 4.329v8.661c0 2.391-1.938 4.329-4.329 4.329z"/></g><g><path d="m121.206 389.321h-8.66c-2.391 0-4.329-1.938-4.329-4.329v-8.661c0-2.391 1.938-4.329 4.329-4.329h8.66c2.391 0 4.329 1.938 4.329 4.329v8.661c0 2.391-1.938 4.329-4.329 4.329z"/><path d="m145.959 389.321h-8.661c-2.391 0-4.329-1.938-4.329-4.329v-8.661c0-2.391 1.938-4.329 4.329-4.329h8.661c2.391 0 4.329 1.938 4.329 4.329v8.661c0 2.391-1.938 4.329-4.329 4.329z"/><path d="m170.712 389.321h-8.66c-2.391 0-4.329-1.938-4.329-4.329v-8.661c0-2.391 1.938-4.329 4.329-4.329h8.66c2.391 0 4.329 1.938 4.329 4.329v8.661c0 2.391-1.938 4.329-4.329 4.329z"/><path d="m244.972 389.321h-58.167c-2.391 0-4.329-1.938-4.329-4.329v-8.661c0-2.391 1.938-4.329 4.329-4.329h58.167c2.391 0 4.329 1.938 4.329 4.329v8.661c0 2.391-1.938 4.329-4.329 4.329z"/></g></g></g><path d="m472.739 420.088h-433.478l39.457-76.303c6.476-12.523 19.396-20.387 33.495-20.387h287.574c14.098 0 27.019 7.865 33.495 20.387z" fill="url(#SVGID_2_)"/><path d="m473.959 435.364h-435.918c-5.523 0-10-4.477-10-10v-3.195c0-5.523 4.477-10 10-10h435.919c5.523 0 10 4.477 10 10v3.195c-.001 5.523-4.478 10-10.001 10z" fill="#9fb0fe"/></g><g><g><g><g><path d="m384.41 128.468v136.83c0 5.52-4.47 10-10 10h-236.82c-5.53 0-10-4.48-10-10v-136.83c0-5.52 4.47-10 10-10h236.82c5.53 0 10 4.48 10 10z" fill="#02ffb3"/><path d="m191.79 151.538c0 32.49-26.34 58.82-58.82 58.82-1.81 0-3.61-.08-5.38-.24v-81.65c0-5.52 4.47-10 10-10h44.02c6.42 9.42 10.18 20.81 10.18 33.07z" fill="#01eca5"/><path d="m270.738 162.829h-29.476c-2.761 0-5-2.239-5-5v-39.36h39.476v39.36c0 2.762-2.238 5-5 5z" fill="#dcfdee"/></g></g><g><g><path d="m296.66 212.014h58.583c2.761 0 5-2.239 5-5s-2.239-5-5-5h-58.583c-2.761 0-5 2.239-5 5 0 2.762 2.239 5 5 5z" fill="#00d890"/></g><g><path d="m326.66 232.336h28.583c2.761 0 5-2.239 5-5s-2.239-5-5-5h-28.583c-2.761 0-5 2.239-5 5s2.239 5 5 5z" fill="#00d890"/></g><g><path d="m326.66 249.657h28.583c2.761 0 5-2.239 5-5s-2.239-5-5-5h-28.583c-2.761 0-5 2.239-5 5s2.239 5 5 5z" fill="#00d890"/></g></g></g><path d="m194.795 255.771h-39.982c-2.761 0-5-2.239-5-5v-12.228c0-2.761 2.239-5 5-5h39.982c2.761 0 5 2.239 5 5v12.228c0 2.762-2.239 5-5 5z" fill="#ff7eb8"/></g><path d="m384.41 128.468v136.83c0 5.52-4.47 10-10 10h-236.82c-5.53 0-10-4.48-10-10v-136.83c0-5.52 4.47-10 10-10h236.82c5.53 0 10 4.48 10 10z" fill="url(#SVGID_3_)"/><g><g><ellipse cx="132.97" cy="130.043" fill="#ff7eb8" rx="58.817" ry="58.817" transform="matrix(.163 -.987 .987 .163 -17.027 240.012)"/></g><g fill="#fff"><path d="m130.691 105.037c-1.783-2.105-4.941-2.365-7.047-.579l-11.19 9.493v-5.68c0-2.761-2.238-5-5-5s-5 2.239-5 5v32.957c0 2.761 2.238 5 5 5s5-2.239 5-5v-5.68l11.19 9.493c.939.797 2.089 1.187 3.231 1.187 1.418 0 2.827-.6 3.815-1.766 1.787-2.105 1.527-5.261-.578-7.047l-14.93-12.665 14.93-12.666c2.108-1.787 2.367-4.942.579-7.047z"/><path d="m158.486 113.618c-1.001 0-1.928.301-2.71.807-1.987-1.042-4.242-1.639-6.637-1.639-7.91 0-14.346 6.436-14.346 14.346 0 7.911 6.436 14.346 14.346 14.346 1.515 0 2.975-.24 4.347-.677v4.374c0 2.396-1.95 4.346-4.347 4.346-1.272 0-2.478-.556-3.307-1.525-1.796-2.1-4.952-2.346-7.049-.552-2.1 1.794-2.347 4.95-.553 7.049 2.73 3.195 6.707 5.028 10.908 5.028 7.911 0 14.347-6.436 14.347-14.346v-26.558c.001-2.76-2.237-4.999-4.999-4.999zm-9.346 17.861c-2.396 0-4.346-1.95-4.346-4.346s1.949-4.346 4.346-4.346c2.396 0 4.347 1.95 4.347 4.346-.001 2.396-1.951 4.346-4.347 4.346z"/></g></g><path d="m74.153 227.329c-3.714 0-7.426-1.413-10.253-4.24-5.654-5.654-5.654-14.852 0-20.506 5.652-5.653 14.853-5.654 20.505 0 2.739 2.739 4.248 6.38 4.248 10.253 0 3.874-1.509 7.515-4.248 10.254-2.826 2.826-6.54 4.239-10.252 4.239zm0-18.991c-1.152 0-2.305.439-3.183 1.316-1.754 1.754-1.754 4.609 0 6.364 1.755 1.754 4.607 1.755 6.364 0 .851-.85 1.318-1.98 1.318-3.182s-.468-2.331-1.318-3.181c-.877-.879-2.029-1.317-3.181-1.317z" fill="#ff7eb8"/><path d="m384.41 69.492c-3.714 0-7.426-1.413-10.253-4.24-5.654-5.654-5.654-14.853 0-20.506 5.651-5.652 14.852-5.654 20.505 0 2.739 2.739 4.248 6.38 4.248 10.253 0 3.874-1.509 7.515-4.248 10.254-2.826 2.826-6.54 4.239-10.252 4.239zm0-18.991c-1.152 0-2.305.439-3.183 1.316-1.754 1.754-1.754 4.609 0 6.364 1.755 1.754 4.607 1.755 6.364 0 .851-.85 1.318-1.98 1.318-3.182s-.468-2.332-1.318-3.181c0-.001 0-.001 0-.001-.877-.877-2.03-1.316-3.181-1.316z" fill="#00eca2"/><path d="m439.679 227.336c-1.279 0-2.56-.488-3.535-1.464l-5.965-5.964-5.965 5.964c-1.951 1.952-5.119 1.952-7.07 0-1.953-1.953-1.953-5.119 0-7.071l9.5-9.5c1.951-1.952 5.119-1.952 7.07 0l9.5 9.5c1.953 1.953 1.953 5.119 0 7.071-.976.976-2.256 1.464-3.535 1.464z" fill="#6583fe"/><path d="m297.794 471.494c-1.279 0-2.56-.488-3.535-1.464l-5.965-5.964-5.965 5.964c-1.951 1.952-5.119 1.952-7.07 0-1.953-1.953-1.953-5.119 0-7.071l9.5-9.5c1.951-1.952 5.119-1.952 7.07 0l9.5 9.5c1.953 1.953 1.953 5.119 0 7.071-.976.976-2.256 1.464-3.535 1.464z" fill="#00eca2"/><path d="m348.466 86.249c-1.279 0-2.559-.488-3.535-1.464l-5.965-5.964-5.965 5.964c-1.951 1.952-5.119 1.952-7.07 0-1.953-1.953-1.953-5.119 0-7.071l9.5-9.5c1.951-1.952 5.119-1.952 7.07 0l9.5 9.5c1.953 1.953 1.953 5.119 0 7.071-.976.976-2.256 1.464-3.535 1.464z" fill="#ff7eb8"/></g></g></svg>