<svg id="Capa_1" enable-background="new 0 0 512 512" height="512" viewBox="0 0 512 512" width="512" xmlns="http://www.w3.org/2000/svg" xmlns:xlink="http://www.w3.org/1999/xlink"><linearGradient id="SVGID_1_" gradientUnits="userSpaceOnUse" x1="542.63" x2="208.63" y1="524.716" y2="225.716"><stop offset="0" stop-color="#c6d1ff"/><stop offset=".5834" stop-color="#e6d5f4"/><stop offset=".997" stop-color="#ffd9ec"/></linearGradient><linearGradient id="SVGID_2_" gradientUnits="userSpaceOnUse" x1="306.989" x2="306.989" y1="177.851" y2="378.814"><stop offset=".0028" stop-color="#ff7eb8" stop-opacity="0"/><stop offset="1" stop-color="#ff7eb8" stop-opacity=".6"/></linearGradient><g><g><path d="m471.476 129.875c-65.417-50.293-128.867-9.305-199.64-23.797-71.285-14.597-99.685-63.201-180.876-40.766-71.922 19.874-115.562 99.552-76.024 166.259 11.267 19.009 30.461 33.35 38.305 54.619 12.653 34.311-6.607 60.653-2.85 94.372 15.612 140.102 229.574 85.834 308.303 42.245 123.47-68.36 206.998-220.497 112.782-292.932z" fill="url(#SVGID_1_)"/></g><g><g><ellipse cx="220.756" cy="334.751" fill="#01eca5" rx="15.328" ry="15.328" transform="matrix(.707 -.707 .707 .707 -172.047 254.145)"/></g><g><path d="m92.641 401.292c-3.713 0-7.426-1.413-10.252-4.24-5.654-5.653-5.654-14.853 0-20.506 5.653-5.655 14.854-5.653 20.505 0 5.654 5.653 5.654 14.852 0 20.506-2.827 2.827-6.54 4.24-10.253 4.24zm0-18.991c-1.151 0-2.304.439-3.182 1.315-1.754 1.755-1.754 4.61 0 6.365 1.757 1.755 4.609 1.753 6.364 0 1.754-1.755 1.754-4.61 0-6.365-.878-.876-2.03-1.315-3.182-1.315z" fill="#ff7eb8"/><path d="m65.959 420.633c-1.279 0-2.56-.488-3.535-1.465l-5.965-5.964-5.965 5.964c-1.951 1.953-5.119 1.953-7.07 0-1.953-1.952-1.953-5.118 0-7.07l9.5-9.5c1.951-1.953 5.119-1.953 7.07 0l9.5 9.5c1.953 1.952 1.953 5.118 0 7.07-.975.977-2.256 1.465-3.535 1.465z" fill="#6583fe"/></g><g><path d="m313.753 65.603c-1.279 0-2.56-.488-3.535-1.465l-5.965-5.964-5.965 5.964c-1.951 1.953-5.119 1.953-7.07 0-1.953-1.952-1.953-5.118 0-7.07l9.5-9.5c1.951-1.953 5.119-1.953 7.07 0l9.5 9.5c1.953 1.952 1.953 5.118 0 7.07-.976.977-2.256 1.465-3.535 1.465z" fill="#00eca2"/></g><g><g><g><g><path d="m63.603 358.429c-5.22 0-9.452-4.232-9.452-9.452v-249.574c0-5.22 4.232-9.452 9.452-9.452 5.22 0 9.452 4.232 9.452 9.452v249.574c0 5.22-4.232 9.452-9.452 9.452z" fill="#6583fe"/></g><g><path d="m120.59 284.981c-5.22 0-9.452-4.232-9.452-9.452v-176.126c0-5.22 4.232-9.452 9.452-9.452 5.22 0 9.452 4.232 9.452 9.452v176.127c0 5.22-4.232 9.451-9.452 9.451z" fill="#6583fe"/></g><g><path d="m159.889 284.981c-5.22 0-9.452-4.232-9.452-9.452v-176.126c0-5.22 4.232-9.452 9.452-9.452 5.22 0 9.452 4.232 9.452 9.452v176.127c-.001 5.22-4.232 9.451-9.452 9.451z" fill="#6583fe"/></g><g><path d="m448.902 358.429c5.22 0 9.452-4.232 9.452-9.452v-249.574c0-5.22-4.232-9.452-9.452-9.452-5.22 0-9.452 4.232-9.452 9.452v249.574c0 5.22 4.232 9.452 9.452 9.452z" fill="#6583fe"/></g><g><path d="m391.915 284.981c5.22 0 9.452-4.232 9.452-9.452v-176.126c0-5.22-4.232-9.452-9.452-9.452-5.22 0-9.452 4.232-9.452 9.452v176.127c0 5.22 4.232 9.451 9.452 9.451z" fill="#6583fe"/></g><g><path d="m352.617 284.981c5.22 0 9.452-4.232 9.452-9.452v-176.126c0-5.22-4.232-9.452-9.452-9.452-5.22 0-9.452 4.232-9.452 9.452v176.127c0 5.22 4.232 9.451 9.452 9.451z" fill="#6583fe"/></g><g><path d="m216.762 284.981c-5.22 0-9.452-4.232-9.452-9.452v-176.126c0-5.22 4.232-9.452 9.452-9.452 5.22 0 9.452 4.232 9.452 9.452v176.127c-.001 5.22-4.232 9.451-9.452 9.451z" fill="#6583fe"/></g><g><path d="m256.06 284.981c-5.22 0-9.452-4.232-9.452-9.452v-176.126c0-5.22 4.232-9.452 9.452-9.452 5.22 0 9.452 4.232 9.452 9.452v176.127c0 5.22-4.232 9.451-9.452 9.451z" fill="#6583fe"/></g><g><path d="m293.435 284.981c-5.22 0-9.452-4.232-9.452-9.452v-176.126c0-5.22 4.232-9.452 9.452-9.452 5.22 0 9.452 4.232 9.452 9.452v176.127c0 5.22-4.232 9.451-9.452 9.451z" fill="#6583fe"/></g></g><g><g><path d="m54.152 143.879h18.903v20.779h-18.903z" fill="#9fb0fe"/></g><g><path d="m111.139 143.879h18.903v20.779h-18.903z" fill="#9fb0fe"/></g><g><path d="m150.437 143.879h18.903v20.779h-18.903z" fill="#9fb0fe"/></g><g><path d="m439.45 143.879h18.903v20.779h-18.903z" fill="#9fb0fe"/></g><g><path d="m382.463 143.879h18.903v20.779h-18.903z" fill="#9fb0fe"/></g><g><path d="m343.165 143.879h18.903v20.779h-18.903z" fill="#9fb0fe"/></g><g><path d="m207.31 143.879h18.903v20.779h-18.903z" fill="#9fb0fe"/></g><g><path d="m246.608 143.879h18.903v20.779h-18.903z" fill="#9fb0fe"/></g><g><path d="m283.984 143.879h18.903v20.779h-18.903z" fill="#9fb0fe"/></g></g></g><g><g><g><g><path d="m473.937 445.28c-5.215 5.215-13.671 5.215-18.887 0l-98.065-98.065 18.886-18.886 98.065 98.065c5.216 5.215 5.216 13.671.001 18.886z" fill="#8399fe"/><path d="m398.251 350.706c-2.73 3.46-5.7 6.79-8.9 9.99-3.18 3.18-6.51 6.15-9.98 8.91l-22.39-22.39 18.89-18.89z" fill="#6583fe"/><path d="m423.798 414.028 31.253 31.253c5.215 5.215 13.671 5.215 18.886 0s5.215-13.671 0-18.887l-31.253-31.253z" fill="#ff5ba8"/></g><circle cx="306.989" cy="278.332" fill="#ff7eb8" r="100.481"/><circle cx="306.989" cy="278.332" fill="#ffc4df" r="77.332"/><g fill="#6583fe"><path d="m376.8 245.042v47.38c0 6.56-5.31 11.87-11.86 11.87-6.56 0-11.87-5.31-11.87-11.87v-76.2c3 2.23 5.88 4.71 8.6 7.43 6.4 6.399 11.45 13.649 15.13 21.39z"/><path d="m255.6 220.562v71.86c0 6.56-5.31 11.87-11.86 11.87s-11.86-5.31-11.86-11.87v-32.54c3.25-13.28 10.06-25.86 20.43-36.23 1.07-1.071 2.17-2.11 3.29-3.09z"/><path d="m302.52 201.142v91.28c0 6.56-5.31 11.87-11.87 11.87-6.55 0-11.86-5.31-11.86-11.87v-86.11c7.64-2.99 15.65-4.72 23.73-5.17z"/></g></g></g></g></g><g><g><ellipse cx="117.469" cy="334.751" fill="#01eca5" rx="15.328" ry="15.328" transform="matrix(.707 -.707 .707 .707 -202.299 181.109)"/></g><g><ellipse cx="169.173" cy="334.751" fill="#01eca5" rx="15.328" ry="15.328" transform="matrix(.707 -.707 .707 .707 -187.155 217.67)"/></g></g><g><path d="m281.09 351.201c-10.51-3.71-20.37-9.78-28.78-18.19-1.19-1.19-2.32-2.4-3.4-3.64 2.26-.68 4.66-1.04 7.15-1.04 13.12.001 23.89 10.051 25.03 22.87z" fill="#01eca5"/></g><path d="m382.115 456.676c-3.713 0-7.426-1.413-10.252-4.24-5.653-5.653-5.653-14.852 0-20.505 5.653-5.655 14.853-5.653 20.505 0 5.654 5.653 5.654 14.852 0 20.505-2.826 2.827-6.539 4.24-10.253 4.24zm0-18.99c-1.151 0-2.304.438-3.182 1.315-1.754 1.755-1.754 4.609 0 6.364 1.757 1.755 4.609 1.753 6.364 0 1.754-1.755 1.754-4.609 0-6.364-.877-.877-2.029-1.315-3.182-1.315z" fill="#00eca2"/><path d="m254.29 70.353c-3.873 0-7.515-1.509-10.254-4.248-2.738-2.737-4.246-6.379-4.246-10.252s1.508-7.515 4.247-10.253c5.652-5.654 14.854-5.654 20.506 0 2.739 2.738 4.247 6.38 4.247 10.253s-1.508 7.515-4.247 10.253c-2.738 2.738-6.38 4.247-10.253 4.247zm0-18.998c-1.152 0-2.305.438-3.183 1.315-.85.851-1.317 1.981-1.317 3.183s.468 2.331 1.317 3.181c.851.852 1.98 1.319 3.183 1.319 1.202 0 2.332-.468 3.182-1.318.851-.851 1.318-1.979 1.318-3.182 0-1.202-.468-2.332-1.317-3.183-.878-.877-2.031-1.315-3.183-1.315z" fill="#ff7eb8"/></g><circle cx="306.989" cy="278.332" fill="url(#SVGID_2_)" r="100.481"/></g></svg>