<svg id="Capa_1" enable-background="new 0 0 512 512" height="512" viewBox="0 0 512 512" width="512" xmlns="http://www.w3.org/2000/svg" xmlns:xlink="http://www.w3.org/1999/xlink"><linearGradient id="SVGID_1_" gradientUnits="userSpaceOnUse" x1="152.291" x2="397.291" y1="426.699" y2="71.699"><stop offset="0" stop-color="#c6d1ff"/><stop offset=".5834" stop-color="#e6d5f4"/><stop offset=".997" stop-color="#ffd9ec"/></linearGradient><linearGradient id="SVGID_2_" gradientUnits="userSpaceOnUse" x1="256" x2="256" y1="64.688" y2="331.517"><stop offset=".0028" stop-color="#ff7eb8" stop-opacity="0"/><stop offset="1" stop-color="#ff7eb8" stop-opacity=".6"/></linearGradient><g><g><path d="m501.873 149.347c-22.357-56.888-91.226-91.003-149.556-68.427-66.582 25.77-44.506 131.673-104.983 153.088-32.669 11.568-80.962-31.644-113.969-38.27-60.821-12.21-115.881 30.705-129.439 90.134-13.832 60.63 8.353 141.61 74.967 158.066 79.35 19.602 120.683-51.729 187.249-72.211 68.31-21.019 144.263 28.622 200.814-31.776 41.78-44.621 57.055-134.272 34.917-190.604z" fill="url(#SVGID_1_)"/></g><g><path d="m392.473 338.285 37.323-75.149c1.71-3.984 2.592-8.275 2.592-12.611v-33.015c0-4.295-3.481-7.776-7.776-7.776-20.849 0-37.75 16.901-37.75 37.75 0 8.064-2.08 15.991-6.039 23.016l-38.82 67.784h50.47z" fill="#ff7eb8"/><path d="m119.527 338.285-37.324-75.149c-1.71-3.984-2.591-8.275-2.591-12.611v-33.015c0-4.295 3.481-7.776 7.776-7.776 20.849 0 37.75 16.901 37.75 37.75 0 8.064 2.08 15.991 6.039 23.016l38.821 67.784h-50.471z" fill="#ff7eb8"/><g><g><g><path d="m389.414 331.517h-266.828c-5.523 0-10-4.477-10-10v-246.829c0-5.523 4.477-10 10-10h266.828c5.523 0 10 4.477 10 10v246.828c0 5.523-4.477 10.001-10 10.001z" fill="#02ffb3"/><g fill="#00d890"><path d="m146.468 215.742v21.304c0 2.761 2.239 5 5 5s5-2.239 5-5v-21.303c.531.184 1.083.294 1.639.294 1.28 0 2.559-.488 3.536-1.464 1.953-1.953 1.953-5.119 0-7.071l-6.639-6.639c-1.878-1.922-5.193-1.922-7.071 0l-6.639 6.639c-1.953 1.953-1.953 5.119 0 7.071 1.4 1.399 3.42 1.777 5.174 1.169z"/><path d="m176.709 215.742v21.304c0 2.761 2.239 5 5 5s5-2.239 5-5v-21.303c.531.184 1.083.294 1.639.294 1.28 0 2.559-.488 3.536-1.464 1.953-1.953 1.953-5.119 0-7.071l-6.639-6.639c-1.878-1.922-5.193-1.922-7.071 0l-6.639 6.639c-1.953 1.953-1.953 5.119 0 7.071 1.401 1.399 3.421 1.777 5.174 1.169z"/><path d="m188.348 246.691h-42.542c-2.761 0-5 2.239-5 5s2.239 5 5 5h42.542c2.761 0 5-2.239 5-5s-2.239-5-5-5z"/></g><path d="m270.738 139.049h-29.476c-2.761 0-5-2.239-5-5v-69.36h39.476v69.36c0 2.761-2.238 5-5 5z" fill="#6583fe"/></g><g><g><path d="m226.708 166.755h58.583c2.761 0 5-2.239 5-5s-2.239-5-5-5h-58.583c-2.761 0-5 2.239-5 5s2.239 5 5 5z" fill="#fff"/></g><g><path d="m241.708 187.076h28.583c2.761 0 5-2.239 5-5s-2.239-5-5-5h-28.583c-2.761 0-5 2.239-5 5s2.239 5 5 5z" fill="#fff"/></g><g><path d="m241.708 204.397h28.583c2.761 0 5-2.239 5-5s-2.239-5-5-5h-28.583c-2.761 0-5 2.239-5 5 0 2.762 2.239 5 5 5z" fill="#fff"/></g></g><path d="m219.131 313.8h-77.134c-2.762 0-5-2.239-5-5v-32.154c0-2.761 2.238-5 5-5h77.134c2.761 0 5 2.239 5 5v32.154c0 2.761-2.238 5-5 5z" fill="#00d890"/></g></g><path d="m389.414 331.517h-266.828c-5.523 0-10-4.477-10-10v-246.829c0-5.523 4.477-10 10-10h266.828c5.523 0 10 4.477 10 10v246.828c0 5.523-4.477 10.001-10 10.001z" fill="url(#SVGID_2_)"/><path d="m280.26 322.972 43.442-53.037c3.802-4.641 6.776-9.902 8.794-15.552 4.8-13.439 18.859-21.198 32.788-18.094 8.943 1.993 14.194 11.289 11.285 19.977l-6.961 20.79c-1.224 3.656-3.169 7.03-5.719 9.923l-36.792 41.733 47.088-7.261c5.634-.964 10.534-4.415 13.341-9.395l24.268-43.059c3.959-7.025 6.039-14.952 6.039-23.016 0-20.849 16.901-37.75 37.75-37.75 4.294 0 7.776 3.481 7.776 7.776v33.014c0 4.336-.882 8.626-2.591 12.611l-31.26 72.848c-3.673 8.56-10.017 15.702-18.084 20.36l-47.658 27.515c-9.099 5.253-14.705 14.962-14.705 25.469v34.144h-78.078v-93.03c0-9.467 3.278-18.642 9.277-25.966z" fill="#ffa8cf"/><path d="m231.74 322.972-43.442-53.037c-3.802-4.641-6.776-9.902-8.794-15.552-4.8-13.439-18.859-21.198-32.788-18.094-8.943 1.993-14.194 11.289-11.285 19.977l6.961 20.79c1.224 3.656 3.169 7.03 5.719 9.923l36.792 41.733-47.088-7.261c-5.634-.964-10.535-4.415-13.341-9.395l-24.268-43.059c-3.959-7.025-6.039-14.952-6.039-23.016 0-20.849-16.901-37.75-37.75-37.75-4.294 0-7.776 3.481-7.776 7.776v33.014c0 4.336.882 8.626 2.591 12.611l31.26 72.848c3.673 8.56 10.017 15.702 18.084 20.36l47.658 27.515c9.099 5.253 14.705 14.962 14.705 25.469v34.144h78.078v-93.03c0-9.467-3.278-18.642-9.277-25.966z" fill="#ffa8cf"/><path d="m408.915 413.385c-3.874 0-7.515-1.508-10.254-4.248-2.738-2.738-4.246-6.379-4.246-10.252s1.508-7.514 4.246-10.253c2.739-2.739 6.38-4.247 10.254-4.247 3.873 0 7.514 1.508 10.253 4.247 2.739 2.738 4.247 6.379 4.247 10.253s-1.509 7.515-4.248 10.253c-2.738 2.739-6.379 4.247-10.252 4.247zm0-19c-1.202 0-2.332.468-3.182 1.318s-1.318 1.98-1.318 3.182.468 2.332 1.317 3.182c.851.851 1.98 1.318 3.183 1.318 1.202 0 2.331-.468 3.182-1.318.85-.85 1.318-1.98 1.318-3.182s-.468-2.332-1.318-3.182c-.851-.85-1.981-1.318-3.182-1.318z" fill="#00eca2"/><path d="m79.612 135.368c-3.873 0-7.514-1.508-10.253-4.248-2.738-2.738-4.247-6.379-4.247-10.252s1.508-7.514 4.247-10.253c5.653-5.654 14.853-5.653 20.506 0 2.739 2.739 4.247 6.38 4.247 10.253s-1.508 7.515-4.247 10.253c-2.739 2.739-6.38 4.247-10.253 4.247zm0-18.997c-1.153 0-2.305.438-3.182 1.316-.85.85-1.318 1.98-1.318 3.182s.468 2.332 1.318 3.182c.851.851 1.98 1.318 3.182 1.318s2.332-.468 3.182-1.318 1.318-1.98 1.318-3.182-.468-2.332-1.318-3.182c-.877-.878-2.029-1.316-3.182-1.316z" fill="#00eca2"/><path d="m437.275 181.255c-3.874 0-7.515-1.508-10.253-4.247-5.653-5.653-5.653-14.852 0-20.506 5.653-5.652 14.853-5.653 20.506 0 5.653 5.654 5.653 14.853 0 20.506-2.739 2.738-6.38 4.247-10.253 4.247zm-.001-18.998c-1.152 0-2.305.438-3.182 1.316-1.755 1.754-1.755 4.609 0 6.364.85.85 1.98 1.318 3.182 1.318s2.332-.468 3.182-1.318c1.755-1.755 1.755-4.61 0-6.364-.876-.878-2.029-1.316-3.182-1.316z" fill="#ff7eb8"/><path d="m89.112 383.966c-1.28 0-2.559-.488-3.536-1.464l-5.964-5.964-5.964 5.964c-1.953 1.952-5.118 1.952-7.071 0-1.953-1.953-1.953-5.119 0-7.071l9.5-9.5c1.953-1.952 5.118-1.952 7.071 0l9.5 9.5c1.953 1.953 1.953 5.119 0 7.071-.977.976-2.256 1.464-3.536 1.464z" fill="#6583fe"/><path d="m82.456 166.505c-1.28 0-2.559-.488-3.536-1.464l-5.964-5.964-5.964 5.964c-1.953 1.952-5.118 1.952-7.071 0-1.953-1.953-1.953-5.119 0-7.071l9.5-9.5c1.953-1.952 5.118-1.952 7.071 0l9.5 9.5c1.953 1.953 1.953 5.119 0 7.071-.977.975-2.256 1.464-3.536 1.464z" fill="#ff7eb8"/></g></g></svg>