<svg id="Capa_1" enable-background="new 0 0 512 512" height="512" viewBox="0 0 512 512" width="512" xmlns="http://www.w3.org/2000/svg" xmlns:xlink="http://www.w3.org/1999/xlink"><linearGradient id="SVGID_1_" gradientUnits="userSpaceOnUse" x1="545.415" x2="144.935" y1="177.888" y2="320.38"><stop offset="0" stop-color="#c6d1ff"/><stop offset=".5834" stop-color="#e6d5f4"/><stop offset=".997" stop-color="#ffd9ec"/></linearGradient><linearGradient id="SVGID_2_" gradientUnits="userSpaceOnUse" x1="117.458" x2="117.458" y1="279.376" y2="376.917"><stop offset=".0028" stop-color="#ff7eb8" stop-opacity="0"/><stop offset="1" stop-color="#ff7eb8" stop-opacity=".6"/></linearGradient><g><g><path d="m364.823 55.215c-69.098-27.035-164.784-16.764-217.662 31.51-37.336 34.085-8.439 43.8 17.016 106.17 18.423 45.14-164.177 38.927-164.177 120.495 0 94.299 132.251 76.423 181.329 87.218 75.036 16.504 140.496 78.242 220.668 70.103 69.795-7.086 96.403-61.855 106.109-124.642 18.082-116.976-26.329-245.094-143.283-290.854z" fill="url(#SVGID_1_)"/></g><g><g><g><g><path d="m309.105 83.627h41.665v270.326h-41.665z" fill="#ff7eb8" transform="matrix(.824 -.567 .567 .824 -65.896 225.416)"/><path d="m289.219 122.795c-1.33 15.94-14.56 28.5-30.78 28.76l-22.24-32.34 34.33-23.61z" fill="#ff5ba8"/><g><path d="m343.939 202.385-34.63 23.17-5.67-8.24 34.64-23.17z" fill="#ff5ba8"/></g><g><path d="m384.139 260.855-34.64 23.16-5.67-8.24 34.64-23.17z" fill="#ff5ba8"/></g><path d="m117.49 93.231 111.141-6.142v37.987l-111.141-6.142z" fill="#ff7eb8"/><circle cx="247.718" cy="109.948" fill="#6583fe" r="31.415"/><circle cx="247.718" cy="109.948" fill="#b7c5ff" r="12.725"/><path d="m460.041 433.467h-92.637c-6.127 0-10.813-5.46-9.885-11.516l11.913-77.696c3.353-21.869 22.166-38.016 44.29-38.016 22.124 0 40.937 16.148 44.29 38.016l11.913 77.696c.929 6.057-3.758 11.516-9.884 11.516z" fill="#6583fe"/><path d="m360.683 401.317-3.164 20.635c-.929 6.056 3.758 11.516 9.885 11.516h92.637c6.127 0 10.813-5.46 9.885-11.516l-3.164-20.635z" fill="#4369fd"/><ellipse cx="117.458" cy="106.082" fill="#6583fe" rx="23.011" ry="23.011" transform="matrix(.232 -.973 .973 .232 -12.984 195.719)"/><g fill="#b7c5ff"><ellipse cx="117.458" cy="106.082" rx="8.859" ry="8.859" transform="matrix(.231 -.973 .973 .231 -12.854 195.908)"/><ellipse cx="413.722" cy="346.726" rx="17.897" ry="17.897" transform="matrix(.924 -.383 .383 .924 -101.194 184.718)"/></g></g></g><path d="m182.56 432.965c-1.28 0-2.559-.488-3.536-1.465l-5.964-5.964-5.964 5.964c-1.953 1.953-5.118 1.953-7.071 0-1.953-1.952-1.953-5.118 0-7.07l9.5-9.5c1.953-1.953 5.118-1.953 7.071 0l9.5 9.5c1.953 1.952 1.953 5.118 0 7.07-.976.977-2.256 1.465-3.536 1.465z" fill="#00eca2"/><path d="m241.012 283.529c-1.28 0-2.559-.488-3.536-1.465l-5.964-5.964-5.964 5.964c-1.953 1.953-5.118 1.953-7.071 0-1.953-1.952-1.953-5.118 0-7.07l9.5-9.5c1.953-1.953 5.118-1.953 7.071 0l9.5 9.5c1.953 1.952 1.953 5.118 0 7.07-.977.977-2.257 1.465-3.536 1.465z" fill="#6583fe"/><path d="m470.043 287.215c-1.279 0-2.56-.488-3.535-1.465l-5.965-5.964-5.965 5.964c-1.951 1.953-5.119 1.953-7.07 0-1.953-1.952-1.953-5.118 0-7.07l9.5-9.5c1.951-1.953 5.119-1.953 7.07 0l9.5 9.5c1.953 1.952 1.953 5.118 0 7.07-.975.977-2.256 1.465-3.535 1.465z" fill="#6583fe"/><g fill="#ff7eb8"><path d="m211.397 418.877c-3.713 0-7.427-1.413-10.253-4.24-5.653-5.653-5.653-14.852 0-20.505 5.653-5.654 14.853-5.654 20.506 0 5.653 5.653 5.653 14.852 0 20.505-2.827 2.827-6.54 4.24-10.253 4.24zm-.001-18.99c-1.152 0-2.305.439-3.182 1.315-1.754 1.755-1.754 4.609 0 6.364 1.754 1.754 4.61 1.753 6.364 0 1.754-1.755 1.754-4.609 0-6.364-.876-.877-2.029-1.315-3.182-1.315z"/><path d="m323.789 88.064c-3.713 0-7.426-1.413-10.253-4.239-5.654-5.654-5.654-14.854 0-20.507 5.652-5.652 14.853-5.654 20.506 0 5.654 5.653 5.654 14.853 0 20.506-2.826 2.827-6.539 4.24-10.253 4.24zm0-18.991c-1.152 0-2.305.438-3.183 1.316-1.754 1.754-1.754 4.609 0 6.364 1.756 1.754 4.609 1.754 6.365 0 1.754-1.755 1.754-4.61 0-6.365-.877-.876-2.03-1.315-3.182-1.315z"/></g></g><g><g><g><g><path d="m206.516 285.998v84.297c0 3.655-2.967 6.622-6.622 6.622h-164.872c-3.655 0-6.622-2.967-6.622-6.622v-84.297c0-3.655 2.967-6.622 6.622-6.622h164.872c3.655 0 6.622 2.966 6.622 6.622z" fill="#97ffd2"/><g fill="#dcfdee"><path d="m35.022 279.376h9.642v15.893h-16.264v-9.271c0-3.655 2.966-6.622 6.622-6.622z"/><path d="m28.4 361.031h16.264v15.886h-9.642c-3.655 0-6.622-2.967-6.622-6.622z"/><path d="m206.516 285.998v9.271h-16.264v-15.893h9.642c3.655 0 6.622 2.967 6.622 6.622z"/><path d="m190.252 361.031h16.264v9.264c0 3.655-2.967 6.622-6.622 6.622h-9.642z"/></g><path d="m42.257 291.235h150.402v73.823h-150.402z" fill="#01eca5"/><path d="m73.817 359.563c-2.746 0-4.971-2.226-4.971-4.971v-52.888c0-2.746 2.226-4.971 4.971-4.971 2.746 0 4.972 2.226 4.972 4.971v52.888c0 2.745-2.226 4.971-4.972 4.971z" fill="#00d890"/><path d="m161.099 359.563c-2.746 0-4.972-2.226-4.972-4.971v-52.888c0-2.746 2.226-4.971 4.972-4.971 2.746 0 4.972 2.226 4.972 4.971v52.888c-.001 2.745-2.227 4.971-4.972 4.971z" fill="#00d890"/><path d="m178.555 359.563c-2.746 0-4.972-2.226-4.972-4.971v-52.888c0-2.746 2.226-4.971 4.972-4.971 2.746 0 4.972 2.226 4.972 4.971v52.888c0 2.745-2.226 4.971-4.972 4.971z" fill="#00d890"/></g><g fill="#2d58e0"><path d="m182.074 279.376v-7.549c0-2.762-2.239-5-5-5-2.477 0-4.519 1.805-4.916 4.169l-49.7-27.13v-115.804h-10v115.804l-49.7 27.13c-.398-2.364-2.44-4.169-4.916-4.169-2.761 0-5 2.238-5 5v7.549h16.884l42.799-24.154c.329 2.443 2.4 4.334 4.933 4.334s4.604-1.89 4.933-4.334l42.723 24.154z"/><path d="m383.283 249.897c2.296-1.535 2.912-4.641 1.377-6.936-1.534-2.296-4.641-2.913-6.936-1.377l-57.283 38.312-34.335-50.349 57.25-38.289c2.296-1.535 2.912-4.641 1.377-6.936-1.535-2.296-4.64-2.913-6.935-1.377l-57.325 38.34-46.924-68.809 6.314-12.326-8.97-4.004-7.477 13.93c-1.555 3.135-.068 5.147 1.352 7.274l142.411 208.878c.234.343 2.232-14.526 2.232-14.526l-43.335-63.545z"/></g></g><g fill="#00d890"><path d="m56.361 359.563c-2.746 0-4.972-2.226-4.972-4.971v-52.888c0-2.746 2.226-4.971 4.972-4.971 2.746 0 4.972 2.226 4.972 4.971v52.888c-.001 2.745-2.226 4.971-4.972 4.971z"/><path d="m91.274 359.563c-2.746 0-4.972-2.226-4.972-4.971v-52.888c0-2.746 2.226-4.971 4.971-4.971 2.746 0 4.971 2.226 4.971 4.971v52.888c.001 2.745-2.225 4.971-4.97 4.971z"/><path d="m108.73 359.563c-2.746 0-4.972-2.226-4.972-4.971v-52.888c0-2.746 2.226-4.971 4.972-4.971 2.746 0 4.971 2.226 4.971 4.971v52.888c0 2.745-2.225 4.971-4.971 4.971z"/><path d="m126.186 359.563c-2.746 0-4.972-2.226-4.972-4.971v-52.888c0-2.746 2.226-4.971 4.972-4.971 2.746 0 4.972 2.226 4.972 4.971v52.888c0 2.745-2.226 4.971-4.972 4.971z"/><path d="m143.642 359.563c-2.746 0-4.972-2.226-4.972-4.971v-52.888c0-2.746 2.226-4.971 4.972-4.971 2.746 0 4.972 2.226 4.972 4.971v52.888c0 2.745-2.226 4.971-4.972 4.971z"/></g></g></g></g><path d="m206.516 285.998v84.297c0 3.655-2.967 6.622-6.622 6.622h-164.872c-3.655 0-6.622-2.967-6.622-6.622v-84.297c0-3.655 2.967-6.622 6.622-6.622h164.872c3.655 0 6.622 2.966 6.622 6.622z" fill="url(#SVGID_2_)"/></g></svg>