<svg id="Capa_1" enable-background="new 0 0 512 512" height="512" viewBox="0 0 512 512" width="512" xmlns="http://www.w3.org/2000/svg" xmlns:xlink="http://www.w3.org/1999/xlink"><linearGradient id="SVGID_1_" gradientUnits="userSpaceOnUse" x1="215.735" x2="382.735" y1="208.268" y2="516.268"><stop offset="0" stop-color="#c6d1ff"/><stop offset=".5834" stop-color="#e6d5f4"/><stop offset=".997" stop-color="#ffd9ec"/></linearGradient><linearGradient id="SVGID_2_" gradientUnits="userSpaceOnUse" x1="256" x2="256" y1="143.036" y2="381.496"><stop offset=".0028" stop-color="#ff7eb8" stop-opacity="0"/><stop offset="1" stop-color="#ff7eb8" stop-opacity=".6"/></linearGradient><g><g><path d="m364.823 61.781c-69.098-27.035-164.784-16.764-217.662 31.51-37.336 34.085-8.439 43.8 17.016 106.17 18.423 45.14-164.177 38.927-164.177 120.495 0 94.299 132.251 76.423 181.329 87.218 75.036 16.504 140.496 78.242 220.668 70.103 69.795-7.086 96.403-61.855 106.109-124.642 18.082-116.976-26.329-245.095-143.283-290.854z" fill="url(#SVGID_1_)"/></g><g><g><g><g><g><g><path d="m352.479 288.867h-95.659c-3.34 0-6.049-2.708-6.049-6.049v-95.659c0-3.34 2.708-6.049 6.049-6.049h95.659c3.341 0 6.049 2.708 6.049 6.049v95.659c0 3.341-2.708 6.049-6.049 6.049z" fill="#ffa8cf"/><path d="m265.893 196.232h77.514v77.513h-77.514z" fill="#ff5ba8" transform="matrix(0 1 -1 0 539.638 -69.661)"/><g fill="#ff7eb8"><path d="m334.527 203.259-68.632 68.632v-68.632z"/><path d="m336.384 231.414v42.334h-50.965l44.866-44.86c2.251-2.251 6.099-.657 6.099 2.526z"/></g></g><path d="m298.023 175.226h15.121v117.763h-15.121z" fill="#ffa8cf" transform="matrix(.707 .707 -.707 .707 255.042 -147.512)"/></g><g><g><path d="m434.941 288.867h-95.659c-3.34 0-6.048-2.708-6.048-6.049v-95.659c0-3.34 2.708-6.049 6.048-6.049h95.659c3.34 0 6.048 2.708 6.048 6.049v95.659c.001 3.341-2.707 6.049-6.048 6.049z" fill="#ffa8cf"/><path d="m348.355 196.232h77.514v77.513h-77.514z" fill="#ff5ba8" transform="matrix(0 1 -1 0 622.1 -152.123)"/><g fill="#ff7eb8"><path d="m416.989 203.259-68.632 68.632v-68.632z"/><path d="m418.846 231.414v42.334h-50.965l44.866-44.86c2.251-2.251 6.099-.657 6.099 2.526z"/></g></g><path d="m380.485 175.226h15.121v117.762h-15.121z" fill="#ffa8cf" transform="matrix(.707 .707 -.707 .707 279.196 -205.822)"/></g></g><g><g><path d="m431.693 162.416-92.627-23.894c-3.235-.834-5.18-4.133-4.346-7.368l23.894-92.627c.834-3.235 4.133-5.18 7.368-4.346l92.627 23.894c3.235.834 5.18 4.133 4.346 7.368l-23.894 92.627c-.835 3.234-4.133 5.18-7.368 4.346z" fill="#ffa8cf"/><path d="m360.081 59.542h77.514v77.514h-77.514z" fill="#ff5ba8" transform="matrix(-.25 .968 -.968 -.25 593.643 -263.344)"/><g fill="#ff7eb8"><path d="m435.694 75.037-83.6 49.314 17.143-66.457z"/><path d="m430.459 102.764-10.574 40.992-49.349-12.73 54.649-32.232c2.741-1.617 6.069.888 5.274 3.97z"/></g></g><path d="m392.401 38.797h15.121v117.762h-15.121z" fill="#ffa8cf" transform="matrix(.508 .861 -.861 .508 280.884 -296.442)"/></g></g><path d="m475.51 281.896v99.6h-439.02l46.14-199.72c5.24-22.68 25.43-38.74 48.7-38.74h84.25c5.52 0 10 4.48 10 10v20.58l-9.994 41.965 9.994 41.965v14.35h239.93c5.52 0 10 4.47 10 10z" fill="#02ffb3"/><path d="m475.51 289.665v-7.769c0-5.53-4.48-10-10-10h-239.93c0 9.814 7.956 17.769 17.769 17.769z" fill="#00d890"/><path d="m156.476 247.546h11.434v123.951h-11.434z" fill="#01eca5"/><path d="m187.72 247.546h11.434v123.951h-11.434z" fill="#01eca5"/><path d="m85.276 173.619c-1.1 2.605-1.995 5.327-2.646 8.157l-17.5 75.77h92.78c5.523 0 10-4.477 10-10v-63.927c0-5.523-4.477-10-10-10z" fill="#b7c5ff"/><path d="m158.774 173.662-83.884 83.884h23.343l69.677-69.677v-4.251c0-5.231-4.019-9.517-9.136-9.956z" fill="#d2deff"/><path d="m118.751 257.546h39.159c5.523 0 10-4.477 10-10v-39.243c-16.42 16.381-32.791 32.81-49.159 49.243z" fill="#d2deff"/><path d="m225.58 173.616v83.93h-27.86c-5.53 0-10-4.48-10-10v-63.93c0-5.52 4.47-10 10-10z" fill="#b7c5ff"/><path d="m190.971 254.911c11.56-11.573 23.102-23.164 34.609-34.791v-38.625c-12.608 12.696-25.226 25.382-37.86 38.052v27.999c0 2.918 1.257 5.536 3.251 7.365z" fill="#d2deff"/><path d="m218.638 173.616h-20.918c-5.53 0-10 4.48-10 10v21.04c10.328-10.325 20.631-20.674 30.918-31.04z" fill="#d2deff"/><path d="m475.51 330.906v50.59h-439.02l11.69-50.59z" fill="#01eca5"/><g><path d="m156.48 330.906h11.43v40.59h-11.43z" fill="#00d890"/></g><g><path d="m187.724 330.906h11.43v40.59h-11.43z" fill="#00d890"/></g><path d="m460.375 323.732h15.136v-34.067h-15.136c-9.407 0-17.034 7.626-17.034 17.034 0 9.407 7.626 17.033 17.034 17.033z" fill="#ff7eb8"/><g><path d="m456.314 350.831c-3.374 0-6.11-2.735-6.11-6.11v-.141c0-3.375 2.736-6.11 6.11-6.11s6.11 2.735 6.11 6.11v.141c0 3.375-2.736 6.11-6.11 6.11z" fill="#dcfdee"/></g><path d="m423.15 344.651h-41.536c-2.761 0-5-2.239-5-5v-17.999c0-2.761 2.239-5 5-5h41.536c2.761 0 5 2.239 5 5v17.999c0 2.761-2.239 5-5 5z" fill="#fff"/><path d="m475.51 281.896v99.6h-439.02l46.14-199.72c5.24-22.68 25.43-38.74 48.7-38.74h84.25c5.52 0 10 4.48 10 10v118.86h239.93c5.52 0 10 4.47 10 10z" fill="url(#SVGID_2_)"/><g><g><path d="m475.51 410.638h-439.021c-5.523 0-10-4.477-10-10v-19.141c0-5.523 4.477-10 10-10h439.021c5.523 0 10 4.477 10 10v19.141c0 5.523-4.477 10-10 10z" fill="#d2deff"/><path d="m26.489 394.43v6.208c0 5.523 4.477 10 10 10h439.021c5.523 0 10-4.477 10-10v-6.208z" fill="#b7c5ff"/></g><g><g><g><g><g><g><g><circle cx="107.078" cy="399.132" fill="#6583fe" r="39.893"/><circle cx="107.078" cy="399.132" fill="#d2deff" r="18.066"/></g></g></g></g></g></g><g><circle cx="419.418" cy="399.132" fill="#6583fe" r="39.893"/><circle cx="419.418" cy="399.132" fill="#d2deff" r="18.066"/></g></g></g><g fill="#db237a"><path d="m288.808 161.8c-2.761 0-5-2.238-5-5 0-20.12 12.872-37.732 32.031-43.826 2.63-.834 5.443.617 6.28 3.249s-.618 5.443-3.249 6.28c-14.99 4.769-25.062 18.551-25.062 34.297 0 2.762-2.239 5-5 5z"/><path d="m266.722 161.8c-2.761 0-5-2.238-5-5 0-28.556 18.268-53.552 45.458-62.2 2.631-.834 5.443.618 6.28 3.249.837 2.632-.618 5.443-3.249 6.28-23.022 7.323-38.49 28.489-38.49 52.671.001 2.762-2.238 5-4.999 5z"/></g><g><path d="m46.113 302.638h21.806c11.65 0 21.094 9.444 21.094 21.094 0 11.65-9.444 21.094-21.094 21.094h-21.806z" fill="#ff7eb8"/><path d="m46.113 327.746v17.08h21.806c10.273 0 18.792-7.356 20.668-17.08z" fill="#ff5ba8"/><ellipse cx="46.113" cy="323.732" fill="#ffdbed" rx="15.708" ry="21.094"/></g><path d="m116.52 273.745c0-3.247 2.632-5.879 5.879-5.879h15c3.247 0 5.879 2.632 5.879 5.879 0 3.247-2.632 5.879-5.879 5.879h-15c-3.247 0-5.879-2.632-5.879-5.879z" fill="#00d890"/></g><path d="m475.51 142.575c-3.713 0-7.426-1.413-10.253-4.24-5.653-5.653-5.653-14.852 0-20.505 5.653-5.655 14.853-5.654 20.506 0 5.653 5.653 5.653 14.852 0 20.505-2.826 2.827-6.539 4.24-10.253 4.24zm.001-18.991c-1.153 0-2.305.438-3.182 1.315-1.754 1.755-1.754 4.609 0 6.364 1.753 1.754 4.609 1.754 6.364 0 1.754-1.755 1.754-4.609 0-6.364-.878-.876-2.03-1.315-3.182-1.315z" fill="#00eca2"/><path d="m230.08 472.518c-3.713 0-7.426-1.413-10.253-4.24-5.654-5.653-5.654-14.852 0-20.506 5.653-5.655 14.852-5.654 20.506 0 5.654 5.653 5.654 14.853 0 20.506-2.827 2.827-6.54 4.24-10.253 4.24zm0-18.991c-1.153 0-2.305.438-3.182 1.315-1.755 1.755-1.755 4.61 0 6.365 1.753 1.753 4.609 1.755 6.364 0s1.755-4.61 0-6.365c-.877-.877-2.03-1.315-3.182-1.315z" fill="#ff7eb8"/><path d="m105.506 126.022c-3.873 0-7.515-1.509-10.253-4.248-5.653-5.653-5.653-14.852.001-20.505 5.653-5.655 14.853-5.654 20.506 0 5.653 5.653 5.653 14.852 0 20.505-2.739 2.739-6.38 4.248-10.254 4.248zm.001-18.998c-1.153 0-2.305.438-3.182 1.315-1.754 1.755-1.754 4.609 0 6.364.85.851 1.98 1.318 3.182 1.318s2.332-.468 3.182-1.318c1.755-1.755 1.755-4.609 0-6.364-.877-.877-2.03-1.315-3.182-1.315z" fill="#ff7eb8"/><g fill="#6583fe"><path d="m197.224 453.525c-1.28 0-2.559-.488-3.536-1.465l-5.964-5.964-5.964 5.964c-1.953 1.953-5.118 1.953-7.071 0-1.953-1.952-1.953-5.118 0-7.07l9.5-9.5c1.953-1.953 5.118-1.953 7.071 0l9.5 9.5c1.953 1.952 1.953 5.118 0 7.07-.977.977-2.256 1.465-3.536 1.465z"/><path d="m317.581 71.62c-1.28 0-2.559-.488-3.536-1.465l-5.964-5.964-5.964 5.964c-1.953 1.953-5.118 1.953-7.071 0-1.953-1.952-1.953-5.118 0-7.07l9.5-9.5c1.953-1.953 5.118-1.953 7.071 0l9.5 9.5c1.953 1.952 1.953 5.118 0 7.07-.977.976-2.256 1.465-3.536 1.465z"/></g></g></g></svg>