<svg id="Capa_1" enable-background="new 0 0 512 512" height="512" viewBox="0 0 512 512" width="512" xmlns="http://www.w3.org/2000/svg" xmlns:xlink="http://www.w3.org/1999/xlink"><linearGradient id="SVGID_1_" gradientUnits="userSpaceOnUse" x1="432.334" x2="198.334" y1="487.734" y2="177.734"><stop offset="0" stop-color="#c6d1ff"/><stop offset=".5834" stop-color="#e6d5f4"/><stop offset=".997" stop-color="#ffd9ec"/></linearGradient><linearGradient id="lg1"><stop offset=".0028" stop-color="#ff7eb8" stop-opacity="0"/><stop offset="1" stop-color="#ff7eb8" stop-opacity=".6"/></linearGradient><linearGradient id="SVGID_2_" gradientUnits="userSpaceOnUse" x1="165.422" x2="165.422" xlink:href="#lg1" y1="135.074" y2="313.228"/><linearGradient id="SVGID_3_" gradientUnits="userSpaceOnUse" x1="439.78" x2="439.78" xlink:href="#lg1" y1="57.002" y2="395.377"/><g><g><path d="m501.873 138.671c-22.357-56.888-91.226-91.003-149.556-68.427-66.582 25.77-44.506 131.673-104.983 153.088-32.669 11.568-80.962-31.644-113.969-38.271-60.821-12.21-115.881 30.705-129.439 90.134-13.832 60.63 8.353 141.61 74.967 158.066 79.35 19.603 120.683-51.729 187.249-72.211 68.31-21.019 144.263 28.622 200.814-31.776 41.78-44.62 57.055-134.271 34.917-190.603z" fill="url(#SVGID_1_)"/></g><g><g><path d="m371.355 225.152-49.961-47.193c-3.189-3.012-8.433-.751-8.433 3.635v22.687h-69.647c-2.761 0-5 2.239-5 5v39.013c0 2.761 2.239 5 5 5h69.647v22.687c0 4.386 5.245 6.647 8.433 3.635l49.961-47.193c2.089-1.974 2.089-5.298 0-7.271z" fill="#02ffb3"/><path d="m418.917 395.375h-343.214c-22.684 0-41.074-18.389-41.074-41.074 0-22.684 18.389-41.074 41.074-41.074h343.214c22.684 0 41.074 18.389 41.074 41.074 0 22.685-18.389 41.074-41.074 41.074z" fill="#8399fe"/><g><g><ellipse cx="92.427" cy="354.301" fill="#b7c5ff" rx="24.383" ry="24.383" transform="matrix(.924 -.383 .383 .924 -128.55 62.34)"/><ellipse cx="92.427" cy="354.301" fill="#ff7eb8" rx="11.042" ry="11.042" transform="matrix(.16 -.987 .987 .16 -272.105 388.782)"/></g><g transform="matrix(.707 -.707 .707 .707 -205.312 212.936)"><ellipse cx="154.38" cy="354.301" fill="#b7c5ff" rx="24.383" ry="24.383"/><ellipse cx="154.38" cy="354.301" fill="#ff7eb8" rx="11.042" ry="11.042"/></g><g transform="matrix(.23 -.973 .973 .23 -178.193 483.446)"><ellipse cx="216.334" cy="354.301" fill="#b7c5ff" rx="24.383" ry="24.383"/><ellipse cx="216.334" cy="354.301" fill="#ff7eb8" rx="11.042" ry="11.042"/></g><g><ellipse cx="278.287" cy="354.301" fill="#b7c5ff" rx="24.383" ry="24.383" transform="matrix(.924 -.383 .383 .924 -114.402 133.465)"/><ellipse cx="278.287" cy="354.301" fill="#ff7eb8" rx="11.042" ry="11.042" transform="matrix(.23 -.973 .973 .23 -130.474 543.743)"/></g><g><ellipse cx="340.241" cy="354.301" fill="#b7c5ff" rx="24.383" ry="24.383" transform="matrix(.924 -.383 .383 .924 -109.686 157.174)"/><ellipse cx="340.241" cy="354.301" fill="#ff7eb8" rx="11.042" ry="11.042" transform="matrix(.16 -.987 .987 .16 -63.986 633.396)"/></g><g transform="matrix(.707 -.707 .707 .707 -132.729 388.167)"><ellipse cx="402.194" cy="354.301" fill="#b7c5ff" rx="24.383" ry="24.383"/><ellipse cx="402.194" cy="354.301" fill="#ff7eb8" rx="11.042" ry="11.042"/></g></g><g><path d="m424.079 59.12-18.043 14.085c-2.427 1.895-3.846 4.803-3.846 7.883v314.29h70.18c2.761 0 5-2.239 5-5v-328.376c0-2.761-2.239-5-5-5h-42.137c-2.23 0-4.396.746-6.154 2.118z" fill="#6583fe"/><path d="m477.368 367.438h-34.651c-2.761 0-5-2.239-5-5v-10.868c0-2.761 2.239-5 5-5h34.651z" fill="#4369fd"/><path d="m477.37 233.787v22.68h-11.34c-2.76 0-5-2.24-5-5v-12.68c0-2.76 2.24-5 5-5z" fill="#b7c5ff"/><path d="m477.37 267.017v22.68h-11.34c-2.76 0-5-2.24-5-5v-12.68c0-2.76 2.24-5 5-5z" fill="#b7c5ff"/><path d="m477.368 208.466h-48.49c-2.762 0-5-2.239-5-5v-55.799c0-2.762 2.238-5 5-5h48.49z" fill="#02ffb3"/><g fill="#97ffd2"><path d="m423.878 191.563v11.902c0 1.889 1.06 3.513 2.606 4.364 16.935-17.026 33.905-34.017 50.884-50.998v-14.164h-4.668c-16.283 16.289-32.559 32.586-48.822 48.896z"/><path d="m437.502 208.466h39.866v-39.867z"/></g></g><path d="m446.556 256.465h-17.678c-2.762 0-5-2.239-5-5v-12.678c0-2.762 2.238-5 5-5h17.678c2.761 0 5 2.238 5 5v12.678c0 2.762-2.238 5-5 5z" fill="#b7c5ff"/><path d="m446.556 289.696h-17.678c-2.762 0-5-2.239-5-5v-12.678c0-2.762 2.238-5 5-5h17.678c2.761 0 5 2.238 5 5v12.678c0 2.761-2.238 5-5 5z" fill="#b7c5ff"/><path d="m428.556 82.935c0 2.584-2.094 4.678-4.678 4.678s-4.678-2.094-4.678-4.678c0-2.583 2.094-4.678 4.678-4.678s4.678 2.095 4.678 4.678z" fill="#2d58e0"/><g fill="#6583fe"><path d="m128.081 374.007c0 2.583-2.094 4.678-4.678 4.678-2.583 0-4.678-2.094-4.678-4.678s2.094-4.678 4.678-4.678 4.678 2.094 4.678 4.678z"/><path d="m190.035 374.007c0 2.583-2.094 4.678-4.678 4.678s-4.678-2.094-4.678-4.678 2.094-4.678 4.678-4.678 4.678 2.094 4.678 4.678z"/></g><g fill="#6583fe"><path d="m251.988 374.007c0 2.583-2.094 4.678-4.678 4.678s-4.678-2.094-4.678-4.678 2.094-4.678 4.678-4.678 4.678 2.094 4.678 4.678z"/><path d="m313.942 374.007c0 2.583-2.094 4.678-4.678 4.678s-4.678-2.094-4.678-4.678 2.094-4.678 4.678-4.678c2.583 0 4.678 2.094 4.678 4.678z"/></g><g><path d="m375.895 374.007c0 2.583-2.094 4.678-4.678 4.678s-4.678-2.094-4.678-4.678 2.094-4.678 4.678-4.678 4.678 2.094 4.678 4.678z" fill="#6583fe"/></g></g><g><g><path d="m244.499 313.228h-158.153c-5.523 0-10-4.477-10-10v-158.154c0-5.523 4.477-10 10-10h158.153c5.523 0 10 4.477 10 10v158.154c0 5.522-4.477 10-10 10z" fill="#ffa8cf"/><path d="m101.345 160.074h128.154v128.153h-128.154z" fill="#ff5ba8" transform="matrix(0 1 -1 0 389.573 58.729)"/><path d="m214.819 171.692-113.47 113.47v-113.47z" fill="#ff7eb8"/><path d="m217.889 218.241v69.991h-84.26l74.176-74.168c3.722-3.721 10.084-1.085 10.084 4.177z" fill="#ff7eb8"/><path d="m213.466 280.125h-22.134c-2.761 0-5-2.239-5-5v-7.154c0-2.761 2.239-5 5-5h22.134c2.761 0 5 2.239 5 5v7.154c0 2.761-2.239 5-5 5z" fill="#02ffb3"/></g><path d="m154.466 125.345h25v194.697h-25z" fill="#ffa8cf" transform="matrix(.707 .707 -.707 .707 206.372 -52.838)"/></g><path d="m190.035 454.991c-3.714 0-7.427-1.413-10.253-4.24-5.654-5.654-5.654-14.853 0-20.506 5.651-5.652 14.852-5.654 20.505 0 5.654 5.654 5.654 14.853 0 20.506-2.826 2.827-6.539 4.24-10.252 4.24zm0-18.991c-1.152 0-2.305.438-3.183 1.316-1.754 1.754-1.754 4.609 0 6.364 1.755 1.754 4.607 1.756 6.364 0 1.754-1.754 1.754-4.609 0-6.364-.877-.877-2.03-1.316-3.181-1.316z" fill="#ff7eb8"/><path d="m240.717 104.317c-3.713 0-7.427-1.414-10.253-4.24-5.654-5.654-5.654-14.853 0-20.506 5.652-5.653 14.854-5.653 20.506 0 5.654 5.654 5.654 14.853 0 20.506-2.826 2.827-6.54 4.24-10.253 4.24zm0-18.991c-1.152 0-2.305.438-3.183 1.316-1.754 1.754-1.754 4.609 0 6.364 1.756 1.755 4.609 1.755 6.365 0 1.754-1.754 1.754-4.609 0-6.364-.878-.877-2.03-1.316-3.182-1.316z" fill="#00eca2"/><path d="m247.813 450.248c-1.279 0-2.56-.488-3.535-1.464l-5.965-5.964-5.965 5.964c-1.951 1.952-5.119 1.952-7.07 0-1.953-1.953-1.953-5.119 0-7.071l9.5-9.5c1.951-1.952 5.119-1.952 7.07 0l9.5 9.5c1.953 1.953 1.953 5.119 0 7.071-.975.975-2.255 1.464-3.535 1.464z" fill="#00eca2"/><g fill="#6583fe"><path d="m454.925 454.998c-1.279 0-2.56-.488-3.535-1.464l-5.965-5.964-5.965 5.964c-1.951 1.952-5.119 1.952-7.07 0-1.953-1.953-1.953-5.119 0-7.071l9.5-9.5c1.951-1.952 5.119-1.952 7.07 0l9.5 9.5c1.953 1.953 1.953 5.119 0 7.071-.976.975-2.256 1.464-3.535 1.464z"/><path d="m291.458 121.752c-1.279 0-2.56-.488-3.535-1.464l-5.965-5.964-5.965 5.964c-1.951 1.952-5.119 1.952-7.07 0-1.953-1.953-1.953-5.119 0-7.071l9.5-9.5c1.951-1.952 5.119-1.952 7.07 0l9.5 9.5c1.953 1.953 1.953 5.119 0 7.071-.975.976-2.256 1.464-3.535 1.464z"/></g></g><path d="m244.499 313.228h-158.153c-5.523 0-10-4.477-10-10v-158.154c0-5.523 4.477-10 10-10h158.153c5.523 0 10 4.477 10 10v158.154c0 5.522-4.477 10-10 10z" fill="url(#SVGID_2_)"/><path d="m424.079 59.12-18.043 14.085c-2.427 1.895-3.846 4.803-3.846 7.883v314.29h70.18c2.761 0 5-2.239 5-5v-328.376c0-2.761-2.239-5-5-5h-42.137c-2.23 0-4.396.746-6.154 2.118z" fill="url(#SVGID_3_)"/></g></svg>