<svg id="Capa_1" enable-background="new 0 0 512 512" height="512" viewBox="0 0 512 512" width="512" xmlns="http://www.w3.org/2000/svg" xmlns:xlink="http://www.w3.org/1999/xlink"><linearGradient id="SVGID_1_" gradientUnits="userSpaceOnUse" x1="479.976" x2="276.976" y1="332.861" y2="249.861"><stop offset="0" stop-color="#c6d1ff"/><stop offset=".5834" stop-color="#e6d5f4"/><stop offset=".997" stop-color="#ffd9ec"/></linearGradient><linearGradient id="SVGID_2_" gradientUnits="userSpaceOnUse" x1="264.727" x2="264.727" y1="113.491" y2="273.671"><stop offset=".0028" stop-color="#ff7eb8" stop-opacity="0"/><stop offset="1" stop-color="#ff7eb8" stop-opacity=".6"/></linearGradient><g><g><path d="m344.594.425c-95.818 8.652-105.091 192.429-146.416 286.587-20.478 46.658-68.772 94.794-60.258 149.782 9.605 62.035 72.897 80.075 121.683 74.14 120.723-14.685 172.898-141.053 180.797-260.801 4.869-73.829 20.3-260.192-95.806-249.708z" fill="url(#SVGID_1_)"/></g><g><g><g><path d="m244.768 301.181h39.918v138.684h-39.918z" fill="#8399fe"/><path d="m244.768 380.271h39.918v30.443h-39.918z" fill="#9fb0fe"/><path d="m244.768 301.181h39.918v19.812h-39.918z" fill="#6583fe"/><path d="m311.264 301.181h-93.074c-5.523 0-10-4.477-10-10v-23.825h113.074v23.825c0 5.523-4.477 10-10 10z" fill="#fe2c8f"/><path d="m429.117 153.491v110.18c0 5.53-4.48 10-10 10h-308.78c-5.52 0-10-4.47-10-10v-110.18c0-22.1 17.91-40 40-40h248.78c22.09 0 40 17.9 40 40z" fill="#ff7eb8"/><path d="m327.677 113.491v36.93c0 3.9-2.27 7.44-5.8 9.08l-16.92 7.83v48.11c0 3.03-1.23 5.77-3.21 7.76-1.98 1.98-4.72 3.21-7.75 3.21-6.06 0-10.97-4.91-10.97-10.97v-101.95z" fill="#ff5ba8"/><path d="m100.338 248.51v15.165c0 5.523 4.477 10 10 10h308.778c5.523 0 10-4.477 10-10v-15.165z" fill="#ff5ba8"/><path d="m261.647 153.49v110.18c0 5.53-4.48 10-10 10h-141.31c-5.52 0-10-4.47-10-10v-110.18c0-22.09 17.91-40 40-40h81.31c22.09 0 40 17.91 40 40z" fill="#ffa8cf"/><path d="m196.027 136.08c0 35.31-28.62 63.94-63.94 63.94-11.56 0-22.39-3.07-31.75-8.43v-38.1c0-22.09 17.91-40 40-40h51.58c2.66 7.02 4.11 14.64 4.11 22.59z" fill="#ff7eb8"/><path d="m229.897 160.42v113.25h-97.81v-113.25c0-5.52 4.48-10 10-10h77.81c5.52 0 10 4.48 10 10z" fill="#ff5ba8"/><path d="m194.407 150.42c-6.5 28.41-31.93 49.6-62.32 49.6v-39.6c0-5.52 4.48-10 10-10z" fill="#fe2c8f"/><path d="m132.087 166.84h97.81v12.57h-97.81z" fill="#ff7eb8"/><path d="m188.147 166.84c-2.5 4.56-5.54 8.78-9.04 12.57h-47.02v-12.57z" fill="#ff5ba8"/><g fill="#ff7eb8"><path d="m132.087 191.98h97.81v12.57h-97.81z"/><path d="m132.087 217.121h97.81v12.57h-97.81z"/><path d="m132.087 242.261h97.81v12.57h-97.81z"/></g><path d="m429.117 153.491v110.18c0 5.53-4.48 10-10 10h-308.78c-5.52 0-10-4.47-10-10v-110.18c0-22.1 17.91-40 40-40h248.78c22.09 0 40 17.9 40 40z" fill="url(#SVGID_2_)"/><path d="m317.672 72.135h-24.647c-5.523 0-10 4.477-10 10v111.446c0 6.057 4.91 10.968 10.968 10.968 6.057 0 10.968-4.91 10.968-10.968v-48.113l16.913-7.83c3.536-1.637 5.799-5.178 5.799-9.075v-46.428c-.001-5.523-4.478-10-10.001-10z" fill="#fe2c8f"/></g><g><ellipse cx="132.087" cy="115.466" fill="#02ffb3" rx="63.944" ry="63.944" transform="matrix(.707 -.707 .707 .707 -42.96 127.219)"/></g><g><path d="m163.996 139.139h-63.819c-2.001 0-3.622-1.622-3.622-3.622v-40.1c0-2 1.622-3.622 3.622-3.622h63.819c2 0 3.622 1.622 3.622 3.622v40.1c.001 2-1.621 3.622-3.622 3.622z" fill="#9fb0fe"/><path d="m133.19 109.07 34.429 26.447c0 2.001-1.622 3.622-3.622 3.622h-63.819c-2.001 0-3.622-1.622-3.622-3.622l34.429-26.447c.649-.5 1.555-.5 2.205 0z" fill="#8399fe"/><path d="m130.984 121.863-34.429-26.446c0-2 1.622-3.622 3.622-3.622h63.819c2 0 3.622 1.622 3.622 3.622l-34.429 26.447c-.649.499-1.555.499-2.205-.001z" fill="#b7c5ff"/></g><path d="m132.087 191.98h31.06c-9.19 5.12-19.78 8.04-31.06 8.04z" fill="#ff5ba8"/></g><path d="m148.181 335.486c-3.713 0-7.426-1.413-10.253-4.24-5.654-5.653-5.654-14.852 0-20.506 5.653-5.655 14.853-5.654 20.506 0 5.654 5.653 5.654 14.853 0 20.506-2.826 2.827-6.539 4.24-10.253 4.24zm.001-18.991c-1.153 0-2.305.438-3.182 1.315-1.755 1.755-1.755 4.61 0 6.365 1.753 1.753 4.609 1.755 6.364 0s1.755-4.61 0-6.365c-.877-.876-2.03-1.315-3.182-1.315z" fill="#00eca2"/><path d="m197.798 367.47c-1.28 0-2.559-.488-3.536-1.465l-5.964-5.964-5.964 5.964c-1.953 1.953-5.118 1.953-7.071 0-1.953-1.952-1.953-5.118 0-7.07l9.5-9.5c1.953-1.953 5.118-1.953 7.071 0l9.5 9.5c1.953 1.952 1.953 5.118 0 7.07-.977.976-2.257 1.465-3.536 1.465z" fill="#6583fe"/><path d="m248.897 63.785c-1.28 0-2.559-.488-3.536-1.465l-5.964-5.964-5.964 5.964c-1.953 1.953-5.118 1.953-7.071 0-1.953-1.952-1.953-5.118 0-7.07l9.5-9.5c1.953-1.953 5.118-1.953 7.071 0l9.5 9.5c1.953 1.952 1.953 5.118 0 7.07-.977.977-2.256 1.465-3.536 1.465z" fill="#00eca2"/><g fill="#ff7eb8"><path d="m365.739 340.243c-1.28 0-2.559-.488-3.536-1.465l-5.964-5.964-5.964 5.964c-1.953 1.953-5.118 1.953-7.071 0-1.953-1.952-1.953-5.118 0-7.07l9.5-9.5c1.953-1.953 5.118-1.953 7.071 0l9.5 9.5c1.953 1.952 1.953 5.118 0 7.07-.977.977-2.256 1.465-3.536 1.465z"/><path d="m177.448 446.062c-3.713 0-7.426-1.413-10.253-4.24-2.739-2.738-4.247-6.379-4.247-10.253 0-3.873 1.508-7.514 4.248-10.253 5.652-5.653 14.851-5.654 20.505.001 5.653 5.653 5.653 14.852 0 20.505-2.827 2.827-6.541 4.24-10.253 4.24zm0-18.99c-1.152 0-2.305.438-3.182 1.315-.851.851-1.318 1.98-1.318 3.182s.468 2.332 1.318 3.182c1.755 1.756 4.61 1.755 6.364.001 1.754-1.755 1.754-4.609 0-6.364-.878-.877-2.03-1.316-3.182-1.316z"/></g></g></g></svg>