<svg id="Capa_1" enable-background="new 0 0 512 512" height="512" viewBox="0 0 512 512" width="512" xmlns="http://www.w3.org/2000/svg" xmlns:xlink="http://www.w3.org/1999/xlink"><linearGradient id="SVGID_1_" gradientUnits="userSpaceOnUse" x1="253.454" x2="259.451" y1="514.668" y2="6.866"><stop offset=".0112" stop-color="#dafced"/><stop offset=".3814" stop-color="#e7f0ed"/><stop offset="1" stop-color="#ffd9ec"/></linearGradient><linearGradient id="SVGID_2_" gradientUnits="userSpaceOnUse" x1="256" x2="256" y1="250.723" y2="441.024"><stop offset=".0028" stop-color="#ff7eb8" stop-opacity="0"/><stop offset="1" stop-color="#ff7eb8" stop-opacity=".6"/></linearGradient><g><g><path d="m367.602 51.829c-68.76-27.809-164.519-18.631-217.922 29.019-37.707 33.645-8.934 43.685 15.8 106.316 17.901 45.33-164.545 37.042-165.473 118.573-1.073 94.257 131.322 77.894 180.254 89.242 74.814 17.35 139.542 79.805 219.771 72.582 69.844-6.288 97.063-60.73 107.479-123.379 19.405-116.717-23.529-245.283-139.909-292.353z" fill="url(#SVGID_1_)"/></g><g><g><g><g><path d="m433.197 262.039v167.668c0 6.247-5.07 11.317-11.317 11.317h-331.76c-6.247 0-11.317-5.07-11.317-11.317v-167.668c0-6.247 5.07-11.317 11.317-11.317h331.76c6.247.001 11.317 5.07 11.317 11.317z" fill="#97ffd2"/><g fill="#dcfdee"><path d="m90.12 250.723h16.477v27.16h-27.794v-15.843c0-6.247 5.07-11.317 11.317-11.317z"/><path d="m78.803 413.876h27.794v27.149h-16.477c-6.247 0-11.317-5.07-11.317-11.317z"/><path d="m433.197 262.04v15.843h-27.794v-27.16h16.477c6.247 0 11.317 5.07 11.317 11.317z"/><path d="m405.403 413.876h27.794v15.832c0 6.247-5.07 11.317-11.317 11.317h-16.477z"/></g><path d="m95.778 267.698h320.444v156.351h-320.444z" fill="#01eca5"/><path d="m365.286 413.872c-4.911 0-8.893-3.981-8.893-8.893v-118.209c0-4.911 3.981-8.893 8.893-8.893 4.911 0 8.893 3.981 8.893 8.893v118.209c-.001 4.912-3.982 8.893-8.893 8.893z" fill="#00d890"/><path d="m396.51 413.872c-4.911 0-8.893-3.981-8.893-8.893v-118.209c0-4.911 3.981-8.893 8.893-8.893 4.911 0 8.893 3.981 8.893 8.893v118.209c0 4.912-3.982 8.893-8.893 8.893z" fill="#00d890"/><path d="m177.939 413.872c-4.911 0-8.893-3.981-8.893-8.893v-118.209c0-4.911 3.981-8.893 8.893-8.893 4.911 0 8.893 3.981 8.893 8.893v118.209c0 4.912-3.981 8.893-8.893 8.893z" fill="#00d890"/></g><g fill="#00d890"><path d="m115.491 413.872c-4.911 0-8.893-3.981-8.893-8.893v-118.209c0-4.911 3.981-8.893 8.893-8.893 4.911 0 8.893 3.981 8.893 8.893v118.209c-.001 4.912-3.982 8.893-8.893 8.893z"/><path d="m146.715 413.872c-4.911 0-8.893-3.981-8.893-8.893v-118.209c0-4.911 3.981-8.893 8.893-8.893 4.911 0 8.893 3.981 8.893 8.893v118.209c0 4.912-3.982 8.893-8.893 8.893z"/><path d="m209.164 413.872c-4.911 0-8.893-3.981-8.893-8.893v-118.209c0-4.911 3.981-8.893 8.893-8.893 4.911 0 8.893 3.981 8.893 8.893v118.209c-.001 4.912-3.982 8.893-8.893 8.893z"/><path d="m240.388 413.872c-4.911 0-8.893-3.981-8.893-8.893v-118.209c0-4.911 3.981-8.893 8.893-8.893 4.911 0 8.893 3.981 8.893 8.893v118.209c0 4.912-3.982 8.893-8.893 8.893z"/><path d="m271.612 413.872c-4.911 0-8.893-3.981-8.893-8.893v-118.209c0-4.911 3.981-8.893 8.893-8.893 4.911 0 8.893 3.981 8.893 8.893v118.209c0 4.912-3.981 8.893-8.893 8.893z"/><path d="m302.837 413.872c-4.911 0-8.893-3.981-8.893-8.893v-118.209c0-4.911 3.981-8.893 8.893-8.893 4.911 0 8.893 3.981 8.893 8.893v118.209c-.001 4.912-3.982 8.893-8.893 8.893z"/><path d="m334.061 413.872c-4.911 0-8.893-3.981-8.893-8.893v-118.209c0-4.911 3.981-8.893 8.893-8.893 4.911 0 8.893 3.981 8.893 8.893v118.209c0 4.912-3.982 8.893-8.893 8.893z"/></g></g><path d="m270.483 121.32h-28.966c-5.523 0-10-4.477-10-10v-18.363h48.966v18.362c0 5.523-4.477 10.001-10 10.001z" fill="#9fb0fe"/><path d="m231.517 92.957h48.966v16.785h-48.966z" fill="#8399fe"/><path d="m288.294 61.542v26.415c0 2.761-2.239 5-5 5h-54.588c-2.761 0-5-2.239-5-5v-26.415z" fill="#ff7eb8"/><path d="m258.519 61.542h16.43v31.415h-16.43z" fill="#ffa8cf"/><g><path d="m410.402 243.588c0-2.762-2.238-5-5-5-2.54 0-4.615 1.901-4.935 4.354l-124.413-57.348c.172-.911.303-1.834.347-2.78.359-7.844-3.685-15.067-10.555-18.854-2.989-1.647-4.847-4.626-4.847-7.774v-34.866h-10v34.867c0 6.792 3.84 13.127 10.02 16.532 3.15 1.736 5.121 4.891 5.362 8.418l-8.29-3.821c-1.328-.611-2.857-.611-4.186 0l-8.398 3.871c-.33-2.442-2.4-4.33-4.932-4.33-2.762 0-5 2.238-5 5 0 1.273.13 2.522.355 3.744l-124.4 57.341c-.32-2.453-2.394-4.354-4.935-4.354-2.762 0-5 2.238-5 5v25.715c0 2.762 2.238 5 5 5s5-2.238 5-5v-16.101l128.529-58.522c.549.676 1.129 1.334 1.771 1.947 3.838 3.666 8.809 5.653 14.089 5.653.322 0 .647-.008.973-.023 5.966-.274 11.306-3.196 14.88-7.594l128.564 58.539v16.101c0 2.762 2.238 5 5 5s5-2.238 5-5v-25.715zm-153.903-51.321c-2.449.113-4.782-.612-6.704-2.044l6.205-2.86 6.184 2.85c-1.613 1.2-3.57 1.957-5.685 2.054z" fill="#2d58e0"/></g></g><path d="m88.304 192.024c-3.874 0-7.515-1.509-10.254-4.248-5.652-5.653-5.652-14.852.001-20.505 5.652-5.655 14.853-5.653 20.505 0 5.654 5.653 5.654 14.852 0 20.505-2.739 2.739-6.379 4.248-10.252 4.248zm-.001-18.998c-1.151 0-2.304.439-3.182 1.315-1.754 1.755-1.754 4.609 0 6.364.851.851 1.98 1.318 3.183 1.318 1.201 0 2.331-.468 3.181-1.318 1.755-1.755 1.755-4.609.001-6.364-.879-.877-2.031-1.315-3.183-1.315z" fill="#ff7eb8"/><path d="m325.951 109.554c-3.873 0-7.515-1.509-10.254-4.248-5.653-5.653-5.653-14.852.001-20.505 5.652-5.654 14.854-5.654 20.506 0 5.654 5.653 5.654 14.852 0 20.505-2.738 2.739-6.38 4.248-10.253 4.248zm0-18.998c-1.152 0-2.305.438-3.183 1.315-1.754 1.755-1.754 4.609 0 6.364.85.851 1.98 1.318 3.183 1.318 1.202 0 2.332-.468 3.182-1.318 1.755-1.755 1.755-4.609.001-6.364-.878-.877-2.031-1.315-3.183-1.315z" fill="#6583fe"/><path d="m290.005 475.775c-1.279 0-2.56-.488-3.535-1.465l-5.965-5.964-5.965 5.964c-1.951 1.953-5.119 1.953-7.07 0-1.953-1.952-1.953-5.118 0-7.07l9.5-9.5c1.951-1.953 5.119-1.953 7.07 0l9.5 9.5c1.953 1.952 1.953 5.118 0 7.07-.976.976-2.256 1.465-3.535 1.465z" fill="#6583fe"/><path d="m475.237 374.197c-1.279 0-2.56-.488-3.535-1.465l-5.965-5.964-5.965 5.964c-1.951 1.953-5.119 1.953-7.07 0-1.953-1.952-1.953-5.118 0-7.07l9.5-9.5c1.951-1.953 5.119-1.953 7.07 0l9.5 9.5c1.953 1.952 1.953 5.118 0 7.07-.975.977-2.255 1.465-3.535 1.465z" fill="#ff7eb8"/><path d="m128.043 212.294c-1.279 0-2.56-.488-3.535-1.465l-5.965-5.964-5.965 5.964c-1.951 1.953-5.119 1.953-7.07 0-1.953-1.952-1.953-5.118 0-7.07l9.5-9.5c1.951-1.953 5.119-1.953 7.07 0l9.5 9.5c1.953 1.952 1.953 5.118 0 7.07-.976.977-2.256 1.465-3.535 1.465z" fill="#00eca2"/></g><path d="m433.197 262.039v167.668c0 6.247-5.07 11.317-11.317 11.317h-331.76c-6.247 0-11.317-5.07-11.317-11.317v-167.668c0-6.247 5.07-11.317 11.317-11.317h331.76c6.247.001 11.317 5.07 11.317 11.317z" fill="url(#SVGID_2_)"/></g></svg>