<svg id="Capa_1" enable-background="new 0 0 512 512" height="512" viewBox="0 0 512 512" width="512" xmlns="http://www.w3.org/2000/svg" xmlns:xlink="http://www.w3.org/1999/xlink"><linearGradient id="SVGID_1_" gradientUnits="userSpaceOnUse" x1="222.235" x2="284.235" y1="148.596" y2="339.929"><stop offset=".0112" stop-color="#dafced"/><stop offset=".761" stop-color="#cbdcfa"/><stop offset="1" stop-color="#c6d1ff"/></linearGradient><linearGradient id="SVGID_2_" gradientUnits="userSpaceOnUse" x1="124.931" x2="124.931" y1="366.195" y2="463.736"><stop offset=".0028" stop-color="#ff7eb8" stop-opacity="0"/><stop offset="1" stop-color="#ff7eb8" stop-opacity=".6"/></linearGradient><g><g><path d="m501.873 138.223c-22.357-56.888-91.226-91.003-149.556-68.427-68.57 26.539-43.27 131.236-104.983 153.088-32.669 11.568-80.962-31.644-113.969-38.27-60.821-12.21-115.881 30.705-129.439 90.134-13.832 60.629 8.353 141.61 74.967 158.066 79.35 19.602 120.683-51.729 187.249-72.211 68.311-21.019 144.263 28.622 200.814-31.776 41.78-44.622 57.055-134.273 34.917-190.604z" fill="url(#SVGID_1_)"/></g><g><g><g><g><path d="m135.061 250.912h-20.259c-3.863 0-6.994-3.131-6.994-6.994v-12.842h34.247v12.842c0 3.863-3.131 6.994-6.994 6.994z" fill="#9fb0fe"/><path d="m147.518 159.104v68.475c0 1.931-1.566 3.497-3.497 3.497h-38.179c-1.931 0-3.497-1.566-3.497-3.497v-68.475" fill="#ff7eb8"/><path d="m102.345 159.104h45.173v28.877h-45.173z" fill="#ff5ba8"/></g><g><g><g><path d="m213.99 372.817v84.297c0 3.655-2.967 6.622-6.622 6.622h-164.873c-3.655 0-6.622-2.967-6.622-6.622v-84.297c0-3.655 2.967-6.622 6.622-6.622h164.872c3.656 0 6.623 2.966 6.623 6.622z" fill="#97ffd2"/><g fill="#dcfdee"><path d="m42.495 366.195h9.642v15.893h-16.264v-9.271c0-3.655 2.967-6.622 6.622-6.622z"/><path d="m35.873 447.85h16.264v15.886h-9.642c-3.655 0-6.622-2.967-6.622-6.622z"/><path d="m213.99 372.817v9.271h-16.264v-15.893h9.642c3.655 0 6.622 2.967 6.622 6.622z"/><path d="m197.726 447.85h16.264v9.264c0 3.655-2.967 6.622-6.622 6.622h-9.642z"/></g><path d="m49.731 378.054h150.402v73.823h-150.402z" fill="#01eca5"/><path d="m81.291 446.382c-2.746 0-4.972-2.226-4.972-4.972v-52.888c0-2.746 2.226-4.972 4.972-4.972 2.746 0 4.972 2.226 4.972 4.972v52.888c-.001 2.746-2.227 4.972-4.972 4.972z" fill="#00d890"/><path d="m168.572 446.382c-2.746 0-4.972-2.226-4.972-4.972v-52.888c0-2.746 2.226-4.972 4.972-4.972 2.746 0 4.972 2.226 4.972 4.972v52.888c0 2.746-2.226 4.972-4.972 4.972z" fill="#00d890"/><path d="m186.029 446.382c-2.746 0-4.972-2.226-4.972-4.972v-52.888c0-2.746 2.226-4.972 4.972-4.972 2.746 0 4.972 2.226 4.972 4.972v52.888c-.001 2.746-2.227 4.972-4.972 4.972z" fill="#00d890"/></g><g fill="#00d890"><path d="m63.834 446.382c-2.746 0-4.972-2.226-4.972-4.972v-52.888c0-2.746 2.226-4.972 4.972-4.972 2.746 0 4.972 2.226 4.972 4.972v52.888c0 2.746-2.226 4.972-4.972 4.972z"/><path d="m98.747 446.382c-2.746 0-4.971-2.226-4.971-4.972v-52.888c0-2.746 2.226-4.972 4.971-4.972 2.746 0 4.972 2.226 4.972 4.972v52.888c0 2.746-2.226 4.972-4.972 4.972z"/><path d="m116.203 446.382c-2.746 0-4.971-2.226-4.971-4.972v-52.888c0-2.746 2.226-4.972 4.971-4.972 2.746 0 4.972 2.226 4.972 4.972v52.888c0 2.746-2.226 4.972-4.972 4.972z"/><path d="m133.66 446.382c-2.746 0-4.972-2.226-4.972-4.972v-52.888c0-2.746 2.226-4.972 4.972-4.972 2.746 0 4.971 2.226 4.971 4.972v52.888c0 2.746-2.226 4.972-4.971 4.972z"/><path d="m151.116 446.382c-2.746 0-4.972-2.226-4.972-4.972v-52.888c0-2.746 2.226-4.972 4.972-4.972 2.746 0 4.971 2.226 4.971 4.972v52.888c.001 2.746-2.225 4.972-4.971 4.972z"/></g></g></g></g><path d="m456.887 160.599v-27.99c0-3.094-1.432-6.013-3.878-7.907l-23.378-18.099c-1.752-1.357-3.906-2.093-6.122-2.093h-335.018c-2.216 0-4.369.736-6.122 2.093l-23.378 18.099c-2.446 1.894-3.878 4.813-3.878 7.907v27.99c0 5.523 4.477 10 10 10h381.774c5.523 0 10-4.477 10-10z" fill="#ff7eb8"/><path d="m55.113 147.609v12.99c0 5.523 4.477 10 10 10h381.774c5.523 0 10-4.477 10-10v-12.99z" fill="#ffc4df"/><g><g><path d="m159.816 170.599h-47.257v-75.162c0-5.523 4.477-10 10-10h27.257c5.523 0 10 4.477 10 10z" fill="#8399fe"/><g fill="#d2deff"><path d="m136.187 155.619c-2.584 0-4.678-2.094-4.678-4.678s2.094-4.678 4.678-4.678c2.583 0 4.678 2.094 4.678 4.678s-2.094 4.678-4.678 4.678z"/><path d="m136.187 129.221c-2.584 0-4.678-2.094-4.678-4.678 0-2.583 2.094-4.678 4.678-4.678 2.583 0 4.678 2.094 4.678 4.678s-2.094 4.678-4.678 4.678z"/></g></g><g><path d="m399.441 170.599h-47.257v-75.162c0-5.523 4.477-10 10-10h27.257c5.523 0 10 4.477 10 10z" fill="#8399fe"/><g fill="#d2deff"><path d="m375.813 155.619c-2.583 0-4.678-2.094-4.678-4.678s2.094-4.678 4.678-4.678 4.678 2.094 4.678 4.678-2.095 4.678-4.678 4.678z"/><path d="m375.813 129.221c-2.583 0-4.678-2.094-4.678-4.678 0-2.583 2.094-4.678 4.678-4.678s4.678 2.094 4.678 4.678c-.001 2.584-2.095 4.678-4.678 4.678z"/></g></g></g><g fill="#4369fd"><path d="m416.78 170.612c-.368 1.336-1.061 3.508-1.964 4.987-5.072 8.742-22.922 14.49-39.201 14.49s-34.129-5.748-39.201-14.49c-1.266-1.953-2.201-3.592-2.893-5.001h-6.867c-.803 1.422-1.843 3.104-3.077 5.001-5.072 8.742-22.922 14.49-39.201 14.49s-34.129-5.748-39.201-14.49c-1.169-1.668-2.18-3.454-2.953-5.001l-7.274.019c-.637 1.746-1.505 3.237-2.609 4.981-5.072 8.742-22.922 14.49-39.201 14.49s-34.129-5.748-39.201-14.49c-.885-1.339-1.879-3.178-2.626-5.001h-3.792l-.044 12.974c1.398 1.897 5.044 4.829 5.044 4.829 9.155 7.142 23.808 11.687 40.62 11.687 20.336 0 37.512-6.651 45.619-16.503 8.107 9.852 25.283 16.503 45.62 16.503 20.336 0 37.512-6.651 45.619-16.503 8.107 9.852 25.283 16.503 45.619 16.503 25.451 0 46.01-10.421 49.977-24.494.734-2.432 1.23-3.974 1.408-4.997z"/><path d="m199.318 366.319v-10.715c0-2.762-2.239-5-5-5s-5 2.238-5 5v.442l-51.123-39.314c1.462-2.265 2.375-4.909 2.505-7.74.279-6.062-2.846-11.646-8.157-14.572-1.636-.901-2.612-2.442-2.612-4.121v-39.386h-10v39.386c0 5.297 2.983 10.232 7.785 12.879 1.95 1.074 3.097 3.126 2.995 5.354-.033.722-.212 1.417-.505 2.056l-2.227-1.712c-1.797-1.381-4.299-1.381-6.096 0l-2.242 1.724c-.324-.729-.497-1.523-.497-2.348 0-2.762-2.239-5-5-5s-5 2.238-5 5c0 3.023.899 5.972 2.506 8.493l-51.107 39.302v-.442c0-2.762-2.239-5-5-5s-5 2.238-5 5v10.592l12.883.124 56.301-43.171c1.65.575 3.395.89 5.192.89.25 0 .5-.006.751-.017 1.552-.072 3.048-.379 4.458-.878l55.06 43.052z"/></g></g><path d="m282.788 437.349c-3.713 0-7.427-1.413-10.253-4.24-5.653-5.653-5.653-14.852 0-20.505s14.853-5.654 20.506 0c5.653 5.653 5.653 14.852 0 20.505-2.827 2.827-6.541 4.24-10.253 4.24zm-.001-18.99c-1.152 0-2.305.439-3.182 1.315-1.754 1.755-1.754 4.609 0 6.364 1.754 1.754 4.61 1.753 6.364 0 1.754-1.755 1.754-4.609 0-6.364-.877-.876-2.029-1.315-3.182-1.315z" fill="#00eca2"/><path d="m265.5 393.769c-1.28 0-2.559-.488-3.536-1.465l-5.964-5.963-5.964 5.964c-1.953 1.953-5.118 1.953-7.071 0-1.953-1.952-1.953-5.118 0-7.07l9.5-9.5c1.953-1.953 5.118-1.953 7.071 0l9.5 9.5c1.953 1.952 1.953 5.118 0 7.07-.977.976-2.256 1.464-3.536 1.464z" fill="#6583fe"/><path d="m209.632 286.637c-1.28 0-2.559-.488-3.536-1.465l-5.964-5.964-5.964 5.964c-1.953 1.953-5.118 1.953-7.071 0-1.953-1.952-1.953-5.118 0-7.07l9.5-9.5c1.953-1.953 5.118-1.953 7.071 0l9.5 9.5c1.953 1.952 1.953 5.118 0 7.07-.977.977-2.256 1.465-3.536 1.465z" fill="#ff7eb8"/><path d="m301.515 77.251c-3.713 0-7.426-1.413-10.253-4.24-5.654-5.653-5.654-14.853 0-20.506 5.653-5.655 14.853-5.654 20.506 0 5.654 5.653 5.654 14.853 0 20.506-2.826 2.827-6.54 4.24-10.253 4.24zm.001-18.991c-1.153 0-2.305.438-3.182 1.315-1.755 1.755-1.755 4.61 0 6.365 1.753 1.754 4.609 1.754 6.364 0 1.755-1.755 1.755-4.61 0-6.365-.878-.877-2.03-1.315-3.182-1.315z" fill="#00eca2"/><path d="m451.188 229.583c-3.713 0-7.426-1.413-10.253-4.24-5.654-5.653-5.654-14.852 0-20.506 5.653-5.655 14.853-5.654 20.506 0 5.654 5.653 5.654 14.852 0 20.506-2.826 2.827-6.54 4.24-10.253 4.24zm0-18.991c-1.153 0-2.305.439-3.182 1.316-1.755 1.755-1.755 4.61 0 6.365 1.754 1.754 4.609 1.754 6.364 0 1.755-1.755 1.755-4.61 0-6.365-.877-.878-2.029-1.316-3.182-1.316z" fill="#6583fe"/></g><path d="m213.99 372.817v84.297c0 3.655-2.967 6.622-6.622 6.622h-164.873c-3.655 0-6.622-2.967-6.622-6.622v-84.297c0-3.655 2.967-6.622 6.622-6.622h164.872c3.656 0 6.623 2.966 6.623 6.622z" fill="url(#SVGID_2_)"/></g></svg>