<svg id="Capa_1" enable-background="new 0 0 512 512" height="512" viewBox="0 0 512 512" width="512" xmlns="http://www.w3.org/2000/svg" xmlns:xlink="http://www.w3.org/1999/xlink"><linearGradient id="SVGID_1_" gradientUnits="userSpaceOnUse" x1="537.242" x2="75.241" y1="396.227" y2="96.227"><stop offset=".0112" stop-color="#dafced"/><stop offset=".761" stop-color="#cbdcfa"/><stop offset="1" stop-color="#c6d1ff"/></linearGradient><linearGradient id="SVGID_2_" gradientUnits="userSpaceOnUse" x1="256" x2="256" y1="91.537" y2="410.463"><stop offset=".0028" stop-color="#ff7eb8" stop-opacity="0"/><stop offset="1" stop-color="#ff7eb8" stop-opacity=".6"/></linearGradient><g><g><path d="m38.145 134.71c19.974-57.707 57.562-157.818 137.712-129.893 31.204 10.872 41.003 52.164 72.37 57.311 29.626 4.861 54.704-24.255 82.89-29.776 35.014-6.859 72.067 2.317 85.37 36.48 15.916 40.874-30.997 86.737-19.655 124.062 18.708 61.564 87.863-40.471 100.229 58.88 17.304 139.025-136.801 386.519-240.619 182.998-52.643-103.199-107.815-30.825-189.876-82.161-77.922-48.747-53.805-144.567-28.421-217.901z" fill="url(#SVGID_1_)"/></g><g><g><g><g><path d="m423.509 91.537h-335.018c-2.216 0-4.369.736-6.122 2.093l-23.378 18.099c-2.446 1.894-3.878 4.814-3.878 7.907v290.826h47.692l21.892-262.409h262.606l21.892 262.409h47.692v-290.826c0-3.094-1.432-6.013-3.878-7.907l-23.379-18.099c-1.752-1.357-3.905-2.093-6.121-2.093z" fill="#ff7eb8"/><path d="m55.113 263.915v146.548h47.692l12.226-146.548z" fill="#ff5ba8"/><path d="m396.969 263.915 12.226 146.548h47.692v-146.548z" fill="#ff5ba8"/><path d="m55.113 242.17v27.06h59.475l2.257-27.06z" fill="#ffc4df"/><path d="m395.155 242.17 2.257 27.06h59.475v-27.06z" fill="#ffc4df"/><path d="m185.138 91.537h-10v167.555s10 1.559 10-.094z" fill="#4369fd"/><path d="m204.669 255.364c0 1.654 10 1.391 10 0v-163.827h-10z" fill="#4369fd"/><path d="m336.862 255.519v-163.982h-10v163.827c0 .341 10 .155 10 .155z" fill="#4369fd"/><path d="m297.331 255.376s10 .329 10-.012v-163.827h-10z" fill="#4369fd"/><g><g><g><path d="m345.058 260.127v84.297c0 3.655-2.967 6.622-6.622 6.622h-164.872c-3.655 0-6.622-2.967-6.622-6.622v-84.297c0-3.655 2.967-6.622 6.622-6.622h164.872c3.655 0 6.622 2.967 6.622 6.622z" fill="#97ffd2"/><path d="m173.564 253.505h9.642v15.893h-16.264v-9.271c0-3.655 2.966-6.622 6.622-6.622z" fill="#dcfdee"/><path d="m166.942 335.161h16.264v15.886h-9.642c-3.655 0-6.622-2.967-6.622-6.622z" fill="#dcfdee"/><path d="m345.058 260.127v9.271h-16.264v-15.893h9.642c3.655 0 6.622 2.967 6.622 6.622z" fill="#dcfdee"/><path d="m328.795 335.161h16.264v9.264c0 3.655-2.967 6.622-6.622 6.622h-9.642z" fill="#dcfdee"/><path d="m180.799 265.364h150.402v73.823h-150.402z" fill="#01eca5"/><g fill="#00d890"><path d="m212.359 333.692c-2.746 0-4.972-2.226-4.972-4.971v-52.888c0-2.746 2.226-4.972 4.971-4.972 2.746 0 4.972 2.226 4.972 4.972v52.888c.001 2.746-2.225 4.971-4.971 4.971z"/><path d="m299.641 333.692c-2.746 0-4.971-2.226-4.971-4.971v-52.888c0-2.746 2.226-4.972 4.971-4.972 2.746 0 4.972 2.226 4.972 4.972v52.888c-.001 2.746-2.226 4.971-4.972 4.971z"/><path d="m199.668 283.002h-9.531c-5.523 0-10-4.477-10-10v-12.544c0-2.761 2.239-5 5-5h19.531c2.761 0 5 2.239 5 5v12.544c0 5.523-4.477 10-10 10z"/><path d="m321.862 283.002h-9.531c-5.523 0-10-4.477-10-10v-12.544c0-2.761 2.239-5 5-5h19.531c2.761 0 5 2.239 5 5v12.544c0 5.523-4.477 10-10 10z"/><path d="m317.097 333.692c-2.746 0-4.972-2.226-4.972-4.971v-52.888c0-2.746 2.226-4.972 4.971-4.972 2.746 0 4.971 2.226 4.971 4.972v52.888c.002 2.746-2.224 4.971-4.97 4.971z"/></g></g><g fill="#00d890"><path d="m194.903 333.692c-2.746 0-4.971-2.226-4.971-4.971v-52.888c0-2.746 2.226-4.972 4.971-4.972 2.746 0 4.972 2.226 4.972 4.972v52.888c0 2.746-2.226 4.971-4.972 4.971z"/><path d="m229.816 333.692c-2.746 0-4.972-2.226-4.972-4.971v-52.888c0-2.746 2.226-4.972 4.972-4.972 2.746 0 4.972 2.226 4.972 4.972v52.888c-.001 2.746-2.227 4.971-4.972 4.971z"/><path d="m247.272 333.692c-2.746 0-4.972-2.226-4.972-4.971v-52.888c0-2.746 2.226-4.972 4.972-4.972 2.746 0 4.972 2.226 4.972 4.972v52.888c0 2.746-2.226 4.971-4.972 4.971z"/><path d="m264.728 333.692c-2.746 0-4.972-2.226-4.972-4.971v-52.888c0-2.746 2.226-4.972 4.972-4.972 2.746 0 4.972 2.226 4.972 4.972v52.888c0 2.746-2.226 4.971-4.972 4.971z"/><path d="m282.185 333.692c-2.746 0-4.972-2.226-4.972-4.971v-52.888c0-2.746 2.226-4.972 4.972-4.972 2.746 0 4.972 2.226 4.972 4.972v52.888c-.001 2.746-2.227 4.971-4.972 4.971z"/></g></g></g><g><g><path d="m90.615 229.047h-5.332c-6.508 0-11.802-5.295-11.802-11.803v-16.457c0-6.508 5.294-11.803 11.802-11.803h5.332c6.508 0 11.803 5.295 11.803 11.803v16.457c0 6.508-5.295 11.803-11.803 11.803zm-5.331-30.063c-.994 0-1.802.809-1.802 1.803v16.457c0 .994.809 1.803 1.802 1.803h5.332c.994 0 1.803-.809 1.803-1.803v-16.457c0-.994-.809-1.803-1.803-1.803z" fill="#01eca5"/></g><g><path d="m433.518 228.606h-18.108c-2.122 0-4.012-1.34-4.716-3.341-.705-2.001-.068-4.229 1.586-5.559 5.042-4.05 12.846-11.452 14.406-15.229.6-1.451.505-3.051-.247-4.176-.585-.875-1.456-1.318-2.587-1.318-1.898 0-3.442 1.544-3.442 3.442 0 2.762-2.239 5-5 5s-5-2.238-5-5c0-7.412 6.03-13.442 13.442-13.442 4.479 0 8.452 2.1 10.899 5.76 2.623 3.922 3.063 8.989 1.177 13.555-1.353 3.274-4.398 6.997-7.594 10.308h5.184c2.761 0 5 2.238 5 5s-2.238 5-5 5z" fill="#01eca5"/></g></g><g><g><path d="m199.668 265.364h-9.531c-5.523 0-10-4.477-10-10v-12.544c0-2.761 2.239-5 5-5h19.531c2.761 0 5 2.239 5 5v12.544c0 5.523-4.477 10-10 10z" fill="#8399fe"/><path d="m226.673 73.958v17.579h-63.54v-17.579c0-1.326.527-2.598 1.465-3.536l8.831-8.831c.938-.938 2.209-1.465 3.536-1.465h35.878c1.326 0 2.598.527 3.535 1.465l8.831 8.831c.937.938 1.464 2.21 1.464 3.536z" fill="#8399fe"/><g fill="#d2deff"><path d="m212.892 77.142c0 2.584-2.094 4.678-4.678 4.678s-4.678-2.094-4.678-4.678 2.094-4.678 4.678-4.678 4.678 2.094 4.678 4.678z"/><path d="m186.495 77.142c0 2.584-2.094 4.678-4.678 4.678s-4.678-2.094-4.678-4.678 2.094-4.678 4.678-4.678c2.583 0 4.678 2.094 4.678 4.678z"/></g></g><g><path d="m321.862 265.364h-9.531c-5.523 0-10-4.477-10-10v-12.544c0-2.761 2.239-5 5-5h19.531c2.761 0 5 2.239 5 5v12.544c0 5.523-4.477 10-10 10z" fill="#8399fe"/><path d="m348.867 73.958v17.579h-63.54v-17.579c0-1.326.527-2.598 1.465-3.536l8.831-8.831c.938-.938 2.21-1.465 3.535-1.465h35.878c1.326 0 2.598.527 3.536 1.465l8.831 8.831c.937.938 1.464 2.21 1.464 3.536z" fill="#8399fe"/><g fill="#d2deff"><path d="m335.086 77.142c0 2.584-2.094 4.678-4.678 4.678s-4.678-2.094-4.678-4.678 2.094-4.678 4.678-4.678 4.678 2.094 4.678 4.678z"/><path d="m308.689 77.142c0 2.584-2.094 4.678-4.678 4.678s-4.678-2.094-4.678-4.678 2.094-4.678 4.678-4.678 4.678 2.094 4.678 4.678z"/></g></g></g><path d="m199.87 275.83v7.17h-9.94v-7.17c0-2.74 2.23-4.97 4.97-4.97 1.38 0 2.62.56 3.52 1.46s1.45 2.14 1.45 3.51z" fill="#00b574"/><path d="m322.07 275.83v7.17h-9.94v-7.17c0-2.74 2.22-4.97 4.97-4.97 1.37 0 2.61.56 3.51 1.46s1.46 2.14 1.46 3.51z" fill="#00b574"/><g fill="#db237a"><path d="m55.113 214.532h-9.778c-2.761 0-5 2.238-5 5s2.239 5 5 5h9.778z"/><path d="m55.113 143.499h-9.778c-2.761 0-5 2.238-5 5s2.239 5 5 5h9.778z"/><path d="m55.113 179.016h-9.778c-2.761 0-5 2.238-5 5s2.239 5 5 5h9.778z"/><path d="m55.113 250.049h-9.778c-2.761 0-5 2.238-5 5s2.239 5 5 5h9.778z"/><path d="m55.113 285.565h-9.778c-2.761 0-5 2.238-5 5s2.239 5 5 5h9.778z"/><path d="m55.113 321.082h-9.778c-2.761 0-5 2.238-5 5s2.239 5 5 5h9.778z"/><path d="m55.113 356.599h-9.778c-2.761 0-5 2.238-5 5s2.239 5 5 5h9.778z"/><path d="m477.019 123.613c-2.761 0-5 2.238-5 5v10.946h-15.132v10h15.132v194.06h-15.132v10h15.132v15.126c0 2.762 2.239 5 5 5s5-2.238 5-5v-240.132c0-2.761-2.239-5-5-5z"/></g><path d="m423.509 91.537h-335.018c-2.216 0-4.369.736-6.122 2.093l-23.378 18.099c-2.446 1.894-3.878 4.814-3.878 7.907v290.826h47.692l21.892-262.409h262.606l21.892 262.409h47.692v-290.826c0-3.094-1.432-6.013-3.878-7.907l-23.379-18.099c-1.752-1.357-3.905-2.093-6.121-2.093z" fill="url(#SVGID_2_)"/><g><g><path d="m81.611 474.606c-7.606 0-13.772-6.166-13.772-13.772v-24.067c0-7.606 6.166-13.772 13.772-13.772 7.606 0 13.772 6.166 13.772 13.772v24.067c0 7.607-6.166 13.772-13.772 13.772z" fill="#4369fd"/><path d="m95.383 458.653v-21.884c0-7.606-6.166-13.772-13.772-13.772-7.606 0-13.772 6.166-13.772 13.772v21.884z" fill="#2d58e0"/><path d="m108.273 426.323h-58.94v-29.421c0-2.762 2.239-5 5-5h48.94c2.761 0 5 2.238 5 5z" fill="#8399fe"/><path d="m103.273 442.417h-55.524c-5.363 0-9.711-4.348-9.711-9.711 0-5.363 4.348-9.711 9.711-9.711h60.524v14.421c0 2.763-2.239 5.001-5 5.001z" fill="#d2deff"/></g><g><path d="m430.388 474.606c7.606 0 13.772-6.166 13.772-13.772v-24.067c0-7.606-6.166-13.772-13.772-13.772-7.606 0-13.772 6.166-13.772 13.772v24.067c.001 7.607 6.167 13.772 13.772 13.772z" fill="#4369fd"/><path d="m444.16 458.653v-21.884c0-7.606-6.166-13.772-13.772-13.772s-13.772 6.166-13.772 13.772v21.884z" fill="#2d58e0"/><path d="m403.727 426.323h58.94v-29.421c0-2.762-2.239-5-5-5h-48.94c-2.761 0-5 2.238-5 5z" fill="#8399fe"/><path d="m408.727 442.417h55.524c5.363 0 9.711-4.348 9.711-9.711 0-5.363-4.348-9.711-9.711-9.711h-60.524v14.421c0 2.763 2.239 5.001 5 5.001z" fill="#d2deff"/></g></g></g><g><g><path d="m94.921 407.035c0 2.583-2.094 4.678-4.678 4.678s-4.678-2.094-4.678-4.678 2.094-4.678 4.678-4.678c2.583 0 4.678 2.095 4.678 4.678z" fill="#4369fd"/></g><g><path d="m426.435 407.035c0 2.583-2.094 4.678-4.678 4.678s-4.678-2.094-4.678-4.678 2.094-4.678 4.678-4.678 4.678 2.095 4.678 4.678z" fill="#4369fd"/></g></g></g></g><path d="m153.633 447.207c-3.874 0-7.515-1.509-10.254-4.248-2.738-2.737-4.246-6.379-4.246-10.252s1.508-7.515 4.247-10.253c5.653-5.653 14.853-5.654 20.506 0 2.739 2.738 4.247 6.38 4.247 10.253s-1.509 7.515-4.248 10.253c-2.737 2.738-6.379 4.247-10.252 4.247zm0-18.998c-1.152 0-2.305.439-3.182 1.315-.85.851-1.318 1.98-1.318 3.183 0 1.202.468 2.331 1.317 3.181.851.852 1.98 1.319 3.183 1.319 1.202 0 2.331-.468 3.181-1.318.85-.851 1.319-1.979 1.319-3.182 0-1.202-.468-2.332-1.318-3.183-.877-.877-2.029-1.315-3.182-1.315z" fill="#00eca2"/><path d="m192.706 411.51c-1.28 0-2.559-.488-3.536-1.465l-5.964-5.964-5.964 5.964c-1.953 1.953-5.118 1.953-7.071 0-1.953-1.952-1.953-5.118 0-7.07l9.5-9.5c1.953-1.953 5.118-1.953 7.071 0l9.5 9.5c1.953 1.952 1.953 5.118 0 7.07-.977.976-2.257 1.465-3.536 1.465z" fill="#6583fe"/><path d="m265.5 45.285c-1.28 0-2.559-.488-3.536-1.465l-5.964-5.964-5.964 5.964c-1.953 1.953-5.118 1.953-7.071 0-1.953-1.952-1.953-5.118 0-7.07l9.5-9.5c1.953-1.953 5.118-1.953 7.071 0l9.5 9.5c1.953 1.952 1.953 5.118 0 7.07-.977.977-2.256 1.465-3.536 1.465z" fill="#ff7eb8"/><path d="m421.887 74.877c-1.28 0-2.559-.488-3.536-1.465l-5.964-5.964-5.964 5.964c-1.953 1.953-5.118 1.953-7.071 0-1.953-1.952-1.953-5.118 0-7.07l9.5-9.5c1.953-1.953 5.118-1.953 7.071 0l9.5 9.5c1.953 1.952 1.953 5.118 0 7.07-.977.977-2.256 1.465-3.536 1.465z" fill="#6583fe"/><path d="m376.389 482.645c-3.713.001-7.426-1.413-10.253-4.24-2.739-2.738-4.247-6.379-4.247-10.252 0-3.874 1.508-7.515 4.248-10.254 2.738-2.738 6.379-4.247 10.252-4.247s7.514 1.508 10.252 4.247c2.739 2.739 4.248 6.38 4.248 10.254 0 3.873-1.508 7.514-4.248 10.253-2.826 2.826-6.539 4.239-10.252 4.239zm0-18.993c-1.202 0-2.332.468-3.181 1.318-.851.851-1.319 1.98-1.319 3.183 0 1.201.468 2.331 1.318 3.181 1.755 1.756 4.61 1.755 6.364.001.851-.851 1.318-1.98 1.318-3.182s-.468-2.332-1.318-3.182c-.001-.001-.001-.001-.001-.001-.85-.85-1.98-1.318-3.181-1.318z" fill="#ff7eb8"/></g></g></svg>