<svg id="Capa_1" enable-background="new 0 0 512 512" height="512" viewBox="0 0 512 512" width="512" xmlns="http://www.w3.org/2000/svg" xmlns:xlink="http://www.w3.org/1999/xlink"><linearGradient id="SVGID_1_" gradientUnits="userSpaceOnUse" x1="212.615" x2="305.615" y1="97.572" y2="457.571"><stop offset=".0112" stop-color="#dafced"/><stop offset=".761" stop-color="#cbdcfa"/><stop offset="1" stop-color="#c6d1ff"/></linearGradient><linearGradient id="SVGID_2_" gradientUnits="userSpaceOnUse" x1="267.561" x2="267.561" y1="34.742" y2="235.351"><stop offset=".0028" stop-color="#ff7eb8" stop-opacity="0"/><stop offset="1" stop-color="#ff7eb8" stop-opacity=".6"/></linearGradient><g><g><path d="m501.873 150.931c-22.357-56.888-91.226-91.003-149.556-68.427-66.582 25.77-44.506 131.673-104.983 153.088-32.669 11.568-80.962-31.644-113.969-38.271-60.821-12.21-115.881 30.705-129.439 90.134-13.832 60.629 8.353 141.61 74.967 158.066 79.35 19.602 120.683-51.729 187.249-72.211 68.311-21.019 144.263 28.622 200.814-31.776 41.78-44.62 57.055-134.271 34.917-190.603z" fill="url(#SVGID_1_)"/></g><g><g><g><g><g><path d="m307.947 438.717c-.941 20.639-17.853 37.551-38.492 38.492-.635.037-1.283.049-1.919.049-10.46 0-20.297-3.935-27.898-11.193-8.065-7.699-12.513-18.085-12.513-29.242 0-6.171 4.998-11.169 11.169-11.169 6.159 0 11.157 4.998 11.157 11.169 0 4.998 1.992 9.641 5.609 13.1 3.605 3.446 8.346 5.218 13.368 4.986 9.079-.415 16.802-8.138 17.218-17.218.33-6.965-3.263-13.381-9.36-16.741-12.269-6.77-19.894-19.356-19.894-32.847v-118.911c0-6.159 4.998-11.156 11.169-11.156s11.169 4.998 11.169 11.156v118.911c0 5.438 3.104 10.411 8.334 13.283 13.6 7.502 21.604 21.8 20.883 37.331z" fill="#4369fd"/></g></g><path d="m278.729 269.192v25.979h-22.338v-25.979c0-6.159 4.998-11.156 11.169-11.156 6.172-.001 11.169 4.997 11.169 11.156z" fill="#2d58e0"/><path d="m278.729 342.266v30.672c-3.128 2.285-6.99 3.641-11.169 3.641s-8.041-1.356-11.169-3.641v-30.672c3.128-2.285 6.99-3.641 11.169-3.641 4.18 0 8.041 1.356 11.169 3.641z" fill="#2d58e0"/><path d="m301.989 275.363h-68.857c-6.749 0-12.22-5.471-12.22-12.22v-34.367h93.297v34.367c0 6.749-5.471 12.22-12.22 12.22z" fill="#ff7eb8"/><path d="m220.912 228.776h93.297v27.947h-93.297z" fill="#ff5ba8"/><g><path d="m322.439 34.742h-109.757c-1.876 0-3.61 1.001-4.548 2.626l-54.879 95.053c-.938 1.625-.938 3.627 0 5.252l54.879 95.053c.938 1.625 2.672 2.626 4.548 2.626h109.757c1.876 0 3.61-1.001 4.548-2.626l54.879-95.053c.938-1.625.938-3.627 0-5.252l-54.879-95.053c-.938-1.625-2.672-2.626-4.548-2.626z" fill="#9fb0fe"/><path d="m225.145 208.513-42.416-73.466 42.416-73.467h84.832l42.415 73.467-42.415 73.466z" fill="#6583fe"/><g fill="#8399fe"><path d="m309.977 61.58h-37.217l-83.968 83.968 22.168 38.395c35.813-35.913 71.719-71.733 107.489-107.689z"/><path d="m249.105 208.513c30.737-30.807 61.581-61.508 92.524-92.108l-14.341-24.84-107.562 107.562 5.419 9.386z"/></g></g><g><g><path d="m234.051 204.355c-3.374 0-6.11-2.735-6.11-6.11v-.141c0-3.375 2.736-6.11 6.11-6.11s6.11 2.735 6.11 6.11v.141c-.001 3.375-2.736 6.11-6.11 6.11z" fill="#6583fe"/></g><g><path d="m301.071 204.355c-3.374 0-6.11-2.735-6.11-6.11v-.141c0-3.375 2.736-6.11 6.11-6.11s6.11 2.735 6.11 6.11v.141c0 3.375-2.736 6.11-6.11 6.11z" fill="#4369fd"/></g></g><circle cx="267.561" cy="338.62" fill="#9fb0fe" r="18.982"/></g><path d="m322.439 34.742h-109.757c-1.876 0-3.61 1.001-4.548 2.626l-54.879 95.053c-.938 1.625-.938 3.627 0 5.252l54.879 95.053c.938 1.625 2.672 2.626 4.548 2.626h109.757c1.876 0 3.61-1.001 4.548-2.626l54.879-95.053c.938-1.625.938-3.627 0-5.252l-54.879-95.053c-.938-1.625-2.672-2.626-4.548-2.626z" fill="url(#SVGID_2_)"/><g><g><circle cx="168.492" cy="239.547" fill="#01eca5" r="81.028"/></g><g><g><path d="m210.301 286.23h-82.885c-2.894 0-5.241-2.346-5.241-5.241v-82.885c0-2.894 2.346-5.241 5.241-5.241h82.885c2.894 0 5.241 2.346 5.241 5.241v82.885c0 2.895-2.347 5.241-5.241 5.241z" fill="#ffa8cf"/><path d="m135.277 205.966h67.163v67.163h-67.163z" fill="#ff5ba8" transform="matrix(0 1 -1 0 408.405 70.689)"/><g fill="#ff7eb8"><path d="m191.416 213.768-56.137 57.754v-57.754z"/><path d="m194.746 242.159v30.972h-38.45l33.166-33.161c1.95-1.95 5.284-.569 5.284 2.189z"/></g></g><path d="m163.116 187.765h13.102v102.037h-13.102z" fill="#ffa8cf" transform="matrix(.707 .707 -.707 .707 218.54 -50.035)"/></g></g></g><path d="m341.629 429.777c-3.713 0-7.426-1.413-10.252-4.24-5.654-5.653-5.654-14.853 0-20.506 5.653-5.655 14.854-5.653 20.505 0 5.654 5.653 5.654 14.852 0 20.506-2.826 2.826-6.539 4.24-10.253 4.24zm0-18.992c-1.151 0-2.304.439-3.182 1.315-1.754 1.755-1.754 4.61 0 6.365 1.757 1.755 4.609 1.753 6.364 0 1.754-1.755 1.754-4.61 0-6.365-.877-.876-2.03-1.315-3.182-1.315z" fill="#ff7eb8"/><path d="m116.211 129.241c-3.873 0-7.515-1.509-10.253-4.248-2.738-2.737-4.247-6.379-4.247-10.252s1.508-7.515 4.248-10.254c5.652-5.653 14.851-5.653 20.505.001l-.001-.001c.001.001.001.001.001.001 2.739 2.738 4.247 6.38 4.247 10.253s-1.508 7.515-4.248 10.253c-2.737 2.738-6.379 4.247-10.252 4.247zm0-18.999c-1.152 0-2.305.438-3.182 1.315-.851.851-1.318 1.98-1.318 3.183 0 1.201.468 2.331 1.317 3.181.851.852 1.981 1.319 3.183 1.319s2.332-.468 3.181-1.318c.851-.851 1.319-1.981 1.319-3.182 0-1.202-.468-2.332-1.318-3.182l-.001-.001c-.876-.876-2.028-1.315-3.181-1.315z" fill="#00eca2"/><path d="m221.136 377.397c-1.28 0-2.559-.488-3.536-1.465l-5.964-5.964-5.964 5.964c-1.953 1.953-5.118 1.953-7.071 0-1.953-1.952-1.953-5.118 0-7.07l9.5-9.5c1.953-1.953 5.118-1.953 7.071 0l9.5 9.5c1.953 1.952 1.953 5.118 0 7.07-.977.976-2.257 1.465-3.536 1.465z" fill="#6583fe"/><path d="m398.495 79.04c-1.279 0-2.56-.488-3.535-1.465l-5.965-5.964-5.965 5.964c-1.951 1.953-5.119 1.953-7.07 0-1.953-1.952-1.953-5.118 0-7.07l9.5-9.5c1.951-1.953 5.119-1.953 7.07 0l9.5 9.5c1.953 1.952 1.953 5.118 0 7.07-.975.977-2.256 1.465-3.535 1.465z" fill="#ff7eb8"/><path d="m398.495 207.925c-1.279 0-2.56-.488-3.535-1.465l-5.965-5.964-5.965 5.964c-1.951 1.953-5.119 1.953-7.07 0-1.953-1.952-1.953-5.118 0-7.07l9.5-9.5c1.951-1.953 5.119-1.953 7.07 0l9.5 9.5c1.953 1.952 1.953 5.118 0 7.07-.975.977-2.256 1.465-3.535 1.465z" fill="#6583fe"/></g></g></svg>