<svg id="Capa_1" enable-background="new 0 0 512 512" height="512" viewBox="0 0 512 512" width="512" xmlns="http://www.w3.org/2000/svg" xmlns:xlink="http://www.w3.org/1999/xlink"><linearGradient id="SVGID_1_" gradientUnits="userSpaceOnUse" x1="283.281" x2="235.281" y1="401.692" y2="133.026"><stop offset=".0112" stop-color="#dafced"/><stop offset=".761" stop-color="#cbdcfa"/><stop offset="1" stop-color="#c6d1ff"/></linearGradient><linearGradient id="SVGID_2_" gradientUnits="userSpaceOnUse" x1="255.999" x2="255.999" y1="39.125" y2="431.196"><stop offset=".0028" stop-color="#ff7eb8" stop-opacity="0"/><stop offset="1" stop-color="#ff7eb8" stop-opacity=".6"/></linearGradient><g><g><path d="m501.873 134.25c-22.357-56.888-91.226-91.003-149.556-68.427-68.57 26.539-43.27 131.236-104.983 153.088-32.669 11.568-80.962-31.644-113.969-38.27-60.821-12.211-115.881 30.704-129.439 90.134-13.832 60.63 8.353 141.61 74.967 158.066 79.35 19.603 120.683-51.728 187.249-72.21 68.311-21.019 144.263 28.622 200.814-31.776 41.78-44.622 57.055-134.273 34.917-190.605z" fill="url(#SVGID_1_)"/></g><g><g><ellipse cx="255.999" cy="431.196" fill="#8399fe" rx="204.689" ry="41.678"/><ellipse cx="257.111" cy="432.679" fill="#6583fe" rx="50.177" ry="11.879"/><path d="m248.429 389.544v9.691c0 4.821-3.44 8.956-8.18 9.833l-17.579 3.253c-4.741.877-8.181 5.012-8.181 9.833v9.231c0 5.523-4.477 10-10 10h-20.648c-2.652 0-5.196-1.054-7.071-2.929l-9.122-9.122c-1.875-1.875-4.419-2.929-7.071-2.929h-27.492c-3.466 0-6.685-1.795-8.507-4.744l-12.429-20.116c35.29-7.1 83.21-11.61 136.28-12.001z" fill="#02ffb3"/><path d="m460.689 431.195c0 23.02-91.64 41.68-204.69 41.68-1.73 0-3.46 0-5.18-.01l8.443-18.255c1.279-2.765 4.047-4.535 7.093-4.535h41.093c3.115 0 5.932-1.85 7.171-4.707l2.199-5.075c1.239-2.858 4.056-4.707 7.171-4.707h17.245c2.071 0 4.058.822 5.523 2.286l4.123 4.118c1.465 1.464 3.452 2.286 5.523 2.286h6.748c3.293 0 6.232-2.064 7.351-5.161l2.003-5.546c1.368-3.79-.368-7.998-4.011-9.72l-13.26-6.268c-2.733-1.292-4.475-4.043-4.475-7.066 0-3.695 2.588-6.885 6.204-7.647l22.976-4.842c49.08 7.609 80.75 19.639 80.75 33.169z" fill="#02ffb3"/><path d="m381.705 164.831c0-70.608-58.214-127.619-129.264-125.656-67.551 1.865-121.874 57.562-122.146 125.138-.108 26.764 8.152 51.59 22.31 72.02 16.329 23.563 30.615 48.477 42.447 74.589l51.839 114.401c3.548 7.83 14.669 7.83 18.217 0l52.234-115.272c11.783-26.004 26.238-50.665 42.389-74.206 13.861-20.204 21.974-44.66 21.974-71.014z" fill="#ff7eb8"/><g><ellipse cx="255.559" cy="165.76" fill="#fe2c8f" rx="97.448" ry="97.448" transform="matrix(.707 -.707 .707 .707 -42.359 229.258)"/><g><g><path d="m310.294 226.92h-108.589c-3.792 0-6.866-3.074-6.866-6.866v-108.588c0-3.792 3.074-6.866 6.866-6.866h108.588c3.792 0 6.866 3.074 6.866 6.866v108.588c.001 3.792-3.073 6.866-6.865 6.866z" fill="#ffa8cf"/><path d="m212.004 121.765h87.991v87.99h-87.991z" fill="#ff5ba8" transform="matrix(0 1 -1 0 421.76 -90.239)"/><g fill="#ff7eb8"><path d="m285.552 131.986-73.545 75.664v-75.664z"/><path d="m289.915 169.182v40.576h-50.374l43.45-43.444c2.556-2.555 6.924-.745 6.924 2.868z"/></g></g><path d="m248.477 97.92h17.165v133.679h-17.165z" fill="#ffa8cf" transform="matrix(.707 .707 -.707 .707 191.794 -133.512)"/></g></g><path d="m214.489 426.405v4.98c0 2.5-.92 4.78-2.43 6.53-3.29-1.58-5.13-3.36-5.13-5.24 0-2.3 2.77-4.45 7.56-6.27z" fill="#01eca5"/></g><path d="m448.486 380.273c-1.28 0-2.559-.488-3.536-1.465l-5.964-5.964-5.964 5.964c-1.953 1.953-5.118 1.953-7.071 0-1.953-1.952-1.953-5.118 0-7.07l9.5-9.5c1.953-1.953 5.118-1.953 7.071 0l9.5 9.5c1.953 1.952 1.953 5.118 0 7.07-.977.977-2.256 1.465-3.536 1.465z" fill="#ff7eb8"/><path d="m374.569 364.852c-3.713 0-7.426-1.413-10.253-4.24-5.654-5.653-5.654-14.852 0-20.506 5.653-5.655 14.853-5.654 20.506 0 5.654 5.653 5.654 14.853 0 20.506-2.826 2.827-6.54 4.24-10.253 4.24zm0-18.991c-1.153 0-2.305.438-3.182 1.315-1.755 1.755-1.755 4.61 0 6.365 1.753 1.754 4.609 1.754 6.364 0 1.755-1.755 1.755-4.61 0-6.365-.877-.876-2.029-1.315-3.182-1.315z" fill="#00eca2"/><path d="m100.828 155.979c-3.713 0-7.427-1.413-10.253-4.24-5.654-5.653-5.654-14.853 0-20.506 5.653-5.653 14.853-5.653 20.506 0 5.654 5.653 5.654 14.853 0 20.506-2.827 2.827-6.541 4.24-10.253 4.24zm-.001-18.991c-1.152 0-2.305.439-3.182 1.315-1.755 1.755-1.755 4.61 0 6.365 1.754 1.754 4.61 1.753 6.364 0 1.755-1.755 1.755-4.61 0-6.365-.877-.876-2.029-1.315-3.182-1.315z" fill="#00eca2"/><path d="m100.827 193.91c-1.28 0-2.559-.488-3.536-1.465l-5.964-5.964-5.964 5.964c-1.953 1.953-5.118 1.953-7.071 0-1.953-1.952-1.953-5.118 0-7.07l9.5-9.5c1.953-1.953 5.118-1.953 7.071 0l9.5 9.5c1.953 1.952 1.953 5.118 0 7.07-.977.977-2.256 1.465-3.536 1.465z" fill="#6583fe"/><path d="m415.13 105.272c-1.28 0-2.559-.488-3.536-1.465l-5.964-5.964-5.964 5.964c-1.953 1.953-5.118 1.953-7.071 0-1.953-1.952-1.953-5.118 0-7.07l9.5-9.5c1.953-1.953 5.118-1.953 7.071 0l9.5 9.5c1.953 1.952 1.953 5.118 0 7.07-.977.977-2.256 1.465-3.536 1.465z" fill="#ff7eb8"/></g><path d="m381.705 164.831c0-70.608-58.214-127.619-129.264-125.656-67.551 1.865-121.874 57.562-122.146 125.138-.108 26.764 8.152 51.59 22.31 72.02 16.329 23.563 30.615 48.477 42.447 74.589l51.839 114.401c3.548 7.83 14.669 7.83 18.217 0l52.234-115.272c11.783-26.004 26.238-50.665 42.389-74.206 13.861-20.204 21.974-44.66 21.974-71.014z" fill="url(#SVGID_2_)"/></g></svg>