<svg id="Capa_1" enable-background="new 0 0 512 512" height="512" viewBox="0 0 512 512" width="512" xmlns="http://www.w3.org/2000/svg" xmlns:xlink="http://www.w3.org/1999/xlink"><linearGradient id="SVGID_1_" gradientUnits="userSpaceOnUse" x1="263.975" x2="247.476" y1="91.638" y2="537.116"><stop offset=".0112" stop-color="#dafced"/><stop offset=".761" stop-color="#cbdcfa"/><stop offset="1" stop-color="#c6d1ff"/></linearGradient><linearGradient id="SVGID_2_" gradientUnits="userSpaceOnUse" x1="256" x2="256" y1="215.763" y2="458.313"><stop offset=".0028" stop-color="#ff7eb8" stop-opacity="0"/><stop offset="1" stop-color="#ff7eb8" stop-opacity=".6"/></linearGradient><g><g><path d="m364.823 55.215c-69.098-27.036-164.784-16.764-217.662 31.51-37.336 34.085-8.439 43.8 17.016 106.17 18.423 45.14-164.177 38.927-164.177 120.495 0 94.299 132.251 76.424 181.329 87.218 75.036 16.504 140.496 78.242 220.668 70.103 69.795-7.086 96.403-61.855 106.109-124.642 18.082-116.976-26.329-245.094-143.283-290.854z" fill="url(#SVGID_1_)"/></g><g><g><g><g><path d="m396.96 215.763v185.877c0 4.243-2.678 8.025-6.681 9.433l-134.279 47.24-134.279-47.24c-4.003-1.408-6.681-5.19-6.681-9.433v-185.877z" fill="#ffa8cf"/><g><path d="m256 265.353v22.74l-38 33.64c-1.36 1.2-3.26 1.57-4.98.97l-97.98-34.47v-72.47z" fill="#ff7eb8"/></g><path d="m396.96 215.763v185.877c0 4.243-2.678 8.025-6.681 9.433l-134.279 47.24v-242.55z" fill="#ff7eb8"/><g><path d="m396.96 215.763v72.47l-97.98 34.47c-1.72.6-3.62.23-4.98-.97l-38-33.64v-22.74z" fill="#ff5ba8"/></g><g><path d="m256 166.17-140.955 49.591 140.955 49.59 140.955-49.59z" fill="#6583fe"/><path d="m351.2 231.862-95.2 33.49-95.2-33.49 91.882-32.323c2.148-.756 4.489-.756 6.637 0z" fill="#4369fd"/></g></g><path d="m324.44 149.413h-35.67v104.41l-32.77 11.53-32.77-11.53v-104.41h-35.67c-8.64 0-13.22-10.22-7.46-16.67l68.44-76.57c3.98-4.45 10.94-4.45 14.92 0l68.44 76.57c5.76 6.45 1.18 16.67-7.46 16.67z" fill="#ff5ba8"/><path d="m288.77 209.903v43.92l-32.77 11.53-32.77-11.53v-43.92l29.451-10.362c2.148-.756 4.49-.756 6.638 0z" fill="#fe2c8f"/><g fill="#6583fe"><path d="m328.902 348.444v14.538c0 3.441 3.395 5.854 6.645 4.722l38.862-13.539c2.009-.7 3.355-2.594 3.355-4.722v-14.538c0-3.441-3.395-5.854-6.645-4.722l-38.862 13.539c-2.009.7-3.355 2.594-3.355 4.722z"/><path d="m328.902 382.683v14.538c0 3.441 3.395 5.854 6.645 4.722l38.862-13.539c2.009-.7 3.355-2.594 3.355-4.722v-14.538c0-3.441-3.395-5.854-6.645-4.722l-38.862 13.539c-2.009.7-3.355 2.595-3.355 4.722z"/></g><g><g><path d="m160.8 347.704c-.535 0-1.08-.086-1.615-.269l-22.907-7.82c-2.613-.892-4.009-3.733-3.116-6.347.892-2.613 3.731-4.013 6.347-3.116l22.907 7.82c2.613.892 4.009 3.733 3.116 6.347-.71 2.077-2.652 3.385-4.732 3.385z" fill="#fe2c8f"/></g><g><path d="m160.8 366.086c-.535 0-1.08-.086-1.615-.27l-22.907-7.821c-2.613-.892-4.009-3.733-3.116-6.347.892-2.613 3.731-4.013 6.347-3.116l22.907 7.821c2.613.892 4.009 3.733 3.116 6.347-.71 2.078-2.652 3.386-4.732 3.386z" fill="#fe2c8f"/></g></g><g><g><path d="m196.476 337.991c-.535 0-1.08-.086-1.615-.27l-58.583-20c-2.613-.892-4.009-3.733-3.116-6.347.892-2.613 3.731-4.013 6.347-3.116l58.583 20c2.613.892 4.009 3.733 3.116 6.347-.71 2.078-2.652 3.386-4.732 3.386z" fill="#fe2c8f"/></g></g></g><g><path d="m396.955 215.761 33.835 29.952c2.856 2.528 1.943 7.195-1.655 8.46l-130.159 45.792c-1.711.602-3.615.23-4.974-.973l-38.002-33.641z" fill="#ffa8cf"/></g><g><path d="m115.045 215.761-33.835 29.952c-2.856 2.528-1.943 7.195 1.655 8.46l130.159 45.792c1.712.602 3.615.23 4.973-.973l38.003-33.641z" fill="#ffc4df"/></g></g><path d="m102.026 145.761c-1.279 0-2.56-.488-3.535-1.465l-5.965-5.964-5.965 5.964c-1.951 1.953-5.119 1.953-7.07 0-1.953-1.952-1.953-5.118 0-7.07l9.5-9.5c1.951-1.953 5.119-1.953 7.07 0l9.5 9.5c1.953 1.952 1.953 5.118 0 7.07-.975.977-2.255 1.465-3.535 1.465z" fill="#00eca2"/><path d="m422.978 200.073c-3.714 0-7.427-1.413-10.253-4.24-5.654-5.653-5.654-14.852 0-20.506 5.651-5.654 14.852-5.654 20.505 0 5.654 5.653 5.654 14.853 0 20.506-2.826 2.827-6.539 4.24-10.252 4.24zm0-18.991c-1.152 0-2.305.438-3.183 1.315-1.754 1.755-1.754 4.61 0 6.365 1.756 1.754 4.608 1.754 6.364 0 1.754-1.755 1.754-4.61 0-6.365-.877-.876-2.029-1.315-3.181-1.315z" fill="#6583fe"/><path d="m79.54 433.652c-3.713 0-7.427-1.413-10.253-4.24-5.654-5.653-5.654-14.853 0-20.506 5.652-5.654 14.854-5.654 20.506 0 5.654 5.653 5.654 14.853 0 20.506-2.826 2.827-6.54 4.24-10.253 4.24zm0-18.991c-1.152 0-2.305.439-3.183 1.315-1.754 1.755-1.754 4.61 0 6.365 1.756 1.754 4.609 1.754 6.365 0 1.754-1.755 1.754-4.61 0-6.365-.877-.876-2.03-1.315-3.182-1.315z" fill="#6583fe"/><path d="m115.044 190.573c-3.713 0-7.426-1.413-10.252-4.24-5.654-5.653-5.654-14.852 0-20.506 5.651-5.653 14.851-5.654 20.506-.001v.001c5.654 5.653 5.654 14.853 0 20.506-2.826 2.826-6.541 4.24-10.254 4.24zm.001-18.991c-1.153 0-2.305.438-3.183 1.315-1.754 1.755-1.754 4.61 0 6.365 1.756 1.754 4.609 1.755 6.365-.001 1.754-1.754 1.755-4.608 0-6.363-.877-.877-2.03-1.316-3.182-1.316z" fill="#00eca2"/></g><path d="m441.978 322.487c-1.279 0-2.56-.488-3.535-1.465l-5.965-5.964-5.965 5.964c-1.951 1.953-5.119 1.953-7.07 0-1.953-1.952-1.953-5.118 0-7.07l9.5-9.5c1.951-1.953 5.119-1.953 7.07 0l9.5 9.5c1.953 1.952 1.953 5.118 0 7.07-.975.977-2.255 1.465-3.535 1.465z" fill="#ff7eb8"/><path d="m396.96 215.763v185.877c0 4.243-2.678 8.025-6.681 9.433l-134.279 47.24-134.279-47.24c-4.003-1.408-6.681-5.19-6.681-9.433v-185.877z" fill="url(#SVGID_2_)"/></g></svg>