<svg id="Capa_1" enable-background="new 0 0 512 512" height="512" viewBox="0 0 512 512" width="512" xmlns="http://www.w3.org/2000/svg" xmlns:xlink="http://www.w3.org/1999/xlink"><linearGradient id="SVGID_1_" gradientTransform="matrix(.987 .163 -.163 .987 -322.233 179.362)" gradientUnits="userSpaceOnUse" x1="798.828" x2="473.835" y1="51.154" y2="-80.489"><stop offset=".0112" stop-color="#dafced"/><stop offset=".761" stop-color="#cbdcfa"/><stop offset="1" stop-color="#c6d1ff"/></linearGradient><linearGradient id="SVGID_2_" gradientUnits="userSpaceOnUse" x1="261.721" x2="261.721" y1="10.878" y2="167.555"><stop offset=".0028" stop-color="#ff7eb8" stop-opacity="0"/><stop offset="1" stop-color="#ff7eb8" stop-opacity=".6"/></linearGradient><g><g><path d="m342.125.425c-95.818 8.652-105.091 192.429-146.416 286.587-20.478 46.658-68.772 94.794-60.258 149.782 9.605 62.035 72.897 80.075 121.683 74.14 120.723-14.685 172.898-141.053 180.797-260.801 4.869-73.829 20.301-260.192-95.806-249.708z" fill="url(#SVGID_1_)"/></g><g><path d="m409.226 403.211c-1.279 0-2.56-.488-3.535-1.464l-5.965-5.964-5.965 5.964c-1.951 1.952-5.119 1.952-7.07 0-1.953-1.953-1.953-5.119 0-7.071l9.5-9.5c1.951-1.952 5.119-1.952 7.07 0l9.5 9.5c1.953 1.953 1.953 5.119 0 7.071-.976.976-2.256 1.464-3.535 1.464z" fill="#6583fe"/><g><path d="m348.834 246.17c21.083-1.415 37.299-10.827 47.738-19.151l-29.208 108.543h10.348l45.883-172.346h-10.348l-11.718 45.201c-3.54 4.208-23.121 25.802-53.491 27.785-26.202 1.709-53.556-11.259-81.318-38.533v-30.114h-10v30.114c-27.763 27.274-55.138 40.25-81.317 38.533-30.358-1.981-49.935-23.558-53.486-27.777l-12.192-45.208h-10.35l45.816 173.647h10.348l-28.669-109.84c10.439 8.322 26.654 17.732 47.734 19.147 1.806.121 3.612.182 5.424.182 25.206 0 50.941-11.734 76.69-34.946v75.753h10v-75.753c25.75 23.213 51.483 34.945 76.691 34.945 1.81 0 3.621-.06 5.425-.182z" fill="#2d58e0"/><path d="m416.644 167.555c6.015 0 10.673-5.274 9.93-11.243-10.193-81.984-80.11-145.433-164.854-145.433s-154.66 63.449-164.853 145.433c-.742 5.969 3.915 11.243 9.93 11.243z" fill="#8399fe"/><g><g><g><path d="m358.519 298.03v171.86c0 6.01-4.87 10.87-10.87 10.87h-171.86c-6 0-10.87-4.86-10.87-10.87v-171.86c0-6 4.87-10.87 10.87-10.87h171.86c6 0 10.87 4.87 10.87 10.87z" fill="#ffa8cf"/><path d="m192.089 355.68v13.49c0 2.76-2.24 5-5 5h-22.17v-23.49h22.17c2.76 0 5 2.24 5 5z" fill="#ff7eb8"/><path d="m358.519 350.68v23.49h-22.17c-2.76 0-5-2.24-5-5v-13.49c0-2.76 2.24-5 5-5z" fill="#ff7eb8"/><path d="m192.087 314.329h139.265v139.264h-139.265z" fill="#ff5ba8" transform="matrix(0 1 -1 0 645.68 122.242)"/><path d="m315.398 326.954-123.308 123.307v-123.307z" fill="#ff7eb8"/><g><g><path d="m209.791 337.82h20.194c3.001 0 5.434-2.433 5.434-5.434s-2.433-5.433-5.434-5.433h-20.194c-3.001 0-5.434 2.433-5.434 5.433.001 3.002 2.434 5.434 5.434 5.434z" fill="#fe2c8f"/></g><g><path d="m209.791 356.644h9.327c3.001 0 5.434-2.433 5.434-5.434s-2.433-5.434-5.434-5.434h-9.327c-3.001 0-5.434 2.433-5.434 5.434.001 3.001 2.434 5.434 5.434 5.434z" fill="#fe2c8f"/></g><g><path d="m209.791 373.294h9.327c3.001 0 5.434-2.433 5.434-5.434s-2.433-5.434-5.434-5.434h-9.327c-3.001 0-5.434 2.433-5.434 5.434.001 3.001 2.434 5.434 5.434 5.434z" fill="#fe2c8f"/></g></g><path d="m318.734 377.539v76.059h-91.565l80.608-80.598c4.044-4.044 10.957-1.18 10.957 4.539z" fill="#ff7eb8"/></g><path d="m249.813 276.589h27.168v211.577h-27.168z" fill="#ffa8cf" transform="matrix(.707 .707 -.707 .707 347.529 -74.254)"/></g><g fill="#8399fe"><path d="m187.09 355.759h-37.356c-2.762 0-5-2.239-5-5v-13.492c0-2.761 2.238-5 5-5h37.356c2.761 0 5 2.239 5 5v13.492c0 2.761-2.238 5-5 5z"/><path d="m373.707 355.759h-37.356c-2.762 0-5-2.239-5-5v-13.492c0-2.761 2.238-5 5-5h37.356c2.762 0 5 2.239 5 5v13.492c0 2.761-2.238 5-5 5z"/></g></g><path d="m351.722 167.555c-2.663-87.352-41.937-156.676-90.001-156.676s-87.339 69.324-90.001 156.676z" fill="#6583fe"/><path d="m334.809 167.555c-2.162-87.352-34.056-156.676-73.089-156.676-39.032 0-70.926 69.324-73.089 156.676z" fill="#01eca5"/><g><g><path d="m223.502 107.576h20.194c3.001 0 5.433-2.433 5.433-5.433 0-3.001-2.433-5.434-5.433-5.434h-20.194c-3.001 0-5.433 2.433-5.433 5.434 0 3 2.433 5.433 5.433 5.433z" fill="#fff"/></g><g><path d="m223.502 126.399h9.327c3.001 0 5.434-2.433 5.434-5.434s-2.433-5.433-5.434-5.433h-9.327c-3.001 0-5.433 2.433-5.433 5.433 0 3.001 2.433 5.434 5.433 5.434z" fill="#fff"/></g><g><path d="m223.502 143.049h9.327c3.001 0 5.434-2.433 5.434-5.434s-2.433-5.434-5.434-5.434h-9.327c-3.001 0-5.433 2.433-5.433 5.434s2.433 5.434 5.433 5.434z" fill="#fff"/></g></g></g><path d="m120.527 342.137c-1.279 0-2.56-.488-3.535-1.464l-5.965-5.964-5.965 5.964c-1.951 1.952-5.119 1.952-7.07 0-1.953-1.953-1.953-5.119 0-7.071l9.5-9.5c1.951-1.952 5.119-1.952 7.07 0l9.5 9.5c1.953 1.953 1.953 5.119 0 7.071-.975.976-2.255 1.464-3.535 1.464z" fill="#00eca2"/><path d="m79.086 306.654c-3.714 0-7.427-1.413-10.253-4.24-5.654-5.654-5.654-14.853 0-20.506 5.651-5.653 14.852-5.654 20.505 0 5.654 5.654 5.654 14.853 0 20.506-2.826 2.827-6.539 4.24-10.252 4.24zm0-18.991c-1.152 0-2.305.438-3.183 1.316-1.754 1.754-1.754 4.609 0 6.364 1.755 1.754 4.607 1.756 6.364 0 1.754-1.754 1.754-4.609 0-6.364-.877-.877-2.03-1.316-3.181-1.316z" fill="#ff7eb8"/><path d="m402.914 451.236c-3.713 0-7.427-1.413-10.253-4.24-5.654-5.654-5.654-14.852 0-20.506 5.652-5.653 14.853-5.653 20.506 0 5.654 5.654 5.654 14.853 0 20.506-2.826 2.827-6.54 4.24-10.253 4.24zm0-18.991c-1.152 0-2.305.438-3.183 1.316-1.754 1.754-1.754 4.609 0 6.364 1.756 1.755 4.609 1.755 6.365 0 1.754-1.754 1.754-4.609 0-6.364-.877-.877-2.03-1.316-3.182-1.316z" fill="#00eca2"/><path d="m432.914 81.209c-3.873 0-7.515-1.508-10.254-4.248-5.653-5.653-5.653-14.852.001-20.506 5.652-5.653 14.853-5.653 20.506 0 5.654 5.654 5.654 14.852 0 20.506-2.738 2.74-6.38 4.248-10.253 4.248zm0-18.998c-1.152 0-2.305.438-3.183 1.316-1.754 1.754-1.754 4.609 0 6.364.851.851 1.98 1.318 3.183 1.318 1.202 0 2.332-.468 3.182-1.318 1.755-1.755 1.755-4.61.001-6.364-.878-.878-2.031-1.316-3.183-1.316z" fill="#ff7eb8"/></g><path d="m416.644 167.555c6.015 0 10.673-5.274 9.93-11.243-10.193-81.984-80.11-145.433-164.854-145.433s-154.66 63.449-164.853 145.433c-.742 5.969 3.915 11.243 9.93 11.243z" fill="url(#SVGID_2_)"/></g></svg>