<svg id="Capa_1" enable-background="new 0 0 512 512" height="512" viewBox="0 0 512 512" width="512" xmlns="http://www.w3.org/2000/svg" xmlns:xlink="http://www.w3.org/1999/xlink"><linearGradient id="SVGID_1_" gradientUnits="userSpaceOnUse" x1="449.803" x2="264.803" y1="90.424" y2="321.424"><stop offset=".0112" stop-color="#dafced"/><stop offset=".3814" stop-color="#e7f0ed"/><stop offset="1" stop-color="#ffd9ec"/></linearGradient><linearGradient id="SVGID_2_" gradientUnits="userSpaceOnUse" x1="189.735" x2="189.735" y1="319.156" y2="398.283"><stop offset=".0028" stop-color="#ff7eb8" stop-opacity="0"/><stop offset="1" stop-color="#ff7eb8" stop-opacity=".6"/></linearGradient><g><g><path d="m343.367.425c-95.818 8.652-105.091 192.429-146.416 286.587-20.478 46.658-68.772 94.794-60.258 149.782 9.605 62.035 72.897 80.075 121.683 74.14 120.723-14.685 172.898-141.053 180.797-260.801 4.869-73.829 20.3-260.192-95.806-249.708z" fill="url(#SVGID_1_)"/></g><g><g><g><path d="m366.223 256.445h-19.517v-141.416c0-2.761 2.238-5 5-5h9.517c2.761 0 5 2.239 5 5z" fill="#9fb0fe"/><path d="m346.706 213.21h19.517v43.235h-19.517z" fill="#6583fe"/><g><path d="m270.153 252.545 34.262-34.262v112.349h-41.799v-59.892c0-6.824 2.711-13.369 7.537-18.195z" fill="#6583fe"/><path d="m143.677 290.763h-83.901v-27.043c0-11.083 8.984-20.067 20.067-20.067h63.834z" fill="#ff7eb8"/><path d="m143.677 273.612h-58.886c-3.736 0-6.765-3.029-6.765-6.765 0-3.736 3.029-6.765 6.765-6.765h58.887v13.53z" fill="#ff5ba8"/><path d="m177.234 290.763h-33.557v-61.755c0-5.523 4.477-10 10-10h6.557c9.389 0 17 7.611 17 17z" fill="#6583fe"/><path d="m218.811 323.73h-159.035v-32.967h144.091c8.253 0 14.943 6.69 14.943 14.943v18.024z" fill="#6583fe"/><path d="m309.693 398.283h-239.917c-5.523 0-10-4.477-10-10v-69.127h259.916v69.127c.001 5.523-4.477 10-9.999 10z" fill="#02ffb3"/><path d="m59.776 374.34v13.943c0 5.523 4.477 10 10 10h239.916c5.523 0 10-4.477 10-10v-13.943z" fill="#00d890"/><g><circle cx="57" cy="311.424" fill="#ff7eb8" r="27.503"/><circle cx="57" cy="311.424" fill="#ffc4df" r="14.462"/></g><g><path d="m100.99 81.374h25v237.782h-25z" fill="#d2deff"/></g><g><path d="m100.99 81.374h25v40.99h-25z" fill="#b7c5ff"/></g><g><path d="m319.693 359.34h-15c-5.523 0-10-4.477-10-10v-76.75c0-58.888-16.329-116.512-47.222-166.644-1.355-2.199-3.802-3.565-6.385-3.565h-141.741c-5.523 0-10-4.477-10-10v-5c0-5.523 4.477-10 10-10h141.741c11.194 0 21.796 5.92 27.668 15.45 33.324 54.077 50.939 116.237 50.939 179.759z" fill="#d2deff"/></g><g><path d="m294.693 329.658v19.682c0 5.523 4.477 10 10 10h15v-29.682z" fill="#ff7eb8"/></g></g><g><g><path d="m477.493 398.283h-115.787c-8.284 0-15-6.716-15-15v-144.59c0-2.761 2.238-5 5-5h20c2.761 0 5 2.239 5 5v139.591h72.28c11.498 0 22.653 3.913 31.631 11.096 3.69 2.952 1.603 8.903-3.124 8.903z" fill="#d2deff"/></g><g fill="#b7c5ff"><path d="m346.706 343.196h30v16.144h-30z"/><path d="m346.706 315.116h30v16.144h-30z"/></g></g><g fill="#2d58e0"><path d="m262.616 270.741-33.225-32.592 3.902-3.902c1.953-1.952 1.953-5.118 0-7.07-1.953-1.953-5.118-1.953-7.071 0l-14.359 14.359c-1.953 1.952-1.953 5.118 0 7.07.977.977 2.256 1.465 3.536 1.465s2.559-.488 3.536-1.465l3.387-3.387 40.296 40.295v-14.773z"/><path d="m384.592 320.116c2.761 0 5-2.238 5-5s-2.239-5-5-5h-64.899v10z"/><path d="m384.592 338.196h-64.899v10h64.899c2.761 0 5-2.238 5-5 0-2.761-2.239-5-5-5z"/></g><path d="m309.693 398.283h-239.917c-5.523 0-10-4.477-10-10v-69.127h259.916v69.127c.001 5.523-4.477 10-9.999 10z" fill="url(#SVGID_2_)"/><g><g><g><g><g><g><circle cx="113.49" cy="395.632" fill="#6583fe" r="28.987"/><circle cx="113.49" cy="395.632" fill="#d2deff" r="13.127"/></g></g></g></g></g></g><g><circle cx="267.779" cy="395.632" fill="#6583fe" r="28.987"/><circle cx="267.779" cy="395.632" fill="#d2deff" r="13.127"/></g></g><path d="m317.097 102.572c-3.713 0-7.427-1.413-10.254-4.24-5.654-5.653-5.654-14.853 0-20.506 5.653-5.653 14.853-5.653 20.506 0 5.654 5.653 5.654 14.853 0 20.506-2.826 2.827-6.539 4.24-10.252 4.24zm0-18.991c-1.152 0-2.305.438-3.182 1.315-1.755 1.755-1.755 4.61 0 6.365 1.754 1.753 4.61 1.753 6.364 0 1.755-1.755 1.755-4.61 0-6.365-.877-.876-2.03-1.315-3.182-1.315z" fill="#00eca2"/><path d="m55.113 223.812c-3.713 0-7.426-1.413-10.253-4.24-5.653-5.653-5.653-14.852 0-20.505 5.653-5.655 14.853-5.654 20.506 0 5.653 5.653 5.653 14.852 0 20.505-2.826 2.826-6.54 4.24-10.253 4.24zm0-18.991c-1.153 0-2.305.439-3.182 1.315-1.754 1.755-1.754 4.609 0 6.364 1.753 1.754 4.609 1.754 6.364 0 1.754-1.755 1.754-4.609 0-6.364-.877-.876-2.029-1.315-3.182-1.315z" fill="#00eca2"/><path d="m418.227 214.318c-1.28 0-2.559-.488-3.536-1.465l-5.964-5.964-5.964 5.964c-1.953 1.953-5.118 1.953-7.071 0-1.953-1.952-1.953-5.118 0-7.07l9.5-9.5c1.953-1.953 5.118-1.953 7.071 0l9.5 9.5c1.953 1.952 1.953 5.118 0 7.07-.977.977-2.256 1.465-3.536 1.465z" fill="#6583fe"/><path d="m148.793 459.369c-1.28 0-2.559-.488-3.536-1.465l-5.964-5.964-5.964 5.964c-1.953 1.953-5.118 1.953-7.071 0-1.953-1.952-1.953-5.118 0-7.07l9.5-9.5c1.953-1.953 5.118-1.953 7.071 0l9.5 9.5c1.953 1.952 1.953 5.118 0 7.07-.977.977-2.256 1.465-3.536 1.465z" fill="#6583fe"/><path d="m427.727 352.946c-1.28 0-2.559-.488-3.536-1.465l-5.964-5.964-5.964 5.964c-1.953 1.953-5.118 1.953-7.071 0-1.953-1.952-1.953-5.118 0-7.07l9.5-9.5c1.953-1.953 5.118-1.953 7.071 0l9.5 9.5c1.953 1.952 1.953 5.118 0 7.07-.977.977-2.256 1.465-3.536 1.465z" fill="#ff7eb8"/></g></g></g></svg>