<svg id="Capa_1" enable-background="new 0 0 512 512" height="512" viewBox="0 0 512 512" width="512" xmlns="http://www.w3.org/2000/svg" xmlns:xlink="http://www.w3.org/1999/xlink"><linearGradient id="SVGID_1_" gradientUnits="userSpaceOnUse" x1="232.681" x2="286.681" y1="136" y2="394"><stop offset=".0112" stop-color="#dafced"/><stop offset=".761" stop-color="#cbdcfa"/><stop offset="1" stop-color="#c6d1ff"/></linearGradient><linearGradient id="lg1"><stop offset=".0028" stop-color="#ff7eb8" stop-opacity="0"/><stop offset="1" stop-color="#ff7eb8" stop-opacity=".6"/></linearGradient><linearGradient id="SVGID_2_" gradientUnits="userSpaceOnUse" x1="175.188" x2="175.188" xlink:href="#lg1" y1="150.014" y2="306.842"/><linearGradient id="SVGID_3_" gradientUnits="userSpaceOnUse" x1="439.78" x2="439.78" xlink:href="#lg1" y1="85.617" y2="388.992"/><g><g><path d="m501.873 132.754c-22.357-56.888-91.226-91.003-149.556-68.427-66.582 25.769-44.506 131.673-104.983 153.087-32.669 11.568-80.962-31.644-113.969-38.271-60.821-12.21-115.881 30.705-129.439 90.134-13.832 60.63 8.353 141.61 74.967 158.066 79.35 19.603 120.683-51.728 187.249-72.21 68.311-21.019 144.263 28.622 200.814-31.776 41.78-44.621 57.055-134.272 34.917-190.603z" fill="url(#SVGID_1_)"/></g><g><g><g><g><path d="m371.355 218.767-49.961-47.193c-3.189-3.012-8.433-.751-8.433 3.635v22.687h-69.647c-2.761 0-5 2.239-5 5v39.013c0 2.761 2.239 5 5 5h69.647v22.687c0 4.386 5.245 6.647 8.433 3.635l49.961-47.193c2.089-1.975 2.089-5.298 0-7.271z" fill="#02ffb3"/></g><path d="m418.917 388.99h-343.214c-22.684 0-41.074-18.389-41.074-41.074 0-22.684 18.389-41.074 41.074-41.074h343.214c22.684 0 41.074 18.389 41.074 41.074 0 22.684-18.389 41.074-41.074 41.074z" fill="#8399fe"/><g><g><ellipse cx="92.427" cy="347.916" fill="#b7c5ff" rx="24.383" ry="24.383" transform="matrix(.922 -.388 .388 .922 -127.886 63.222)"/><ellipse cx="92.427" cy="347.916" fill="#ff7eb8" rx="11.042" ry="11.042" transform="matrix(.16 -.987 .987 .16 -265.782 383.619)"/></g><g><ellipse cx="154.38" cy="347.916" fill="#b7c5ff" rx="24.383" ry="24.383" transform="matrix(.614 -.789 .789 .614 -215.009 256.097)"/><ellipse cx="154.38" cy="347.916" fill="#ff7eb8" rx="11.042" ry="11.042" transform="matrix(.615 -.788 .788 .615 -214.863 255.512)"/></g><g><ellipse cx="216.334" cy="347.916" fill="#b7c5ff" rx="24.383" ry="24.383" transform="matrix(.227 -.974 .974 .227 -171.659 479.475)"/><ellipse cx="216.334" cy="347.916" fill="#ff7eb8" rx="11.042" ry="11.042" transform="matrix(.229 -.974 .974 .229 -171.833 478.959)"/></g><g><ellipse cx="278.287" cy="347.916" fill="#b7c5ff" rx="24.383" ry="24.383" transform="matrix(.922 -.388 .388 .922 -113.291 135.417)"/><ellipse cx="278.287" cy="347.916" fill="#ff7eb8" rx="11.042" ry="11.042" transform="matrix(.2 -.98 .98 .2 -118.31 550.895)"/></g><g><ellipse cx="340.241" cy="347.916" fill="#b7c5ff" rx="24.383" ry="24.383" transform="matrix(.922 -.388 .388 .922 -108.426 159.482)"/><ellipse cx="340.241" cy="347.916" fill="#ff7eb8" rx="11.042" ry="11.042" transform="matrix(.16 -.987 .987 .16 -57.528 628.255)"/></g><g transform="matrix(.707 -.707 .707 .707 -128.214 386.296)"><ellipse cx="402.194" cy="347.916" fill="#b7c5ff" rx="24.383" ry="24.383"/><ellipse cx="402.194" cy="347.916" fill="#ff7eb8" rx="11.042" ry="11.042"/></g></g><g><g><path d="m241.102 306.842h-131.828c-5.523 0-10-4.477-10-10v-136.828c0-5.523 4.477-10 10-10h131.828c5.523 0 10 4.477 10 10v136.828c0 5.523-4.477 10-10 10z" fill="#ffa8cf"/><path d="m192.426 184.374h-29.476c-2.761 0-5-2.239-5-5v-29.36h39.476v29.36c0 2.762-2.238 5-5 5z" fill="#6583fe"/></g><g><g><path d="m148.397 207.08h58.583c2.761 0 5-2.239 5-5s-2.239-5-5-5h-58.583c-2.761 0-5 2.239-5 5 0 2.762 2.238 5 5 5z" fill="#ff5ba8"/></g><g><path d="m163.397 227.402h28.583c2.761 0 5-2.239 5-5s-2.239-5-5-5h-28.583c-2.761 0-5 2.239-5 5s2.238 5 5 5z" fill="#ff5ba8"/></g><g><path d="m163.397 244.723h28.583c2.761 0 5-2.239 5-5s-2.239-5-5-5h-28.583c-2.761 0-5 2.239-5 5s2.238 5 5 5z" fill="#ff5ba8"/></g></g><path d="m150.819 289.126h-22.134c-2.761 0-5-2.239-5-5v-7.154c0-2.761 2.239-5 5-5h22.134c2.762 0 5 2.239 5 5v7.154c0 2.761-2.238 5-5 5z" fill="#02ffb3"/><g fill="#ff5ba8"><ellipse cx="170.674" cy="280.549" rx="8.577" ry="8.577" transform="matrix(.207 -.978 .978 .207 -139.087 389.568)"/><ellipse cx="192.333" cy="280.549" rx="8.577" ry="8.577" transform="matrix(.229 -.973 .973 .229 -124.793 403.554)"/></g></g><g><path d="m424.079 87.734-18.043 14.085c-2.427 1.895-3.846 4.803-3.846 7.883v279.29h70.18c2.761 0 5-2.239 5-5v-293.375c0-2.761-2.239-5-5-5h-42.138c-2.229 0-4.395.745-6.153 2.117z" fill="#6583fe"/><path d="m477.368 361.053h-34.651c-2.761 0-5-2.239-5-5v-10.868c0-2.761 2.239-5 5-5h34.651z" fill="#4369fd"/><path d="m477.37 227.402v22.68h-11.34c-2.76 0-5-2.24-5-5v-12.68c0-2.76 2.24-5 5-5z" fill="#b7c5ff"/><path d="m477.37 260.632v22.68h-11.34c-2.76 0-5-2.24-5-5v-12.68c0-2.76 2.24-5 5-5z" fill="#b7c5ff"/><path d="m477.368 202.08h-48.49c-2.761 0-5-2.239-5-5v-55.799c0-2.762 2.239-5 5-5h48.49z" fill="#02ffb3"/><g fill="#97ffd2"><path d="m423.878 185.178v11.902c0 1.889 1.06 3.513 2.606 4.364 16.935-17.026 33.905-34.017 50.884-50.998v-14.164h-4.668c-16.283 16.288-32.559 32.586-48.822 48.896z"/><path d="m437.502 202.08h39.866v-39.866z"/></g></g><path d="m446.556 250.08h-17.678c-2.761 0-5-2.239-5-5v-12.678c0-2.762 2.239-5 5-5h17.678c2.761 0 5 2.238 5 5v12.678c0 2.761-2.238 5-5 5z" fill="#b7c5ff"/><path d="m446.556 283.31h-17.678c-2.761 0-5-2.239-5-5v-12.678c0-2.762 2.239-5 5-5h17.678c2.761 0 5 2.238 5 5v12.678c0 2.762-2.238 5-5 5z" fill="#b7c5ff"/><path d="m428.556 111.55c0 2.584-2.094 4.678-4.678 4.678-2.583 0-4.678-2.094-4.678-4.678 0-2.583 2.094-4.678 4.678-4.678s4.678 2.094 4.678 4.678z" fill="#2d58e0"/><g fill="#6583fe"><path d="m128.081 367.621c0 2.583-2.094 4.678-4.678 4.678s-4.678-2.094-4.678-4.678 2.094-4.678 4.678-4.678 4.678 2.095 4.678 4.678z"/><path d="m190.035 367.621c0 2.583-2.094 4.678-4.678 4.678s-4.678-2.094-4.678-4.678 2.094-4.678 4.678-4.678 4.678 2.095 4.678 4.678z"/></g><g fill="#6583fe"><path d="m251.988 367.621c0 2.583-2.094 4.678-4.678 4.678-2.583 0-4.678-2.094-4.678-4.678s2.094-4.678 4.678-4.678 4.678 2.095 4.678 4.678z"/><path d="m313.942 367.621c0 2.583-2.094 4.678-4.678 4.678s-4.678-2.094-4.678-4.678 2.094-4.678 4.678-4.678c2.583 0 4.678 2.095 4.678 4.678z"/></g><g><path d="m375.895 367.621c0 2.583-2.094 4.678-4.678 4.678s-4.678-2.094-4.678-4.678 2.094-4.678 4.678-4.678 4.678 2.095 4.678 4.678z" fill="#6583fe"/></g></g></g><path d="m192.333 454.711c-3.713 0-7.426-1.413-10.253-4.24-5.653-5.654-5.653-14.853 0-20.506 5.653-5.654 14.853-5.653 20.506 0h.001c5.653 5.654 5.653 14.853 0 20.506-2.827 2.827-6.541 4.24-10.254 4.24zm0-18.99c-1.152 0-2.305.439-3.182 1.316-1.755 1.754-1.755 4.609 0 6.364 1.754 1.755 4.609 1.754 6.364 0 1.754-1.754 1.754-4.609 0-6.364-.876-.877-2.029-1.316-3.182-1.316z" fill="#00eca2"/><path d="m324.167 109.61c-3.713 0-7.426-1.413-10.253-4.24-5.653-5.654-5.653-14.853 0-20.506 5.653-5.654 14.852-5.653 20.506 0 5.653 5.654 5.653 14.853 0 20.506-2.826 2.826-6.54 4.24-10.253 4.24zm0-18.991c-1.152 0-2.305.438-3.182 1.316-1.755 1.754-1.755 4.609 0 6.364 1.754 1.755 4.609 1.754 6.364 0 1.754-1.754 1.754-4.609 0-6.364-.876-.877-2.029-1.316-3.182-1.316z" fill="#ff7eb8"/><path d="m365.644 130.053c-1.28 0-2.559-.488-3.536-1.464l-5.964-5.964-5.964 5.964c-1.953 1.952-5.118 1.952-7.071 0-1.953-1.953-1.953-5.119 0-7.071l9.5-9.5c1.953-1.952 5.118-1.952 7.071 0l9.5 9.5c1.953 1.953 1.953 5.119 0 7.071-.977.976-2.256 1.464-3.536 1.464z" fill="#6583fe"/><path d="m66.634 272.055c-1.28 0-2.559-.488-3.536-1.464l-5.964-5.964-5.964 5.964c-1.953 1.952-5.118 1.952-7.071 0-1.953-1.953-1.953-5.119 0-7.071l9.5-9.5c1.953-1.952 5.118-1.952 7.071 0l9.5 9.5c1.953 1.953 1.953 5.119 0 7.071-.977.975-2.256 1.464-3.536 1.464z" fill="#6583fe"/><path d="m383.064 440.468c-1.28 0-2.559-.488-3.536-1.464l-5.964-5.964-5.964 5.964c-1.953 1.952-5.118 1.952-7.071 0-1.953-1.953-1.953-5.119 0-7.071l9.5-9.5c1.953-1.952 5.118-1.952 7.071 0l9.5 9.5c1.953 1.953 1.953 5.119 0 7.071-.977.976-2.256 1.464-3.536 1.464z" fill="#ff7eb8"/></g><path d="m241.102 306.842h-131.828c-5.523 0-10-4.477-10-10v-136.828c0-5.523 4.477-10 10-10h131.828c5.523 0 10 4.477 10 10v136.828c0 5.523-4.477 10-10 10z" fill="url(#SVGID_2_)"/><path d="m424.079 87.734-18.043 14.085c-2.427 1.895-3.846 4.803-3.846 7.883v279.29h70.18c2.761 0 5-2.239 5-5v-293.375c0-2.761-2.239-5-5-5h-42.138c-2.229 0-4.395.745-6.153 2.117z" fill="url(#SVGID_3_)"/></g></svg>