<svg id="Capa_1" enable-background="new 0 0 512 512" height="512" viewBox="0 0 512 512" width="512" xmlns="http://www.w3.org/2000/svg" xmlns:xlink="http://www.w3.org/1999/xlink"><linearGradient id="SVGID_1_" gradientTransform="matrix(.987 .163 -.163 .987 -495.635 166.037)" gradientUnits="userSpaceOnUse" x1="949.475" x2="624.482" y1="39.787" y2="-91.856"><stop offset=".0112" stop-color="#dafced"/><stop offset=".761" stop-color="#cbdcfa"/><stop offset="1" stop-color="#c6d1ff"/></linearGradient><linearGradient id="SVGID_2_" gradientUnits="userSpaceOnUse" x1="256" x2="256" y1="141.564" y2="315.175"><stop offset=".0028" stop-color="#ff7eb8" stop-opacity="0"/><stop offset="1" stop-color="#ff7eb8" stop-opacity=".6"/></linearGradient><g><g><path d="m319.203.425c-95.818 8.652-105.091 192.429-146.416 286.587-20.478 46.658-68.772 94.794-60.258 149.782 9.605 62.035 72.897 80.075 121.683 74.14 120.723-14.685 172.898-141.053 180.797-260.801 4.869-73.829 20.3-260.192-95.806-249.708z" fill="url(#SVGID_1_)"/></g><g><path d="m451.098 202.253c-3.713 0-7.427-1.413-10.253-4.24-5.654-5.653-5.654-14.852 0-20.505 5.652-5.654 14.853-5.654 20.506 0 5.654 5.653 5.654 14.852 0 20.505-2.827 2.827-6.541 4.24-10.253 4.24zm0-18.99c-1.152 0-2.305.438-3.183 1.315-1.754 1.755-1.754 4.609 0 6.364 1.756 1.754 4.609 1.754 6.365 0 1.754-1.755 1.754-4.609 0-6.364-.878-.877-2.03-1.315-3.182-1.315z" fill="#00eca2"/><g><g><path d="m433.169 399.985h-354.338c-23.42 0-42.405-18.985-42.405-42.405 0-23.42 18.985-42.405 42.405-42.405h354.338c23.42 0 42.405 18.985 42.405 42.405 0 23.42-18.985 42.405-42.405 42.405z" fill="#8399fe"/><g><g><circle cx="96.096" cy="357.58" fill="#b7c5ff" r="25.173"/><circle cx="96.096" cy="357.58" fill="#ff7eb8" r="11.4"/></g><g><circle cx="160.058" cy="357.58" fill="#b7c5ff" r="25.173"/><circle cx="160.058" cy="357.58" fill="#ff7eb8" r="11.4"/></g><g><circle cx="224.019" cy="357.58" fill="#b7c5ff" r="25.173"/><circle cx="224.019" cy="357.58" fill="#ff7eb8" r="11.4"/></g><g><circle cx="287.981" cy="357.58" fill="#b7c5ff" r="25.173"/><circle cx="287.981" cy="357.58" fill="#ff7eb8" r="11.4"/></g><g><circle cx="351.942" cy="357.58" fill="#b7c5ff" r="25.173"/><circle cx="351.942" cy="357.58" fill="#ff7eb8" r="11.4"/></g><g><circle cx="415.904" cy="357.58" fill="#b7c5ff" r="25.173"/><circle cx="415.904" cy="357.58" fill="#ff7eb8" r="11.4"/></g></g><g fill="#6583fe"><path d="m132.906 377.924c0 2.667-2.162 4.829-4.829 4.829s-4.829-2.162-4.829-4.829 2.162-4.829 4.829-4.829 4.829 2.162 4.829 4.829z"/><circle cx="192.038" cy="377.924" r="4.83"/></g><g fill="#6583fe"><circle cx="256" cy="377.924" r="4.83"/><circle cx="319.961" cy="377.924" r="4.83"/></g><g><path d="m388.752 377.924c0 2.667-2.162 4.829-4.829 4.829s-4.829-2.162-4.829-4.829 2.162-4.829 4.829-4.829 4.829 2.162 4.829 4.829z" fill="#6583fe"/></g></g><path d="m232.704 118.771c-3.873 0-7.514-1.509-10.253-4.248-2.738-2.737-4.246-6.379-4.246-10.252s1.508-7.515 4.247-10.253c5.652-5.653 14.853-5.655 20.505 0 2.739 2.738 4.247 6.38 4.247 10.253s-1.508 7.515-4.247 10.253c-2.738 2.738-6.379 4.247-10.253 4.247zm.001-18.998c-1.152 0-2.305.438-3.183 1.315-.85.851-1.317 1.98-1.317 3.183 0 1.202.468 2.331 1.317 3.181.851.852 1.98 1.319 3.182 1.319s2.332-.468 3.182-1.318c.851-.85 1.318-1.979 1.318-3.182 0-1.202-.468-2.332-1.317-3.183-.878-.877-2.031-1.315-3.182-1.315z" fill="#6583fe"/><path d="m210.5 74.84c-1.279 0-2.56-.488-3.535-1.465l-5.965-5.964-5.965 5.964c-1.951 1.953-5.119 1.953-7.07 0-1.953-1.952-1.953-5.118 0-7.07l9.5-9.5c1.951-1.953 5.119-1.953 7.07 0l9.5 9.5c1.953 1.952 1.953 5.118 0 7.07-.975.977-2.256 1.465-3.535 1.465z" fill="#00eca2"/><path d="m322.502 436.953c-1.279 0-2.56-.488-3.535-1.465l-5.965-5.964-5.965 5.964c-1.951 1.953-5.119 1.953-7.07 0-1.953-1.952-1.953-5.118 0-7.07l9.5-9.5c1.951-1.953 5.119-1.953 7.07 0l9.5 9.5c1.953 1.952 1.953 5.118 0 7.07-.976.977-2.256 1.465-3.535 1.465z" fill="#ff7eb8"/><g><g><path d="m417.655 151.888v152.962c0 5.699-4.625 10.324-10.324 10.324h-302.662c-5.699 0-10.324-4.625-10.324-10.324v-152.962c0-5.699 4.625-10.324 10.324-10.324h302.662c5.699 0 10.324 4.625 10.324 10.324z" fill="#ff7eb8"/><path d="m209.996 160.809-51.59 48.719c-3.283 3.108-8.703.774-8.703-3.748v-23.425h-55.358v-30.466c0-5.699 4.625-10.324 10.324-10.324h92.896l12.43 11.739c2.148 2.033 2.148 5.471.001 7.505z" fill="#ff5ba8"/><g fill="#ffc4df"><path d="m104.669 141.565h15.032v24.778h-25.356v-14.454c0-5.699 4.625-10.324 10.324-10.324z"/><path d="m94.345 290.408h25.356v24.768h-15.032c-5.699 0-10.324-4.625-10.324-10.324z"/><path d="m417.655 151.889v14.454h-25.356v-24.778h15.032c5.699 0 10.324 4.625 10.324 10.324z"/><path d="m392.299 290.408h25.356v14.444c0 5.699-4.625 10.324-10.324 10.324h-15.032z"/></g><path d="m109.831 157.051h292.338v142.638h-292.338z" fill="#ff5ba8"/><path d="m355.7 290.404c-4.481 0-8.113-3.632-8.113-8.113v-107.84c0-4.481 3.632-8.113 8.113-8.113 4.48 0 8.113 3.632 8.113 8.113v107.841c0 4.48-3.632 8.112-8.113 8.112z" fill="#fe2c8f"/><path d="m384.186 290.404c-4.481 0-8.113-3.632-8.113-8.113v-107.84c0-4.481 3.632-8.113 8.113-8.113 4.48 0 8.113 3.632 8.113 8.113v107.841c0 4.48-3.632 8.112-8.113 8.112z" fill="#fe2c8f"/><path d="m184.786 290.404c-4.481 0-8.113-3.632-8.113-8.113v-107.84c0-4.481 3.632-8.113 8.113-8.113 4.48 0 8.113 3.632 8.113 8.113v107.841c0 4.48-3.633 8.112-8.113 8.112z" fill="#fe2c8f"/><path d="m211.606 157.051c0 1.373-.537 2.746-1.611 3.758l-51.59 48.719c-3.283 3.108-8.703.774-8.703-3.748v-23.425h-39.872v-25.304z" fill="#fe2c8f"/><g><g><path d="m382.987 190.687c0 2.86-2.313 5.162-5.162 5.162h-60.479c-2.849 0-5.162-2.302-5.162-5.162 0-2.849 2.313-5.162 5.162-5.162h60.479c2.849 0 5.162 2.313 5.162 5.162z" fill="#9fb0fe"/></g><g><path d="m382.987 211.676c0 2.849-2.313 5.162-5.162 5.162h-29.506c-2.85 0-5.162-2.313-5.162-5.162 0-2.86 2.313-5.162 5.162-5.162h29.506c2.849 0 5.162 2.302 5.162 5.162z" fill="#9fb0fe"/></g><g><path d="m382.987 229.557c0 2.85-2.313 5.162-5.162 5.162h-29.506c-2.85 0-5.162-2.313-5.162-5.162s2.313-5.162 5.162-5.162h29.506c2.849 0 5.162 2.313 5.162 5.162z" fill="#9fb0fe"/></g></g></g><g><path d="m127.814 290.404c-4.48 0-8.113-3.632-8.113-8.113v-107.84c0-4.481 3.632-8.113 8.113-8.113 4.481 0 8.113 3.632 8.113 8.113v107.841c0 4.48-3.632 8.112-8.113 8.112z" fill="#fe2c8f"/><path d="m156.3 290.404c-4.481 0-8.113-3.632-8.113-8.113v-107.84c0-4.481 3.632-8.113 8.113-8.113 4.481 0 8.113 3.632 8.113 8.113v107.841c0 4.48-3.632 8.112-8.113 8.112z" fill="#fe2c8f"/><path d="m135.93 174.447v7.908h-16.229v-7.908c0-4.481 3.634-8.104 8.115-8.104 2.24 0 4.274.908 5.74 2.374s2.374 3.489 2.374 5.73z" fill="#db237a"/><path d="m164.415 174.447v29.403l-6.009 5.678c-3.283 3.108-8.703.774-8.703-3.748v-23.425h-1.518v-7.908c0-4.481 3.634-8.104 8.115-8.104 2.24 0 4.264.908 5.74 2.374 1.466 1.466 2.375 3.489 2.375 5.73z" fill="#db237a"/><path d="m192.899 174.447v2.509l-16.229 15.321v-17.83c0-4.481 3.634-8.104 8.115-8.104 2.24 0 4.274.908 5.74 2.374 1.465 1.466 2.374 3.489 2.374 5.73z" fill="#db237a"/><g fill="#fe2c8f"><path d="m213.272 290.404c-4.481 0-8.113-3.632-8.113-8.113v-107.84c0-4.481 3.632-8.113 8.113-8.113 4.48 0 8.113 3.632 8.113 8.113v107.841c-.001 4.48-3.633 8.112-8.113 8.112z"/><path d="m241.757 290.404c-4.481 0-8.113-3.632-8.113-8.113v-107.84c0-4.481 3.632-8.113 8.113-8.113 4.48 0 8.113 3.632 8.113 8.113v107.841c0 4.48-3.632 8.112-8.113 8.112z"/><path d="m270.243 290.404c-4.48 0-8.113-3.632-8.113-8.113v-107.84c0-4.481 3.632-8.113 8.113-8.113 4.481 0 8.113 3.632 8.113 8.113v107.841c0 4.48-3.632 8.112-8.113 8.112z"/><path d="m298.729 290.404c-4.48 0-8.113-3.632-8.113-8.113v-107.84c0-4.481 3.632-8.113 8.113-8.113 4.481 0 8.113 3.632 8.113 8.113v107.841c0 4.48-3.633 8.112-8.113 8.112z"/><path d="m327.215 290.404c-4.481 0-8.113-3.632-8.113-8.113v-107.84c0-4.481 3.632-8.113 8.113-8.113 4.48 0 8.113 3.632 8.113 8.113v107.841c-.001 4.48-3.633 8.112-8.113 8.112z"/></g></g><g><g fill="#8399fe"><path d="m319.101 185.525h16.23v10.324h-16.23z"/><path d="m347.585 185.525h16.229v10.324h-16.229z"/></g><g><path d="m363.815 206.514v10.324h-15.496c-.248 0-.496-.021-.733-.062v-10.2c.237-.041.485-.062.733-.062z" fill="#8399fe"/></g><g><path d="m363.815 224.395v10.324h-15.496c-.248 0-.496-.021-.733-.062v-10.2c.237-.041.485-.062.733-.062z" fill="#8399fe"/><path d="m382.987 229.557c0 2.85-2.313 5.162-5.162 5.162h-1.755v-10.324h1.755c2.849 0 5.162 2.313 5.162 5.162z" fill="#9fb0fe"/></g></g><g fill="#8399fe"><path d="m382.987 229.557c0 2.85-2.313 5.162-5.162 5.162h-1.755v-10.324h1.755c2.849 0 5.162 2.313 5.162 5.162z"/><path d="m382.987 211.676c0 2.849-2.313 5.162-5.162 5.162h-1.755v-10.324h1.755c2.849 0 5.162 2.302 5.162 5.162z"/><path d="m377.825 195.849h-1.755v-10.324h1.755c2.849 0 5.162 2.313 5.162 5.162 0 2.86-2.313 5.162-5.162 5.162z"/></g></g><path d="m417.655 151.888v152.962c0 5.699-4.625 10.324-10.324 10.324h-302.662c-5.699 0-10.324-4.625-10.324-10.324v-152.962c0-5.699 4.625-10.324 10.324-10.324h302.662c5.699 0 10.324 4.625 10.324 10.324z" fill="url(#SVGID_2_)"/><g><path d="m209.991 137.817-51.581-48.723c-3.292-3.109-8.707-.776-8.707 3.753v23.422h-71.903c-2.851 0-5.162 2.311-5.162 5.162v40.277c0 2.851 2.311 5.162 5.162 5.162h71.904v23.422c0 4.528 5.415 6.862 8.707 3.753l51.581-48.723c2.156-2.037 2.156-5.468-.001-7.505z" fill="#02ffb3"/></g><path d="m263.71 455.946c-3.713 0-7.427-1.413-10.253-4.24-5.654-5.653-5.654-14.852 0-20.505 5.652-5.654 14.853-5.654 20.506 0 5.654 5.653 5.654 14.852 0 20.505-2.826 2.827-6.54 4.24-10.253 4.24zm0-18.99c-1.152 0-2.305.438-3.183 1.315-1.754 1.755-1.754 4.609 0 6.364 1.756 1.754 4.609 1.754 6.365 0 1.754-1.755 1.754-4.609 0-6.364-.877-.876-2.03-1.315-3.182-1.315z" fill="#6583fe"/></g></g></g></svg>