<svg id="Capa_1" enable-background="new 0 0 512 512" height="512" viewBox="0 0 512 512" width="512" xmlns="http://www.w3.org/2000/svg" xmlns:xlink="http://www.w3.org/1999/xlink"><linearGradient id="SVGID_1_" gradientUnits="userSpaceOnUse" x1="-9.013" x2="466.018" y1="137.485" y2="365.774"><stop offset="0" stop-color="#c6d1ff"/><stop offset=".5834" stop-color="#e6d5f4"/><stop offset=".997" stop-color="#ffd9ec"/></linearGradient><linearGradient id="SVGID_2_" gradientUnits="userSpaceOnUse" x1="256" x2="256" y1="63.161" y2="455.581"><stop offset=".0028" stop-color="#ff7eb8" stop-opacity="0"/><stop offset="1" stop-color="#ff7eb8" stop-opacity=".6"/></linearGradient><g><g><path d="m471.476 117.805c-65.417-50.293-128.867-9.305-199.64-23.797-71.285-14.597-99.685-63.201-180.876-40.766-71.922 19.873-115.562 99.551-76.024 166.258 11.267 19.009 30.461 33.35 38.305 54.619 12.653 34.311-6.607 60.653-2.85 94.372 15.612 140.101 229.574 85.834 308.303 42.245 123.47-68.36 206.998-220.497 112.782-292.931z" fill="url(#SVGID_1_)"/></g><g><g><path d="m366.99 367.785v67.796c0 11.04-8.96 20-20 20h-181.98c-11.04 0-20-8.96-20-20v-67.796c0-11.04 8.96-20 20-20h181.98c11.04 0 20 8.96 20 20z" fill="#8399fe"/><path d="m366.99 298.009v-214.848c0-11.04-8.96-20-20-20h-181.98c-11.04 0-20 8.96-20 20v214.848z" fill="#d2deff"/><path d="m366.99 153.071v106.06c-1.68.16-3.37.24-5.09.24-29.42 0-53.27-23.85-53.27-53.27s23.85-53.27 53.27-53.27c1.72 0 3.41.08 5.09.24z" fill="#b7c5ff"/><path d="m203.37 206.101c0 29.42-23.85 53.27-53.27 53.27-1.72 0-3.41-.08-5.09-.24v-106.06c1.68-.16 3.37-.24 5.09-.24 29.42 0 53.27 23.85 53.27 53.27z" fill="#b7c5ff"/><path d="m145.013 269.237h221.975v125.899h-221.975z" fill="#6583fe"/><path d="m244.107 269.237h-99.094v22.249h82.664z" fill="#b7c5ff"/><g fill="#9fb0fe"><path d="m301.484 92.197h-90.967c-4.268 0-8.065-2.708-9.455-6.743l-7.677-22.29h125.232l-7.677 22.29c-1.391 4.034-5.189 6.743-9.456 6.743z"/><path d="m210.516 426.545h90.967c4.268 0 8.065 2.708 9.455 6.743l7.677 22.29h-125.231l7.677-22.29c1.39-4.034 5.188-6.743 9.455-6.743z"/></g></g><g><path d="m252.223 212.766c-1.069 0-2.146-.214-3.167-.654-2.937-1.266-4.834-4.149-4.834-7.347v-5.202h-11.23c-2.761 0-5-2.239-5-5s2.239-5 5-5h16.23c2.761 0 5 2.239 5 5v5.561l18.873-17.828-18.873-17.828v5.561c0 2.761-2.239 5-5 5h-16.23c-2.761 0-5-2.239-5-5s2.239-5 5-5h11.23v-5.201c0-3.198 1.897-6.081 4.834-7.347 2.936-1.265 6.335-.664 8.66 1.531l23.786 22.468c1.593 1.505 2.507 3.625 2.506 5.817 0 2.191-.914 4.311-2.507 5.815l-23.785 22.468c-1.516 1.433-3.489 2.186-5.493 2.186z" fill="#ff5ba8"/></g><g><g><g><ellipse cx="361.899" cy="182.297" fill="#01eca5" rx="53.269" ry="53.269" transform="matrix(.151 -.989 .989 .151 127.091 512.552)"/><path d="m374.886 189.54c3.978-3.57 6.499-8.733 6.499-14.486 0-10.745-8.741-19.486-19.486-19.486s-19.486 8.741-19.486 19.486c0 5.753 2.521 10.916 6.499 14.486-3.978 3.57-6.499 8.733-6.499 14.486 0 2.761 2.239 5 5 5s5-2.239 5-5c0-5.23 4.255-9.486 9.486-9.486s9.486 4.255 9.486 9.486c0 2.761 2.239 5 5 5s5-2.239 5-5c0-5.753-2.521-10.916-6.499-14.486zm-22.473-14.486c0-5.23 4.255-9.486 9.486-9.486s9.486 4.255 9.486 9.486-4.255 9.486-9.486 9.486-9.486-4.255-9.486-9.486z" fill="#fff"/></g><g><ellipse cx="150.101" cy="182.297" fill="#ff7eb8" rx="53.269" ry="53.269" transform="matrix(.16 -.987 .987 .16 -53.886 301.259)"/><path d="m163.088 189.54c3.978-3.57 6.499-8.733 6.499-14.486 0-10.745-8.741-19.486-19.486-19.486s-19.486 8.741-19.486 19.486c0 5.753 2.521 10.916 6.499 14.486-3.978 3.57-6.499 8.733-6.499 14.486 0 2.761 2.239 5 5 5s5-2.239 5-5c0-5.23 4.255-9.486 9.486-9.486s9.486 4.255 9.486 9.486c0 2.761 2.239 5 5 5s5-2.239 5-5c0-5.753-2.521-10.916-6.499-14.486zm-22.473-14.486c0-5.23 4.255-9.486 9.486-9.486s9.486 4.255 9.486 9.486-4.255 9.486-9.486 9.486-9.486-4.255-9.486-9.486z" fill="#fff"/></g></g></g><g><g><path d="m331.241 296.486h-41.404c-2.761 0-5-2.239-5-5s2.239-5 5-5h41.404c2.761 0 5 2.239 5 5s-2.238 5-5 5z" fill="#fff"/></g><g><path d="m331.121 324.746h-150.483c-2.761 0-5-2.239-5-5s2.239-5 5-5h150.483c2.761 0 5 2.239 5 5s-2.239 5-5 5z" fill="#fff"/></g><g><path d="m331.241 343.249h-150.482c-2.761 0-5-2.239-5-5s2.239-5 5-5h150.483c2.761 0 5 2.239 5 5s-2.239 5-5.001 5z" fill="#fff"/></g><path d="m366.99 83.161v352.42c0 11.04-8.96 20-20 20h-181.98c-11.04 0-20-8.96-20-20v-352.42c0-11.04 8.96-20 20-20h181.98c11.04 0 20 8.96 20 20z" fill="url(#SVGID_2_)"/></g><path d="m291.262 382.1h-70.523c-2.761 0-5-2.239-5-5v-14.315c0-2.761 2.239-5 5-5h70.523c2.761 0 5 2.239 5 5v14.315c0 2.762-2.239 5-5 5z" fill="#ff5ba8"/><path d="m419.492 383.577c-1.28 0-2.559-.488-3.536-1.464l-5.964-5.964-5.964 5.964c-1.953 1.952-5.118 1.952-7.071 0-1.953-1.953-1.953-5.119 0-7.071l9.5-9.5c1.953-1.952 5.118-1.952 7.071 0l9.5 9.5c1.953 1.953 1.953 5.119 0 7.071-.977.976-2.256 1.464-3.536 1.464z" fill="#6583fe"/><path d="m124.007 289.224c-1.28 0-2.559-.488-3.536-1.464l-5.964-5.964-5.964 5.964c-1.953 1.952-5.118 1.952-7.071 0-1.953-1.953-1.953-5.119 0-7.071l9.5-9.5c1.953-1.952 5.118-1.952 7.071 0l9.5 9.5c1.953 1.953 1.953 5.119 0 7.071-.977.976-2.256 1.464-3.536 1.464z" fill="#6583fe"/><path d="m212.87 46.419c-1.28 0-2.559-.488-3.536-1.464l-5.964-5.964-5.964 5.964c-1.953 1.952-5.118 1.952-7.071 0-1.953-1.953-1.953-5.119 0-7.071l9.5-9.5c1.953-1.952 5.118-1.952 7.071 0l9.5 9.5c1.953 1.953 1.953 5.119 0 7.071-.977.976-2.256 1.464-3.536 1.464z" fill="#00eca2"/><path d="m419.492 344.24c-3.713 0-7.426-1.414-10.253-4.24-5.653-5.654-5.653-14.852 0-20.506s14.853-5.653 20.506 0c5.653 5.654 5.653 14.853 0 20.506-2.827 2.826-6.54 4.24-10.253 4.24zm0-18.992c-1.153 0-2.305.438-3.182 1.316-1.755 1.754-1.755 4.609 0 6.364 1.754 1.755 4.61 1.755 6.364 0 1.755-1.754 1.755-4.609 0-6.364-.877-.877-2.029-1.316-3.182-1.316z" fill="#ff7eb8"/><path d="m105.006 485.081c-3.873 0-7.514-1.508-10.253-4.248-2.738-2.738-4.247-6.379-4.247-10.252s1.508-7.514 4.247-10.253 6.38-4.247 10.253-4.247c3.874 0 7.515 1.508 10.254 4.247 2.739 2.738 4.246 6.379 4.246 10.253s-1.508 7.515-4.247 10.253c-2.738 2.739-6.379 4.247-10.253 4.247zm0-19c-1.202 0-2.332.468-3.182 1.318s-1.318 1.98-1.318 3.182.468 2.332 1.318 3.182c.851.851 1.98 1.318 3.182 1.318s2.332-.468 3.182-1.318 1.318-1.98 1.318-3.182-.468-2.332-1.318-3.182c-.85-.85-1.979-1.318-3.182-1.318z" fill="#00eca2"/></g></g></svg>