<svg id="Capa_1" enable-background="new 0 0 512 512" height="512" viewBox="0 0 512 512" width="512" xmlns="http://www.w3.org/2000/svg" xmlns:xlink="http://www.w3.org/1999/xlink"><linearGradient id="SVGID_1_" gradientTransform="matrix(.987 .163 -.163 .987 -48.063 28.355)" gradientUnits="userSpaceOnUse" x1="551.128" x2="226.135" y1="245.111" y2="113.468"><stop offset=".0112" stop-color="#dafced"/><stop offset=".761" stop-color="#cbdcfa"/><stop offset="1" stop-color="#c6d1ff"/></linearGradient><linearGradient id="lg1"><stop offset=".0028" stop-color="#ff7eb8" stop-opacity="0"/><stop offset="1" stop-color="#ff7eb8" stop-opacity=".6"/></linearGradient><linearGradient id="SVGID_2_" gradientUnits="userSpaceOnUse" x1="187.147" x2="187.147" xlink:href="#lg1" y1="179.862" y2="435.611"/><linearGradient id="SVGID_3_" gradientUnits="userSpaceOnUse" x1="354.313" x2="354.313" xlink:href="#lg1" y1="258.782" y2="435.611"/><g><g><path d="m340.318.425c-95.818 8.652-105.091 192.429-146.416 286.587-20.478 46.658-68.772 94.794-60.258 149.782 9.605 62.035 72.897 80.075 121.683 74.14 120.723-14.685 172.899-141.053 180.797-260.801 4.869-73.829 20.301-260.192-95.806-249.708z" fill="url(#SVGID_1_)"/></g><g><g><g><path d="m231.185 179.862h-131.489c-5.523 0-10-4.477-10-10v-27.066c0-5.523 4.477-10 10-10h131.49c5.523 0 10 4.477 10 10v27.066c-.001 5.523-4.478 10-10.001 10z" fill="#02ffb3"/><path d="m149.148 132.796h32.585v47.066h-32.585z" fill="#ff5ba8"/></g><g><g><path d="m300.666 435.611h-227.037c-7.928 0-14.356-6.427-14.356-14.355v-227.038c0-7.928 6.427-14.355 14.356-14.355h227.037c7.928 0 14.355 6.427 14.355 14.355v227.037c0 7.928-6.427 14.356-14.355 14.356z" fill="#ffa8cf"/><path d="m95.162 215.751h183.971v183.97h-183.971z" fill="#ff5ba8" transform="matrix(0 1 -1 0 494.884 120.589)"/><g fill="#ff7eb8"><path d="m258.059 232.429-162.892 162.892v-162.892z"/><path d="m262.466 299.253v100.475h-120.96l106.484-106.471c5.342-5.342 14.476-1.558 14.476 5.996z"/></g></g><path d="m171.419 165.896h35.889v279.497h-35.889z" fill="#ffa8cf" transform="matrix(.707 .707 -.707 .707 271.587 -44.379)"/></g><path d="m300.666 435.611h-227.037c-7.928 0-14.356-6.427-14.356-14.355v-227.038c0-7.928 6.427-14.355 14.356-14.355h227.037c7.928 0 14.355 6.427 14.355 14.355v227.037c0 7.928-6.427 14.356-14.355 14.356z" fill="url(#SVGID_2_)"/><g><g><g><path d="m442.727 435.611h-176.828c-5.523 0-10-4.477-10-10v-156.829c0-5.523 4.477-10 10-10h176.828c5.523 0 10 4.477 10 10v156.828c0 5.523-4.477 10.001-10 10.001z" fill="#ffa8cf"/><path d="m369.051 308.143h-29.476c-2.762 0-5-2.239-5-5v-44.36h39.476v44.36c0 2.761-2.239 5-5 5z" fill="#6583fe"/></g><g><g><path d="m325.021 335.849h58.583c2.761 0 5-2.239 5-5s-2.239-5-5-5h-58.583c-2.761 0-5 2.239-5 5s2.239 5 5 5z" fill="#ff5ba8"/></g><g><path d="m340.021 356.17h28.583c2.761 0 5-2.239 5-5s-2.239-5-5-5h-28.583c-2.761 0-5 2.239-5 5s2.239 5 5 5z" fill="#ff5ba8"/></g><g><path d="m340.021 373.492h28.583c2.761 0 5-2.239 5-5s-2.239-5-5-5h-28.583c-2.761 0-5 2.239-5 5s2.239 5 5 5z" fill="#ff5ba8"/></g></g><path d="m317.444 417.894h-32.134c-2.761 0-5-2.239-5-5v-7.154c0-2.761 2.239-5 5-5h32.134c2.761 0 5 2.239 5 5v7.154c0 2.762-2.238 5-5 5z" fill="#02ffb3"/><g fill="#ff5ba8"><circle cx="337.299" cy="409.317" r="8.577"/><circle cx="358.958" cy="409.317" r="8.577"/></g></g></g><path d="m442.727 435.611h-176.828c-5.523 0-10-4.477-10-10v-156.829c0-5.523 4.477-10 10-10h176.828c5.523 0 10 4.477 10 10v156.828c0 5.523-4.477 10.001-10 10.001z" fill="url(#SVGID_3_)"/><g><g><path d="m442.018 258.782h-136.828c-5.523 0-10-4.477-10-10v-136.828c0-5.523 4.477-10 10-10h48.676l20.185 11.094 19.292-11.094h48.676c5.523 0 10 4.477 10 10v136.828c-.001 5.523-4.478 10-10.001 10z" fill="#02ffb3"/><path d="m388.342 136.314h-29.476c-2.761 0-5-2.239-5-5v-29.36h39.476v29.36c0 2.762-2.238 5-5 5z" fill="#dcfdee"/></g></g><g><g><path d="m359.313 159.02h58.583c2.761 0 5-2.239 5-5s-2.239-5-5-5h-58.583c-2.761 0-5 2.239-5 5s2.239 5 5 5z" fill="#00d890"/></g><g><path d="m389.313 179.342h28.583c2.761 0 5-2.239 5-5s-2.239-5-5-5h-28.583c-2.761 0-5 2.239-5 5s2.239 5 5 5z" fill="#00d890"/></g><g><path d="m389.313 196.663h28.583c2.761 0 5-2.239 5-5s-2.239-5-5-5h-28.583c-2.761 0-5 2.239-5 5s2.239 5 5 5z" fill="#00d890"/></g></g></g><path d="m214.18 111.108c-3.713 0-7.427-1.414-10.253-4.24-5.653-5.654-5.653-14.853 0-20.506s14.853-5.653 20.506 0c5.653 5.654 5.653 14.853 0 20.506-2.827 2.827-6.54 4.24-10.253 4.24zm0-18.991c-1.152 0-2.305.438-3.182 1.316-1.755 1.754-1.755 4.609 0 6.364 1.754 1.755 4.61 1.754 6.364 0 1.755-1.754 1.755-4.609 0-6.364-.877-.877-2.03-1.316-3.182-1.316z" fill="#ff7eb8"/><path d="m396.281 78.03c-3.713 0-7.426-1.413-10.252-4.24-5.654-5.654-5.654-14.853 0-20.506 5.653-5.654 14.854-5.652 20.505 0 5.654 5.654 5.654 14.853 0 20.506-2.826 2.827-6.539 4.24-10.253 4.24zm0-18.991c-1.151 0-2.304.438-3.182 1.316-1.754 1.754-1.754 4.609 0 6.364 1.757 1.756 4.609 1.754 6.364 0 1.754-1.754 1.754-4.609 0-6.364-.877-.877-2.029-1.316-3.182-1.316z" fill="#6583fe"/><path d="m183.649 88.037c-1.28 0-2.559-.488-3.536-1.464l-5.964-5.964-5.964 5.964c-1.953 1.952-5.118 1.952-7.071 0-1.953-1.953-1.953-5.119 0-7.071l9.5-9.5c1.953-1.952 5.118-1.952 7.071 0l9.5 9.5c1.953 1.953 1.953 5.119 0 7.071-.977.975-2.256 1.464-3.536 1.464z" fill="#00eca2"/><path d="m128.742 479.028c-1.28 0-2.559-.488-3.536-1.464l-5.964-5.964-5.964 5.964c-1.953 1.952-5.118 1.952-7.071 0-1.953-1.953-1.953-5.119 0-7.071l9.5-9.5c1.953-1.952 5.118-1.952 7.071 0l9.5 9.5c1.953 1.953 1.953 5.119 0 7.071-.977.976-2.256 1.464-3.536 1.464z" fill="#ff7eb8"/><path d="m386.782 479.028c-1.279 0-2.559-.488-3.535-1.464l-5.965-5.964-5.965 5.964c-1.951 1.952-5.119 1.952-7.07 0-1.953-1.953-1.953-5.119 0-7.071l9.5-9.5c1.951-1.952 5.119-1.952 7.07 0l9.5 9.5c1.953 1.953 1.953 5.119 0 7.071-.975.976-2.256 1.464-3.535 1.464z" fill="#6583fe"/></g></g></svg>