<svg id="Capa_1" enable-background="new 0 0 512 512" height="512" viewBox="0 0 512 512" width="512" xmlns="http://www.w3.org/2000/svg" xmlns:xlink="http://www.w3.org/1999/xlink"><linearGradient id="SVGID_1_" gradientUnits="userSpaceOnUse" x1="220.073" x2="264.073" y1="50.403" y2="316.403"><stop offset="0" stop-color="#c6d1ff"/><stop offset=".5834" stop-color="#e6d5f4"/><stop offset=".997" stop-color="#ffd9ec"/></linearGradient><linearGradient id="SVGID_2_" gradientUnits="userSpaceOnUse" x1="255.89" x2="255.89" y1="84.946" y2="463.969"><stop offset=".0028" stop-color="#ff7eb8" stop-opacity="0"/><stop offset="1" stop-color="#ff7eb8" stop-opacity=".6"/></linearGradient><g><g><path d="m501.873 152.808c-22.357-56.888-91.226-91.003-149.556-68.427-66.582 25.77-44.506 131.673-104.983 153.088-32.669 11.568-80.962-31.644-113.969-38.27-60.821-12.21-115.881 30.705-129.439 90.134-13.832 60.63 8.353 141.61 74.967 158.066 79.35 19.602 120.683-51.729 187.249-72.211 68.31-21.019 144.263 28.622 200.814-31.776 41.78-44.621 57.055-134.272 34.917-190.604z" fill="url(#SVGID_1_)"/></g><g><g><g><g><g><path d="m425.063 452.783v-273.725c0-4.157-2.306-7.972-5.987-9.904l-157.987-82.926c-3.255-1.709-7.142-1.709-10.397 0l-157.988 82.926c-3.681 1.932-5.987 5.747-5.987 9.904v273.725c0 6.177 5.008 11.185 11.185 11.185h315.974c6.179.001 11.187-5.007 11.187-11.185z" fill="#9fb0fe"/><path d="m213.37 122.506c0 29.42-23.85 53.27-53.27 53.27-16.88 0-31.93-7.86-41.7-20.11l92.68-48.65c1.49 4.9 2.29 10.1 2.29 15.49z" fill="#8399fe"/><path d="m86.718 268.476v184.307c0 6.177 5.008 11.185 11.186 11.185h315.974c6.178 0 11.185-5.008 11.185-11.185v-184.307z" fill="#d2deff"/><path d="m396.02 233.938v230.03h-280.26v-230.03c0-6.18 5.01-11.19 11.19-11.19h257.89c6.17 0 11.18 5.01 11.18 11.19z" fill="#4369fd"/><g><g><g><g><path d="m233.243 463.993h-76.42c-3.085 0-5.585-2.5-5.585-5.585v-76.42c0-3.085 2.501-5.585 5.585-5.585h76.42c3.085 0 5.585 2.501 5.585 5.585v76.42c0 3.084-2.501 5.585-5.585 5.585z" fill="#ffa8cf"/><path d="m203.264 406.022h-16.463c-1.542 0-2.792-1.25-2.792-2.793v-26.826h22.048v26.826c0 1.542-1.251 2.793-2.793 2.793z" fill="#ffdbed"/></g><g fill="#02ffb3"><path d="m179.601 454.098h-14.208c-1.773 0-3.209-1.437-3.209-3.21v-4.592c0-1.773 1.437-3.21 3.209-3.21h14.208c1.773 0 3.21 1.437 3.21 3.21v4.592c0 1.773-1.437 3.21-3.21 3.21z"/><path d="m179.601 437.301h-14.208c-1.773 0-3.209-1.437-3.209-3.21v-4.592c0-1.773 1.437-3.21 3.209-3.21h14.208c1.773 0 3.21 1.437 3.21 3.21v4.592c0 1.773-1.437 3.21-3.21 3.21z"/></g></g></g><g><g><g><path d="m320.833 463.993h-76.42c-3.085 0-5.585-2.5-5.585-5.585v-76.42c0-3.085 2.501-5.585 5.585-5.585h76.42c3.085 0 5.585 2.501 5.585 5.585v76.42c0 3.084-2.5 5.585-5.585 5.585z" fill="#b7c5ff"/><path d="m290.854 406.022h-16.463c-1.542 0-2.793-1.25-2.793-2.793v-26.826h22.048v26.826c.001 1.542-1.249 2.793-2.792 2.793z" fill="#d2deff"/></g><g fill="#fff"><path d="m267.192 454.098h-14.208c-1.773 0-3.21-1.437-3.21-3.21v-4.592c0-1.773 1.437-3.21 3.21-3.21h14.208c1.773 0 3.21 1.437 3.21 3.21v4.592c-.001 1.773-1.438 3.21-3.21 3.21z"/><path d="m267.192 437.301h-14.208c-1.773 0-3.21-1.437-3.21-3.21v-4.592c0-1.773 1.437-3.21 3.21-3.21h14.208c1.773 0 3.21 1.437 3.21 3.21v4.592c-.001 1.773-1.438 3.21-3.21 3.21z"/></g></g></g><g><g><g><path d="m396.02 376.403h-64.017c-3.085 0-5.585 2.501-5.585 5.585v76.42c0 3.085 2.501 5.585 5.585 5.585h64.017z" fill="#ff5ba8"/><path d="m378.445 406.022h-16.463c-1.542 0-2.793-1.25-2.793-2.793v-26.826h22.048v26.826c0 1.542-1.25 2.793-2.792 2.793z" fill="#ffa8cf"/></g><g fill="#00d890"><path d="m354.782 454.098h-14.208c-1.772 0-3.21-1.437-3.21-3.21v-4.592c0-1.773 1.437-3.21 3.21-3.21h14.208c1.772 0 3.21 1.437 3.21 3.21v4.592c0 1.773-1.437 3.21-3.21 3.21z"/><path d="m354.782 437.301h-14.208c-1.772 0-3.21-1.437-3.21-3.21v-4.592c0-1.773 1.437-3.21 3.21-3.21h14.208c1.772 0 3.21 1.437 3.21 3.21v4.592c0 1.773-1.437 3.21-3.21 3.21z"/></g></g></g></g><g><g><g><g><path d="m283.243 376.403h-76.42c-3.085 0-5.585-2.5-5.585-5.585v-76.42c0-3.085 2.501-5.585 5.585-5.585h76.42c3.085 0 5.585 2.5 5.585 5.585v76.42c0 3.084-2.501 5.585-5.585 5.585z" fill="#ff5ba8"/><path d="m253.264 318.431h-16.463c-1.542 0-2.792-1.25-2.792-2.793v-26.826h22.048v26.826c0 1.543-1.251 2.793-2.793 2.793z" fill="#ffa8cf"/></g><g fill="#00d890"><path d="m229.601 366.508h-14.208c-1.773 0-3.209-1.437-3.209-3.21v-4.592c0-1.773 1.437-3.21 3.209-3.21h14.208c1.773 0 3.21 1.437 3.21 3.21v4.592c0 1.773-1.437 3.21-3.21 3.21z"/><path d="m229.601 349.711h-14.208c-1.773 0-3.209-1.437-3.209-3.21v-4.592c0-1.773 1.437-3.21 3.209-3.21h14.208c1.773 0 3.21 1.437 3.21 3.21v4.592c0 1.773-1.437 3.21-3.21 3.21z"/></g></g></g><g><g><g><path d="m370.833 376.403h-76.42c-3.085 0-5.585-2.5-5.585-5.585v-76.42c0-3.085 2.501-5.585 5.585-5.585h76.42c3.085 0 5.585 2.5 5.585 5.585v76.42c0 3.084-2.5 5.585-5.585 5.585z" fill="#97ffd2"/><path d="m340.854 318.431h-16.463c-1.542 0-2.793-1.25-2.793-2.793v-26.826h22.048v26.826c.001 1.543-1.249 2.793-2.792 2.793z" fill="#fff"/></g><g fill="#9fb0fe"><path d="m317.192 366.508h-14.208c-1.773 0-3.21-1.437-3.21-3.21v-4.592c0-1.773 1.437-3.21 3.21-3.21h14.208c1.773 0 3.21 1.437 3.21 3.21v4.592c-.001 1.773-1.438 3.21-3.21 3.21z"/><path d="m317.192 349.711h-14.208c-1.773 0-3.21-1.437-3.21-3.21v-4.592c0-1.773 1.437-3.21 3.21-3.21h14.208c1.773 0 3.21 1.437 3.21 3.21v4.592c-.001 1.773-1.438 3.21-3.21 3.21z"/></g></g></g><g><g><g><path d="m396.02 288.808v87.59h-14.02c-3.08 0-5.58-2.5-5.58-5.58v-76.42c0-3.09 2.5-5.59 5.58-5.59z" fill="#ff7eb8"/></g><path d="m396.02 355.498v11.01h-5.45c-1.77 0-3.21-1.44-3.21-3.21v-4.59c0-1.77 1.44-3.21 3.21-3.21z" fill="#02ffb3"/><path d="m396.02 338.698v11.01h-5.45c-1.77 0-3.21-1.43-3.21-3.21v-4.59c0-1.77 1.44-3.21 3.21-3.21z" fill="#02ffb3"/><path d="m471.613 399.019c-1.279 0-2.56-.488-3.535-1.464l-5.965-5.964-5.965 5.964c-1.951 1.952-5.119 1.952-7.07 0-1.953-1.953-1.953-5.119 0-7.071l9.5-9.5c1.951-1.952 5.119-1.952 7.07 0l9.5 9.5c1.953 1.953 1.953 5.119 0 7.071-.975.976-2.255 1.464-3.535 1.464z" fill="#6583fe"/></g></g></g></g><path d="m295.708 187.361c0 2.696-1.096 5.123-2.852 6.879-1.756 1.767-4.195 2.852-6.879 2.852h-59.954c-5.369 0-9.731-4.351-9.731-9.731 0-2.684 1.096-5.112 2.852-6.879s4.195-2.852 6.879-2.852h59.954c5.369 0 9.731 4.362 9.731 9.731z" fill="#4369fd"/></g><g><ellipse cx="160.212" cy="101.276" fill="#ff7eb8" rx="53.269" ry="53.269" transform="matrix(.23 -.973 .973 .23 24.836 233.934)"/><path d="m173.199 108.519c3.978-3.57 6.499-8.733 6.499-14.486 0-10.745-8.741-19.486-19.486-19.486s-19.486 8.741-19.486 19.486c0 5.753 2.521 10.916 6.499 14.486-3.978 3.57-6.499 8.733-6.499 14.486 0 2.761 2.239 5 5 5s5-2.239 5-5c0-5.23 4.255-9.486 9.486-9.486 5.23 0 9.486 4.255 9.486 9.486 0 2.761 2.239 5 5 5s5-2.239 5-5c0-5.753-2.521-10.915-6.499-14.486zm-22.473-14.486c0-5.23 4.255-9.486 9.486-9.486 5.23 0 9.486 4.255 9.486 9.486s-4.255 9.486-9.486 9.486c-5.23.001-9.486-4.255-9.486-9.486z" fill="#fff"/></g></g><path d="m235.428 177.633h41.145v45.131h-41.145z" fill="#d2deff"/><path d="m235.43 177.63h41.14v19.463h-41.14z" fill="#b7c5ff"/></g><path d="m396.02 233.938v22.86c0-6.18-5.01-11.19-11.18-11.19h-257.89c-6.18 0-11.19 5.01-11.19 11.19v-22.86c0-6.18 5.01-11.19 11.19-11.19h257.89c6.17 0 11.18 5.01 11.18 11.19z" fill="#2d58e0"/><path d="m48.827 407.407c-3.713 0-7.427-1.413-10.253-4.24-5.654-5.654-5.654-14.853 0-20.506 5.652-5.653 14.854-5.653 20.506 0 5.654 5.654 5.654 14.853 0 20.506-2.826 2.826-6.54 4.24-10.253 4.24zm0-18.992c-1.152 0-2.305.439-3.183 1.316-1.754 1.754-1.754 4.609 0 6.364 1.756 1.755 4.609 1.755 6.365 0 1.754-1.754 1.754-4.609 0-6.364-.877-.877-2.03-1.316-3.182-1.316z" fill="#ff7eb8"/><path d="m405.52 124.141c-1.279 0-2.56-.488-3.535-1.464l-5.965-5.964-5.965 5.964c-1.951 1.952-5.119 1.952-7.07 0-1.953-1.953-1.953-5.119 0-7.071l9.5-9.5c1.951-1.952 5.119-1.952 7.07 0l9.5 9.5c1.953 1.953 1.953 5.119 0 7.071-.975.976-2.255 1.464-3.535 1.464z" fill="#ff7eb8"/><path d="m77.827 146.513c-3.713 0-7.427-1.414-10.253-4.24-5.654-5.654-5.654-14.852 0-20.506 5.652-5.653 14.854-5.653 20.506 0 5.654 5.654 5.654 14.853 0 20.506-2.826 2.827-6.54 4.24-10.253 4.24zm0-18.991c-1.152 0-2.305.438-3.183 1.316-1.754 1.754-1.754 4.609 0 6.364 1.756 1.755 4.609 1.755 6.365 0 1.754-1.754 1.754-4.609 0-6.364-.877-.878-2.03-1.316-3.182-1.316z" fill="#6583fe"/><path d="m60.56 182.384c-1.279 0-2.56-.488-3.535-1.464l-5.965-5.964-5.965 5.964c-1.951 1.952-5.119 1.952-7.07 0-1.953-1.953-1.953-5.119 0-7.071l9.5-9.5c1.951-1.952 5.119-1.952 7.07 0l9.5 9.5c1.953 1.953 1.953 5.119 0 7.071-.976.975-2.256 1.464-3.535 1.464z" fill="#00eca2"/></g><path d="m425.063 452.783v-273.725c0-4.157-2.306-7.972-5.987-9.904l-157.987-82.926c-3.255-1.709-7.142-1.709-10.397 0l-157.988 82.926c-3.681 1.932-5.987 5.747-5.987 9.904v273.725c0 6.177 5.008 11.185 11.185 11.185h315.974c6.179.001 11.187-5.007 11.187-11.185z" fill="url(#SVGID_2_)"/></g></svg>