<svg id="Capa_1" enable-background="new 0 0 512 512" height="512" viewBox="0 0 512 512" width="512" xmlns="http://www.w3.org/2000/svg" xmlns:xlink="http://www.w3.org/1999/xlink"><linearGradient id="SVGID_1_" gradientTransform="matrix(.987 .163 -.163 .987 31.504 121.741)" gradientUnits="userSpaceOnUse" x1="465.627" x2="140.634" y1="164.573" y2="32.93"><stop offset=".0112" stop-color="#dafced"/><stop offset=".761" stop-color="#cbdcfa"/><stop offset="1" stop-color="#c6d1ff"/></linearGradient><linearGradient id="SVGID_2_" gradientUnits="userSpaceOnUse" x1="303.418" x2="303.418" y1="29.647" y2="359.281"><stop offset=".0028" stop-color="#ff7eb8" stop-opacity="0"/><stop offset="1" stop-color="#ff7eb8" stop-opacity=".6"/></linearGradient><g><g><path d="m348.65.425c-95.818 8.652-105.091 192.429-146.416 286.587-20.478 46.658-68.772 94.794-60.258 149.782 9.605 62.035 72.897 80.075 121.683 74.14 120.723-14.685 172.898-141.053 180.797-260.801 4.869-73.829 20.3-260.192-95.806-249.708z" fill="url(#SVGID_1_)"/></g><g><g><g><g><g><g><path d="m480.787 111.905c2.373-53.497-41.494-97.364-94.991-94.991-47.136 2.091-85.146 40.54-86.748 87.695-.587 17.273 3.666 33.501 11.478 47.469v30.097c0 2.761 2.239 5 5 5h30.097c13.968 7.811 30.196 12.064 47.469 11.478 47.154-1.602 85.604-39.612 87.695-86.748z" fill="#ff5ba8"/></g></g><g><g><g><g><path d="m438.853 133.444h-97.833c-2.762 0-5-2.239-5-5s2.238-5 5-5h97.833c2.762 0 5 2.239 5 5s-2.238 5-5 5z" fill="#fff"/></g></g><g><g><path d="m438.853 153.766h-97.833c-2.762 0-5-2.239-5-5s2.238-5 5-5h97.833c2.762 0 5 2.239 5 5s-2.238 5-5 5z" fill="#fff"/></g></g></g><g fill="#fff"><path d="m375.281 59.846h-4.993c-7.053 0-12.791 5.738-12.791 12.791v18.243c0 7.053 5.738 12.791 12.791 12.791h4.993c7.053 0 12.791-5.738 12.791-12.791v-18.243c0-7.053-5.738-12.791-12.791-12.791zm2.791 31.034c0 1.539-1.252 2.791-2.791 2.791h-4.993c-1.539 0-2.791-1.252-2.791-2.791v-18.243c0-1.539 1.252-2.791 2.791-2.791h4.993c1.539 0 2.791 1.252 2.791 2.791z"/><path d="m406.829 81.766 13.99-13.287c2.002-1.902 2.084-5.066.182-7.069-1.9-2.002-5.065-2.084-7.068-.182l-9.364 8.894v-5.268c0-2.761-2.238-5-5-5s-5 2.239-5 5v33.825c0 2.761 2.238 5 5 5s5-2.239 5-5v-5.269l9.364 8.894c.968.919 2.206 1.375 3.442 1.375 1.323 0 2.643-.522 3.626-1.557 1.902-2.002 1.82-5.167-.182-7.069z"/></g></g></g><g><path d="m436.614 382.506-7.071 7.071 13.191 13.191c7.458 7.458 11.565 17.375 11.565 27.922 0 10.548-4.107 20.464-11.565 27.922-15.396 15.397-40.449 15.397-55.846 0l-43.837-43.838c-3.603-3.602-8.394-5.587-13.488-5.587-5.096 0-9.886 1.984-13.488 5.587l-4.007 4.006c-1.793 1.793-4.178 2.781-6.714 2.781-2.537 0-4.922-.988-6.716-2.782-3.702-3.703-3.702-9.727 0-13.43l15.813-15.812c7.601-7.602 7.601-19.971-.001-27.572-7.601-7.601-19.97-7.601-27.572 0l-15.811 15.812c-3.702 3.702-9.728 3.704-13.432 0-3.702-3.703-3.702-9.728 0-13.43l15.812-15.812c7.601-7.602 7.601-19.97 0-27.573-7.601-7.601-19.969-7.602-27.571 0l-15.812 15.812c-3.701 3.702-9.727 3.703-13.43 0s-3.703-9.728-.001-13.431l15.812-15.812c3.683-3.683 5.711-8.579 5.711-13.786 0-5.208-2.028-10.104-5.711-13.787-7.599-7.6-19.969-7.602-27.571 0l-15.813 15.812c-1.793 1.793-4.178 2.781-6.715 2.781-2.536 0-4.921-.988-6.715-2.782-3.702-3.703-3.702-9.727 0-13.43l15.812-15.812c3.683-3.683 5.711-8.579 5.711-13.786 0-5.208-2.028-10.104-5.711-13.786s-8.579-5.71-13.786-5.71c-5.208 0-10.104 2.028-13.786 5.71l-15.812 15.812c-3.703 3.703-9.729 3.704-13.432 0-3.702-3.703-3.702-9.727 0-13.43l4.006-4.006c3.604-3.603 5.588-8.393 5.588-13.488s-1.984-9.885-5.588-13.488l-28.943-28.944c-17.948-17.95-47.156-17.951-65.107 0-17.95 17.95-17.95 47.157 0 65.107l220.622 220.623c1.951 1.952 5.119 1.952 7.07 0 1.953-1.953 1.953-5.119 0-7.071l-220.621-220.62c-14.051-14.051-14.051-36.914 0-50.965 14.05-14.05 36.912-14.053 50.966 0l28.943 28.944c1.714 1.714 2.658 3.993 2.658 6.416 0 2.424-.944 4.703-2.658 6.417l-4.007 4.006c-7.601 7.602-7.601 19.971.001 27.573 7.603 7.603 19.974 7.6 27.572 0l15.812-15.812c1.793-1.794 4.178-2.782 6.715-2.782 2.536 0 4.922.988 6.716 2.782 3.702 3.703 3.702 9.727 0 13.43l-15.812 15.812c-3.683 3.683-5.711 8.579-5.711 13.786 0 5.208 2.028 10.104 5.71 13.786 3.683 3.683 8.579 5.711 13.786 5.711 5.208 0 10.105-2.028 13.786-5.71l15.812-15.812c1.794-1.793 4.179-2.781 6.716-2.781 2.536 0 4.921.988 6.715 2.781 1.793 1.793 2.781 4.178 2.781 6.715s-.988 4.921-2.781 6.715l-15.811 15.812c-7.602 7.602-7.602 19.971 0 27.573 7.602 7.601 19.97 7.603 27.571 0l15.812-15.812c1.794-1.794 4.179-2.781 6.715-2.781 2.537 0 4.922.988 6.716 2.782 3.702 3.703 3.702 9.727 0 13.43l-15.814 15.812c-7.601 7.602-7.601 19.971.001 27.572 7.603 7.603 19.975 7.6 27.572 0l15.812-15.812c3.705-3.704 9.73-3.701 13.432 0 3.702 3.703 3.702 9.728 0 13.43l-15.812 15.812c-7.602 7.602-7.602 19.971-.001 27.572 3.683 3.683 8.579 5.71 13.787 5.71 5.207 0 10.104-2.028 13.785-5.71l4.006-4.006c1.715-1.714 3.994-2.658 6.418-2.658s4.703.944 6.417 2.658l43.838 43.838c9.647 9.648 22.32 14.471 34.993 14.471s25.346-4.824 34.993-14.471c9.348-9.347 14.495-21.774 14.495-34.994 0-13.219-5.147-25.646-14.495-34.993z" fill="#4369fd"/><path d="m415.037 390.063-38.544-38.544 22.063-22.063 38.544 38.544c3.905 3.905 3.905 10.237 0 14.142l-7.921 7.921c-3.905 3.906-10.237 3.906-14.142 0z" fill="#8399fe"/><g><path d="m284.745 213.138c44.7 44.7 76.324 56.089 76.324 56.089l18.095-18.812c7.471-7.767 19.313-9.355 28.566-3.831l49.212 29.379c10.454 6.241 14.292 19.51 8.784 30.368l-7.697 15.172c-17.788 35.063-61.175 48.122-95.477 28.906-44.296-24.815-85.306-55.538-122.423-92.655s-67.84-78.128-92.655-122.423c-19.216-34.301-6.157-77.689 28.906-95.477l15.172-7.697c10.858-5.508 24.127-1.67 30.368 8.784l29.379 49.212c5.524 9.254 3.936 21.095-3.831 28.567l-18.812 18.095c-.001-.002 11.388 31.622 56.089 76.323z" fill="#02ffb3"/><path d="m284.745 213.138c44.7 44.7 76.324 56.089 76.324 56.089l18.095-18.812c7.471-7.767 19.313-9.355 28.566-3.831l49.212 29.379c10.454 6.241 14.292 19.51 8.784 30.368l-7.697 15.172c-17.788 35.063-61.175 48.122-95.477 28.906-44.296-24.815-85.306-55.538-122.423-92.655s-67.84-78.128-92.655-122.423c-19.216-34.301-6.157-77.689 28.906-95.477l15.172-7.697c10.858-5.508 24.127-1.67 30.368 8.784l29.379 49.212c5.524 9.254 3.936 21.095-3.831 28.567l-18.812 18.095c-.001-.002 11.388 31.622 56.089 76.323z" fill="#02ffb3"/><path d="m309.815 285.789-17.805 17.805c-18.031-14.043-35.348-29.31-51.88-45.842s-31.798-33.849-45.842-51.88l17.805-17.805c3.903-3.903 10.239-3.903 14.142 0l83.58 83.58c3.904 3.903 3.904 10.239 0 14.142z" fill="#8399fe"/><g fill="#dcfdee"><path d="m247.47 118.721-10.105 9.723c-18.116-24.508-34.33-50.169-48.698-76.884-2.574-4.794-4.625-9.758-6.159-14.814l9.044-4.589c10.854-5.508 24.126-1.669 30.363 8.782l29.387 49.214c5.523 9.257 3.939 21.094-3.832 28.568z"/><path d="m461.136 315.374c-5.056-1.534-10.02-3.585-14.814-6.159-26.715-14.368-52.376-30.582-76.884-48.698l9.723-10.105c7.474-7.771 19.311-9.355 28.567-3.833l49.215 29.387c10.451 6.237 14.291 19.509 8.782 30.363z"/></g></g></g></g></g><path d="m102.795 131.308c-3.713 0-7.427-1.414-10.253-4.24-5.654-5.654-5.654-14.853 0-20.506 5.652-5.653 14.854-5.653 20.506 0 5.654 5.654 5.654 14.853 0 20.506-2.827 2.826-6.54 4.24-10.253 4.24zm0-18.992c-1.152 0-2.305.438-3.183 1.316-1.754 1.754-1.754 4.609 0 6.364 1.756 1.755 4.609 1.755 6.365 0 1.754-1.754 1.754-4.609 0-6.364-.878-.877-2.03-1.316-3.182-1.316z" fill="#00eca2"/><path d="m121.795 401.198c-3.713 0-7.427-1.414-10.253-4.24-5.654-5.654-5.654-14.853 0-20.506 5.652-5.653 14.854-5.653 20.506 0 5.654 5.654 5.654 14.853 0 20.506-2.827 2.827-6.54 4.24-10.253 4.24zm0-18.991c-1.152 0-2.305.439-3.183 1.316-1.754 1.754-1.754 4.609 0 6.364 1.756 1.755 4.609 1.755 6.365 0 1.754-1.754 1.754-4.609 0-6.364-.878-.877-2.03-1.316-3.182-1.316z" fill="#6583fe"/><path d="m106.889 82.179c-1.279 0-2.56-.488-3.535-1.464l-5.965-5.964-5.965 5.964c-1.951 1.952-5.119 1.952-7.07 0-1.953-1.953-1.953-5.119 0-7.071l9.5-9.5c1.951-1.952 5.119-1.952 7.07 0l9.5 9.5c1.953 1.953 1.953 5.119 0 7.071-.975.976-2.255 1.464-3.535 1.464z" fill="#ff7eb8"/><path d="m462.853 245.816c-1.279 0-2.56-.488-3.535-1.464l-5.965-5.964-5.965 5.964c-1.951 1.952-5.119 1.952-7.07 0-1.953-1.953-1.953-5.119 0-7.071l9.5-9.5c1.951-1.952 5.119-1.952 7.07 0l9.5 9.5c1.953 1.953 1.953 5.119 0 7.071-.975.976-2.255 1.464-3.535 1.464z" fill="#00eca2"/><path d="m331.743 481.196c-1.279 0-2.56-.488-3.535-1.464l-5.965-5.964-5.965 5.964c-1.951 1.952-5.119 1.952-7.07 0-1.953-1.953-1.953-5.119 0-7.071l9.5-9.5c1.951-1.952 5.119-1.952 7.07 0l9.5 9.5c1.953 1.953 1.953 5.119 0 7.071-.976.976-2.256 1.464-3.535 1.464z" fill="#ff7eb8"/></g><path d="m284.745 213.138c44.7 44.7 76.324 56.089 76.324 56.089l18.095-18.812c7.471-7.767 19.313-9.355 28.566-3.831l49.212 29.379c10.454 6.241 14.292 19.51 8.784 30.368l-7.697 15.172c-17.788 35.063-61.175 48.122-95.477 28.906-44.296-24.815-85.306-55.538-122.423-92.655s-67.84-78.128-92.655-122.423c-19.216-34.301-6.157-77.689 28.906-95.477l15.172-7.697c10.858-5.508 24.127-1.67 30.368 8.784l29.379 49.212c5.524 9.254 3.936 21.095-3.831 28.567l-18.812 18.095c-.001-.002 11.388 31.622 56.089 76.323z" fill="url(#SVGID_2_)"/></g></svg>