<svg id="Capa_1" enable-background="new 0 0 512 512" height="512" viewBox="0 0 512 512" width="512" xmlns="http://www.w3.org/2000/svg" xmlns:xlink="http://www.w3.org/1999/xlink"><linearGradient id="SVGID_1_" gradientTransform="matrix(.987 .163 -.163 .987 -308.118 7.774)" gradientUnits="userSpaceOnUse" x1="801.803" x2="476.81" y1="224.582" y2="92.939"><stop offset=".0112" stop-color="#dafced"/><stop offset=".761" stop-color="#cbdcfa"/><stop offset="1" stop-color="#c6d1ff"/></linearGradient><linearGradient id="SVGID_2_" gradientUnits="userSpaceOnUse" x1="251.057" x2="251.057" y1="84.4" y2="463.423"><stop offset=".0028" stop-color="#ff7eb8" stop-opacity="0"/><stop offset="1" stop-color="#ff7eb8" stop-opacity=".6"/></linearGradient><g><g><path d="m330.924.425c-95.818 8.652-105.091 192.429-146.416 286.587-20.478 46.658-68.772 94.794-60.258 149.782 9.605 62.035 72.897 80.075 121.683 74.14 120.723-14.685 172.899-141.053 180.797-260.801 4.869-73.829 20.3-260.192-95.806-249.708z" fill="url(#SVGID_1_)"/></g><g><g><g><g><path d="m420.23 452.237v-273.725c0-4.157-2.306-7.972-5.987-9.904l-157.988-82.926c-3.255-1.709-7.142-1.709-10.397 0l-157.987 82.926c-3.681 1.932-5.987 5.747-5.987 9.904v273.725c0 6.178 5.008 11.185 11.186 11.185h315.974c6.178.001 11.186-5.007 11.186-11.185z" fill="#9fb0fe"/><path d="m208.537 121.96c0 29.42-23.85 53.27-53.27 53.27-16.88 0-31.93-7.86-41.7-20.11l92.68-48.65c1.49 4.9 2.29 10.1 2.29 15.49z" fill="#8399fe"/><path d="m81.884 267.93v184.307c0 6.178 5.008 11.185 11.186 11.185h315.975c6.177 0 11.185-5.008 11.185-11.185v-184.307z" fill="#d2deff"/><path d="m391.187 463.423h-280.26v-230.031c0-6.178 5.008-11.185 11.186-11.185h257.89c6.178 0 11.185 5.008 11.185 11.185v230.031z" fill="#4369fd"/><path d="m391.077 233.38v22.86c0-6.18-5.01-11.19-11.18-11.19h-257.89c-6.18 0-11.19 5.01-11.19 11.19v-22.86c0-6.18 5.01-11.19 11.19-11.19h257.89c6.17 0 11.18 5.01 11.18 11.19z" fill="#2d58e0"/><g><g><g><g><g><g><path d="m280.446 374.085v82.983c0 3.508-2.847 6.356-6.356 6.356h-141.585c-3.508 0-6.356-2.847-6.356-6.356v-82.983c0-3.508 2.847-6.356 6.356-6.356h141.585c3.509 0 6.356 2.847 6.356 6.356z" fill="#97ffd2"/><path d="m141.275 382.855h124.044v65.441h-124.044z" fill="#01eca5"/></g></g></g></g><g fill="#00d890"><path d="m249.205 442.44c-2.817 0-5.101-2.284-5.101-5.101v-43.526c0-2.817 2.284-5.101 5.101-5.101 2.817 0 5.101 2.284 5.101 5.101v43.526c0 2.817-2.284 5.101-5.101 5.101z"/><g><path d="m159.654 442.44c-2.817 0-5.101-2.284-5.101-5.101v-43.526c0-2.817 2.284-5.101 5.101-5.101 2.817 0 5.101 2.284 5.101 5.101v43.526c0 2.817-2.284 5.101-5.101 5.101z"/><path d="m177.564 442.44c-2.817 0-5.101-2.284-5.101-5.101v-43.526c0-2.817 2.284-5.101 5.101-5.101 2.817 0 5.101 2.284 5.101 5.101v43.526c0 2.817-2.284 5.101-5.101 5.101z"/><path d="m195.475 442.44c-2.817 0-5.101-2.284-5.101-5.101v-43.526c0-2.817 2.284-5.101 5.101-5.101 2.817 0 5.101 2.284 5.101 5.101v43.526c-.001 2.817-2.284 5.101-5.101 5.101z"/><path d="m213.385 442.44c-2.817 0-5.101-2.284-5.101-5.101v-43.526c0-2.817 2.284-5.101 5.101-5.101 2.817 0 5.101 2.284 5.101 5.101v43.526c0 2.817-2.284 5.101-5.101 5.101z"/><path d="m231.295 442.44c-2.817 0-5.101-2.284-5.101-5.101v-43.526c0-2.817 2.284-5.101 5.101-5.101 2.817 0 5.101 2.284 5.101 5.101v43.526c0 2.817-2.284 5.101-5.101 5.101z"/></g></g></g><g><g><g><g><g><path d="m354.758 278.39v82.982c0 3.508-2.847 6.356-6.356 6.356h-141.585c-3.508 0-6.356-2.848-6.356-6.356v-82.982c0-3.509 2.847-6.356 6.356-6.356h141.586c3.508.001 6.355 2.848 6.355 6.356z" fill="#ff7eb8"/><path d="m215.587 287.161h124.044v65.441h-124.044z" fill="#ff5ba8"/></g></g></g></g><g fill="#fe2c8f"><path d="m323.517 346.746c-2.817 0-5.101-2.284-5.101-5.101v-43.526c0-2.817 2.284-5.101 5.101-5.101 2.817 0 5.101 2.284 5.101 5.101v43.526c0 2.817-2.284 5.101-5.101 5.101z"/><g><path d="m233.966 346.746c-2.817 0-5.101-2.284-5.101-5.101v-43.526c0-2.817 2.284-5.101 5.101-5.101 2.817 0 5.101 2.284 5.101 5.101v43.526c0 2.817-2.284 5.101-5.101 5.101z"/><path d="m251.876 346.746c-2.817 0-5.101-2.284-5.101-5.101v-43.526c0-2.817 2.284-5.101 5.101-5.101 2.817 0 5.101 2.284 5.101 5.101v43.526c0 2.817-2.284 5.101-5.101 5.101z"/><path d="m269.786 346.746c-2.817 0-5.101-2.284-5.101-5.101v-43.526c0-2.817 2.284-5.101 5.101-5.101 2.817 0 5.101 2.284 5.101 5.101v43.526c0 2.817-2.283 5.101-5.101 5.101z"/><path d="m287.697 346.746c-2.817 0-5.101-2.284-5.101-5.101v-43.526c0-2.817 2.284-5.101 5.101-5.101 2.817 0 5.101 2.284 5.101 5.101v43.526c0 2.817-2.284 5.101-5.101 5.101z"/><path d="m305.607 346.746c-2.817 0-5.101-2.284-5.101-5.101v-43.526c0-2.817 2.284-5.101 5.101-5.101 2.817 0 5.101 2.284 5.101 5.101v43.526c0 2.817-2.284 5.101-5.101 5.101z"/></g></g></g><g><g><g><g><g><path d="m391.187 367.73v95.691h-104.36c-3.501 0-6.353-2.852-6.353-6.353v-82.985c0-3.512 2.852-6.353 6.353-6.353z" fill="#ffa8cf"/><path d="m295.596 382.853h95.591v65.446h-95.591z" fill="#ff7eb8"/></g></g></g></g><g><g fill="#ff5ba8"><path d="m313.98 442.438c-2.817 0-5.101-2.284-5.101-5.101v-43.526c0-2.817 2.284-5.101 5.101-5.101 2.817 0 5.101 2.284 5.101 5.101v43.526c0 2.818-2.284 5.101-5.101 5.101z"/><path d="m331.89 442.438c-2.817 0-5.101-2.284-5.101-5.101v-43.526c0-2.817 2.284-5.101 5.101-5.101 2.817 0 5.101 2.284 5.101 5.101v43.526c0 2.818-2.284 5.101-5.101 5.101z"/><path d="m349.8 442.438c-2.817 0-5.101-2.284-5.101-5.101v-43.526c0-2.817 2.284-5.101 5.101-5.101 2.817 0 5.101 2.284 5.101 5.101v43.526c0 2.818-2.283 5.101-5.101 5.101z"/><path d="m367.711 442.438c-2.817 0-5.101-2.284-5.101-5.101v-43.526c0-2.817 2.284-5.101 5.101-5.101 2.817 0 5.101 2.284 5.101 5.101v43.526c0 2.818-2.284 5.101-5.101 5.101z"/><path d="m386.086 442.438c-2.817 0-5.101-2.284-5.101-5.101v-43.526c0-2.817 2.284-5.101 5.101-5.101 2.817 0 5.101 2.284 5.101 5.101v43.526c0 2.818-2.284 5.101-5.101 5.101z"/></g></g></g></g></g><path d="m290.765 186.803c0 2.696-1.096 5.123-2.852 6.879-1.756 1.767-4.195 2.852-6.879 2.852h-59.954c-5.369 0-9.731-4.351-9.731-9.731 0-2.684 1.096-5.112 2.852-6.879s4.195-2.852 6.879-2.852h59.954c5.369 0 9.731 4.362 9.731 9.731z" fill="#4369fd"/></g><g><ellipse cx="155.269" cy="100.718" fill="#01eca5" rx="53.269" ry="53.269" transform="matrix(.235 -.972 .972 .235 20.87 227.956)"/><path d="m168.256 107.961c3.978-3.57 6.499-8.733 6.499-14.486 0-10.745-8.741-19.486-19.486-19.486s-19.486 8.741-19.486 19.486c0 5.753 2.521 10.916 6.499 14.486-3.978 3.57-6.499 8.733-6.499 14.486 0 2.761 2.239 5 5 5s5-2.239 5-5c0-5.23 4.255-9.486 9.486-9.486 5.23 0 9.486 4.255 9.486 9.486 0 2.761 2.239 5 5 5s5-2.239 5-5c0-5.753-2.521-10.915-6.499-14.486zm-22.473-14.486c0-5.23 4.255-9.486 9.486-9.486 5.23 0 9.486 4.255 9.486 9.486s-4.255 9.486-9.486 9.486c-5.23.001-9.486-4.255-9.486-9.486z" fill="#fff"/></g><path d="m72.385 126.955c-3.713 0-7.427-1.414-10.253-4.24-5.653-5.654-5.653-14.853 0-20.506s14.853-5.653 20.506 0c5.653 5.654 5.653 14.852 0 20.506-2.827 2.827-6.541 4.24-10.253 4.24zm-.001-18.991c-1.152 0-2.305.438-3.182 1.316-1.755 1.754-1.755 4.609 0 6.364 1.753 1.755 4.609 1.754 6.364 0s1.755-4.609 0-6.364c-.877-.878-2.029-1.316-3.182-1.316z" fill="#6583fe"/><path d="m384.848 124.076c-3.714 0-7.427-1.413-10.253-4.24-5.654-5.654-5.654-14.853 0-20.506 5.651-5.652 14.852-5.654 20.505 0 5.654 5.654 5.654 14.853 0 20.506-2.826 2.827-6.539 4.24-10.252 4.24zm0-18.991c-1.152 0-2.305.438-3.183 1.316-1.754 1.754-1.754 4.609 0 6.364 1.755 1.754 4.607 1.755 6.364 0 1.754-1.754 1.754-4.609 0-6.364-.877-.877-2.03-1.316-3.181-1.316z" fill="#00eca2"/><path d="m463.738 329.632c-1.279 0-2.56-.488-3.535-1.464l-5.965-5.964-5.965 5.964c-1.951 1.952-5.119 1.952-7.07 0-1.953-1.953-1.953-5.119 0-7.071l9.5-9.5c1.951-1.952 5.119-1.952 7.07 0l9.5 9.5c1.953 1.953 1.953 5.119 0 7.071-.976.976-2.256 1.464-3.535 1.464z" fill="#ff7eb8"/><path d="m67.263 163.738c-1.28 0-2.559-.488-3.536-1.464l-5.964-5.964-5.964 5.964c-1.953 1.952-5.118 1.952-7.071 0-1.953-1.953-1.953-5.119 0-7.071l9.5-9.5c1.953-1.952 5.118-1.952 7.071 0l9.5 9.5c1.953 1.953 1.953 5.119 0 7.071-.977.976-2.257 1.464-3.536 1.464z" fill="#ff7eb8"/><path d="m356.346 88.9c-1.279 0-2.56-.488-3.535-1.464l-5.965-5.964-5.965 5.964c-1.951 1.952-5.119 1.952-7.07 0-1.953-1.953-1.953-5.119 0-7.071l9.5-9.5c1.951-1.952 5.119-1.952 7.07 0l9.5 9.5c1.953 1.953 1.953 5.119 0 7.071-.975.976-2.256 1.464-3.535 1.464z" fill="#6583fe"/></g><path d="m230.485 177.076h41.145v45.131h-41.145z" fill="#d2deff"/><path d="m230.487 177.072h41.14v19.463h-41.14z" fill="#b7c5ff"/></g><path d="m420.23 452.237v-273.725c0-4.157-2.306-7.972-5.987-9.904l-157.988-82.926c-3.255-1.709-7.142-1.709-10.397 0l-157.987 82.926c-3.681 1.932-5.987 5.747-5.987 9.904v273.725c0 6.178 5.008 11.185 11.186 11.185h315.974c6.178.001 11.186-5.007 11.186-11.185z" fill="url(#SVGID_2_)"/></g></svg>