<svg id="Capa_1" enable-background="new 0 0 512 512" height="512" viewBox="0 0 512 512" width="512" xmlns="http://www.w3.org/2000/svg" xmlns:xlink="http://www.w3.org/1999/xlink"><linearGradient id="SVGID_1_" gradientUnits="userSpaceOnUse" x1="377.838" x2="220.346" y1="508.408" y2="149.926"><stop offset=".0112" stop-color="#dafced"/><stop offset=".3814" stop-color="#e7f0ed"/><stop offset="1" stop-color="#ffd9ec"/></linearGradient><linearGradient id="SVGID_2_" gradientUnits="userSpaceOnUse" x1="256" x2="256" y1="86.133" y2="465.155"><stop offset=".0028" stop-color="#ff7eb8" stop-opacity="0"/><stop offset="1" stop-color="#ff7eb8" stop-opacity=".6"/></linearGradient><g><g><path d="m471.476 126.802c-65.417-50.293-128.867-9.306-199.64-23.797-71.285-14.597-99.685-63.201-180.876-40.766-71.922 19.874-115.562 99.552-76.024 166.259 11.267 19.009 30.461 33.35 38.305 54.619 12.652 34.311-6.608 60.653-2.85 94.372 15.612 140.102 229.574 85.834 308.303 42.245 123.47-68.36 206.998-220.497 112.782-292.932z" fill="url(#SVGID_1_)"/></g><g><g><g><g><g><g><path d="m425.173 453.97v-273.725c0-4.157-2.306-7.972-5.987-9.904l-157.988-82.927c-3.255-1.709-7.142-1.709-10.397 0l-157.987 82.927c-3.681 1.932-5.987 5.747-5.987 9.904v273.725c0 6.177 5.008 11.185 11.185 11.185h315.974c6.179 0 11.187-5.008 11.187-11.185z" fill="#ffa8cf"/><path d="m213.48 123.693c0 29.42-23.85 53.27-53.27 53.27-16.88 0-31.93-7.86-41.7-20.11l92.68-48.65c1.49 4.9 2.29 10.1 2.29 15.49z" fill="#ff7eb8"/><path d="m86.827 269.663v184.307c0 6.177 5.008 11.185 11.185 11.185h315.975c6.177 0 11.185-5.008 11.185-11.185v-184.307z" fill="#ffdbed"/><path d="m396.13 465.155h-280.26v-230.03c0-6.178 5.008-11.185 11.186-11.185h257.89c6.178 0 11.185 5.008 11.185 11.185v230.03z" fill="#4369fd"/><g><g><g><path d="m250.09 465.155h-86.508c-3.021 0-5.47-2.449-5.47-5.47v-86.508c0-3.021 2.449-5.47 5.47-5.47h86.508c3.021 0 5.47 2.449 5.47 5.47v86.508c0 3.021-2.449 5.47-5.47 5.47z" fill="#ffa8cf"/><path d="m171.787 381.382h70.099v70.098h-70.099z" fill="#ff5ba8" transform="matrix(0 1 -1 0 623.268 209.595)"/><g fill="#ff7eb8"><path d="m230.38 389.525-58.591 60.279v-60.279z"/><path d="m233.856 419.158v32.326h-40.131l34.615-34.61c2.035-2.036 5.516-.595 5.516 2.284z"/></g></g><path d="m200.843 362.386h13.675v106.497h-13.675z" fill="#ffa8cf" transform="matrix(.707 .707 -.707 .707 354.726 -25.116)"/></g><g><g><path d="m347.538 465.155h-86.508c-3.021 0-5.47-2.449-5.47-5.47v-86.508c0-3.021 2.449-5.47 5.47-5.47h86.508c3.021 0 5.47 2.449 5.47 5.47v86.508c0 3.021-2.449 5.47-5.47 5.47z" fill="#ff7eb8"/><path d="m269.235 381.382h70.099v70.098h-70.099z" fill="#fe2c8f" transform="matrix(0 1 -1 0 720.716 112.148)"/><g fill="#ff5ba8"><path d="m327.828 389.525-58.591 60.279v-60.279z"/><path d="m331.303 419.158v32.326h-40.131l34.615-34.61c2.036-2.036 5.516-.595 5.516 2.284z"/></g></g><path d="m298.291 362.386h13.675v106.497h-13.675z" fill="#ff7eb8" transform="matrix(.707 .707 -.707 .707 383.268 -94.022)"/></g><g><g><path d="m396.13 367.708h-37.653c-3.021 0-5.47 2.449-5.47 5.47v86.508c0 3.021 2.449 5.47 5.47 5.47h37.653z" fill="#ffa8cf"/><path d="m366.682 381.382h29.448v70.099h-29.448z" fill="#ff5ba8"/><g fill="#ff7eb8"><path d="m396.13 389.525h-29.446v60.279l29.446-30.294z"/><path d="m396.13 443.974-7.51 7.509h7.51z"/></g></g><path d="m396.13 412.411-36.041 36.041 9.67 9.67 26.371-26.372z" fill="#ffa8cf"/></g></g><g><g><g><path d="m250.09 367.708h-86.508c-3.021 0-5.47-2.449-5.47-5.47v-86.508c0-3.021 2.449-5.47 5.47-5.47h86.508c3.021 0 5.47 2.449 5.47 5.47v86.508c0 3.021-2.449 5.47-5.47 5.47z" fill="#ff7eb8"/><path d="m171.787 283.935h70.099v70.098h-70.099z" fill="#fe2c8f" transform="matrix(0 1 -1 0 525.82 112.148)"/><g fill="#ff5ba8"><path d="m230.38 292.078-58.591 60.278v-60.278z"/><path d="m233.856 321.71v32.326h-40.131l34.615-34.61c2.035-2.036 5.516-.595 5.516 2.284z"/></g></g><path d="m200.843 264.938h13.675v106.497h-13.675z" fill="#ff7eb8" transform="matrix(.707 .707 -.707 .707 285.82 -53.658)"/></g><g><g><path d="m347.538 367.708h-86.508c-3.021 0-5.47-2.449-5.47-5.47v-86.508c0-3.021 2.449-5.47 5.47-5.47h86.508c3.021 0 5.47 2.449 5.47 5.47v86.508c0 3.021-2.449 5.47-5.47 5.47z" fill="#ffa8cf"/><path d="m269.235 283.935h70.099v70.098h-70.099z" fill="#ff5ba8" transform="matrix(0 1 -1 0 623.268 14.7)"/><g fill="#ff7eb8"><path d="m327.828 292.078-58.591 60.278v-60.278z"/><path d="m331.303 321.71v32.326h-40.131l34.615-34.61c2.036-2.036 5.516-.595 5.516 2.284z"/></g></g><path d="m298.291 264.938h13.675v106.497h-13.675z" fill="#ffa8cf" transform="matrix(.707 .707 -.707 .707 314.362 -122.564)"/></g><g><g><path d="m396.13 270.26h-37.653c-3.021 0-5.47 2.449-5.47 5.47v86.508c0 3.021 2.449 5.47 5.47 5.47h37.653z" fill="#ff7eb8"/><path d="m366.682 283.934h29.448v70.099h-29.448z" fill="#fe2c8f"/><path d="m396.13 292.078h-29.446v60.278l29.446-30.294z" fill="#ff5ba8"/><path d="m396.13 346.526-7.51 7.509h7.51z" fill="#ff7eb8"/></g><path d="m396.13 314.963-36.041 36.041 9.67 9.67 26.371-26.372z" fill="#ff7eb8"/></g></g><path d="m396.02 235.113v22.86c0-6.18-5.01-11.19-11.18-11.19h-257.89c-6.18 0-11.19 5.01-11.19 11.19v-22.86c0-6.18 5.01-11.19 11.19-11.19h257.89c6.17 0 11.18 5.01 11.18 11.19z" fill="#2d58e0"/></g><path d="m295.708 188.535c0 2.696-1.096 5.123-2.852 6.879-1.756 1.767-4.195 2.852-6.879 2.852h-59.954c-5.369 0-9.731-4.351-9.731-9.731 0-2.684 1.096-5.112 2.852-6.879s4.195-2.852 6.879-2.852h59.954c5.369 0 9.731 4.362 9.731 9.731z" fill="#fe2c8f"/></g></g><path d="m235.428 178.808h41.145v45.131h-41.145z" fill="#ff7eb8"/><path d="m235.43 178.804h41.14v19.463h-41.14z" fill="#ff5ba8"/><path d="m425.173 453.97v-273.725c0-4.157-2.306-7.972-5.987-9.904l-157.988-82.927c-3.255-1.709-7.142-1.709-10.397 0l-157.987 82.927c-3.681 1.932-5.987 5.747-5.987 9.904v273.725c0 6.177 5.008 11.185 11.185 11.185h315.974c6.179 0 11.187-5.008 11.187-11.185z" fill="url(#SVGID_2_)"/><g><ellipse cx="160.212" cy="102.451" fill="#6583fe" rx="53.269" ry="53.269" transform="matrix(.235 -.972 .972 .235 22.967 234.086)"/><path d="m173.199 109.694c3.978-3.57 6.499-8.733 6.499-14.486 0-10.745-8.741-19.486-19.486-19.486s-19.486 8.741-19.486 19.486c0 5.753 2.521 10.916 6.499 14.486-3.978 3.57-6.499 8.733-6.499 14.486 0 2.761 2.239 5 5 5s5-2.239 5-5c0-5.23 4.255-9.486 9.486-9.486 5.23 0 9.486 4.255 9.486 9.486 0 2.761 2.239 5 5 5s5-2.239 5-5c0-5.753-2.521-10.916-6.499-14.486zm-22.473-14.486c0-5.23 4.255-9.486 9.486-9.486 5.23 0 9.486 4.255 9.486 9.486s-4.255 9.486-9.486 9.486c-5.23 0-9.486-4.255-9.486-9.486z" fill="#fff"/></g></g><path d="m36.373 313.859c-3.873 0-7.514-1.508-10.253-4.248-2.738-2.738-4.247-6.379-4.247-10.252s1.508-7.514 4.247-10.253c5.653-5.654 14.853-5.653 20.506 0 2.739 2.739 4.247 6.38 4.247 10.253 0 3.874-1.508 7.515-4.247 10.253s-6.38 4.247-10.253 4.247zm0-18.998c-1.153 0-2.305.439-3.182 1.316-.85.85-1.318 1.98-1.318 3.182s.468 2.332 1.318 3.182c.851.851 1.98 1.318 3.182 1.318s2.332-.468 3.182-1.318 1.318-1.98 1.318-3.182-.468-2.332-1.318-3.182c-.877-.878-2.03-1.316-3.182-1.316z" fill="#00eca2"/><g fill="#6583fe"><path d="m59.279 267.483c-1.28 0-2.559-.488-3.536-1.464l-5.964-5.964-5.964 5.964c-1.953 1.952-5.118 1.952-7.071 0-1.953-1.953-1.953-5.119 0-7.071l9.5-9.5c1.953-1.952 5.118-1.952 7.071 0l9.5 9.5c1.953 1.953 1.953 5.119 0 7.071-.977.975-2.256 1.464-3.536 1.464z"/><path d="m380.394 108.248c-3.713 0-7.426-1.413-10.253-4.24-5.653-5.654-5.653-14.853 0-20.506 5.653-5.654 14.852-5.653 20.506 0h.001c5.653 5.654 5.653 14.853 0 20.506-2.828 2.826-6.542 4.24-10.254 4.24zm0-18.991c-1.152 0-2.305.438-3.182 1.316-1.755 1.754-1.755 4.609 0 6.364 1.754 1.755 4.609 1.754 6.364 0 1.754-1.754 1.754-4.609 0-6.364-.877-.877-2.03-1.316-3.182-1.316z"/></g></g><path d="m251.385 54.182c-1.28 0-2.559-.488-3.536-1.464l-5.964-5.964-5.964 5.964c-1.953 1.952-5.118 1.952-7.071 0-1.953-1.953-1.953-5.119 0-7.071l9.5-9.5c1.953-1.952 5.118-1.952 7.071 0l9.5 9.5c1.953 1.953 1.953 5.119 0 7.071-.977.975-2.256 1.464-3.536 1.464z" fill="#00eca2"/><path d="m457.986 477.318c-1.28 0-2.559-.488-3.536-1.464l-5.964-5.964-5.964 5.964c-1.953 1.952-5.118 1.952-7.071 0-1.953-1.953-1.953-5.119 0-7.071l9.5-9.5c1.953-1.952 5.118-1.952 7.071 0l9.5 9.5c1.953 1.953 1.953 5.119 0 7.071-.977.976-2.256 1.464-3.536 1.464z" fill="#ff7eb8"/></g></g></svg>