<svg id="Capa_1" enable-background="new 0 0 512 512" height="512" viewBox="0 0 512 512" width="512" xmlns="http://www.w3.org/2000/svg" xmlns:xlink="http://www.w3.org/1999/xlink"><linearGradient id="SVGID_1_" gradientUnits="userSpaceOnUse" x1="215.715" x2="303.048" y1="104.116" y2="506.783"><stop offset=".0112" stop-color="#dafced"/><stop offset=".3814" stop-color="#e7f0ed"/><stop offset="1" stop-color="#ffd9ec"/></linearGradient><linearGradient id="SVGID_2_" gradientUnits="userSpaceOnUse" x1="256" x2="256" y1="111.26" y2="382.109"><stop offset=".0028" stop-color="#ff7eb8" stop-opacity="0"/><stop offset="1" stop-color="#ff7eb8" stop-opacity=".6"/></linearGradient><g><g><path d="m367.602 55.647c-68.76-27.809-164.519-18.632-217.922 29.019-37.707 33.645-8.934 43.685 15.8 106.316 17.901 45.33-164.545 37.042-165.473 118.573-1.073 94.257 131.322 77.894 180.254 89.242 74.814 17.35 139.543 79.805 219.771 72.582 69.844-6.288 97.063-60.73 107.479-123.379 19.405-116.717-23.529-245.283-139.909-292.353z" fill="url(#SVGID_1_)"/></g><g><g><path d="m225.808 121.192-13.084 22.457h-81.394c-23.27 0-43.46 16.06-48.7 38.74l-46.14 199.72h439.02v-260.849c0-5.523-4.477-10-10-10h-222.421c-7.117 0-13.698 3.782-17.281 9.932z" fill="#ff7eb8"/><path d="m70.756 297.674h-14.76l-6.363 27.544h21.123c7.606 0 13.772-6.166 13.772-13.772-.001-7.606-6.166-13.772-13.772-13.772z" fill="#ffc4df"/><path d="m212.724 143.649h29.554c3.258 0 5.9-2.641 5.9-5.9 0-3.258-2.641-5.9-5.9-5.9h-22.679z" fill="#ff5ba8"/><path d="m475.51 236.009h-10.352c-5.523 0-10-4.477-10-10v-71.234c0-5.523 4.477-10 10-10h10.352z" fill="#ff5ba8"/><path d="m455.158 211.42v14.59c0 5.523 4.477 10 10 10h10.352v-24.59z" fill="#ffa8cf"/><g fill="#02ffb3"><path d="m306 292.117h169.51v-41.105h-140.446z"/><path d="m319.481 251.009-29.06 41.11h-29.36l29.06-41.11z"/><path d="m275.025 251.009-29.06 41.11h-19.36l29.06-41.11z"/></g><path d="m181.476 248.159h11.434v123.951h-11.434z" fill="#ff5ba8"/><path d="m85.276 174.232c-1.1 2.605-1.995 5.327-2.646 8.157l-17.5 75.77h117.78c5.523 0 10-4.477 10-10v-63.927c0-5.523-4.477-10-10-10z" fill="#b7c5ff"/><path d="m158.616 174.232h-73.34c-1.1 2.605-1.995 5.327-2.646 8.157l-17.5 75.77h9.817c27.932-27.934 55.85-55.882 83.669-83.927z" fill="#d2deff"/><path d="m183.774 174.275-83.884 83.884h23.343l69.677-69.676v-4.251c0-5.232-4.019-9.518-9.136-9.957z" fill="#d2deff"/><path d="m475.51 331.519v50.59h-439.02l11.69-50.59z" fill="#ff5ba8"/><g fill="#ffdbed"><path d="m405.586 152.361c0 .842.148 1.683.427 2.488h-78.947c-4.189 0-7.586 3.396-7.586 7.586s3.397 7.586 7.586 7.586h78.946c-.921 2.659-.328 5.728 1.795 7.85 2.962 2.963 7.766 2.963 10.728 0l10.067-10.067c2.938-2.825 2.937-7.911 0-10.737l-10.067-10.068c-2.962-2.963-7.765-2.963-10.728-.002-1.48 1.48-2.221 3.423-2.221 5.364z"/><path d="m344.274 192.129h78.946c4.189 0 7.586 3.396 7.586 7.586s-3.397 7.586-7.586 7.586h-78.946c.279.804.427 1.644.427 2.486 0 1.941-.741 3.883-2.222 5.363-2.962 2.963-7.766 2.963-10.728 0l-10.066-10.066c-2.938-2.825-2.939-7.912-.001-10.738l10.067-10.067c2.962-2.963 7.766-2.963 10.728 0 2.123 2.123 2.716 5.191 1.795 7.85z"/></g><g><path d="m289.702 230.343h-49.241c-2.761 0-5-2.239-5-5v-66.141c0-2.761 2.239-5 5-5h49.241c2.761 0 5 2.239 5 5v66.141c0 2.761-2.238 5-5 5z" fill="#fff"/><g><g><g><path d="m303.416 178.719h-48.583c-2.761 0-5-2.239-5-5s2.239-5 5-5h48.583c2.761 0 5 2.239 5 5s-2.239 5-5 5z" fill="#ff7eb8"/></g><g><path d="m273.416 199.041h-18.583c-2.761 0-5-2.239-5-5s2.239-5 5-5h18.583c2.761 0 5 2.239 5 5s-2.239 5-5 5z" fill="#9fb0fe"/></g><g><path d="m273.416 216.362h-18.583c-2.761 0-5-2.239-5-5s2.239-5 5-5h18.583c2.761 0 5 2.239 5 5 0 2.762-2.239 5-5 5z" fill="#9fb0fe"/></g></g></g></g><g><path d="m181.48 331.519h11.43v40.59h-11.43z" fill="#fe2c8f"/></g><path d="m150.237 274.359c0-3.247 2.632-5.879 5.879-5.879h10c3.247 0 5.879 2.632 5.879 5.879 0 3.247-2.632 5.879-5.879 5.879h-10c-3.247-.001-5.879-2.633-5.879-5.879z" fill="#fe2c8f"/><path d="m225.808 121.192-13.084 22.457h-81.394c-23.27 0-43.46 16.06-48.7 38.74l-46.14 199.72h439.02v-260.849c0-5.523-4.477-10-10-10h-222.421c-7.117 0-13.698 3.782-17.281 9.932z" fill="url(#SVGID_2_)"/><g><g><path d="m475.51 411.251h-439.021c-5.523 0-10-4.477-10-10v-19.141c0-5.523 4.477-10 10-10h439.021c5.523 0 10 4.477 10 10v19.141c0 5.523-4.477 10-10 10z" fill="#d2deff"/><path d="m26.489 395.043v6.208c0 5.523 4.477 10 10 10h439.021c5.523 0 10-4.477 10-10v-6.208z" fill="#b7c5ff"/></g><g><g><g><g><g><g><g><circle cx="107.078" cy="399.745" fill="#6583fe" r="39.893"/><circle cx="107.078" cy="399.745" fill="#d2deff" r="18.066"/></g></g></g></g></g></g><g><circle cx="419.418" cy="399.745" fill="#6583fe" r="39.893"/><circle cx="419.418" cy="399.745" fill="#d2deff" r="18.066"/></g></g></g></g><path d="m186.48 124.893c-3.713 0-7.426-1.413-10.253-4.24-5.653-5.653-5.653-14.852 0-20.505 5.653-5.655 14.853-5.654 20.506 0 5.653 5.653 5.653 14.852 0 20.505-2.826 2.827-6.54 4.24-10.253 4.24zm0-18.99c-1.153 0-2.305.438-3.182 1.315-1.754 1.755-1.754 4.609 0 6.364 1.753 1.754 4.609 1.754 6.364 0 1.754-1.755 1.754-4.609 0-6.364-.877-.877-2.029-1.315-3.182-1.315z" fill="#00eca2"/><path d="m271.06 459.131c-3.713 0-7.426-1.413-10.252-4.24-5.654-5.653-5.654-14.853 0-20.506 5.652-5.655 14.853-5.653 20.505 0 5.654 5.653 5.654 14.852 0 20.506-2.826 2.827-6.539 4.24-10.253 4.24zm0-18.991c-1.151 0-2.304.439-3.182 1.315-1.754 1.755-1.754 4.61 0 6.365 1.756 1.755 4.608 1.753 6.364 0 1.754-1.755 1.754-4.61 0-6.365-.877-.877-2.029-1.315-3.182-1.315z" fill="#ff7eb8"/><path d="m342.641 469.638c-1.279 0-2.559-.488-3.535-1.465l-5.965-5.964-5.965 5.964c-1.951 1.953-5.119 1.953-7.07 0-1.953-1.952-1.953-5.118 0-7.07l9.5-9.5c1.951-1.953 5.119-1.953 7.07 0l9.5 9.5c1.953 1.952 1.953 5.118 0 7.07-.976.977-2.256 1.465-3.535 1.465z" fill="#6583fe"/><g fill="#ff7eb8"><path d="m449.806 88.559c-1.279 0-2.56-.488-3.535-1.465l-5.965-5.964-5.965 5.964c-1.951 1.953-5.119 1.953-7.07 0-1.953-1.952-1.953-5.118 0-7.07l9.5-9.5c1.951-1.953 5.119-1.953 7.07 0l9.5 9.5c1.953 1.952 1.953 5.118 0 7.07-.976.977-2.256 1.465-3.535 1.465z"/><path d="m159.144 100.151c-1.28 0-2.559-.488-3.536-1.465l-5.964-5.964-5.964 5.964c-1.953 1.953-5.118 1.953-7.071 0-1.953-1.952-1.953-5.118 0-7.07l9.5-9.5c1.953-1.953 5.118-1.953 7.071 0l9.5 9.5c1.953 1.952 1.953 5.118 0 7.07-.976.976-2.256 1.465-3.536 1.465z"/></g></g></g></svg>