<svg id="Capa_1" enable-background="new 0 0 512 512" height="512" viewBox="0 0 512 512" width="512" xmlns="http://www.w3.org/2000/svg" xmlns:xlink="http://www.w3.org/1999/xlink"><linearGradient id="SVGID_1_" gradientUnits="userSpaceOnUse" x1="239.382" x2="329.378" y1="94.969" y2="561.445"><stop offset=".0112" stop-color="#dafced"/><stop offset=".761" stop-color="#cbdcfa"/><stop offset="1" stop-color="#c6d1ff"/></linearGradient><linearGradient id="SVGID_2_" gradientUnits="userSpaceOnUse" x1="256" x2="256" y1="208.833" y2="451.383"><stop offset=".0028" stop-color="#ff7eb8" stop-opacity="0"/><stop offset="1" stop-color="#ff7eb8" stop-opacity=".6"/></linearGradient><g><g><path d="m471.476 116.463c-65.417-50.293-128.867-9.306-199.64-23.797-71.285-14.597-99.685-63.201-180.876-40.766-71.922 19.874-115.562 99.552-76.024 166.259 11.267 19.009 30.461 33.35 38.305 54.619 12.653 34.311-6.607 60.653-2.85 94.372 15.612 140.102 229.574 85.834 308.303 42.245 123.47-68.36 206.998-220.497 112.782-292.932z" fill="url(#SVGID_1_)"/></g><g><g><g><g><path d="m396.96 208.833v185.877c0 4.243-2.678 8.025-6.681 9.433l-134.279 47.24-134.279-47.24c-4.003-1.408-6.681-5.19-6.681-9.433v-185.877z" fill="#ffa8cf"/><g><path d="m256 258.423v22.74l-38 33.64c-1.36 1.2-3.26 1.57-4.98.97l-97.98-34.47v-72.47z" fill="#ff7eb8"/></g><path d="m396.96 208.833v185.877c0 4.243-2.678 8.025-6.681 9.433l-134.279 47.24v-242.55z" fill="#ff7eb8"/><g><path d="m396.96 208.833v72.47l-97.98 34.47c-1.72.6-3.62.23-4.98-.97l-38-33.64v-22.74z" fill="#ff5ba8"/></g><g><path d="m256 159.24-140.955 49.591 140.955 49.59 140.955-49.59z" fill="#6583fe"/><path d="m351.2 224.932-95.2 33.49-95.2-33.49 91.882-32.323c2.148-.755 4.489-.755 6.637 0z" fill="#4369fd"/></g></g><path d="m180.103 147.012 68.441 76.579c3.975 4.448 10.937 4.448 14.912 0l68.441-76.579c5.758-6.443 1.185-16.664-7.456-16.664h-35.667v-74.445c0-5.523-4.477-10-10-10h-45.548c-5.523 0-10 4.477-10 10v74.446h-35.667c-8.641-.001-13.214 10.22-7.456 16.663z" fill="#01eca5"/><path d="m283.54 201.132-20.08 22.46c-3.98 4.45-10.94 4.45-14.92 0l-20.08-22.46 24.221-8.522c2.148-.756 4.49-.756 6.638 0z" fill="#00d890"/><g fill="#6583fe"><path d="m328.902 341.514v14.538c0 3.441 3.395 5.854 6.645 4.722l38.862-13.539c2.009-.7 3.355-2.594 3.355-4.722v-14.538c0-3.441-3.395-5.854-6.645-4.722l-38.862 13.539c-2.009.7-3.355 2.594-3.355 4.722z"/><path d="m328.902 375.753v14.538c0 3.441 3.395 5.854 6.645 4.722l38.862-13.539c2.009-.7 3.355-2.594 3.355-4.722v-14.538c0-3.441-3.395-5.854-6.645-4.722l-38.862 13.539c-2.009.7-3.355 2.594-3.355 4.722z"/></g><g><g><path d="m160.8 340.773c-.535 0-1.08-.086-1.615-.27l-22.907-7.82c-2.613-.892-4.009-3.733-3.116-6.347.892-2.613 3.731-4.013 6.347-3.116l22.907 7.82c2.613.892 4.009 3.733 3.116 6.347-.71 2.079-2.652 3.386-4.732 3.386z" fill="#fe2c8f"/></g><g><path d="m160.8 359.155c-.535 0-1.08-.086-1.615-.27l-22.907-7.821c-2.613-.892-4.009-3.733-3.116-6.347.892-2.613 3.731-4.013 6.347-3.116l22.907 7.821c2.613.892 4.009 3.733 3.116 6.347-.71 2.079-2.652 3.386-4.732 3.386z" fill="#fe2c8f"/></g></g><g><g><path d="m196.476 331.061c-.535 0-1.08-.086-1.615-.27l-58.583-20c-2.613-.892-4.009-3.733-3.116-6.347.892-2.613 3.731-4.013 6.347-3.116l58.583 20c2.613.892 4.009 3.733 3.116 6.347-.71 2.078-2.652 3.386-4.732 3.386z" fill="#fe2c8f"/></g></g></g><g><path d="m396.955 208.831 33.835 29.952c2.856 2.528 1.943 7.195-1.655 8.46l-130.159 45.792c-1.711.602-3.615.23-4.974-.973l-38.002-33.641z" fill="#ffa8cf"/></g><g><path d="m115.045 208.831-33.835 29.952c-2.856 2.528-1.943 7.195 1.655 8.46l130.159 45.792c1.712.602 3.615.23 4.973-.973l38.003-33.641z" fill="#ffc4df"/></g></g><path d="m192.311 64.778c-1.279 0-2.559-.488-3.535-1.465l-5.965-5.964-5.965 5.964c-1.951 1.953-5.119 1.953-7.07 0-1.953-1.952-1.953-5.118 0-7.07l9.5-9.5c1.951-1.953 5.119-1.953 7.07 0l9.5 9.5c1.953 1.952 1.953 5.118 0 7.07-.976.977-2.256 1.465-3.535 1.465z" fill="#00eca2"/><path d="m92.526 436.902c-1.279 0-2.56-.488-3.535-1.465l-5.965-5.964-5.965 5.964c-1.951 1.953-5.119 1.953-7.07 0-1.953-1.952-1.953-5.118 0-7.07l9.5-9.5c1.951-1.953 5.119-1.953 7.07 0l9.5 9.5c1.953 1.952 1.953 5.118 0 7.07-.975.977-2.255 1.465-3.535 1.465z" fill="#ff7eb8"/><path d="m422.979 193.143c-3.714 0-7.427-1.413-10.253-4.24-5.654-5.653-5.654-14.852 0-20.506 5.652-5.654 14.853-5.654 20.505 0 5.654 5.653 5.654 14.853 0 20.506-2.827 2.827-6.54 4.24-10.252 4.24zm0-18.991c-1.152 0-2.305.438-3.183 1.315-1.754 1.755-1.754 4.61 0 6.365 1.756 1.754 4.608 1.754 6.364 0 1.754-1.755 1.754-4.61 0-6.365-.878-.877-2.03-1.315-3.181-1.315z" fill="#6583fe"/><path d="m124.54 466.722c-3.713 0-7.427-1.413-10.253-4.24-5.654-5.653-5.654-14.853 0-20.506 5.652-5.654 14.853-5.654 20.506 0 5.654 5.653 5.654 14.853 0 20.506-2.826 2.827-6.54 4.24-10.253 4.24zm0-18.991c-1.152 0-2.305.439-3.183 1.316-1.754 1.755-1.754 4.61 0 6.365 1.756 1.754 4.609 1.754 6.365 0 1.754-1.755 1.754-4.61 0-6.365-.877-.878-2.03-1.316-3.182-1.316z" fill="#6583fe"/><path d="m319.402 108.119c-3.714 0-7.427-1.413-10.253-4.24-5.654-5.653-5.654-14.852 0-20.505 5.652-5.653 14.853-5.655 20.505 0 5.653 5.653 5.653 14.852 0 20.505-2.826 2.827-6.539 4.24-10.252 4.24zm0-18.991c-1.152 0-2.305.438-3.183 1.315-1.754 1.755-1.754 4.609 0 6.364 1.756 1.753 4.608 1.755 6.364 0 1.754-1.755 1.754-4.609 0-6.364-.877-.876-2.029-1.315-3.181-1.315z" fill="#ff7eb8"/></g><path d="m396.96 208.833v185.877c0 4.243-2.678 8.025-6.681 9.433l-134.279 47.24-134.279-47.24c-4.003-1.408-6.681-5.19-6.681-9.433v-185.877z" fill="url(#SVGID_2_)"/></g></svg>