<svg id="Capa_1" enable-background="new 0 0 512 512" height="512" viewBox="0 0 512 512" width="512" xmlns="http://www.w3.org/2000/svg" xmlns:xlink="http://www.w3.org/1999/xlink"><linearGradient id="SVGID_1_" gradientUnits="userSpaceOnUse" x1="177.911" x2="427.91" y1="208.063" y2="312.063"><stop offset="0" stop-color="#c6d1ff"/><stop offset=".5834" stop-color="#e6d5f4"/><stop offset=".997" stop-color="#ffd9ec"/></linearGradient><linearGradient id="SVGID_2_" gradientUnits="userSpaceOnUse" x1="249.465" x2="249.465" y1="51.942" y2="451.008"><stop offset=".0028" stop-color="#ff7eb8" stop-opacity="0"/><stop offset="1" stop-color="#ff7eb8" stop-opacity=".6"/></linearGradient><g><g><path d="m345.832.425c-95.818 8.652-105.091 192.429-146.416 286.587-20.478 46.658-68.772 94.794-60.258 149.782 9.605 62.035 72.897 80.075 121.683 74.14 120.723-14.685 172.898-141.053 180.797-260.801 4.869-73.829 20.3-260.192-95.806-249.708z" fill="url(#SVGID_1_)"/></g><g><g><g><g><g><ellipse cx="337.392" cy="138.44" fill="#01eca5" rx="24.627" ry="43.806"/><ellipse cx="337.228" cy="256.27" fill="#6583fe" rx="24.627" ry="43.806"/><ellipse cx="337.392" cy="374.429" fill="#fe2c8f" rx="24.627" ry="43.806"/><g fill="#9fb0fe"><path d="m331.75 85.117v43.889c34.811-1.403 49.284-16.151 55.301-28.17 3.616-7.224-1.796-15.719-9.874-15.719z"/><path d="m331.75 203.112v43.888c34.811-1.403 49.284-16.151 55.301-28.17 3.616-7.224-1.796-15.719-9.874-15.719h-45.427z"/><path d="m331.75 321.106v43.888c34.811-1.403 49.284-16.151 55.301-28.17 3.616-7.224-1.796-15.719-9.874-15.719h-45.427z"/></g></g><g><ellipse cx="161.538" cy="138.44" fill="#01eca5" rx="24.627" ry="43.806"/><ellipse cx="161.703" cy="256.27" fill="#6583fe" rx="24.627" ry="43.806"/><ellipse cx="161.538" cy="374.429" fill="#fe2c8f" rx="24.627" ry="43.806"/><g fill="#9fb0fe"><path d="m167.18 85.117v43.889c-34.811-1.403-49.284-16.151-55.301-28.17-3.616-7.224 1.796-15.719 9.874-15.719z"/><path d="m167.18 203.112v43.888c-34.811-1.403-49.284-16.151-55.301-28.17-3.616-7.224 1.796-15.719 9.874-15.719h45.427z"/><path d="m167.18 321.106v43.888c-34.811-1.403-49.284-16.151-55.301-28.17-3.616-7.224 1.796-15.719 9.874-15.719h45.427z"/></g></g></g><g><path d="m326.864 451.008h-154.797c-6.053 0-10.96-4.907-10.96-10.96v-377.145c0-6.053 4.907-10.96 10.96-10.96h154.797c6.053 0 10.96 4.907 10.96 10.96v377.146c0 6.052-4.907 10.959-10.96 10.959z" fill="#d2deff"/></g><g><circle cx="249.465" cy="138.44" fill="#02ffb3" r="46.875"/><path d="m296.335 138.44c0 4.26-.57 8.4-1.64 12.32-8-.22-15.79-3.05-22.04-8.04-6.65-5.31-14.67-8.11-23.19-8.11s-16.54 2.8-23.19 8.11c-6.25 4.99-14.04 7.82-22.04 8.04-1.07-3.92-1.64-8.06-1.64-12.32 0-25.89 20.98-46.87 46.87-46.87s46.87 20.98 46.87 46.87z" fill="#01eca5"/><path d="m203.211 135.784c4.981 0 9.816-1.683 13.71-4.789 8.93-7.122 20.236-11.387 32.544-11.387s23.614 4.264 32.544 11.387c3.894 3.106 8.729 4.789 13.71 4.789 3.344 0 5.929-2.974 5.428-6.28-3.81-25.128-25.49-44.386-51.682-44.386s-47.872 19.258-51.682 44.386c-.501 3.306 2.084 6.28 5.428 6.28z" fill="#9fb0fe"/></g><g><circle cx="249.465" cy="256.434" fill="#8399fe" r="46.875"/><path d="m296.335 256.43c0 4.27-.57 8.4-1.64 12.33-8-.22-15.79-3.05-22.04-8.05-6.65-5.3-14.67-8.11-23.19-8.11s-16.54 2.81-23.19 8.12c-6.25 4.99-14.04 7.82-22.04 8.04-1.07-3.93-1.64-8.06-1.64-12.33 0-25.88 20.98-46.87 46.87-46.87s46.87 20.99 46.87 46.87z" fill="#6583fe"/><path d="m203.211 253.778c4.981 0 9.816-1.683 13.71-4.789 8.93-7.122 20.236-11.387 32.544-11.387s23.614 4.264 32.544 11.387c3.894 3.106 8.729 4.789 13.71 4.789 3.344 0 5.929-2.974 5.428-6.28-3.81-25.128-25.49-44.386-51.682-44.386s-47.872 19.258-51.682 44.386c-.501 3.307 2.084 6.28 5.428 6.28z" fill="#9fb0fe"/></g><g><circle cx="249.465" cy="374.429" fill="#ff7eb8" r="46.875"/><path d="m296.335 374.43c0 4.27-.57 8.4-1.64 12.32-8-.22-15.79-3.05-22.04-8.04-6.65-5.31-14.67-8.11-23.19-8.11s-16.54 2.8-23.19 8.11c-6.25 4.99-14.04 7.82-22.04 8.04-1.07-3.92-1.64-8.05-1.64-12.32 0-25.89 20.98-46.88 46.87-46.88s46.87 20.99 46.87 46.88z" fill="#ff5ba8"/><path d="m203.211 371.773c4.981 0 9.816-1.683 13.71-4.789 8.93-7.122 20.236-11.387 32.544-11.387s23.614 4.264 32.544 11.387c3.894 3.106 8.729 4.789 13.71 4.789 3.344 0 5.929-2.974 5.428-6.28-3.81-25.128-25.49-44.386-51.682-44.386s-47.872 19.258-51.682 44.386c-.501 3.306 2.084 6.28 5.428 6.28z" fill="#9fb0fe"/></g></g><g><g><g><path d="m189.818 431.361c-5.052 0-9.147-4.095-9.147-9.147v-.211c0-5.053 4.096-9.147 9.147-9.147s9.147 4.095 9.147 9.147v.211c0 5.052-4.096 9.147-9.147 9.147z" fill="#b7c5ff"/></g><g><path d="m309.113 431.361c-5.052 0-9.147-4.095-9.147-9.147v-.211c0-5.053 4.096-9.147 9.147-9.147s9.147 4.095 9.147 9.147v.211c0 5.052-4.096 9.147-9.147 9.147z" fill="#b7c5ff"/></g></g><g><g><path d="m189.818 87.724c-5.052 0-9.147-4.095-9.147-9.147v-.211c0-5.052 4.096-9.147 9.147-9.147s9.147 4.095 9.147 9.147v.211c0 5.052-4.096 9.147-9.147 9.147z" fill="#b7c5ff"/></g><g><path d="m309.113 87.724c-5.052 0-9.147-4.095-9.147-9.147v-.211c0-5.052 4.096-9.147 9.147-9.147s9.147 4.095 9.147 9.147v.211c0 5.052-4.096 9.147-9.147 9.147z" fill="#b7c5ff"/></g></g></g></g><path d="m81.397 331.659c-3.713 0-7.427-1.413-10.253-4.24-5.653-5.653-5.653-14.852 0-20.505s14.853-5.653 20.506 0 5.653 14.852 0 20.505c-2.826 2.827-6.54 4.24-10.253 4.24zm0-18.99c-1.152 0-2.305.438-3.182 1.315-1.754 1.755-1.754 4.609 0 6.364 1.754 1.754 4.61 1.753 6.364 0 1.754-1.755 1.754-4.609 0-6.364-.877-.877-2.029-1.315-3.182-1.315z" fill="#00eca2"/><path d="m366.256 60.047c-3.713 0-7.427-1.413-10.253-4.24-5.654-5.653-5.654-14.853 0-20.506s14.854-5.654 20.506 0c5.654 5.653 5.654 14.853 0 20.506-2.827 2.827-6.54 4.24-10.253 4.24zm-.001-18.991c-1.152 0-2.305.438-3.182 1.315-1.755 1.755-1.755 4.61 0 6.365 1.754 1.754 4.61 1.752 6.364 0 1.755-1.755 1.755-4.61 0-6.365-.877-.877-2.029-1.315-3.182-1.315z" fill="#6583fe"/><path d="m108.336 291.226c-1.28 0-2.559-.488-3.536-1.465l-5.964-5.964-5.964 5.964c-1.953 1.953-5.118 1.953-7.071 0-1.953-1.952-1.953-5.118 0-7.07l9.5-9.5c1.953-1.953 5.118-1.953 7.071 0l9.5 9.5c1.953 1.952 1.953 5.118 0 7.07-.977.976-2.256 1.465-3.536 1.465z" fill="#ff7eb8"/><path d="m381.019 461.209c-1.28 0-2.559-.488-3.536-1.465l-5.964-5.964-5.964 5.964c-1.953 1.953-5.118 1.953-7.071 0-1.953-1.952-1.953-5.118 0-7.07l9.5-9.5c1.953-1.953 5.118-1.953 7.071 0l9.5 9.5c1.953 1.952 1.953 5.118 0 7.07-.977.977-2.256 1.465-3.536 1.465z" fill="#ff7eb8"/><path d="m100.397 148.189c-1.28 0-2.559-.488-3.536-1.465l-5.964-5.964-5.964 5.964c-1.953 1.953-5.118 1.953-7.071 0-1.953-1.952-1.953-5.118 0-7.07l9.5-9.5c1.953-1.953 5.118-1.953 7.071 0l9.5 9.5c1.953 1.952 1.953 5.118 0 7.07-.977.977-2.256 1.465-3.536 1.465z" fill="#6583fe"/></g><path d="m326.864 451.008h-154.797c-6.053 0-10.96-4.907-10.96-10.96v-377.145c0-6.053 4.907-10.96 10.96-10.96h154.797c6.053 0 10.96 4.907 10.96 10.96v377.146c0 6.052-4.907 10.959-10.96 10.959z" fill="url(#SVGID_2_)"/></g></svg>