<svg id="Capa_1" enable-background="new 0 0 512 512" height="512" viewBox="0 0 512 512" width="512" xmlns="http://www.w3.org/2000/svg" xmlns:xlink="http://www.w3.org/1999/xlink"><linearGradient id="SVGID_1_" gradientUnits="userSpaceOnUse" x1="355.581" x2="218.582" y1="465.213" y2="74.213"><stop offset=".0112" stop-color="#dafced"/><stop offset=".3814" stop-color="#e7f0ed"/><stop offset="1" stop-color="#ffd9ec"/></linearGradient><linearGradient id="lg1"><stop offset=".0028" stop-color="#ff7eb8" stop-opacity="0"/><stop offset="1" stop-color="#ff7eb8" stop-opacity=".6"/></linearGradient><linearGradient id="SVGID_2_" gradientUnits="userSpaceOnUse" x1="377.435" x2="377.435" xlink:href="#lg1" y1="83.019" y2="212.495"/><linearGradient id="SVGID_3_" gradientUnits="userSpaceOnUse" x1="256" x2="256" xlink:href="#lg1" y1="350.104" y2="430.702"/><g><path d="m121.579 473.341c-3.873 0-7.515-1.509-10.254-4.248-2.738-2.737-4.246-6.379-4.246-10.252s1.508-7.515 4.247-10.253c5.652-5.654 14.854-5.654 20.506 0 2.739 2.738 4.247 6.38 4.247 10.253s-1.508 7.515-4.247 10.253c-2.738 2.738-6.38 4.247-10.253 4.247zm0-18.998c-1.152 0-2.305.439-3.183 1.315-.85.851-1.317 1.98-1.317 3.183 0 1.202.468 2.331 1.317 3.181.851.852 1.98 1.319 3.183 1.319 1.202 0 2.332-.468 3.182-1.318.851-.851 1.318-1.979 1.318-3.182 0-1.202-.468-2.332-1.317-3.183-.878-.877-2.031-1.315-3.183-1.315z" fill="#00eca2"/><g><g><path d="m341.576.425c-95.818 8.652-105.091 192.428-146.416 286.587-20.478 46.658-68.772 94.794-60.258 149.782 9.605 62.035 72.897 80.075 121.683 74.14 120.723-14.685 172.899-141.053 180.797-260.801 4.869-73.829 20.3-260.192-95.806-249.708z" fill="url(#SVGID_1_)"/></g><path d="m190.616 172.101c-3.713 0-7.427-1.413-10.253-4.24-5.654-5.653-5.654-14.853 0-20.506 5.652-5.654 14.854-5.654 20.506 0 5.654 5.653 5.654 14.852 0 20.506-2.826 2.827-6.54 4.24-10.253 4.24zm0-18.992c-1.152 0-2.305.439-3.183 1.315-1.754 1.755-1.754 4.61 0 6.365 1.756 1.754 4.609 1.754 6.365 0 1.754-1.755 1.754-4.61 0-6.365-.877-.876-2.029-1.315-3.182-1.315z" fill="#6583fe"/><g><g><g><path d="m38.746 273.837h36.428v-61.342h-15.794c-5.433 0-10.09 3.881-11.071 9.224z" fill="#ff5ba8"/><path d="m75.175 228.449v-15.954h-15.795c-5.433 0-10.09 3.881-11.071 9.224l-1.235 6.73z" fill="#fe2c8f"/><path d="m127.207 273.837h-52.032v-77.363c0-3.108 2.52-5.628 5.628-5.628h40.776c3.108 0 5.628 2.52 5.628 5.628z" fill="#d2deff"/><path d="m75.175 204.057h52.032v16.415h-52.032z" fill="#9fb0fe"/><path d="m75.175 232.342h52.032v16.415h-52.032z" fill="#9fb0fe"/><g><path d="m405.654 376.024h-299.308c-37.526 0-67.947-30.421-67.947-67.947v-11.729h435.202v11.729c0 37.526-30.421 67.947-67.947 67.947z" fill="#d2deff"/><path d="m472.729 318.735c.553-3.475.872-7.027.872-10.658v-11.729h-435.202v11.729c0 3.631.319 7.183.872 10.658z" fill="#b7c5ff"/><path d="m42.659 331.788c9.622 25.832 34.502 44.235 63.686 44.235h299.309c29.184 0 54.064-18.403 63.686-44.235z" fill="#ff5ba8"/></g><path d="m481.549 362.978v56.469c0 6.216-5.039 11.255-11.256 11.255h-428.587c-6.216 0-11.256-5.039-11.256-11.255v-56.469l51.145-12.257c3.455-.822 7.046-.822 10.49 0l45.911 10.996c3.444.822 7.035.822 10.479 0l45.9-10.996c3.444-.822 7.046-.822 10.49 0l45.9 10.996c3.444.822 7.035.822 10.49 0l45.889-10.996c3.456-.822 7.046-.822 10.49 0l45.9 10.996c3.444.822 7.035.822 10.49 0l45.9-10.996c3.444-.822 7.035-.822 10.479 0z" fill="#9fb0fe"/><g><path d="m481.619 296.348h-451.238c-6.216 0-11.255-5.04-11.255-11.255 0-6.216 5.04-11.255 11.255-11.255h451.238c6.216 0 11.256 5.04 11.256 11.255s-5.04 11.255-11.256 11.255z" fill="#8399fe"/></g><g><g><g><path d="m268.682 198.497v31.568c0 2.247-1.821 4.068-4.068 4.068h-64.365c-2.247 0-4.068-1.821-4.068-4.068v-31.568c0-2.247 1.821-4.068 4.068-4.068h64.365c2.247 0 4.068 1.822 4.068 4.068z" fill="#97ffd2"/><path d="m207.965 205.28h48.933v18.003h-48.933z" fill="#01eca5"/></g><g><path d="m341.183 198.497v31.568c0 2.247-1.821 4.068-4.068 4.068h-64.365c-2.247 0-4.068-1.821-4.068-4.068v-31.568c0-2.247 1.821-4.068 4.068-4.068h64.365c2.247 0 4.068 1.822 4.068 4.068z" fill="#8399fe"/><path d="m280.466 205.28h48.933v18.003h-48.933z" fill="#6583fe"/></g><g><path d="m413.69 198.501v31.561c0 2.251-1.823 4.074-4.075 4.074h-64.359c-2.251 0-4.075-1.823-4.075-4.074v-31.561c0-2.251 1.824-4.075 4.075-4.075h64.359c2.251 0 4.075 1.824 4.075 4.075z" fill="#ff7eb8"/><path d="m413.69 198.501v18.831c-10.366 7.057-22.882 11.177-36.355 11.177-13.394 0-25.831-4.063-36.153-11.042v-18.965c0-2.251 1.824-4.075 4.075-4.075h64.359c2.25-.001 4.074 1.823 4.074 4.074z" fill="#ff5ba8"/><path d="m352.968 205.28h48.933v18.003h-48.933z" fill="#fe2c8f"/></g></g><g><g><path d="m232.431 238.201v31.568c0 2.247-1.821 4.068-4.068 4.068h-64.365c-2.247 0-4.068-1.821-4.068-4.068v-31.568c0-2.247 1.821-4.068 4.068-4.068h64.365c2.247 0 4.068 1.821 4.068 4.068z" fill="#ff7eb8"/><path d="m171.714 244.983h48.933v18.003h-48.933z" fill="#ff5ba8"/></g><g><path d="m304.933 238.201v31.568c0 2.247-1.821 4.068-4.068 4.068h-64.365c-2.247 0-4.068-1.821-4.068-4.068v-31.568c0-2.247 1.821-4.068 4.068-4.068h64.365c2.246 0 4.068 1.821 4.068 4.068z" fill="#97ffd2"/><path d="m244.216 244.983h48.933v18.003h-48.933z" fill="#01eca5"/></g><g><path d="m377.434 238.201v31.568c0 2.247-1.821 4.068-4.068 4.068h-64.365c-2.247 0-4.068-1.821-4.068-4.068v-31.568c0-2.247 1.821-4.068 4.068-4.068h64.365c2.247 0 4.068 1.821 4.068 4.068z" fill="#ff7eb8"/><path d="m316.717 244.983h48.933v18.003h-48.933z" fill="#ff5ba8"/></g><g><path d="m449.935 238.201v31.568c0 2.247-1.821 4.068-4.068 4.068h-64.365c-2.247 0-4.068-1.821-4.068-4.068v-31.568c0-2.247 1.821-4.068 4.068-4.068h64.365c2.247 0 4.068 1.821 4.068 4.068z" fill="#8399fe"/><path d="m389.218 244.983h48.933v18.003h-48.933z" fill="#6583fe"/></g></g></g></g><g><g><g><circle cx="377.435" cy="147.757" fill="#01eca5" r="64.738"/><g fill="#2d58e0"><path d="m106.19 190.847v-25.761c0-2.762-2.238-5-5-5s-5 2.238-5 5v25.761z"/><path d="m91.144 190.847v-39.357c0-2.762-2.238-5-5-5s-5 2.238-5 5v39.357z"/></g></g></g><g><path d="m404.73 135.092c0-15.331-12.64-27.71-28.068-27.284-14.668.405-26.463 12.499-26.522 27.172-.023 5.811 1.77 11.202 4.844 15.638 3.546 5.116 6.647 10.526 9.217 16.196l11.256 24.84c.77 1.7 3.185 1.7 3.955 0l11.342-25.029c2.559-5.646 5.697-11.001 9.204-16.113 3.01-4.387 4.772-9.698 4.772-15.42z" fill="#ff7eb8"/><ellipse cx="377.34" cy="135.294" fill="#fff" rx="15.77" ry="15.77" transform="matrix(.16 -.987 .987 .16 183.35 486.089)"/></g></g></g><g><path d="m481.549 378.983v11.413c-.439 0-.867-.045-1.306-.147l-51.145-12.257c-2.578-.608-5.29-.608-7.868 0l-45.9 10.997c-4.288 1.024-8.813 1.024-13.101 0l-45.9-10.997c-2.577-.608-5.29-.608-7.868 0l-45.9 10.997c-4.288 1.024-8.813 1.024-13.101 0l-45.911-10.997c-2.566-.608-5.29-.608-7.856 0l-45.9 10.997c-4.288 1.024-8.824 1.024-13.113 0l-45.9-10.997c-2.578-.608-5.301-.608-7.868 0l-51.155 12.258c-.439.101-.878.158-1.306.158v-11.424l49.839-11.931c4.288-1.024 8.824-1.024 13.101 0l45.911 10.997c2.577.608 5.29.608 7.868 0l45.9-10.997c4.288-1.024 8.813-1.024 13.101 0l45.9 10.997c2.578.608 5.301.608 7.868 0l45.9-10.997c4.288-1.024 8.824-1.024 13.113 0l45.9 10.997c2.566.608 5.29.608 7.856 0l45.9-10.997c4.288-1.024 8.824-1.024 13.113 0z" fill="#b7c5ff"/></g></g><circle cx="377.435" cy="147.757" fill="url(#SVGID_2_)" r="64.738"/><path d="m148.58 155.174c-1.279 0-2.56-.488-3.535-1.465l-5.965-5.964-5.965 5.964c-1.951 1.953-5.119 1.953-7.07 0-1.953-1.952-1.953-5.118 0-7.07l9.5-9.5c1.951-1.953 5.119-1.953 7.07 0l9.5 9.5c1.953 1.952 1.953 5.118 0 7.07-.975.977-2.256 1.465-3.535 1.465z" fill="#ff7eb8"/><path d="m180.147 116.773c-1.279 0-2.56-.488-3.535-1.465l-5.965-5.964-5.965 5.964c-1.951 1.953-5.119 1.953-7.07 0-1.953-1.952-1.953-5.118 0-7.07l9.5-9.5c1.951-1.953 5.119-1.953 7.07 0l9.5 9.5c1.953 1.952 1.953 5.118 0 7.07-.975.976-2.255 1.465-3.535 1.465z" fill="#00eca2"/></g><path d="m468.328 217.223c-3.713 0-7.426-1.413-10.252-4.24-5.653-5.653-5.653-14.852 0-20.505 5.652-5.655 14.852-5.653 20.505 0 5.654 5.653 5.654 14.852 0 20.505-2.826 2.827-6.539 4.24-10.253 4.24zm0-18.991c-1.151 0-2.304.438-3.182 1.316-1.754 1.755-1.754 4.609 0 6.364 1.757 1.755 4.609 1.753 6.364 0 1.754-1.755 1.754-4.609 0-6.364-.877-.877-2.03-1.316-3.182-1.316z" fill="#ff7eb8"/><path d="m481.549 362.978v56.469c0 6.216-5.039 11.255-11.256 11.255h-428.587c-6.216 0-11.256-5.039-11.256-11.255v-56.469l51.145-12.257c3.455-.822 7.046-.822 10.49 0l45.911 10.996c3.444.822 7.035.822 10.479 0l45.9-10.996c3.444-.822 7.046-.822 10.49 0l45.9 10.996c3.444.822 7.035.822 10.49 0l45.889-10.996c3.456-.822 7.046-.822 10.49 0l45.9 10.996c3.444.822 7.035.822 10.49 0l45.9-10.996c3.444-.822 7.035-.822 10.479 0z" fill="url(#SVGID_3_)"/></g></svg>