<svg id="Capa_1" enable-background="new 0 0 512 512" height="512" viewBox="0 0 512 512" width="512" xmlns="http://www.w3.org/2000/svg" xmlns:xlink="http://www.w3.org/1999/xlink"><linearGradient id="SVGID_1_" gradientUnits="userSpaceOnUse" x1="32.686" x2="399.686" y1="204.462" y2="272.462"><stop offset=".0112" stop-color="#dafced"/><stop offset=".3814" stop-color="#e7f0ed"/><stop offset="1" stop-color="#ffd9ec"/></linearGradient><linearGradient id="SVGID_2_" gradientUnits="userSpaceOnUse" x1="256" x2="256" y1="32.46" y2="479.54"><stop offset=".0028" stop-color="#ff7eb8" stop-opacity="0"/><stop offset="1" stop-color="#ff7eb8" stop-opacity=".6"/></linearGradient><g><g><path d="m501.873 133.166c-22.357-56.888-91.226-91.003-149.556-68.427-66.582 25.77-44.506 131.673-104.983 153.088-32.669 11.568-80.962-31.644-113.969-38.27-60.821-12.21-115.881 30.705-129.439 90.134-13.832 60.63 8.353 141.61 74.967 158.066 79.35 19.603 120.683-51.729 187.249-72.211 68.311-21.019 144.263 28.622 200.814-31.776 41.78-44.621 57.055-134.272 34.917-190.604z" fill="url(#SVGID_1_)"/></g><g><g><g><g><path d="m333.495 256 75.6-146.693c2.12-4.113-2.29-8.522-6.402-6.402l-146.693 75.6-146.693-75.6c-4.113-2.119-8.522 2.29-6.402 6.402l75.6 146.693-75.6 146.693c-2.12 4.113 2.29 8.522 6.402 6.402l146.693-75.6 146.693 75.6c4.113 2.12 8.522-2.289 6.402-6.402z" fill="#ff7eb8"/><path d="m356.665 300.956-100.665 15.727-100.665-15.727 23.165-44.956-3.054-5.933 80.554-12.586 80.554 12.586-3.054 5.933z" fill="#ff5ba8"/><path d="m215.313 256-43.265-83.952 83.952 43.266 83.952-43.266-43.266 83.952 43.266 83.952-83.952-43.266-83.952 43.266z" fill="#ffc4df"/><path d="m322.594 306.278-36.82 5.748-29.774-15.346-29.774 15.346-36.831-5.748 25.914-50.278-5.803-11.255 46.494-7.264 46.483 7.264-5.803 11.255z" fill="#ffa8cf"/><path d="m474.929 250.612-218.929-34.215-218.929 34.215c-6.148.961-6.148 9.815 0 10.775l218.929 34.216 218.929-34.216c6.148-.96 6.148-9.814 0-10.775z" fill="#6583fe"/><g><path d="m250.612 37.071-34.215 218.929 34.215 218.929c.961 6.148 9.815 6.148 10.775 0l34.216-218.929-34.215-218.929c-.961-6.148-9.815-6.148-10.776 0z" fill="#8399fe"/><path d="m295.601 256-8.758 56.069c-17.592 15.541-44.094 15.541-61.686 0l-8.758-56.069.742-4.722c1.68-2.541 3.643-4.94 5.878-7.176 18.214-18.213 47.748-18.213 65.961 0 2.236 2.236 4.199 4.635 5.879 7.176z" fill="#6583fe"/></g><circle cx="256" cy="256" fill="#b7c5ff" r="46.641"/></g><ellipse cx="256" cy="256" fill="#d2deff" rx="25.901" ry="25.901" transform="matrix(.955 -.296 .296 .955 -64.296 87.232)"/></g><path d="m459.412 214.816c-1.279 0-2.559-.488-3.535-1.464l-5.965-5.965-5.965 5.965c-1.951 1.951-5.118 1.952-7.071-.001-1.952-1.952-1.952-5.118.001-7.071l9.5-9.499c1.953-1.951 5.117-1.951 7.07 0l9.5 9.499c1.953 1.953 1.953 5.119.001 7.071-.976.977-2.257 1.465-3.536 1.465z" fill="#ff7eb8"/><path d="m104.454 343.992c-1.28 0-2.559-.488-3.536-1.465l-5.964-5.964-5.964 5.964c-1.953 1.953-5.118 1.953-7.071 0-1.953-1.952-1.953-5.118 0-7.07l9.5-9.5c1.953-1.953 5.118-1.953 7.071 0l9.5 9.5c1.953 1.952 1.953 5.118 0 7.07-.977.977-2.257 1.465-3.536 1.465z" fill="#00eca2"/><path d="m434.631 175.896c-1.279 0-2.56-.488-3.535-1.465l-5.965-5.964-5.965 5.964c-1.951 1.953-5.119 1.953-7.07 0-1.953-1.952-1.953-5.118 0-7.07l9.5-9.5c1.951-1.953 5.119-1.953 7.07 0l9.5 9.5c1.953 1.952 1.953 5.118 0 7.07-.976.977-2.256 1.465-3.535 1.465z" fill="#6583fe"/><path d="m304.258 73.501c-3.713 0-7.426-1.413-10.252-4.24-5.653-5.653-5.653-14.852 0-20.505 5.653-5.655 14.854-5.653 20.505 0 5.654 5.653 5.654 14.852 0 20.505-2.826 2.827-6.539 4.24-10.253 4.24zm0-18.991c-1.151 0-2.304.438-3.182 1.316-1.754 1.755-1.754 4.609 0 6.364 1.757 1.755 4.609 1.753 6.364 0 1.754-1.755 1.754-4.609 0-6.364-.878-.877-2.03-1.316-3.182-1.316z" fill="#00eca2"/><path d="m202.911 432.234c-3.713 0-7.427-1.413-10.253-4.24-5.653-5.653-5.653-14.852 0-20.505s14.853-5.654 20.506 0c5.653 5.653 5.653 14.852 0 20.505-2.827 2.827-6.541 4.24-10.253 4.24zm-.001-18.99c-1.152 0-2.305.438-3.182 1.315-1.754 1.755-1.754 4.609 0 6.364 1.754 1.754 4.61 1.753 6.364 0 1.754-1.755 1.754-4.609 0-6.364-.877-.877-2.029-1.315-3.182-1.315z" fill="#6583fe"/></g></g><path d="m474.929 250.612-184.679-28.862-28.862-184.679c-.961-6.148-9.815-6.148-10.775 0l-28.863 184.679-184.679 28.862c-6.148.961-6.148 9.815 0 10.775l184.679 28.863 28.863 184.679c.961 6.148 9.815 6.148 10.775 0l28.862-184.679 184.679-28.863c6.148-.96 6.148-9.814 0-10.775z" fill="url(#SVGID_2_)"/></g></svg>