<svg id="Capa_1" enable-background="new 0 0 512 512" height="512" viewBox="0 0 512 512" width="512" xmlns="http://www.w3.org/2000/svg" xmlns:xlink="http://www.w3.org/1999/xlink"><linearGradient id="SVGID_1_" gradientUnits="userSpaceOnUse" x1="195.32" x2="322.32" y1="74.795" y2="445.794"><stop offset=".0112" stop-color="#dafced"/><stop offset=".3814" stop-color="#e7f0ed"/><stop offset="1" stop-color="#ffd9ec"/></linearGradient><linearGradient id="SVGID_2_" gradientUnits="userSpaceOnUse" x1="256" x2="256" y1="120.481" y2="401.845"><stop offset=".0028" stop-color="#ff7eb8" stop-opacity="0"/><stop offset="1" stop-color="#ff7eb8" stop-opacity=".6"/></linearGradient><g><g><path d="m501.873 137.469c-22.357-56.888-91.226-91.003-149.556-68.427-66.582 25.769-44.506 131.673-104.983 153.088-32.669 11.568-80.962-31.644-113.969-38.27-60.821-12.21-115.881 30.705-129.439 90.134-13.832 60.629 8.353 141.61 74.967 158.066 79.35 19.602 120.683-51.729 187.249-72.211 68.311-21.019 144.263 28.622 200.814-31.776 41.78-44.621 57.055-134.272 34.917-190.604z" fill="url(#SVGID_1_)"/></g><g><g><g><g fill="#00d890"><path d="m285.751 129.647 18.078-18.078c4.134-4.134 4.134-10.837 0-14.971-4.134-4.134-10.837-4.134-14.971 0l-33.049 33.049z"/><path d="m226.249 129.647h29.941l-33.049-33.049c-4.134-4.134-10.837-4.134-14.971 0-4.134 4.134-4.134 10.837 0 14.971z"/></g><g><g><path d="m447.943 401.845h-383.886c-2.762 0-5-2.238-5-5v-60.341c0-2.761 2.238-5 5-5h383.886c2.761 0 5 2.239 5 5v60.341c0 2.762-2.239 5-5 5z" fill="#b7c5ff"/><g><path d="m100.448 331.504h29.637v70.036h-29.637z" fill="#01eca5"/><path d="m130.085 331.504h29.638v70.036h-29.638z" fill="#ff5ba8"/></g><path d="m452.94 350.655v46.19c0 2.761-2.239 5-5 5h-383.88c-2.761 0-5-2.239-5-5v-46.19h166.692c2.422 0 4.531 1.731 4.918 4.122 1.973 12.209 12.564 21.528 25.331 21.528s23.358-9.319 25.33-21.528c.386-2.391 2.496-4.122 4.918-4.122z" fill="#d2deff"/><g><path d="m100.448 350.655h29.637v51.19h-29.637z" fill="#02ffb3"/><path d="m130.085 350.655h29.638v51.19h-29.638z" fill="#ff7eb8"/></g><g><path d="m165.077 377.104h-76.519c-2.762 0-5-2.239-5-5s2.238-5 5-5h76.519c2.762 0 5 2.239 5 5s-2.238 5-5 5z" fill="#fff"/></g><g><path d="m424.524 377.104h-6.52c-2.762 0-5-2.239-5-5s2.238-5 5-5h6.52c2.762 0 5 2.239 5 5s-2.239 5-5 5z" fill="#fff"/></g><g><path d="m397.973 377.104h-61.52c-2.762 0-5-2.239-5-5s2.238-5 5-5h61.52c2.762 0 5 2.239 5 5s-2.238 5-5 5z" fill="#fff"/></g></g><g><path d="m447.943 331.504h-383.886c-2.762 0-5-2.238-5-5v-60.341c0-2.762 2.238-5 5-5h383.886c2.761 0 5 2.238 5 5v60.341c0 2.762-2.239 5-5 5z" fill="#b7c5ff"/><g><path d="m100.448 261.163h29.637v70.036h-29.637z" fill="#01eca5"/><path d="m130.085 261.163h29.638v70.036h-29.638z" fill="#ff5ba8"/></g><path d="m452.94 280.314v46.19c0 2.761-2.239 5-5 5h-383.88c-2.761 0-5-2.239-5-5v-46.19h166.692c2.422 0 4.531 1.731 4.918 4.122 1.973 12.209 12.564 21.528 25.331 21.528s23.358-9.319 25.33-21.528c.386-2.391 2.496-4.122 4.918-4.122z" fill="#d2deff"/><g><path d="m100.448 280.314h29.637v51.19h-29.637z" fill="#02ffb3"/><path d="m130.085 280.314h29.638v51.19h-29.638z" fill="#ff7eb8"/></g><g><path d="m165.077 306.763h-76.519c-2.762 0-5-2.239-5-5s2.238-5 5-5h76.519c2.762 0 5 2.239 5 5s-2.238 5-5 5z" fill="#fff"/></g><g><path d="m424.524 306.763h-6.52c-2.762 0-5-2.239-5-5s2.238-5 5-5h6.52c2.762 0 5 2.239 5 5s-2.239 5-5 5z" fill="#fff"/></g><g><path d="m397.973 306.763h-61.52c-2.762 0-5-2.239-5-5s2.238-5 5-5h61.52c2.762 0 5 2.239 5 5s-2.238 5-5 5z" fill="#fff"/></g></g><g><path d="m447.943 261.163h-383.886c-2.762 0-5-2.239-5-5v-60.341c0-2.761 2.238-5 5-5h383.886c2.761 0 5 2.239 5 5v60.341c0 2.762-2.239 5-5 5z" fill="#b7c5ff"/><g><path d="m100.448 190.822h29.637v70.036h-29.637z" fill="#01eca5"/><path d="m130.085 190.822h29.638v70.036h-29.638z" fill="#ff5ba8"/></g><path d="m452.94 209.973v46.19c0 2.762-2.239 5-5 5h-383.88c-2.761 0-5-2.238-5-5v-46.19h166.692c2.422 0 4.531 1.731 4.918 4.122 1.973 12.209 12.564 21.528 25.331 21.528s23.358-9.319 25.33-21.528c.386-2.391 2.496-4.122 4.918-4.122z" fill="#d2deff"/><g><path d="m100.448 209.973h29.637v51.191h-29.637z" fill="#02ffb3"/><path d="m130.085 209.973h29.638v51.191h-29.638z" fill="#ff7eb8"/></g><g><path d="m165.077 236.422h-76.519c-2.762 0-5-2.239-5-5s2.238-5 5-5h76.519c2.762 0 5 2.239 5 5s-2.238 5-5 5z" fill="#fff"/></g><g><path d="m424.524 236.422h-6.52c-2.762 0-5-2.239-5-5s2.238-5 5-5h6.52c2.762 0 5 2.239 5 5s-2.239 5-5 5z" fill="#fff"/></g><g><path d="m397.973 236.422h-61.52c-2.762 0-5-2.239-5-5s2.238-5 5-5h61.52c2.762 0 5 2.239 5 5s-2.238 5-5 5z" fill="#fff"/></g></g><g><path d="m447.943 190.822h-383.886c-2.762 0-5-2.239-5-5v-60.341c0-2.761 2.238-5 5-5h383.886c2.761 0 5 2.239 5 5v60.341c0 2.761-2.239 5-5 5z" fill="#b7c5ff"/><g><path d="m100.448 120.481h29.637v70.036h-29.637z" fill="#01eca5"/><path d="m130.085 120.481h29.638v70.036h-29.638z" fill="#ff5ba8"/></g><path d="m452.94 139.628v46.19c0 2.76-2.24 5-5 5h-383.88c-2.76 0-5-2.24-5-5v-46.19h166.69c2.42 0 4.53 1.73 4.92 4.13 1.97 12.2 12.56 21.52 25.33 21.52s23.36-9.32 25.33-21.52c.39-2.4 2.5-4.13 4.92-4.13z" fill="#d2deff"/><path d="m452.94 139.628v38.02c-9.09 6.01-19.98 9.51-31.68 9.51-28.36 0-51.92-20.53-56.64-47.53z" fill="#b7c5ff"/><g><path d="m100.448 139.631h29.637v51.187h-29.637z" fill="#02ffb3"/><path d="m130.085 139.631h29.638v51.254h-29.638z" fill="#ff7eb8"/></g><g><path d="m165.077 166.081h-76.519c-2.762 0-5-2.239-5-5s2.238-5 5-5h76.519c2.762 0 5 2.239 5 5s-2.238 5-5 5z" fill="#fff"/></g><g><path d="m424.524 166.081h-6.52c-2.762 0-5-2.239-5-5s2.238-5 5-5h6.52c2.762 0 5 2.239 5 5s-2.239 5-5 5z" fill="#fff"/></g><g><path d="m402.97 161.078c0 2.76-2.24 5-5 5h-61.52c-2.76 0-5-2.24-5-5s2.24-5 5-5h61.52c2.76 0 5 2.24 5 5z" fill="#fff"/></g><path d="m452.943 185.822v-60.341c0-2.761-2.239-5-5-5h-383.886c-2.762 0-5 2.239-5 5v60.341c0 2.761 2.238 5 5 5-2.762 0-5 2.239-5 5v60.341c0 2.761 2.238 5 5 5-2.762 0-5 2.239-5 5v60.341c0 2.762 2.238 5 5 5-2.762 0-5 2.238-5 5v60.341c0 2.761 2.238 5 5 5h383.886c2.761 0 5-2.239 5-5v-60.341c0-2.762-2.239-5-5-5 2.761 0 5-2.238 5-5v-60.341c0-2.761-2.239-5-5-5 2.761 0 5-2.239 5-5v-60.341c0-2.761-2.239-5-5-5 2.761 0 5-2.239 5-5z" fill="url(#SVGID_2_)"/><path d="m402.97 161.078c0 2.76-2.24 5-5 5h-21.2c-2.53-3.08-4.74-6.43-6.59-10h27.79c2.76 0 5 2.24 5 5z" fill="#d2deff"/></g></g><g><path d="m256 413.941c-5.846 0-10.586-4.74-10.586-10.586v-284.384c0-5.846 4.74-10.586 10.586-10.586 5.846 0 10.586 4.74 10.586 10.586v284.385c0 5.846-4.74 10.585-10.586 10.585z" fill="#02ffb3"/></g></g><g><ellipse cx="421.264" cy="111.572" fill="#01eca5" rx="57.517" ry="57.517" transform="matrix(.707 -.707 .707 .707 44.492 330.557)"/><g><path d="m445.514 100.319c0-13.621-11.23-24.619-24.937-24.241-13.031.36-23.511 11.104-23.563 24.141-.021 5.163 1.573 9.952 4.304 13.894 3.15 4.546 5.906 9.352 8.189 14.389l10 22.069c.684 1.511 2.83 1.511 3.514 0l10.077-22.237c2.273-5.016 5.062-9.774 8.177-14.315 2.674-3.898 4.239-8.616 4.239-13.7z" fill="#ff7eb8"/><ellipse cx="421.179" cy="100.499" fill="#fff" rx="14.011" ry="14.011" transform="matrix(.244 -.97 .97 .244 220.922 484.411)"/></g></g><path d="m320.596 72.625c-1.28 0-2.559-.488-3.536-1.465l-5.964-5.964-5.964 5.964c-1.953 1.953-5.118 1.953-7.071 0-1.953-1.952-1.953-5.118 0-7.07l9.5-9.5c1.953-1.953 5.118-1.953 7.071 0l9.5 9.5c1.953 1.952 1.953 5.118 0 7.07-.977.976-2.256 1.465-3.536 1.465z" fill="#6583fe"/><path d="m230.63 458.875c-1.28 0-2.559-.488-3.536-1.465l-5.964-5.964-5.964 5.964c-1.953 1.953-5.118 1.953-7.071 0-1.953-1.952-1.953-5.118 0-7.07l9.5-9.5c1.953-1.953 5.118-1.953 7.071 0l9.5 9.5c1.953 1.952 1.953 5.118 0 7.07-.977.977-2.256 1.465-3.536 1.465z" fill="#6583fe"/><path d="m194.58 439.609c-1.28 0-2.559-.488-3.536-1.465l-5.964-5.964-5.964 5.964c-1.953 1.953-5.118 1.953-7.071 0-1.953-1.952-1.953-5.118 0-7.07l9.5-9.5c1.953-1.953 5.118-1.953 7.071 0l9.5 9.5c1.953 1.952 1.953 5.118 0 7.07-.977.977-2.257 1.465-3.536 1.465z" fill="#ff7eb8"/><g fill="#00eca2"><path d="m159.723 100.117c-3.713 0-7.427-1.413-10.253-4.24-5.653-5.653-5.653-14.852 0-20.505 5.653-5.654 14.853-5.654 20.506 0 5.653 5.653 5.653 14.852 0 20.505-2.827 2.827-6.54 4.24-10.253 4.24zm0-18.991c-1.152 0-2.305.438-3.182 1.315-1.754 1.755-1.754 4.609 0 6.364 1.753 1.754 4.609 1.753 6.364 0 1.754-1.755 1.754-4.609 0-6.364-.877-.876-2.03-1.315-3.182-1.315z"/><path d="m478.781 205.315c-3.713 0-7.426-1.413-10.253-4.24-5.653-5.653-5.653-14.852 0-20.505 2.738-2.739 6.38-4.248 10.253-4.248 3.874 0 7.515 1.509 10.253 4.248 5.653 5.653 5.653 14.852 0 20.505-2.827 2.827-6.54 4.24-10.253 4.24zm0-18.993c-1.202 0-2.332.468-3.181 1.318-1.755 1.755-1.755 4.609 0 6.364 1.753 1.754 4.609 1.754 6.364 0 1.754-1.755 1.754-4.609 0-6.364-.851-.85-1.981-1.318-3.183-1.318z"/></g></g></g></g></svg>