<svg id="Capa_1" enable-background="new 0 0 512 512" height="512" viewBox="0 0 512 512" width="512" xmlns="http://www.w3.org/2000/svg" xmlns:xlink="http://www.w3.org/1999/xlink"><linearGradient id="SVGID_1_" gradientUnits="userSpaceOnUse" x1="420.853" x2="181.854" y1="86.816" y2="457.816"><stop offset=".0112" stop-color="#dafced"/><stop offset=".3814" stop-color="#e7f0ed"/><stop offset="1" stop-color="#ffd9ec"/></linearGradient><linearGradient id="lg1"><stop offset=".0028" stop-color="#ff7eb8" stop-opacity="0"/><stop offset="1" stop-color="#ff7eb8" stop-opacity=".6"/></linearGradient><linearGradient id="SVGID_2_" gradientUnits="userSpaceOnUse" x1="177.586" x2="177.586" xlink:href="#lg1" y1="258.962" y2="415.791"/><linearGradient id="SVGID_3_" gradientUnits="userSpaceOnUse" x1="334.414" x2="334.414" xlink:href="#lg1" y1="258.962" y2="415.791"/><linearGradient id="SVGID_4_" gradientUnits="userSpaceOnUse" x1="177.586" x2="177.586" xlink:href="#lg1" y1="102.134" y2="258.962"/><linearGradient id="SVGID_5_" gradientUnits="userSpaceOnUse" x1="334.414" x2="334.414" xlink:href="#lg1" y1="102.134" y2="258.962"/><g><g><path d="m364.823 60.395c-69.098-27.035-164.784-16.764-217.662 31.51-37.336 34.085-8.439 43.8 17.016 106.17 18.423 45.14-164.177 38.927-164.177 120.495 0 94.299 132.251 76.423 181.329 87.218 75.036 16.504 140.496 78.242 220.668 70.103 69.795-7.086 96.403-61.855 106.109-124.642 18.082-116.976-26.329-245.094-143.283-290.854z" fill="url(#SVGID_1_)"/></g><g><g><g><g><g fill="#8399fe"><path d="m87.687 467.501h-23.796c-2.761 0-5-2.239-5-5v-28.796h33.796v28.796c0 2.761-2.239 5-5 5z"/><path d="m267.898 467.501h-23.796c-2.761 0-5-2.239-5-5v-28.796h33.796v28.796c0 2.761-2.239 5-5 5z"/><path d="m448.109 467.501h-23.796c-2.761 0-5-2.239-5-5v-28.796h33.796v28.796c0 2.761-2.239 5-5 5z"/></g><path d="m459.366 443.705h-406.732c-2.761 0-5-2.239-5-5v-17.914c0-2.762 2.239-5 5-5h406.732c2.761 0 5 2.238 5 5v17.914c0 2.761-2.239 5-5 5z" fill="#d2deff"/></g></g></g><g><g><g><path d="m246 415.791h-136.828c-5.523 0-10-4.477-10-10v-136.829c0-5.523 4.477-10 10-10h136.828c5.523 0 10 4.477 10 10v136.828c0 5.523-4.477 10.001-10 10.001z" fill="#ffa8cf"/><path d="m192.324 293.323h-29.477c-2.761 0-5-2.239-5-5v-29.36h39.477v29.36c0 2.761-2.239 5-5 5z" fill="#6583fe"/></g><g><g><path d="m148.294 316.029h58.583c2.761 0 5-2.239 5-5s-2.239-5-5-5h-58.583c-2.761 0-5 2.239-5 5s2.239 5 5 5z" fill="#ff5ba8"/></g><g><path d="m163.294 336.35h28.583c2.761 0 5-2.239 5-5s-2.239-5-5-5h-28.583c-2.761 0-5 2.239-5 5s2.239 5 5 5z" fill="#ff5ba8"/></g><g><path d="m163.294 353.672h28.583c2.761 0 5-2.239 5-5s-2.239-5-5-5h-28.583c-2.761 0-5 2.239-5 5s2.239 5 5 5z" fill="#ff5ba8"/></g></g><path d="m150.717 398.074h-22.134c-2.761 0-5-2.239-5-5v-7.154c0-2.761 2.239-5 5-5h22.134c2.761 0 5 2.239 5 5v7.154c0 2.762-2.238 5-5 5z" fill="#02ffb3"/><g fill="#ff5ba8"><circle cx="170.572" cy="389.497" r="8.577"/><circle cx="192.231" cy="389.497" r="8.577"/></g></g><g><g><path d="m402.828 415.791h-136.828c-5.523 0-10-4.477-10-10v-136.829c0-5.523 4.477-10 10-10h136.828c5.523 0 10 4.477 10 10v136.828c0 5.523-4.477 10.001-10 10.001z" fill="#ffa8cf"/><path d="m349.152 293.323h-29.477c-2.761 0-5-2.239-5-5v-29.36h39.477v29.36c0 2.761-2.238 5-5 5z" fill="#6583fe"/></g><g><g><path d="m305.123 316.029h58.583c2.761 0 5-2.239 5-5s-2.239-5-5-5h-58.583c-2.761 0-5 2.239-5 5s2.238 5 5 5z" fill="#ff5ba8"/></g><g><path d="m320.123 336.35h28.583c2.761 0 5-2.239 5-5s-2.239-5-5-5h-28.583c-2.761 0-5 2.239-5 5s2.238 5 5 5z" fill="#ff5ba8"/></g><g><path d="m320.123 353.672h28.583c2.761 0 5-2.239 5-5s-2.239-5-5-5h-28.583c-2.761 0-5 2.239-5 5s2.238 5 5 5z" fill="#ff5ba8"/></g></g><path d="m307.546 398.074h-22.134c-2.761 0-5-2.239-5-5v-7.154c0-2.761 2.239-5 5-5h22.134c2.761 0 5 2.239 5 5v7.154c0 2.762-2.239 5-5 5z" fill="#02ffb3"/><g fill="#ff5ba8"><circle cx="327.4" cy="389.497" r="8.577"/><circle cx="349.06" cy="389.497" r="8.577"/></g></g><g><g><path d="m246 258.962h-136.828c-5.523 0-10-4.477-10-10v-136.828c0-5.523 4.477-10 10-10h136.828c5.523 0 10 4.477 10 10v136.828c0 5.523-4.477 10-10 10z" fill="#ffa8cf"/><path d="m192.324 136.494h-29.477c-2.761 0-5-2.239-5-5v-29.36h39.477v29.36c0 2.762-2.239 5-5 5z" fill="#6583fe"/></g><g><g><path d="m148.294 159.2h58.583c2.761 0 5-2.239 5-5s-2.239-5-5-5h-58.583c-2.761 0-5 2.239-5 5s2.239 5 5 5z" fill="#ff5ba8"/></g><g><path d="m163.294 179.522h28.583c2.761 0 5-2.239 5-5s-2.239-5-5-5h-28.583c-2.761 0-5 2.239-5 5s2.239 5 5 5z" fill="#ff5ba8"/></g><g><path d="m163.294 196.843h28.583c2.761 0 5-2.239 5-5s-2.239-5-5-5h-28.583c-2.761 0-5 2.239-5 5s2.239 5 5 5z" fill="#ff5ba8"/></g></g><path d="m150.717 241.246h-22.134c-2.761 0-5-2.239-5-5v-7.154c0-2.761 2.239-5 5-5h22.134c2.761 0 5 2.239 5 5v7.154c0 2.761-2.238 5-5 5z" fill="#02ffb3"/><g fill="#ff5ba8"><circle cx="170.572" cy="232.669" r="8.577"/><circle cx="192.231" cy="232.669" r="8.577"/></g></g><g><g><path d="m402.828 258.962h-136.828c-5.523 0-10-4.477-10-10v-136.828c0-5.523 4.477-10 10-10h136.828c5.523 0 10 4.477 10 10v136.828c0 5.523-4.477 10-10 10z" fill="#ffa8cf"/><path d="m349.152 136.494h-29.477c-2.761 0-5-2.239-5-5v-29.36h39.477v29.36c0 2.762-2.238 5-5 5z" fill="#6583fe"/></g><g><g><path d="m305.123 159.2h58.583c2.761 0 5-2.239 5-5s-2.239-5-5-5h-58.583c-2.761 0-5 2.239-5 5s2.238 5 5 5z" fill="#ff5ba8"/></g><g><path d="m320.123 179.522h28.583c2.761 0 5-2.239 5-5s-2.239-5-5-5h-28.583c-2.761 0-5 2.239-5 5s2.238 5 5 5z" fill="#ff5ba8"/></g><g><path d="m320.123 196.843h28.583c2.761 0 5-2.239 5-5s-2.239-5-5-5h-28.583c-2.761 0-5 2.239-5 5s2.238 5 5 5z" fill="#ff5ba8"/></g></g><path d="m307.546 241.246h-22.134c-2.761 0-5-2.239-5-5v-7.154c0-2.761 2.239-5 5-5h22.134c2.761 0 5 2.239 5 5v7.154c0 2.761-2.239 5-5 5z" fill="#02ffb3"/><g fill="#ff5ba8"><circle cx="327.4" cy="232.669" r="8.577"/><circle cx="349.06" cy="232.669" r="8.577"/></g></g></g><path d="m66.634 227.585c-3.874 0-7.515-1.508-10.253-4.248-5.653-5.653-5.653-14.852 0-20.506 5.653-5.652 14.853-5.653 20.506 0 5.653 5.654 5.653 14.852 0 20.506-2.739 2.74-6.38 4.248-10.253 4.248zm0-18.998c-1.152 0-2.305.439-3.182 1.316-1.755 1.754-1.755 4.609 0 6.364.85.851 1.98 1.318 3.182 1.318s2.332-.468 3.182-1.318c1.755-1.755 1.755-4.61 0-6.364-.877-.878-2.029-1.316-3.182-1.316z" fill="#00eca2"/><path d="m349.982 54.873c-1.279 0-2.559-.488-3.535-1.464l-5.965-5.964-5.965 5.964c-1.951 1.952-5.119 1.952-7.07 0-1.953-1.953-1.953-5.119 0-7.071l9.5-9.5c1.951-1.952 5.119-1.952 7.07 0l9.5 9.5c1.953 1.953 1.953 5.119 0 7.071-.975.976-2.255 1.464-3.535 1.464z" fill="#ff7eb8"/><path d="m454.188 370.665c-3.713 0-7.427-1.414-10.253-4.24-5.654-5.654-5.654-14.853 0-20.506 5.652-5.653 14.853-5.653 20.506 0 5.654 5.654 5.654 14.853 0 20.506-2.827 2.826-6.541 4.24-10.253 4.24zm0-18.991c-1.152 0-2.305.438-3.183 1.316-1.754 1.754-1.754 4.609 0 6.364 1.756 1.755 4.609 1.755 6.365 0 1.754-1.754 1.754-4.609 0-6.364-.878-.878-2.03-1.316-3.182-1.316z" fill="#ff7eb8"/><path d="m458.583 101.609c-3.874 0-7.515-1.508-10.254-4.248-2.738-2.738-4.246-6.379-4.246-10.252s1.508-7.514 4.247-10.253c5.653-5.654 14.853-5.653 20.505 0 2.739 2.739 4.247 6.38 4.247 10.253s-1.508 7.515-4.247 10.253c-2.738 2.739-6.379 4.247-10.252 4.247zm-.001-18.997c-1.151 0-2.304.438-3.182 1.316-.85.85-1.317 1.98-1.317 3.182s.468 2.332 1.317 3.182c.851.851 1.98 1.318 3.183 1.318 1.201 0 2.331-.468 3.181-1.318.851-.85 1.318-1.98 1.318-3.182s-.468-2.332-1.317-3.182c-.878-.878-2.031-1.316-3.183-1.316z" fill="#00eca2"/><path d="m463.688 136.495c-1.279 0-2.56-.488-3.535-1.464l-5.965-5.964-5.965 5.964c-1.951 1.952-5.119 1.952-7.07 0-1.953-1.953-1.953-5.119 0-7.071l9.5-9.5c1.951-1.952 5.119-1.952 7.07 0l9.5 9.5c1.953 1.953 1.953 5.119 0 7.071-.976.975-2.256 1.464-3.535 1.464z" fill="#6583fe"/></g><path d="m246 415.791h-136.828c-5.523 0-10-4.477-10-10v-136.829c0-5.523 4.477-10 10-10h136.828c5.523 0 10 4.477 10 10v136.828c0 5.523-4.477 10.001-10 10.001z" fill="url(#SVGID_2_)"/><path d="m402.828 415.791h-136.828c-5.523 0-10-4.477-10-10v-136.829c0-5.523 4.477-10 10-10h136.828c5.523 0 10 4.477 10 10v136.828c0 5.523-4.477 10.001-10 10.001z" fill="url(#SVGID_3_)"/><path d="m246 258.962h-136.828c-5.523 0-10-4.477-10-10v-136.828c0-5.523 4.477-10 10-10h136.828c5.523 0 10 4.477 10 10v136.828c0 5.523-4.477 10-10 10z" fill="url(#SVGID_4_)"/><path d="m402.828 258.962h-136.828c-5.523 0-10-4.477-10-10v-136.828c0-5.523 4.477-10 10-10h136.828c5.523 0 10 4.477 10 10v136.828c0 5.523-4.477 10-10 10z" fill="url(#SVGID_5_)"/></g></svg>