<svg id="Capa_1" enable-background="new 0 0 512 512" height="512" viewBox="0 0 512 512" width="512" xmlns="http://www.w3.org/2000/svg" xmlns:xlink="http://www.w3.org/1999/xlink"><linearGradient id="SVGID_1_" gradientUnits="userSpaceOnUse" x1="513.711" x2="123.732" y1="104.167" y2="413.15"><stop offset="0" stop-color="#c6d1ff"/><stop offset=".5834" stop-color="#e6d5f4"/><stop offset=".997" stop-color="#ffd9ec"/></linearGradient><linearGradient id="SVGID_2_" gradientUnits="userSpaceOnUse" x1="256" x2="256" y1="40.806" y2="287.496"><stop offset=".0028" stop-color="#ff7eb8" stop-opacity="0"/><stop offset="1" stop-color="#ff7eb8" stop-opacity=".6"/></linearGradient><g><g><path d="m364.823 58.767c-69.098-27.035-164.784-16.764-217.662 31.51-37.336 34.085-8.439 43.8 17.016 106.17 18.423 45.14-164.177 38.927-164.177 120.495 0 94.299 132.251 76.424 181.329 87.218 75.036 16.504 140.496 78.242 220.668 70.103 69.795-7.086 96.403-61.855 106.109-124.642 18.082-116.975-26.329-245.094-143.283-290.854z" fill="url(#SVGID_1_)"/></g><g><g><path d="m243.77 307.395h24.46v129.44h-24.46z" fill="#d2deff"/><path d="m268.23 307.395v25.67c-3.78 1.53-7.91 2.38-12.23 2.38s-8.45-.85-12.23-2.38v-25.67z" fill="#b7c5ff"/><circle cx="256" cy="285.573" fill="#8399fe" r="32.472"/><path d="m288.47 285.575c0 5.48-1.36 10.64-3.76 15.17-9.15 2.49-18.77 3.82-28.71 3.82s-19.56-1.33-28.71-3.82c-2.4-4.53-3.76-9.69-3.76-15.17 0-17.94 14.54-32.47 32.47-32.47s32.47 14.53 32.47 32.47z" fill="#6583fe"/><g><path d="m256 287.496c-60.357 0-109.285-48.929-109.285-109.285v-127.406c0-5.523 4.477-10 10-10h198.571c5.523 0 10 4.477 10 10v127.405c-.001 60.357-48.929 109.286-109.286 109.286z" fill="#b7c5ff"/><path d="m365.29 99.115v79.1c0 29.86-11.97 56.92-31.4 76.64-9.41-3.94-18.23-9.75-25.9-17.42-31.64-31.64-31.64-82.94 0-114.59 15.82-15.82 36.56-23.73 57.3-23.73z" fill="#9fb0fe"/><path d="m341.116 105.968c-51.853 51.929-103.769 103.794-155.633 155.712 8.133 6.876 17.277 12.593 27.188 16.878 50.762-50.913 101.637-101.713 152.615-152.411v-44.42c-8.059 8.078-16.108 16.167-24.17 24.241z" fill="#d2deff"/><path d="m365.29 99.115v27.03c-25.89 25.75-51.76 51.53-77.6 77.34-4.21-14-4.54-28.9-1.01-43.04 18.15-18.16 36.3-36.31 54.44-54.48 1.47-1.47 2.93-2.94 4.39-4.41 6.48-1.63 13.13-2.44 19.78-2.44z" fill="#b7c5ff"/><path d="m228.963 284.122c8.647 2.201 17.705 3.373 27.037 3.373 60.357 0 109.285-48.929 109.285-109.285v-30.41s-97.522 97.523-136.322 136.322z" fill="#d2deff"/><path d="m365.29 147.805v30.41c0 29.86-11.97 56.92-31.4 76.64-9.41-3.94-18.23-9.75-25.9-17.42-5.62-5.62-10.24-11.85-13.85-18.49 36.32-36.31 71.15-71.14 71.15-71.14z" fill="#b7c5ff"/><g><path d="m255.998 40.808-22.984 39.215 8.868 33.767c.326 1.24-.037 2.56-.952 3.458l-36.481 35.874 19.337 43.177c1.665 3.717-3.184 6.881-5.916 3.861l-36.911-40.808c-1.106-1.223-1.233-3.043-.307-4.407l27.97-41.224-25.682-38.036c-.776-1.149-.818-2.644-.107-3.835l18.535-31.045z" fill="#6583fe"/><path d="m241.886 113.79c.325 1.236-.041 2.561-.951 3.455l-36.488 35.879 19.342 43.171c1.667 3.715-3.187 6.886-5.919 3.862l-21.431-23.691-10.455-23.342 36.48-35.879c.919-.894 1.277-2.22.951-3.455l-8.862-33.765 22.984-39.22h18.463l-22.984 39.22z" fill="#4369fd"/></g></g><path d="m316.777 464.401h-121.554c-4.664 0-8.445-3.781-8.445-8.445 0-16.439 13.327-29.766 29.766-29.766h78.91c16.439 0 29.766 13.327 29.766 29.766.001 4.664-3.779 8.445-8.443 8.445z" fill="#9fb0fe"/><path d="m256 287.496c-60.357 0-109.285-48.929-109.285-109.285v-127.406c0-5.523 4.477-10 10-10h198.571c5.523 0 10 4.477 10 10v127.405c-.001 60.357-48.929 109.286-109.286 109.286z" fill="url(#SVGID_2_)"/><g><circle cx="365.286" cy="150.843" fill="#ff5ba8" r="81.028"/><g fill="#fff"><path d="m340.646 197.179 70.979-70.979c10.564 19.841 7.474 45.036-9.235 61.744-16.715 16.716-41.902 19.799-61.744 9.235z"/><path d="m389.932 104.505-70.979 70.979c-10.564-19.841-7.481-45.029 9.235-61.745 16.708-16.708 41.902-19.798 61.744-9.234z"/></g></g><g><g><ellipse cx="172.576" cy="297.387" fill="#02ffb3" rx="57.834" ry="57.834" transform="matrix(.23 -.973 .973 .23 -156.506 397.021)"/></g><g fill="#fff"><path d="m150.118 284.994c.573 0 1.145-.101 1.692-.291v19.691c0 2.85 2.31 5.16 5.161 5.16 2.85 0 5.16-2.311 5.16-5.16v-19.691c1.809.626 3.896.223 5.34-1.221 2.016-2.015 2.016-5.283 0-7.298l-6.848-6.848c-1.922-1.999-5.382-1.998-7.304 0l-6.849 6.848c-2.016 2.015-2.016 5.282-.001 7.298 1.007 1.008 2.329 1.512 3.649 1.512z"/><path d="m183.021 284.704v19.691c0 2.85 2.31 5.16 5.161 5.16 2.85 0 5.16-2.311 5.16-5.16v-19.691c.547.189 1.119.29 1.691.29 1.321 0 2.642-.504 3.649-1.511 2.016-2.015 2.016-5.283 0-7.298l-6.848-6.848c-1.922-1.999-5.382-1.999-7.305-.001l-6.848 6.848c-2.016 2.015-2.016 5.283 0 7.298 1.444 1.445 3.531 1.848 5.34 1.222z"/><path d="m195.033 316.632h-43.906c-2.85 0-5.16 2.311-5.16 5.16 0 2.85 2.31 5.16 5.16 5.16h43.906c2.85 0 5.161-2.311 5.161-5.16s-2.31-5.16-5.161-5.16z"/></g></g></g><path d="m124.742 215.847c-1.279 0-2.56-.488-3.535-1.465l-5.965-5.964-5.965 5.964c-1.951 1.953-5.119 1.953-7.07 0-1.953-1.952-1.953-5.118 0-7.07l9.5-9.5c1.951-1.953 5.119-1.953 7.07 0l9.5 9.5c1.953 1.952 1.953 5.118 0 7.07-.975.977-2.256 1.465-3.535 1.465z" fill="#6583fe"/><path d="m411.34 56.501c-1.279 0-2.56-.488-3.535-1.465l-5.965-5.964-5.965 5.964c-1.951 1.953-5.119 1.953-7.07 0-1.953-1.952-1.953-5.118 0-7.07l9.5-9.5c1.951-1.953 5.119-1.953 7.07 0l9.5 9.5c1.953 1.952 1.953 5.118 0 7.07-.976.977-2.256 1.465-3.535 1.465z" fill="#00eca2"/><path d="m171.215 430.94c-1.279 0-2.559-.488-3.535-1.465l-5.965-5.964-5.965 5.964c-1.951 1.953-5.119 1.953-7.07 0-1.953-1.952-1.953-5.118 0-7.07l9.5-9.5c1.951-1.953 5.119-1.953 7.07 0l9.5 9.5c1.953 1.952 1.953 5.118 0 7.07-.976.977-2.256 1.465-3.535 1.465z" fill="#ff7eb8"/><path d="m324.715 327.795c-1.279 0-2.56-.488-3.535-1.465l-5.965-5.964-5.965 5.964c-1.951 1.953-5.119 1.953-7.07 0-1.953-1.952-1.953-5.118 0-7.07l9.5-9.5c1.951-1.953 5.119-1.953 7.07 0l9.5 9.5c1.953 1.952 1.953 5.118 0 7.07-.976.977-2.256 1.465-3.535 1.465z" fill="#ff7eb8"/><path d="m105.741 180.941c-3.873 0-7.514-1.509-10.253-4.248-2.738-2.737-4.246-6.379-4.246-10.252s1.508-7.515 4.247-10.253c5.651-5.653 14.851-5.655 20.505 0 2.739 2.738 4.248 6.38 4.248 10.253 0 3.874-1.509 7.515-4.249 10.253-2.737 2.738-6.378 4.247-10.252 4.247zm.001-18.998c-1.152 0-2.305.439-3.183 1.316-.85.85-1.317 1.98-1.317 3.183 0 1.202.468 2.331 1.317 3.181.851.852 1.98 1.319 3.182 1.319s2.332-.468 3.182-1.318c.852-.851 1.319-1.98 1.319-3.182s-.468-2.332-1.318-3.182c0 0 0 0 0-.001-.878-.878-2.03-1.316-3.182-1.316z" fill="#00eca2"/></g></g></svg>