<svg id="Capa_1" enable-background="new 0 0 512 512" height="512" viewBox="0 0 512 512" width="512" xmlns="http://www.w3.org/2000/svg" xmlns:xlink="http://www.w3.org/1999/xlink"><linearGradient id="SVGID_1_" gradientUnits="userSpaceOnUse" x1="513.711" x2="123.732" y1="97.631" y2="406.614"><stop offset="0" stop-color="#c6d1ff"/><stop offset=".5834" stop-color="#e6d5f4"/><stop offset=".997" stop-color="#ffd9ec"/></linearGradient><linearGradient id="lg1"><stop offset=".0028" stop-color="#ff7eb8" stop-opacity="0"/><stop offset="1" stop-color="#ff7eb8" stop-opacity=".6"/></linearGradient><linearGradient id="SVGID_2_" gradientUnits="userSpaceOnUse" x1="354.865" x2="354.865" xlink:href="#lg1" y1="349.729" y2="456.267"/><linearGradient id="SVGID_3_" gradientUnits="userSpaceOnUse" x1="172.252" x2="172.252" xlink:href="#lg1" y1="31.74" y2="138.279"/><g><g><path d="m364.822 52.231c-69.098-27.035-164.784-16.764-217.662 31.51-37.336 34.085-8.439 43.8 17.016 106.17 18.424 45.141-164.176 38.928-164.176 120.496 0 94.299 132.251 76.423 181.329 87.218 75.036 16.504 140.496 78.242 220.668 70.103 69.795-7.085 96.403-61.855 106.109-124.642 18.082-116.976-26.329-245.095-143.284-290.855z" fill="url(#SVGID_1_)"/></g><g><g><g><g><path d="m160.367 106.788c0-33.433-27.564-60.428-61.207-59.499-31.986.883-57.708 27.256-57.837 59.254-.051 12.673 3.86 24.428 10.564 34.102 7.732 11.157 14.496 22.954 20.099 35.319l24.546 54.17c1.68 3.708 6.946 3.708 8.626 0l24.733-54.582c5.579-12.313 12.424-23.99 20.071-35.137 6.563-9.568 10.405-21.149 10.405-33.627z" fill="#ff7eb8"/><path d="m160.37 106.788c0 12.48-3.84 24.06-10.41 33.63-3.2 4.67-6.28 9.44-9.17 14.31-13.22-9.69-21.81-25.34-21.81-42.99 0-19.24 10.2-36.09 25.48-45.45 9.87 10.62 15.91 24.86 15.91 40.5z" fill="#ff5ba8"/><ellipse cx="100.636" cy="107.228" fill="#fff" rx="36.573" ry="36.573" transform="matrix(.226 -.974 .974 .226 -26.577 181)"/><path d="m137.21 107.228c0 11.15-4.98 21.13-12.85 27.83-3.45-7.04-5.38-14.95-5.38-23.32 0-10.76 3.19-20.78 8.68-29.15 5.94 6.5 9.55 15.15 9.55 24.64z" fill="#ffdbed"/></g><g><path d="m282.205 328.954c0-24.718-20.379-44.676-45.252-43.989-23.648.653-42.665 20.151-42.76 43.808-.038 9.369 2.854 18.06 7.81 25.212 5.716 8.249 10.717 16.971 14.86 26.112l18.148 40.049c1.242 2.741 5.135 2.741 6.377 0l18.286-40.354c4.125-9.103 9.185-17.737 14.839-25.978 4.852-7.072 7.692-15.634 7.692-24.86z" fill="#ff7eb8"/><circle cx="238.045" cy="329.28" fill="#fff" r="25.425"/></g><g><path d="m454.951 214.007c0-24.718-20.379-44.676-45.252-43.989-23.648.653-42.665 20.151-42.76 43.808-.038 9.369 2.854 18.06 7.81 25.212 5.716 8.249 10.717 16.971 14.86 26.112l18.148 40.049c1.242 2.741 5.135 2.741 6.377 0l18.286-40.354c4.125-9.103 9.185-17.736 14.839-25.978 4.852-7.072 7.692-15.634 7.692-24.86z" fill="#ff7eb8"/><circle cx="410.791" cy="214.333" fill="#fff" r="25.425"/></g><g fill="#4369fd"><g><path d="m177.977 312.255h-6c-2.761 0-5-2.238-5-5s2.239-5 5-5h6c2.761 0 5 2.238 5 5s-2.238 5-5 5z"/><g><path d="m96.441 417.202h-1.661c-3.265 0-6.533-.302-9.712-.897-2.717-.502-5.327 1.281-5.834 3.995-.508 2.715 1.281 5.327 3.995 5.835 3.784.708 7.67 1.066 11.55 1.066h1.661c2.761 0 5-2.238 5-5 .001-2.76-2.237-4.999-4.999-4.999z"/><path d="m71.796 306.619c-4.154 1.645-8.145 3.747-11.862 6.25-2.291 1.542-2.897 4.649-1.354 6.94.966 1.434 2.544 2.208 4.152 2.208.96 0 1.932-.276 2.788-.854 3.12-2.102 6.47-3.866 9.957-5.246 2.567-1.017 3.825-3.922 2.809-6.489-1.017-2.567-3.923-3.822-6.49-2.809z"/><path d="m64.472 407.571c-3.064-2.172-5.904-4.681-8.44-7.457-1.862-2.037-5.025-2.18-7.064-.318-2.039 1.863-2.181 5.025-.319 7.064 3.017 3.302 6.395 6.285 10.04 8.869.878.622 1.887.921 2.887.921 1.566 0 3.109-.733 4.083-2.108 1.597-2.254 1.066-5.375-1.187-6.971z"/><path d="m42.541 369.728c-.26-2.75-2.702-4.776-5.448-4.508-2.749.26-4.767 2.698-4.508 5.447.421 4.462 1.326 8.882 2.688 13.137.68 2.123 2.645 3.477 4.761 3.477.505 0 1.019-.077 1.525-.239 2.63-.842 4.08-3.656 3.237-6.286-1.142-3.572-1.901-7.282-2.255-11.028z"/><path d="m48.373 330.452c-2.354-1.445-5.433-.707-6.877 1.646-2.342 3.817-4.274 7.895-5.742 12.116-.906 2.608.474 5.458 3.082 6.364.543.189 1.097.278 1.641.278 2.07 0 4.005-1.295 4.723-3.359 1.231-3.543 2.853-6.965 4.819-10.169 1.444-2.352.707-5.431-1.646-6.876z"/><path d="m147.265 302.255h-12.356c-2.761 0-5 2.238-5 5s2.239 5 5 5h12.356c2.761 0 5-2.238 5-5s-2.239-5-5-5z"/><path d="m170.579 417.202h-12.356c-2.761 0-5 2.238-5 5s2.239 5 5 5h12.356c2.761 0 5-2.238 5-5 0-2.761-2.239-5-5-5z"/><path d="m207.648 417.202h-12.356c-2.761 0-5 2.238-5 5s2.239 5 5 5h12.356c2.761 0 5-2.238 5-5 0-2.761-2.239-5-5-5z"/><path d="m244.717 417.202h-12.357c-2.761 0-5 2.238-5 5s2.239 5 5 5h12.356c2.761 0 5-2.238 5-5 .001-2.761-2.238-5-4.999-5z"/><path d="m110.196 302.255h-12.356c-2.761 0-5 2.238-5 5s2.239 5 5 5h12.356c2.761 0 5-2.238 5-5s-2.239-5-5-5z"/><path d="m133.51 417.202h-12.357c-2.761 0-5 2.238-5 5s2.239 5 5 5h12.357c2.761 0 5-2.238 5-5 0-2.761-2.239-5-5-5z"/></g><path d="m275.535 427.202h-6c-2.761 0-5-2.238-5-5s2.239-5 5-5h6c2.761 0 5 2.238 5 5s-2.239 5-5 5z"/></g><g><path d="m468.683 254.914c-1.639 0-3.245-.806-4.202-2.283-.94-1.451-2.004-2.836-3.161-4.116-1.852-2.048-1.693-5.21.355-7.061 2.048-1.852 5.209-1.694 7.062.354 1.516 1.676 2.908 3.488 4.137 5.388 1.501 2.318.839 5.414-1.479 6.915-.839.544-1.781.803-2.712.803z"/><g><path d="m341.809 302.255h-12.526c-2.761 0-5 2.238-5 5s2.239 5 5 5h12.526c2.761 0 5-2.238 5-5s-2.239-5-5-5z"/><path d="m379.386 302.255h-12.526c-2.761 0-5 2.238-5 5s2.239 5 5 5h12.526c2.761 0 5-2.238 5-5s-2.239-5-5-5z"/><path d="m416.964 302.255h-12.526c-2.761 0-5 2.238-5 5s2.239 5 5 5h12.526c2.761 0 5-2.238 5-5s-2.238-5-5-5z"/><path d="m474.933 268.841c-2.738-.263-5.197 1.732-5.471 4.479-.361 3.615-1.323 7.112-2.86 10.393-1.171 2.501-.094 5.478 2.407 6.648.686.322 1.407.474 2.118.474 1.88 0 3.681-1.065 4.531-2.88 2.019-4.309 3.282-8.899 3.755-13.643.273-2.747-1.732-5.197-4.48-5.471z"/><path d="m451.722 298.926c-3.247 1.61-6.72 2.65-10.324 3.091-2.741.335-4.692 2.828-4.357 5.569.31 2.535 2.466 4.395 4.957 4.395.203 0 .407-.013.613-.038 4.731-.578 9.292-1.943 13.555-4.058 2.474-1.227 3.484-4.228 2.258-6.701-1.228-2.474-4.226-3.483-6.702-2.258z"/></g><path d="m304.192 312.255h-6c-2.761 0-5-2.238-5-5s2.239-5 5-5h6c2.761 0 5 2.238 5 5s-2.238 5-5 5z"/></g><g><path d="m137.052 237.913h-6c-2.761 0-5-2.238-5-5s2.239-5 5-5h6c2.761 0 5 2.238 5 5s-2.239 5-5 5z"/><path d="m319.894 237.913h-12.19c-2.761 0-5-2.238-5-5s2.239-5 5-5h12.19c2.761 0 5 2.238 5 5s-2.239 5-5 5zm-36.569 0h-12.19c-2.761 0-5-2.238-5-5s2.239-5 5-5h12.19c2.761 0 5 2.238 5 5s-2.239 5-5 5zm-36.568 0h-12.189c-2.761 0-5-2.238-5-5s2.239-5 5-5h12.189c2.761 0 5 2.238 5 5s-2.239 5-5 5zm-36.569 0h-12.189c-2.761 0-5-2.238-5-5s2.239-5 5-5h12.189c2.761 0 5 2.238 5 5s-2.238 5-5 5zm-36.568 0h-12.189c-2.761 0-5-2.238-5-5s2.239-5 5-5h12.189c2.761 0 5 2.238 5 5s-2.239 5-5 5z"/><path d="m350.272 237.913h-6c-2.761 0-5-2.238-5-5s2.239-5 5-5h6c2.761 0 5 2.238 5 5s-2.238 5-5 5z"/></g></g></g><g><circle cx="172.252" cy="85.009" fill="#01eca5" r="53.269"/><path d="m185.239 92.252c3.978-3.57 6.499-8.733 6.499-14.486 0-10.745-8.741-19.486-19.486-19.486s-19.486 8.741-19.486 19.486c0 5.753 2.521 10.916 6.499 14.486-3.978 3.57-6.499 8.733-6.499 14.486 0 2.761 2.239 5 5 5s5-2.239 5-5c0-5.23 4.255-9.486 9.486-9.486 5.23 0 9.486 4.255 9.486 9.486 0 2.761 2.239 5 5 5s5-2.239 5-5c0-5.753-2.521-10.916-6.499-14.486zm-22.473-14.486c0-5.23 4.255-9.486 9.486-9.486 5.23 0 9.486 4.255 9.486 9.486s-4.255 9.486-9.486 9.486-9.486-4.255-9.486-9.486z" fill="#fff"/></g><g><ellipse cx="354.865" cy="402.998" fill="#6583fe" rx="53.269" ry="53.269" transform="matrix(.707 -.707 .707 .707 -181.025 368.963)"/><path d="m367.852 410.241c3.978-3.57 6.499-8.733 6.499-14.486 0-10.745-8.741-19.486-19.486-19.486s-19.486 8.741-19.486 19.486c0 5.753 2.521 10.916 6.499 14.486-3.978 3.57-6.499 8.733-6.499 14.486 0 2.761 2.239 5 5 5s5-2.239 5-5c0-5.23 4.255-9.486 9.486-9.486 5.23 0 9.486 4.255 9.486 9.486 0 2.761 2.239 5 5 5s5-2.239 5-5c0-5.753-2.521-10.916-6.499-14.486zm-22.472-14.486c0-5.23 4.255-9.486 9.486-9.486 5.23 0 9.486 4.255 9.486 9.486s-4.255 9.486-9.486 9.486-9.486-4.255-9.486-9.486z" fill="#fff"/></g></g><path d="m244.521 190.615c-1.28 0-2.559-.488-3.536-1.465l-5.964-5.964-5.964 5.964c-1.953 1.953-5.118 1.953-7.071 0-1.953-1.952-1.953-5.118 0-7.07l9.5-9.5c1.953-1.953 5.118-1.953 7.071 0l9.5 9.5c1.953 1.952 1.953 5.118 0 7.07-.977.977-2.256 1.465-3.536 1.465z" fill="#ff7eb8"/><path d="m272.97 148.029c-1.28 0-2.559-.488-3.536-1.465l-5.964-5.964-5.964 5.964c-1.953 1.953-5.118 1.953-7.071 0-1.953-1.952-1.953-5.118 0-7.07l9.5-9.5c1.953-1.953 5.118-1.953 7.071 0l9.5 9.5c1.953 1.952 1.953 5.118 0 7.07-.977.976-2.257 1.465-3.536 1.465z" fill="#6583fe"/><path d="m50.758 231.137c-3.873 0-7.515-1.509-10.254-4.248-5.653-5.653-5.653-14.852 0-20.505s14.853-5.654 20.506 0c5.653 5.653 5.653 14.852 0 20.505-2.737 2.739-6.379 4.248-10.252 4.248zm0-18.998c-1.152 0-2.305.438-3.182 1.315-1.754 1.755-1.754 4.609 0 6.364.85.851 1.98 1.318 3.182 1.318s2.332-.468 3.181-1.318c1.755-1.755 1.755-4.609 0-6.364-.876-.877-2.028-1.315-3.181-1.315z" fill="#00eca2"/><path d="m436.216 480.26c-3.713.001-7.426-1.413-10.253-4.24-5.653-5.653-5.653-14.852 0-20.505 5.653-5.654 14.853-5.654 20.506 0 2.739 2.738 4.247 6.379 4.247 10.253 0 3.873-1.508 7.514-4.247 10.253-2.826 2.826-6.54 4.239-10.253 4.239zm0-18.99c-1.152 0-2.305.439-3.182 1.315-1.754 1.755-1.754 4.609 0 6.364 1.754 1.754 4.609 1.754 6.363 0 .851-.851 1.318-1.98 1.318-3.182s-.468-2.332-1.318-3.182v-.001c-.876-.876-2.028-1.314-3.181-1.314z" fill="#00eca2"/><path d="m437.003 364.222c-3.713.001-7.426-1.413-10.253-4.24-2.739-2.738-4.247-6.38-4.247-10.253s1.508-7.515 4.248-10.254c5.652-5.653 14.851-5.653 20.505.001l-.001-.001c.001.001.001.001.001.001 2.739 2.738 4.247 6.38 4.247 10.253s-1.508 7.515-4.248 10.254c-2.826 2.826-6.539 4.239-10.252 4.239zm0-18.991c-1.152 0-2.305.439-3.182 1.315-.851.851-1.318 1.98-1.318 3.183 0 1.202.468 2.332 1.318 3.182 1.755 1.756 4.61 1.755 6.364.001.851-.851 1.318-1.98 1.318-3.183 0-1.202-.468-2.332-1.318-3.182l-.001-.001c-.876-.877-2.029-1.315-3.181-1.315z" fill="#ff7eb8"/></g><circle cx="354.865" cy="402.998" fill="url(#SVGID_2_)" r="53.269"/><circle cx="172.252" cy="85.009" fill="url(#SVGID_3_)" r="53.269"/></g></svg>