<svg id="Capa_1" enable-background="new 0 0 512 512" height="512" viewBox="0 0 512 512" width="512" xmlns="http://www.w3.org/2000/svg" xmlns:xlink="http://www.w3.org/1999/xlink"><linearGradient id="SVGID_1_" gradientUnits="userSpaceOnUse" x1="434.539" x2="217.539" y1="47.347" y2="295.347"><stop offset="0" stop-color="#c6d1ff"/><stop offset=".5834" stop-color="#e6d5f4"/><stop offset=".997" stop-color="#ffd9ec"/></linearGradient><linearGradient id="lg1"><stop offset=".0028" stop-color="#ff7eb8" stop-opacity="0"/><stop offset="1" stop-color="#ff7eb8" stop-opacity=".6"/></linearGradient><linearGradient id="SVGID_2_" gradientUnits="userSpaceOnUse" x1="256" x2="256" xlink:href="#lg1" y1="278.836" y2="406.295"/><linearGradient id="SVGID_3_" gradientUnits="userSpaceOnUse" x1="256" x2="256" xlink:href="#lg1" y1="382.993" y2="463.591"/><g><g><path d="m38.145 134.71c19.974-57.707 57.562-157.818 137.712-129.893 31.204 10.872 41.003 52.164 72.37 57.311 29.626 4.861 54.704-24.255 82.89-29.776 35.014-6.859 72.067 2.317 85.37 36.48 15.916 40.874-30.997 86.737-19.655 124.062 18.708 61.564 87.863-40.471 100.229 58.88 17.304 139.025-136.801 386.519-240.619 182.998-52.643-103.199-107.815-30.825-189.876-82.161-77.922-48.747-53.805-144.567-28.421-217.901z" fill="url(#SVGID_1_)"/></g><g><g><g><g><path d="m393.151 114.94v12.454c0 1.754-.919 3.38-2.422 4.284l-63.968 38.502h-31.69l24.43-14.706c5.295-3.188 3.035-11.324-3.145-11.324h-25.485c-2.761 0-5 2.239-5 5v21.03h-59.34v-21.03c0-2.761-2.239-5-5-5h-25.484c-6.181 0-8.441 8.136-3.145 11.324l24.43 14.706h-31.69l-63.968-38.502c-1.503-.904-2.421-2.53-2.421-4.284v-12.454c0-2.761 2.238-5 5-5h263.9c2.76 0 4.998 2.238 4.998 5z" fill="#d2deff"/><path d="m198.14 109.94c-.8 21.44-13.61 39.8-31.89 48.57l-44.58-26.83c-1.5-.91-2.42-2.53-2.42-4.29v-12.45c0-2.76 2.24-5 5-5z" fill="#b7c5ff"/><g><g><g><path d="m121.292 271.839h35.013v35.853h-35.013z" fill="#ff7eb8"/><path d="m131.983 281.637h13.631v16.257h-13.631z" fill="#ff5ba8"/></g><g><g><g><path d="m226.332 235.984h35.013v35.853h-35.013z" fill="#ff7eb8"/><path d="m237.023 245.782h13.631v16.257h-13.631z" fill="#ff5ba8"/></g><g><path d="m191.319 235.984h35.013v35.853h-35.013z" fill="#97ffd2"/><path d="m202.01 245.782h13.631v16.257h-13.631z" fill="#01eca5"/></g><g><path d="m156.305 235.984h35.013v35.853h-35.013z" fill="#ff7eb8"/><path d="m166.996 245.782h13.631v16.257h-13.631z" fill="#ff5ba8"/></g><g><path d="m121.292 235.984h35.013v35.853h-35.013z" fill="#8399fe"/><path d="m131.983 245.782h13.631v16.257h-13.631z" fill="#6583fe"/></g></g></g><g><g><g><path d="m121.292 200.13h35.013v35.853h-35.013z" fill="#ff7eb8"/><path d="m131.983 209.928h13.631v16.257h-13.631z" fill="#ff5ba8"/></g><g><path d="m156.305 200.13h35.013v35.853h-35.013z" fill="#97ffd2"/><path d="m166.996 209.928h13.631v16.257h-13.631z" fill="#01eca5"/></g><g><path d="m191.319 200.13h35.013v35.853h-35.013z" fill="#ff7eb8"/><path d="m202.01 209.928h13.631v16.257h-13.631z" fill="#ff5ba8"/></g><g><path d="m226.332 200.13h35.013v35.853h-35.013z" fill="#8399fe"/><path d="m237.023 209.928h13.631v16.257h-13.631z" fill="#6583fe"/></g></g></g><g><g><g><path d="m226.332 164.275h35.013v35.853h-35.013z" fill="#ff7eb8"/><path d="m237.023 174.073h13.631v16.257h-13.631z" fill="#ff5ba8"/></g><g><path d="m191.319 164.275h35.013v35.853h-35.013z" fill="#97ffd2"/><path d="m202.01 174.073h13.631v16.257h-13.631z" fill="#01eca5"/></g><g><path d="m156.305 164.275h35.013v35.853h-35.013z" fill="#ff7eb8"/><path d="m166.996 174.073h13.631v16.257h-13.631z" fill="#ff5ba8"/></g><g><path d="m121.292 164.275h35.013v35.853h-35.013z" fill="#8399fe"/><path d="m131.983 174.073h13.631v16.257h-13.631z" fill="#6583fe"/></g></g></g></g><g><g><path d="m355.695 271.839h35.013v35.853h-35.013z" fill="#8399fe"/><path d="m366.386 281.637h13.631v16.257h-13.631z" fill="#6583fe"/></g><g><g><g><path d="m355.695 235.984h35.013v35.853h-35.013z" fill="#ff7eb8"/><path d="m366.386 245.782h13.631v16.257h-13.631z" fill="#ff5ba8"/></g><g><path d="m320.681 235.984h35.013v35.853h-35.013z" fill="#97ffd2"/><path d="m331.372 245.782h13.631v16.257h-13.631z" fill="#01eca5"/></g><g><path d="m285.668 235.984h35.013v35.853h-35.013z" fill="#ff7eb8"/><path d="m296.359 245.782h13.631v16.257h-13.631z" fill="#ff5ba8"/></g><g><path d="m250.654 235.984h35.013v35.853h-35.013z" fill="#8399fe"/><path d="m261.345 245.782h13.631v16.257h-13.631z" fill="#6583fe"/></g></g></g><g><g><g><path d="m250.654 200.13h35.013v35.853h-35.013z" fill="#ff7eb8"/><path d="m261.345 209.928h13.631v16.257h-13.631z" fill="#ff5ba8"/></g><g><path d="m285.668 200.13h35.013v35.853h-35.013z" fill="#97ffd2"/><path d="m296.359 209.928h13.631v16.257h-13.631z" fill="#01eca5"/></g><g><path d="m320.681 200.13h35.013v35.853h-35.013z" fill="#ff7eb8"/><path d="m331.372 209.928h13.631v16.257h-13.631z" fill="#ff5ba8"/></g><g><path d="m355.695 200.13h35.013v35.853h-35.013z" fill="#8399fe"/><path d="m366.386 209.928h13.631v16.257h-13.631z" fill="#6583fe"/></g></g></g><g><g><g><path d="m355.695 164.275h35.013v35.853h-35.013z" fill="#ff7eb8"/><path d="m366.386 174.073h13.631v16.257h-13.631z" fill="#ff5ba8"/></g><g><path d="m320.681 164.275h35.013v35.853h-35.013z" fill="#97ffd2"/><path d="m331.372 174.073h13.631v16.257h-13.631z" fill="#01eca5"/></g><g><path d="m285.668 164.275h35.013v35.853h-35.013z" fill="#ff7eb8"/><path d="m296.359 174.073h13.631v16.257h-13.631z" fill="#ff5ba8"/></g><g><path d="m250.654 164.275h35.013v35.853h-35.013z" fill="#8399fe"/><path d="m261.345 174.073h13.631v16.257h-13.631z" fill="#6583fe"/></g></g></g></g></g><path d="m366.654 306.348h-221.308l8.325-39.429c.976-4.625 5.058-7.934 9.784-7.934h185.09c4.727 0 8.808 3.309 9.784 7.934z" fill="#b7c5ff"/><g fill="#8399fe"><ellipse cx="195.074" cy="288.217" rx="13.131" ry="13.131" transform="matrix(.23 -.973 .973 .23 -130.252 411.855)"/><ellipse cx="316.926" cy="288.217" rx="13.131" ry="13.131" transform="matrix(.707 -.707 .707 .707 -110.975 308.517)"/></g><path d="m265.423 282.666h-18.846v-120.486c0-5.204 4.219-9.423 9.423-9.423 5.204 0 9.423 4.219 9.423 9.423z" fill="#fff"/><path d="m360.912 406.295h-209.824c-26.061 0-47.188-21.127-47.188-47.188v-42.051c0-4.777 3.378-8.887 8.065-9.811l144.035-28.409 144.035 28.409c4.686.924 8.065 5.034 8.065 9.811v42.051c0 26.061-21.127 47.188-47.188 47.188z" fill="#d2deff"/><path d="m256 278.836 144.035 28.409c4.686.924 8.065 5.034 8.065 9.811v42.051c0 26.061-21.127 47.188-47.188 47.188h-104.912z" fill="#b7c5ff"/><path d="m408.1 317.06v15.49l-152.1-30-152.1 30v-15.49c0-4.777 3.378-8.887 8.065-9.811l144.035-28.409 144.035 28.409c4.687.924 8.065 5.034 8.065 9.811z" fill="#fff"/><path d="m256 278.84 144.035 28.409c4.686.924 8.065 5.034 8.065 9.811v15.49l-152.1-30z" fill="#d2deff"/><path d="m360.912 406.295h-209.824c-26.061 0-47.188-21.127-47.188-47.188h304.2c0 26.061-21.127 47.188-47.188 47.188z" fill="#ff5ba8"/><path d="m408.1 359.11c0 13.03-5.28 24.83-13.82 33.36-8.54 8.54-20.34 13.82-33.37 13.82h-104.91v-47.18z" fill="#fe2c8f"/><g><g><g><path d="m174.49 130.45h-6.816c-2.762 0-5-2.238-5-5s2.238-5 5-5h6.816c2.762 0 5 2.238 5 5s-2.239 5-5 5z" fill="#8399fe"/></g><g><path d="m217.013 130.45h-6.816c-2.762 0-5-2.238-5-5s2.238-5 5-5h6.816c2.762 0 5 2.238 5 5s-2.238 5-5 5z" fill="#8399fe"/></g><g><path d="m242.254 130.45h-6.816c-2.762 0-5-2.238-5-5s2.238-5 5-5h6.816c2.762 0 5 2.238 5 5s-2.238 5-5 5z" fill="#8399fe"/></g></g><g><g><path d="m337.51 130.45h6.816c2.762 0 5-2.238 5-5s-2.238-5-5-5h-6.816c-2.762 0-5 2.238-5 5s2.239 5 5 5z" fill="#8399fe"/></g><g><path d="m294.987 130.45h6.816c2.762 0 5-2.238 5-5s-2.238-5-5-5h-6.816c-2.762 0-5 2.238-5 5s2.238 5 5 5z" fill="#8399fe"/></g><g><path d="m269.746 130.45h6.816c2.762 0 5-2.238 5-5s-2.238-5-5-5h-6.816c-2.762 0-5 2.238-5 5s2.238 5 5 5z" fill="#8399fe"/></g></g></g><path d="m320.682 109.94h-129.364v-21.921h68.782l6.246 2.612 6.245-2.612h8.65l8.746 3.078 8.745-3.078h21.95z" fill="#ff5ba8"/><path d="m281.241 88.019h17.491v21.921h-17.491z" fill="#ffc4df"/><path d="m260.1 88.019h12.491v21.921h-12.491z" fill="#ffc4df"/><path d="m360.912 406.295h-209.824c-26.061 0-47.188-21.127-47.188-47.188v-42.051c0-4.777 3.378-8.887 8.065-9.811l144.035-28.409 144.035 28.409c4.686.924 8.065 5.034 8.065 9.811v42.051c0 26.061-21.127 47.188-47.188 47.188z" fill="url(#SVGID_2_)"/><g><path d="m481.549 395.866v56.469c0 6.216-5.039 11.255-11.256 11.255h-428.587c-6.216 0-11.256-5.039-11.256-11.255v-56.469l51.145-12.257c3.455-.822 7.046-.822 10.49 0l45.911 10.996c3.444.822 7.035.822 10.479 0l45.9-10.996c3.444-.822 7.046-.822 10.49 0l45.9 10.996c3.444.822 7.035.822 10.49 0l45.889-10.996c3.456-.822 7.046-.822 10.49 0l45.9 10.996c3.444.822 7.035.822 10.49 0l45.9-10.996c3.444-.822 7.035-.822 10.479 0z" fill="#9fb0fe"/><g><path d="m481.549 411.872v11.413c-.439 0-.867-.045-1.306-.147l-51.145-12.257c-2.578-.608-5.29-.608-7.868 0l-45.9 10.997c-4.288 1.024-8.813 1.024-13.101 0l-45.9-10.997c-2.577-.608-5.29-.608-7.868 0l-45.9 10.997c-4.288 1.024-8.813 1.024-13.101 0l-45.911-10.997c-2.566-.608-5.29-.608-7.856 0l-45.9 10.997c-4.288 1.024-8.824 1.024-13.113 0l-45.9-10.997c-2.578-.608-5.301-.608-7.868 0l-51.156 12.257c-.439.101-.878.158-1.306.158v-11.424l49.839-11.931c4.288-1.024 8.824-1.024 13.101 0l45.911 10.997c2.577.608 5.29.608 7.868 0l45.9-10.997c4.288-1.024 8.813-1.024 13.101 0l45.9 10.997c2.578.608 5.301.608 7.868 0l45.9-10.997c4.288-1.024 8.824-1.024 13.113 0l45.9 10.997c2.566.608 5.29.608 7.856 0l45.9-10.997c4.288-1.024 8.824-1.024 13.113 0z" fill="#b7c5ff"/></g></g></g><g><path d="m216.399 330.962-13.751 2.5v-13.751l13.751-2.5z" fill="#9fb0fe"/><path d="m295.601 330.962 13.751 2.5v-13.751l-13.751-2.5z" fill="#8399fe"/></g></g><g><circle cx="141.983" cy="88.16" fill="#01eca5" r="56.202"/><g><path d="m165.679 77.165c0-13.31-10.973-24.056-24.367-23.686-12.734.352-22.973 10.851-23.025 23.589-.02 5.045 1.537 9.725 4.205 13.576 3.078 4.442 5.771 9.138 8.001 14.06l9.772 21.565c.669 1.476 2.765 1.476 3.434 0l9.846-21.729c2.221-4.902 4.946-9.55 7.99-13.988 2.614-3.81 4.144-8.42 4.144-13.387z" fill="#ff7eb8"/><circle cx="141.9" cy="77.34" fill="#fff" r="13.69"/></g></g></g><path d="m72.619 289.587c-3.873 0-7.515-1.509-10.254-4.248-5.653-5.653-5.653-14.852.001-20.505 5.652-5.654 14.854-5.654 20.506 0 5.654 5.653 5.654 14.852 0 20.505-2.738 2.739-6.38 4.248-10.253 4.248zm0-18.998c-1.152 0-2.305.438-3.183 1.315-1.754 1.755-1.754 4.609 0 6.364.851.851 1.98 1.318 3.183 1.318 1.202 0 2.332-.468 3.182-1.318 1.755-1.755 1.755-4.609.001-6.364-.878-.877-2.031-1.315-3.183-1.315z" fill="#ff7eb8"/><path d="m427.1 201.685c-3.713 0-7.426-1.413-10.252-4.24-2.739-2.738-4.248-6.379-4.248-10.253 0-3.873 1.509-7.514 4.248-10.253 5.653-5.655 14.854-5.653 20.505 0 5.653 5.654 5.653 14.854 0 20.506-2.827 2.827-6.539 4.24-10.253 4.24zm.001-18.991c-1.152 0-2.305.439-3.183 1.316-.85.851-1.318 1.981-1.318 3.183s.468 2.332 1.318 3.182c1.754 1.756 4.608 1.755 6.364.001 1.754-1.755 1.754-4.61-.001-6.365-.877-.878-2.029-1.317-3.18-1.317z" fill="#6583fe"/><path d="m452.068 350.935c-1.279 0-2.56-.488-3.535-1.465l-5.965-5.964-5.965 5.964c-1.951 1.953-5.119 1.953-7.07 0-1.953-1.952-1.953-5.118 0-7.07l9.5-9.5c1.951-1.953 5.119-1.953 7.07 0l9.5 9.5c1.953 1.952 1.953 5.118 0 7.07-.975.977-2.255 1.465-3.535 1.465z" fill="#ff7eb8"/><path d="m90.281 239.031c-1.279 0-2.56-.488-3.535-1.465l-5.965-5.964-5.965 5.964c-1.951 1.953-5.119 1.953-7.07 0-1.953-1.952-1.953-5.118 0-7.07l9.5-9.5c1.951-1.953 5.119-1.953 7.07 0l9.5 9.5c1.953 1.952 1.953 5.118 0 7.07-.975.977-2.256 1.465-3.535 1.465z" fill="#6583fe"/><path d="m436.6 151.107c-1.279 0-2.56-.488-3.535-1.465l-5.965-5.964-5.965 5.964c-1.951 1.953-5.119 1.953-7.07 0-1.953-1.952-1.953-5.118 0-7.07l9.5-9.5c1.951-1.953 5.119-1.953 7.07 0l9.5 9.5c1.953 1.952 1.953 5.118 0 7.07-.976.977-2.256 1.465-3.535 1.465z" fill="#00eca2"/></g><g fill="#2d58e0"><path d="m261.201 88.019v-23.77c0-2.762-2.238-5-5-5s-5 2.238-5 5v23.77z"/><path d="m278.153 88.019v-23.77c0-2.762-2.238-5-5-5s-5 2.238-5 5v23.77z"/><path d="m303.83 88.019v-16.522c0-2.762-2.238-5-5-5s-5 2.238-5 5v16.522z"/><path d="m240.398 88.019v-51.314c0-2.762-2.238-5-5-5s-5 2.238-5 5v51.314z"/><path d="m223.17 88.019v-23.77c0-2.762-2.238-5-5-5s-5 2.238-5 5v23.77z"/></g><path d="m481.549 395.866v56.469c0 6.216-5.039 11.255-11.256 11.255h-428.587c-6.216 0-11.256-5.039-11.256-11.255v-56.469l51.145-12.257c3.455-.822 7.046-.822 10.49 0l45.911 10.996c3.444.822 7.035.822 10.479 0l45.9-10.996c3.444-.822 7.046-.822 10.49 0l45.9 10.996c3.444.822 7.035.822 10.49 0l45.889-10.996c3.456-.822 7.046-.822 10.49 0l45.9 10.996c3.444.822 7.035.822 10.49 0l45.9-10.996c3.444-.822 7.035-.822 10.479 0z" fill="url(#SVGID_3_)"/></g></svg>