<svg id="Capa_1" enable-background="new 0 0 512 512" height="512" viewBox="0 0 512 512" width="512" xmlns="http://www.w3.org/2000/svg" xmlns:xlink="http://www.w3.org/1999/xlink"><linearGradient id="SVGID_1_" gradientUnits="userSpaceOnUse" x1="125.669" x2="334.669" y1="420.174" y2="150.174"><stop offset=".0112" stop-color="#dafced"/><stop offset=".3814" stop-color="#e7f0ed"/><stop offset="1" stop-color="#ffd9ec"/></linearGradient><linearGradient id="SVGID_2_" gradientUnits="userSpaceOnUse" x1="256" x2="256" y1="83.29" y2="438.71"><stop offset=".0028" stop-color="#ff7eb8" stop-opacity="0"/><stop offset="1" stop-color="#ff7eb8" stop-opacity=".6"/></linearGradient><g><g><path d="m38.145 134.71c19.974-57.707 57.562-157.818 137.712-129.893 31.204 10.872 41.003 52.164 72.37 57.311 29.626 4.861 54.704-24.255 82.89-29.777 35.014-6.859 72.067 2.317 85.37 36.48 15.916 40.874-30.997 86.737-19.655 124.061 18.708 61.564 87.863-40.471 100.228 58.88 17.304 139.025-136.801 386.519-240.619 182.998-52.643-103.199-107.816-30.825-189.876-82.161-77.92-48.745-53.804-144.565-28.42-217.899z" fill="url(#SVGID_1_)"/></g><g><g><path d="m433.71 93.29v335.42c0 5.53-4.47 10-10 10h-335.42c-5.53 0-10-4.47-10-10v-335.42c0-5.53 4.47-10 10-10h335.42c5.53 0 10 4.47 10 10z" fill="#ff7eb8"/><path d="m433.71 93.29v116.87c-8.92 4.01-18.82 6.24-29.24 6.24-39.5 0-71.52-32.02-71.52-71.51 0-26.22 14.11-49.15 35.16-61.6h55.6c5.53 0 10 4.47 10 10z" fill="#ff5ba8"/><path d="m78.29 107.37h355.42v13.77h-355.42z" fill="#ff5ba8"/><path d="m290.263 201.303h-61.517c-2.761 0-5-2.239-5-5v-113.016h71.517v113.016c0 2.761-2.238 5-5 5z" fill="#ffc4df"/><path d="m250.62 83.29h17.76v118.01h-17.76z" fill="#ffa8cf"/><g fill="#8399fe"><path d="m399.471 374.296h-58.617c-2.762 0-5-2.238-5-5v-15.127c0-2.761 2.238-5 5-5h58.617c2.761 0 5 2.239 5 5v15.127c0 2.761-2.239 5-5 5z"/><path d="m399.471 408.535h-58.617c-2.762 0-5-2.238-5-5v-15.127c0-2.761 2.238-5 5-5h58.617c2.761 0 5 2.239 5 5v15.127c0 2.761-2.239 5-5 5z"/></g><g fill="#fe2c8f"><path d="m210.703 373.406c-2.108-9.745-9.916-17.188-19.428-19.158-.025-2.74-2.25-4.955-4.995-4.955-2.746 0-4.97 2.215-4.995 4.955-9.512 1.969-17.319 9.412-19.428 19.157-.32 1.477.046 3.02.995 4.197.949 1.176 2.38 1.86 3.892 1.86h14.537v16.286c0 .462-.376.838-.838.838s-.839-.376-.839-.838c0-2.761-2.239-5-5-5s-5 2.239-5 5c0 5.976 4.862 10.838 10.839 10.838 5.976 0 10.838-4.862 10.838-10.838v-16.286h14.537c1.512 0 2.942-.684 3.892-1.86.947-1.176 1.313-2.718.993-4.196zm-36.209-3.943c2.782-3.522 7.094-5.747 11.785-5.747s9.003 2.225 11.786 5.747z"/><path d="m139.228 350.056h-22.849c-2.761 0-5 2.239-5 5v10.527c0 7.313 4.806 13.519 11.424 15.64v15.365h-2.313c-2.761 0-5 2.239-5 5s2.239 5 5 5h14.626c2.761 0 5-2.239 5-5s-2.239-5-5-5h-2.313v-15.365c6.618-2.121 11.424-8.328 11.424-15.64v-10.527c.001-2.762-2.238-5-4.999-5zm-5 15.526c0 3.542-2.882 6.424-6.424 6.424s-6.424-2.882-6.424-6.424v-5.527h12.849v5.527z"/><path d="m117.496 291.154v21.304c0 2.761 2.239 5 5 5s5-2.239 5-5v-21.304c.531.184 1.083.294 1.639.294 1.28 0 2.56-.488 3.536-1.464 1.953-1.953 1.953-5.119 0-7.071l-6.639-6.639c-1.878-1.922-5.193-1.922-7.071 0l-6.639 6.639c-1.953 1.953-1.953 5.119 0 7.071 1.4 1.4 3.42 1.779 5.174 1.17z"/><path d="m147.737 291.154v21.304c0 2.761 2.239 5 5 5s5-2.239 5-5v-21.304c.531.184 1.083.294 1.639.294 1.28 0 2.56-.488 3.536-1.464 1.953-1.953 1.953-5.119-.001-7.071l-6.638-6.638c-1.874-1.926-5.196-1.921-7.072-.001l-6.639 6.639c-1.953 1.953-1.953 5.119 0 7.071 1.402 1.4 3.422 1.779 5.175 1.17z"/><path d="m164.376 327.104c0-2.761-2.239-5-5-5h-42.542c-2.761 0-5 2.239-5 5s2.239 5 5 5h42.542c2.762 0 5-2.239 5-5z"/></g><path d="m399.471 326.85h-32.04c-2.761 0-5-2.238-5-5v-32.04c0-2.762 2.239-5 5-5h32.04c2.761 0 5 2.238 5 5v32.04c0 2.762-2.239 5-5 5z" fill="#ffc4df"/><path d="m433.71 93.29v335.42c0 5.53-4.47 10-10 10h-335.42c-5.53 0-10-4.47-10-10v-335.42c0-5.53 4.47-10 10-10h335.42c5.53 0 10 4.47 10 10z" fill="url(#SVGID_2_)"/><g><ellipse cx="404.471" cy="121.14" fill="#02ffb3" rx="71.517" ry="71.517" transform="matrix(.707 -.707 .707 .707 32.808 321.485)"/></g><g><path d="m395.228 156.493c-.219 0-.438-.009-.657-.029-2.818-.247-5.258-2.059-6.309-4.686l-8.117-20.294c-.164-.412-.558-.678-1.001-.678-4.143 0-7.5-3.358-7.5-7.5s3.357-7.5 7.5-7.5c6.612 0 12.473 3.967 14.929 10.107l2.606 6.516 26.748-43.098c2.185-3.52 6.809-4.601 10.327-2.417 3.52 2.184 4.602 6.808 2.417 10.328l-34.573 55.706c-1.375 2.217-3.793 3.545-6.37 3.545z" fill="#fff"/></g></g><path d="m324.49 46.902c-3.713 0-7.426-1.414-10.253-4.24-5.653-5.654-5.653-14.853 0-20.506 5.653-5.654 14.853-5.653 20.506 0 5.653 5.654 5.653 14.853 0 20.506-2.826 2.827-6.54 4.24-10.253 4.24zm0-18.991c-1.153 0-2.305.438-3.182 1.316-1.755 1.754-1.755 4.609 0 6.364 1.753 1.754 4.609 1.755 6.364 0 1.755-1.754 1.755-4.609 0-6.364-.877-.877-2.029-1.316-3.182-1.316z" fill="#6583fe"/><path d="m466.488 238.764c-3.874 0-7.515-1.508-10.253-4.248-5.653-5.653-5.653-14.852 0-20.505 5.654-5.654 14.853-5.654 20.506 0 5.653 5.654 5.653 14.853 0 20.506-2.739 2.738-6.38 4.247-10.253 4.247zm-.001-18.998c-1.152 0-2.305.438-3.182 1.316-1.754 1.754-1.754 4.609 0 6.364.85.851 1.98 1.318 3.182 1.318s2.332-.468 3.182-1.318c1.754-1.755 1.754-4.61 0-6.365-.877-.877-2.029-1.315-3.182-1.315z" fill="#00eca2"/><path d="m54.602 234.014c-1.28 0-2.559-.488-3.536-1.464l-5.964-5.964-5.964 5.964c-1.953 1.952-5.118 1.952-7.071 0-1.953-1.953-1.953-5.119 0-7.071l9.5-9.5c1.953-1.952 5.118-1.952 7.071 0l9.5 9.5c1.953 1.953 1.953 5.119 0 7.071-.977.975-2.256 1.464-3.536 1.464z" fill="#ff7eb8"/><path d="m272.455 55.054c-1.28 0-2.559-.488-3.536-1.464l-5.964-5.964-5.964 5.964c-1.953 1.952-5.118 1.952-7.071 0-1.953-1.953-1.953-5.119 0-7.071l9.5-9.5c1.953-1.952 5.118-1.952 7.071 0l9.5 9.5c1.953 1.953 1.953 5.119 0 7.071-.977.975-2.257 1.464-3.536 1.464z" fill="#00eca2"/><path d="m341.871 478.46c-1.28 0-2.559-.488-3.536-1.464l-5.964-5.964-5.964 5.964c-1.953 1.952-5.118 1.952-7.071 0-1.953-1.953-1.953-5.119 0-7.071l9.5-9.5c1.953-1.952 5.118-1.952 7.071 0l9.5 9.5c1.953 1.953 1.953 5.119 0 7.071-.977.976-2.256 1.464-3.536 1.464z" fill="#6583fe"/></g></g></svg>